<svg version="1.1" viewBox="0.0 0.0 906.6981627296587 257.54068241469815" fill="none" stroke="none" stroke-linecap="square" stroke-miterlimit="10" xmlns:xlink="http://www.w3.org/1999/xlink" xmlns="http://www.w3.org/2000/svg"><clipPath id="p.0"><path d="m0 0l906.6982 0l0 257.54068l-906.6982 0l0 -257.54068z" clip-rule="nonzero"/></clipPath><g clip-path="url(#p.0)"><path fill="#000000" fill-opacity="0.0" d="m0 0l906.6982 0l0 257.54068l-906.6982 0z" fill-rule="evenodd"/><path fill="#000000" fill-opacity="0.0" d="m96.614174 118.53937l720.75586 0" fill-rule="evenodd"/><path stroke="#999999" stroke-width="12.0" stroke-linejoin="round" stroke-linecap="butt" d="m96.614174 118.53937l720.75586 0" fill-rule="evenodd"/><path fill="#000000" fill-opacity="0.0" d="m7.4881887 20.505249l175.9685 0l0 38.771652l-175.9685 0z" fill-rule="evenodd"/><path fill="#000000" d="m48.831818 41.318375l-4.109375 0l-0.71875 1.671875q-0.265625 0.609375 -0.265625 0.921875q0 0.234375 0.234375 0.421875q0.234375 0.1875 1.0 0.234375l0 0.296875l-3.34375 0l0 -0.296875q0.671875 -0.109375 0.859375 -0.296875q0.40625 -0.375 0.890625 -1.53125l3.71875 -8.71875l0.28125 0l3.6875 8.8125q0.4375 1.0625 0.796875 1.390625q0.375 0.3125 1.015625 0.34375l0 0.296875l-4.171875 0l0 -0.296875q0.625 -0.03125 0.84375 -0.203125q0.234375 -0.1875 0.234375 -0.4375q0 -0.34375 -0.3125 -1.09375l-0.640625 -1.515625zm-0.21875 -0.578125l-1.796875 -4.28125l-1.84375 4.28125l3.640625 0zm7.4140625 -6.984375l0 9.484375q0 0.671875 0.09375 0.890625q0.09375 0.21875 0.296875 0.34375q0.203125 0.109375 0.765625 0.109375l0 0.28125l-3.515625 0l0 -0.28125q0.5 0 0.671875 -0.09375q0.1875 -0.109375 0.28125 -0.34375q0.109375 -0.234375 0.109375 -0.90625l0 -6.5q0 -1.203125 -0.0625 -1.484375q-0.046875 -0.28125 -0.171875 -0.375q-0.125 -0.109375 -0.3125 -0.109375q-0.203125 0 -0.515625 0.125l-0.125 -0.265625l2.125 -0.875l0.359375 0zm6.0390625 10.078125q-1.109375 0.84375 -1.390625 0.984375q-0.421875 0.203125 -0.890625 0.203125q-0.75 0 -1.234375 -0.515625q-0.46875 -0.515625 -0.46875 -1.34375q0 -0.515625 0.234375 -0.90625q0.3125 -0.53125 1.109375 -1.0q0.796875 -0.46875 2.640625 -1.140625l0 -0.28125q0 -1.0625 -0.34375 -1.453125q-0.34375 -0.40625 -0.984375 -0.40625q-0.5 0 -0.78125 0.265625q-0.296875 0.265625 -0.296875 0.609375l0.015625 0.453125q0 0.359375 -0.1875 0.5625q-0.1875 0.1875 -0.484375 0.1875q-0.28125 0 -0.46875 -0.203125q-0.1875 -0.203125 -0.1875 -0.5625q0 -0.671875 0.6875 -1.234375q0.6875 -0.5625 1.9375 -0.5625q0.953125 0 1.5625 0.328125q0.453125 0.234375 0.671875 0.75q0.140625 0.34375 0.140625 1.375l0 2.4375q0 1.015625 0.03125 1.25q0.046875 0.234375 0.140625 0.3125q0.09375 0.078125 0.203125 0.078125q0.125 0 0.21875 -0.0625q0.171875 -0.09375 0.640625 -0.5625l0 0.4375q-0.875 1.171875 -1.671875 1.171875q-0.390625 0 -0.625 -0.265625q-0.21875 -0.265625 -0.21875 -0.90625zm0 -0.515625l0 -2.71875q-1.1875 0.46875 -1.53125 0.65625q-0.609375 0.34375 -0.875 0.71875q-0.265625 0.375 -0.265625 0.828125q0 0.5625 0.328125 0.9375q0.34375 0.359375 0.78125 0.359375q0.59375 0 1.5625 -0.78125zm5.1328125 -4.3125q1.25 -1.515625 2.390625 -1.515625q0.59375 0 1.015625 0.296875q0.421875 0.296875 0.671875 0.96875q0.171875 0.46875 0.171875 1.4375l0 3.046875q0 0.6875 0.109375 0.921875q0.078125 0.203125 0.265625 0.3125q0.203125 0.109375 0.71875 0.109375l0 0.28125l-3.546875 0l0 -0.28125l0.15625 0q0.5 0 0.6875 -0.15625q0.203125 -0.15625 0.28125 -0.453125q0.03125 -0.109375 0.03125 -0.734375l0 -2.921875q0 -0.984375 -0.25 -1.421875q-0.25 -0.4375 -0.859375 -0.4375q-0.921875 0 -1.84375 1.015625l0 3.765625q0 0.734375 0.078125 0.90625q0.109375 0.21875 0.296875 0.328125q0.203125 0.109375 0.78125 0.109375l0 0.28125l-3.53125 0l0 -0.28125l0.15625 0q0.546875 0 0.734375 -0.28125q0.1875 -0.28125 0.1875 -1.0625l0 -2.65625q0 -1.28125 -0.0625 -1.5625q-0.046875 -0.28125 -0.171875 -0.375q-0.125 -0.109375 -0.328125 -0.109375q-0.21875 0 -0.515625 0.109375l-0.125 -0.28125l2.15625 -0.875l0.34375 0l0 1.515625zm18.382812 -4.734375l0.109375 2.484375l-0.296875 0q-0.078125 -0.65625 -0.234375 -0.9375q-0.234375 -0.453125 -0.640625 -0.671875q-0.40625 -0.21875 -1.0625 -0.21875l-1.484375 0l0 8.09375q0 0.984375 0.203125 1.21875q0.296875 0.328125 0.921875 0.328125l0.359375 0l0 0.296875l-4.484375 0l0 -0.296875l0.375 0q0.671875 0 0.953125 -0.40625q0.171875 -0.25 0.171875 -1.140625l0 -8.09375l-1.28125 0q-0.734375 0 -1.046875 0.109375q-0.40625 0.15625 -0.703125 0.578125q-0.28125 0.421875 -0.34375 1.140625l-0.296875 0l0.125 -2.484375l8.65625 0zm6.7265625 3.4375l0 4.328125q0 1.25 0.046875 1.53125q0.0625 0.265625 0.1875 0.375q0.140625 0.109375 0.3125 0.109375q0.234375 0 0.546875 -0.125l0.109375 0.265625l-2.140625 0.890625l-0.359375 0l0 -1.515625q-0.921875 1.0 -1.40625 1.265625q-0.484375 0.25 -1.015625 0.25q-0.609375 0 -1.046875 -0.34375q-0.4375 -0.359375 -0.609375 -0.90625q-0.171875 -0.546875 -0.171875 -1.546875l0 -3.1875q0 -0.515625 -0.109375 -0.703125q-0.109375 -0.203125 -0.328125 -0.296875q-0.21875 -0.109375 -0.78125 -0.109375l0 -0.28125l2.515625 0l0 4.78125q0 1.0 0.34375 1.3125q0.34375 0.3125 0.84375 0.3125q0.328125 0 0.75 -0.203125q0.4375 -0.21875 1.015625 -0.8125l0 -4.046875q0 -0.609375 -0.21875 -0.828125q-0.21875 -0.21875 -0.921875 -0.234375l0 -0.28125l2.4375 0zm3.8125 -0.21875l0 1.609375q0.90625 -1.609375 1.84375 -1.609375q0.4375 0 0.71875 0.265625q0.28125 0.265625 0.28125 0.609375q0 0.296875 -0.203125 0.515625q-0.203125 0.203125 -0.484375 0.203125q-0.28125 0 -0.625 -0.265625q-0.328125 -0.265625 -0.5 -0.265625q-0.140625 0 -0.296875 0.15625q-0.359375 0.3125 -0.734375 1.046875l0 3.4375q0 0.59375 0.15625 0.890625q0.09375 0.21875 0.34375 0.359375q0.265625 0.140625 0.75 0.140625l0 0.28125l-3.65625 0l0 -0.28125q0.546875 0 0.8125 -0.171875q0.1875 -0.125 0.265625 -0.40625q0.046875 -0.125 0.046875 -0.75l0 -2.78125q0 -1.25 -0.0625 -1.484375q-0.046875 -0.234375 -0.1875 -0.34375q-0.125 -0.109375 -0.328125 -0.109375q-0.25 0 -0.546875 0.109375l-0.078125 -0.28125l2.15625 -0.875l0.328125 0zm5.0625 -3.734375q0.328125 0 0.546875 0.234375q0.234375 0.21875 0.234375 0.546875q0 0.328125 -0.234375 0.5625q-0.21875 0.234375 -0.546875 0.234375q-0.328125 0 -0.5625 -0.234375q-0.234375 -0.234375 -0.234375 -0.5625q0 -0.328125 0.21875 -0.546875q0.234375 -0.234375 0.578125 -0.234375zm0.640625 3.734375l0 5.75q0 0.671875 0.09375 0.90625q0.109375 0.21875 0.296875 0.328125q0.1875 0.109375 0.703125 0.109375l0 0.28125l-3.484375 0l0 -0.28125q0.53125 0 0.703125 -0.09375q0.1875 -0.109375 0.28125 -0.34375q0.109375 -0.234375 0.109375 -0.90625l0 -2.75q0 -1.171875 -0.0625 -1.515625q-0.0625 -0.25 -0.1875 -0.34375q-0.109375 -0.09375 -0.3125 -0.09375q-0.21875 0 -0.53125 0.109375l-0.109375 -0.28125l2.15625 -0.875l0.34375 0zm4.0703125 1.515625q1.25 -1.515625 2.390625 -1.515625q0.59375 0 1.015625 0.296875q0.421875 0.296875 0.671875 0.96875q0.171875 0.46875 0.171875 1.4375l0 3.046875q0 0.6875 0.109375 0.921875q0.078125 0.203125 0.265625 0.3125q0.203125 0.109375 0.71875 0.109375l0 0.28125l-3.546875 0l0 -0.28125l0.15625 0q0.5 0 0.6875 -0.15625q0.203125 -0.15625 0.28125 -0.453125q0.03125 -0.109375 0.03125 -0.734375l0 -2.921875q0 -0.984375 -0.25 -1.421875q-0.25 -0.4375 -0.859375 -0.4375q-0.921875 0 -1.84375 1.015625l0 3.765625q0 0.734375 0.078125 0.90625q0.109375 0.21875 0.296875 0.328125q0.203125 0.109375 0.78125 0.109375l0 0.28125l-3.53125 0l0 -0.28125l0.15625 0q0.546875 0 0.734375 -0.28125q0.1875 -0.28125 0.1875 -1.0625l0 -2.65625q0 -1.28125 -0.0625 -1.5625q-0.046875 -0.28125 -0.171875 -0.375q-0.125 -0.109375 -0.328125 -0.109375q-0.21875 0 -0.515625 0.109375l-0.125 -0.28125l2.15625 -0.875l0.34375 0l0 1.515625zm7.828125 3.25q-0.65625 -0.328125 -1.015625 -0.890625q-0.34375 -0.578125 -0.34375 -1.28125q0 -1.0625 0.796875 -1.828125q0.796875 -0.765625 2.046875 -0.765625q1.03125 0 1.78125 0.5l1.515625 0q0.328125 0 0.375 0.03125q0.0625 0.015625 0.09375 0.0625q0.046875 0.0625 0.046875 0.25q0 0.203125 -0.046875 0.28125q-0.015625 0.03125 -0.078125 0.0625q-0.0625 0.015625 -0.390625 0.015625l-0.9375 0q0.4375 0.5625 0.4375 1.4375q0 1.0 -0.765625 1.71875q-0.765625 0.703125 -2.046875 0.703125q-0.53125 0 -1.09375 -0.15625q-0.34375 0.296875 -0.46875 0.53125q-0.109375 0.21875 -0.109375 0.375q0 0.125 0.125 0.25q0.125 0.125 0.5 0.1875q0.21875 0.03125 1.09375 0.046875q1.609375 0.046875 2.09375 0.109375q0.71875 0.109375 1.15625 0.546875q0.4375 0.4375 0.4375 1.078125q0 0.890625 -0.828125 1.65625q-1.21875 1.140625 -3.1875 1.140625q-1.5 0 -2.546875 -0.671875q-0.578125 -0.390625 -0.578125 -0.8125q0 -0.1875 0.078125 -0.375q0.140625 -0.296875 0.546875 -0.8125q0.0625 -0.0625 0.796875 -0.84375q-0.40625 -0.25 -0.578125 -0.4375q-0.15625 -0.1875 -0.15625 -0.4375q0 -0.265625 0.21875 -0.625q0.21875 -0.375 1.03125 -1.046875zm1.359375 -4.390625q-0.578125 0 -0.96875 0.46875q-0.390625 0.453125 -0.390625 1.40625q0 1.234375 0.53125 1.921875q0.40625 0.515625 1.03125 0.515625q0.59375 0 0.96875 -0.4375q0.390625 -0.453125 0.390625 -1.40625q0 -1.25 -0.546875 -1.953125q-0.390625 -0.515625 -1.015625 -0.515625zm-1.4375 7.0q-0.375 0.40625 -0.5625 0.75q-0.1875 0.34375 -0.1875 0.625q0 0.375 0.453125 0.65625q0.78125 0.484375 2.265625 0.484375q1.40625 0 2.0625 -0.5q0.671875 -0.484375 0.671875 -1.046875q0 -0.40625 -0.390625 -0.578125q-0.40625 -0.171875 -1.609375 -0.203125q-1.765625 -0.046875 -2.703125 -0.1875zm18.632812 -10.59375l0.109375 2.484375l-0.296875 0q-0.078125 -0.65625 -0.234375 -0.9375q-0.234375 -0.453125 -0.640625 -0.671875q-0.40625 -0.21875 -1.0625 -0.21875l-1.484375 0l0 8.09375q0 0.984375 0.203125 1.21875q0.296875 0.328125 0.921875 0.328125l0.359375 0l0 0.296875l-4.484375 0l0 -0.296875l0.375 0q0.671875 0 0.953125 -0.40625q0.171875 -0.25 0.171875 -1.140625l0 -8.09375l-1.28125 0q-0.734375 0 -1.046875 0.109375q-0.40625 0.15625 -0.703125 0.578125q-0.28125 0.421875 -0.34375 1.140625l-0.296875 0l0.125 -2.484375l8.65625 0zm1.09375 6.125q0 1.59375 0.78125 2.5q0.78125 0.90625 1.828125 0.90625q0.703125 0 1.21875 -0.375q0.53125 -0.390625 0.875 -1.328125l0.25 0.15625q-0.171875 1.0625 -0.96875 1.953125q-0.78125 0.875 -1.96875 0.875q-1.28125 0 -2.203125 -1.0q-0.921875 -1.015625 -0.921875 -2.703125q0 -1.84375 0.9375 -2.859375q0.953125 -1.03125 2.375 -1.03125q1.203125 0 1.96875 0.796875q0.78125 0.78125 0.78125 2.109375l-4.953125 0zm0 -0.453125l3.3125 0q-0.03125 -0.6875 -0.15625 -0.96875q-0.203125 -0.4375 -0.59375 -0.6875q-0.375 -0.25 -0.796875 -0.25q-0.65625 0 -1.171875 0.515625q-0.5 0.5 -0.59375 1.390625zm10.5234375 -2.453125l0 2.4375l-0.25 0q-0.296875 -1.140625 -0.765625 -1.546875q-0.46875 -0.421875 -1.1875 -0.421875q-0.546875 0 -0.890625 0.296875q-0.328125 0.28125 -0.328125 0.625q0 0.4375 0.25 0.75q0.25 0.328125 0.984375 0.6875l1.140625 0.546875q1.59375 0.78125 1.59375 2.046875q0 0.96875 -0.75 1.578125q-0.734375 0.59375 -1.640625 0.59375q-0.65625 0 -1.5 -0.234375q-0.265625 -0.078125 -0.421875 -0.078125q-0.1875 0 -0.28125 0.203125l-0.265625 0l0 -2.5625l0.265625 0q0.21875 1.09375 0.828125 1.65625q0.625 0.546875 1.390625 0.546875q0.53125 0 0.875 -0.3125q0.34375 -0.3125 0.34375 -0.765625q0 -0.53125 -0.390625 -0.890625q-0.375 -0.375 -1.515625 -0.9375q-1.125 -0.5625 -1.46875 -1.015625q-0.359375 -0.453125 -0.359375 -1.125q0 -0.890625 0.609375 -1.484375q0.609375 -0.59375 1.5625 -0.59375q0.421875 0 1.03125 0.1875q0.390625 0.109375 0.53125 0.109375q0.125 0 0.1875 -0.046875q0.078125 -0.0625 0.171875 -0.25l0.25 0zm3.6796875 -2.140625l0 2.359375l1.671875 0l0 0.546875l-1.671875 0l0 4.640625q0 0.6875 0.203125 0.9375q0.203125 0.234375 0.515625 0.234375q0.25 0 0.484375 -0.15625q0.25 -0.15625 0.390625 -0.46875l0.296875 0q-0.265625 0.765625 -0.765625 1.15625q-0.5 0.390625 -1.03125 0.390625q-0.359375 0 -0.703125 -0.203125q-0.34375 -0.203125 -0.515625 -0.578125q-0.15625 -0.375 -0.15625 -1.140625l0 -4.8125l-1.140625 0l0 -0.265625q0.4375 -0.171875 0.875 -0.578125q0.453125 -0.40625 0.8125 -0.96875q0.171875 -0.296875 0.5 -1.09375l0.234375 0z" fill-rule="nonzero"/><path fill="#000000" fill-opacity="0.0" d="m211.61679 20.505249l175.9685 0l0 38.771652l-175.9685 0z" fill-rule="evenodd"/><path fill="#000000" d="m254.46432 34.849625l0 4.15625l1.921875 0q0.671875 0 0.96875 -0.28125q0.3125 -0.296875 0.421875 -1.171875l0.28125 0l0 3.59375l-0.28125 0q-0.015625 -0.625 -0.171875 -0.90625q-0.140625 -0.296875 -0.421875 -0.4375q-0.265625 -0.140625 -0.796875 -0.140625l-1.921875 0l0 3.328125q0 0.796875 0.09375 1.0625q0.078125 0.1875 0.328125 0.328125q0.34375 0.1875 0.71875 0.1875l0.390625 0l0 0.296875l-4.546875 0l0 -0.296875l0.375 0q0.65625 0 0.953125 -0.375q0.1875 -0.25 0.1875 -1.203125l0 -6.84375q0 -0.8125 -0.109375 -1.0625q-0.078125 -0.203125 -0.3125 -0.34375q-0.34375 -0.1875 -0.71875 -0.1875l-0.375 0l0 -0.28125l7.875 0l0.109375 2.328125l-0.28125 0q-0.203125 -0.75 -0.46875 -1.09375q-0.265625 -0.34375 -0.671875 -0.5q-0.390625 -0.15625 -1.21875 -0.15625l-2.328125 0zm7.9453125 -1.09375q0.328125 0 0.546875 0.234375q0.234375 0.21875 0.234375 0.546875q0 0.328125 -0.234375 0.5625q-0.21875 0.234375 -0.546875 0.234375q-0.328125 0 -0.5625 -0.234375q-0.234375 -0.234375 -0.234375 -0.5625q0 -0.328125 0.21875 -0.546875q0.234375 -0.234375 0.578125 -0.234375zm0.640625 3.734375l0 5.75q0 0.671875 0.09375 0.90625q0.109375 0.21875 0.296875 0.328125q0.1875 0.109375 0.703125 0.109375l0 0.28125l-3.484375 0l0 -0.28125q0.53125 0 0.703125 -0.09375q0.1875 -0.109375 0.28125 -0.34375q0.109375 -0.234375 0.109375 -0.90625l0 -2.75q0 -1.171875 -0.0625 -1.515625q-0.0625 -0.25 -0.1875 -0.34375q-0.109375 -0.09375 -0.3125 -0.09375q-0.21875 0 -0.53125 0.109375l-0.109375 -0.28125l2.15625 -0.875l0.34375 0zm4.0703125 0l0 1.609375q0.90625 -1.609375 1.84375 -1.609375q0.4375 0 0.71875 0.265625q0.28125 0.265625 0.28125 0.609375q0 0.296875 -0.203125 0.515625q-0.203125 0.203125 -0.484375 0.203125q-0.28125 0 -0.625 -0.265625q-0.328125 -0.265625 -0.5 -0.265625q-0.140625 0 -0.296875 0.15625q-0.359375 0.3125 -0.734375 1.046875l0 3.4375q0 0.59375 0.15625 0.890625q0.09375 0.21875 0.34375 0.359375q0.265625 0.140625 0.75 0.140625l0 0.28125l-3.65625 0l0 -0.28125q0.546875 0 0.8125 -0.171875q0.1875 -0.125 0.265625 -0.40625q0.046875 -0.125 0.046875 -0.75l0 -2.78125q0 -1.25 -0.0625 -1.484375q-0.046875 -0.234375 -0.1875 -0.34375q-0.125 -0.109375 -0.328125 -0.109375q-0.25 0 -0.546875 0.109375l-0.078125 -0.28125l2.15625 -0.875l0.328125 0zm7.859375 0l0 2.4375l-0.25 0q-0.296875 -1.140625 -0.765625 -1.546875q-0.46875 -0.421875 -1.1875 -0.421875q-0.546875 0 -0.890625 0.296875q-0.328125 0.28125 -0.328125 0.625q0 0.4375 0.25 0.75q0.25 0.328125 0.984375 0.6875l1.140625 0.546875q1.59375 0.78125 1.59375 2.046875q0 0.96875 -0.75 1.578125q-0.734375 0.59375 -1.640625 0.59375q-0.65625 0 -1.5 -0.234375q-0.265625 -0.078125 -0.421875 -0.078125q-0.1875 0 -0.28125 0.203125l-0.265625 0l0 -2.5625l0.265625 0q0.21875 1.09375 0.828125 1.65625q0.625 0.546875 1.390625 0.546875q0.53125 0 0.875 -0.3125q0.34375 -0.3125 0.34375 -0.765625q0 -0.53125 -0.390625 -0.890625q-0.375 -0.375 -1.515625 -0.9375q-1.125 -0.5625 -1.46875 -1.015625q-0.359375 -0.453125 -0.359375 -1.125q0 -0.890625 0.609375 -1.484375q0.609375 -0.59375 1.5625 -0.59375q0.421875 0 1.03125 0.1875q0.390625 0.109375 0.53125 0.109375q0.125 0 0.1875 -0.046875q0.078125 -0.0625 0.171875 -0.25l0.25 0zm3.6796875 -2.140625l0 2.359375l1.671875 0l0 0.546875l-1.671875 0l0 4.640625q0 0.6875 0.203125 0.9375q0.203125 0.234375 0.515625 0.234375q0.25 0 0.484375 -0.15625q0.25 -0.15625 0.390625 -0.46875l0.296875 0q-0.265625 0.765625 -0.765625 1.15625q-0.5 0.390625 -1.03125 0.390625q-0.359375 0 -0.703125 -0.203125q-0.34375 -0.203125 -0.515625 -0.578125q-0.15625 -0.375 -0.15625 -1.140625l0 -4.8125l-1.140625 0l0 -0.265625q0.4375 -0.171875 0.875 -0.578125q0.453125 -0.40625 0.8125 -0.96875q0.171875 -0.296875 0.5 -1.09375l0.234375 0zm12.3125 5.96875l-4.109375 0l-0.71875 1.671875q-0.265625 0.609375 -0.265625 0.921875q0 0.234375 0.234375 0.421875q0.234375 0.1875 1.0 0.234375l0 0.296875l-3.34375 0l0 -0.296875q0.671875 -0.109375 0.859375 -0.296875q0.40625 -0.375 0.890625 -1.53125l3.71875 -8.71875l0.28125 0l3.6875 8.8125q0.4375 1.0625 0.796875 1.390625q0.375 0.3125 1.015625 0.34375l0 0.296875l-4.171875 0l0 -0.296875q0.625 -0.03125 0.84375 -0.203125q0.234375 -0.1875 0.234375 -0.4375q0 -0.34375 -0.3125 -1.09375l-0.640625 -1.515625zm-0.21875 -0.578125l-1.796875 -4.28125l-1.84375 4.28125l3.640625 0zm9.3828125 3.828125l0 0.296875l-4.53125 0l0 -0.296875l0.375 0q0.65625 0 0.953125 -0.375q0.1875 -0.25 0.1875 -1.203125l0 -6.84375q0 -0.8125 -0.109375 -1.0625q-0.078125 -0.203125 -0.3125 -0.34375q-0.34375 -0.1875 -0.71875 -0.1875l-0.375 0l0 -0.28125l4.53125 0l0 0.28125l-0.375 0q-0.65625 0 -0.953125 0.390625q-0.1875 0.25 -0.1875 1.203125l0 6.84375q0 0.796875 0.09375 1.0625q0.078125 0.1875 0.328125 0.328125q0.34375 0.1875 0.71875 0.1875l0.375 0zm19.085938 -10.296875l0 0.28125q-0.421875 0 -0.6875 0.15625q-0.25 0.140625 -0.484375 0.546875q-0.15625 0.28125 -0.484375 1.3125l-2.953125 8.546875l-0.3125 0l-2.421875 -6.78125l-2.390625 6.78125l-0.28125 0l-3.15625 -8.8125q-0.34375 -0.984375 -0.4375 -1.15625q-0.15625 -0.296875 -0.4375 -0.4375q-0.265625 -0.15625 -0.71875 -0.15625l0 -0.28125l3.921875 0l0 0.28125l-0.1875 0q-0.421875 0 -0.640625 0.1875q-0.21875 0.1875 -0.21875 0.453125q0 0.28125 0.34375 1.265625l2.09375 5.9375l1.75 -5.046875l-0.3125 -0.890625l-0.25 -0.71875q-0.15625 -0.390625 -0.359375 -0.6875q-0.109375 -0.140625 -0.25 -0.25q-0.203125 -0.140625 -0.390625 -0.203125q-0.15625 -0.046875 -0.46875 -0.046875l0 -0.28125l4.125 0l0 0.28125l-0.28125 0q-0.4375 0 -0.640625 0.1875q-0.203125 0.1875 -0.203125 0.515625q0 0.390625 0.34375 1.390625l2.03125 5.75l2.015625 -5.828125q0.34375 -0.96875 0.34375 -1.34375q0 -0.1875 -0.109375 -0.34375q-0.109375 -0.15625 -0.28125 -0.21875q-0.296875 -0.109375 -0.78125 -0.109375l0 -0.28125l3.171875 0zm1.8046875 -0.515625q0.328125 0 0.546875 0.234375q0.234375 0.21875 0.234375 0.546875q0 0.328125 -0.234375 0.5625q-0.21875 0.234375 -0.546875 0.234375q-0.328125 0 -0.5625 -0.234375q-0.234375 -0.234375 -0.234375 -0.5625q0 -0.328125 0.21875 -0.546875q0.234375 -0.234375 0.578125 -0.234375zm0.640625 3.734375l0 5.75q0 0.671875 0.09375 0.90625q0.109375 0.21875 0.296875 0.328125q0.1875 0.109375 0.703125 0.109375l0 0.28125l-3.484375 0l0 -0.28125q0.53125 0 0.703125 -0.09375q0.1875 -0.109375 0.28125 -0.34375q0.109375 -0.234375 0.109375 -0.90625l0 -2.75q0 -1.171875 -0.0625 -1.515625q-0.0625 -0.25 -0.1875 -0.34375q-0.109375 -0.09375 -0.3125 -0.09375q-0.21875 0 -0.53125 0.109375l-0.109375 -0.28125l2.15625 -0.875l0.34375 0zm4.0703125 1.515625q1.25 -1.515625 2.390625 -1.515625q0.59375 0 1.015625 0.296875q0.421875 0.296875 0.671875 0.96875q0.171875 0.46875 0.171875 1.4375l0 3.046875q0 0.6875 0.109375 0.921875q0.078125 0.203125 0.265625 0.3125q0.203125 0.109375 0.71875 0.109375l0 0.28125l-3.546875 0l0 -0.28125l0.15625 0q0.5 0 0.6875 -0.15625q0.203125 -0.15625 0.28125 -0.453125q0.03125 -0.109375 0.03125 -0.734375l0 -2.921875q0 -0.984375 -0.25 -1.421875q-0.25 -0.4375 -0.859375 -0.4375q-0.921875 0 -1.84375 1.015625l0 3.765625q0 0.734375 0.078125 0.90625q0.109375 0.21875 0.296875 0.328125q0.203125 0.109375 0.78125 0.109375l0 0.28125l-3.53125 0l0 -0.28125l0.15625 0q0.546875 0 0.734375 -0.28125q0.1875 -0.28125 0.1875 -1.0625l0 -2.65625q0 -1.28125 -0.0625 -1.5625q-0.046875 -0.28125 -0.171875 -0.375q-0.125 -0.109375 -0.328125 -0.109375q-0.21875 0 -0.515625 0.109375l-0.125 -0.28125l2.15625 -0.875l0.34375 0l0 1.515625zm7.984375 -3.65625l0 2.359375l1.671875 0l0 0.546875l-1.671875 0l0 4.640625q0 0.6875 0.203125 0.9375q0.203125 0.234375 0.515625 0.234375q0.25 0 0.484375 -0.15625q0.25 -0.15625 0.390625 -0.46875l0.296875 0q-0.265625 0.765625 -0.765625 1.15625q-0.5 0.390625 -1.03125 0.390625q-0.359375 0 -0.703125 -0.203125q-0.34375 -0.203125 -0.515625 -0.578125q-0.15625 -0.375 -0.15625 -1.140625l0 -4.8125l-1.140625 0l0 -0.265625q0.4375 -0.171875 0.875 -0.578125q0.453125 -0.40625 0.8125 -0.96875q0.171875 -0.296875 0.5 -1.09375l0.234375 0zm3.5703125 5.046875q0 1.59375 0.78125 2.5q0.78125 0.90625 1.828125 0.90625q0.703125 0 1.21875 -0.375q0.53125 -0.390625 0.875 -1.328125l0.25 0.15625q-0.171875 1.0625 -0.96875 1.953125q-0.78125 0.875 -1.96875 0.875q-1.28125 0 -2.203125 -1.0q-0.921875 -1.015625 -0.921875 -2.703125q0 -1.84375 0.9375 -2.859375q0.953125 -1.03125 2.375 -1.03125q1.203125 0 1.96875 0.796875q0.78125 0.78125 0.78125 2.109375l-4.953125 0zm0 -0.453125l3.3125 0q-0.03125 -0.6875 -0.15625 -0.96875q-0.203125 -0.4375 -0.59375 -0.6875q-0.375 -0.25 -0.796875 -0.25q-0.65625 0 -1.171875 0.515625q-0.5 0.5 -0.59375 1.390625zm7.9921875 -2.453125l0 1.609375q0.90625 -1.609375 1.84375 -1.609375q0.4375 0 0.71875 0.265625q0.28125 0.265625 0.28125 0.609375q0 0.296875 -0.203125 0.515625q-0.203125 0.203125 -0.484375 0.203125q-0.28125 0 -0.625 -0.265625q-0.328125 -0.265625 -0.5 -0.265625q-0.140625 0 -0.296875 0.15625q-0.359375 0.3125 -0.734375 1.046875l0 3.4375q0 0.59375 0.15625 0.890625q0.09375 0.21875 0.34375 0.359375q0.265625 0.140625 0.75 0.140625l0 0.28125l-3.65625 0l0 -0.28125q0.546875 0 0.8125 -0.171875q0.1875 -0.125 0.265625 -0.40625q0.046875 -0.125 0.046875 -0.75l0 -2.78125q0 -1.25 -0.0625 -1.484375q-0.046875 -0.234375 -0.1875 -0.34375q-0.125 -0.109375 -0.328125 -0.109375q-0.25 0 -0.546875 0.109375l-0.078125 -0.28125l2.15625 -0.875l0.328125 0z" fill-rule="nonzero"/><path fill="#000000" fill-opacity="0.0" d="m308.7533 174.11679l175.96848 0l0 38.771667l-175.96848 0z" fill-rule="evenodd"/><path fill="#000000" d="m350.0852 188.46117l0 4.1875l2.328125 0q0.90625 0 1.21875 -0.28125q0.40625 -0.359375 0.453125 -1.265625l0.28125 0l0 3.6875l-0.28125 0q-0.109375 -0.765625 -0.21875 -0.984375q-0.140625 -0.28125 -0.46875 -0.4375q-0.3125 -0.15625 -0.984375 -0.15625l-2.328125 0l0 3.5q0 0.703125 0.0625 0.859375q0.0625 0.140625 0.21875 0.234375q0.15625 0.09375 0.59375 0.09375l1.796875 0q0.90625 0 1.3125 -0.125q0.40625 -0.125 0.78125 -0.5q0.484375 -0.484375 0.984375 -1.453125l0.3125 0l-0.90625 2.65625l-8.171875 0l0 -0.296875l0.375 0q0.375 0 0.71875 -0.171875q0.25 -0.125 0.328125 -0.375q0.09375 -0.25 0.09375 -1.03125l0 -6.875q0 -1.015625 -0.203125 -1.25q-0.28125 -0.3125 -0.9375 -0.3125l-0.375 0l0 -0.28125l8.171875 0l0.109375 2.3125l-0.296875 0q-0.171875 -0.828125 -0.375 -1.140625q-0.1875 -0.3125 -0.578125 -0.484375q-0.3125 -0.109375 -1.109375 -0.109375l-2.90625 0zm6.6484375 2.859375l3.359375 0l0 0.28125q-0.3125 0 -0.453125 0.109375q-0.125 0.109375 -0.125 0.296875q0 0.1875 0.28125 0.578125q0.078125 0.125 0.25 0.390625l0.515625 0.8125l0.578125 -0.8125q0.5625 -0.78125 0.5625 -0.984375q0 -0.15625 -0.140625 -0.265625q-0.125 -0.125 -0.421875 -0.125l0 -0.28125l2.421875 0l0 0.28125q-0.375 0.03125 -0.65625 0.21875q-0.390625 0.265625 -1.046875 1.15625l-0.984375 1.296875l1.78125 2.5625q0.65625 0.953125 0.9375 1.140625q0.28125 0.1875 0.734375 0.21875l0 0.28125l-3.375 0l0 -0.28125q0.34375 0 0.546875 -0.15625q0.140625 -0.109375 0.140625 -0.296875q0 -0.171875 -0.5 -0.90625l-1.046875 -1.53125l-1.140625 1.53125q-0.53125 0.71875 -0.53125 0.84375q0 0.1875 0.171875 0.34375q0.171875 0.15625 0.53125 0.171875l0 0.28125l-2.34375 0l0 -0.28125q0.28125 -0.046875 0.5 -0.203125q0.296875 -0.21875 1.0 -1.15625l1.5 -1.984375l-1.359375 -1.96875q-0.578125 -0.84375 -0.90625 -1.0625q-0.3125 -0.21875 -0.78125 -0.21875l0 -0.28125zm7.765625 0.703125l2.203125 -0.890625l0.296875 0l0 1.671875q0.5625 -0.9375 1.109375 -1.3125q0.5625 -0.390625 1.1875 -0.390625q1.078125 0 1.796875 0.84375q0.875 1.03125 0.875 2.6875q0 1.859375 -1.0625 3.0625q-0.875 1.0 -2.203125 1.0q-0.578125 0 -1.0 -0.15625q-0.3125 -0.125 -0.703125 -0.484375l0 2.1875q0 0.734375 0.09375 0.9375q0.09375 0.203125 0.3125 0.3125q0.21875 0.125 0.8125 0.125l0 0.28125l-3.765625 0l0 -0.28125l0.203125 0q0.4375 0 0.734375 -0.171875q0.15625 -0.078125 0.234375 -0.28125q0.078125 -0.1875 0.078125 -0.96875l0 -6.765625q0 -0.703125 -0.0625 -0.890625q-0.0625 -0.1875 -0.203125 -0.28125q-0.125 -0.09375 -0.359375 -0.09375q-0.1875 0 -0.484375 0.109375l-0.09375 -0.25zm2.5 1.25l0 2.671875q0 0.859375 0.078125 1.140625q0.109375 0.453125 0.53125 0.796875q0.421875 0.34375 1.078125 0.34375q0.78125 0 1.265625 -0.609375q0.625 -0.796875 0.625 -2.25q0 -1.640625 -0.71875 -2.515625q-0.5 -0.609375 -1.1875 -0.609375q-0.375 0 -0.734375 0.1875q-0.28125 0.140625 -0.9375 0.84375zm7.21875 0.734375q0 1.59375 0.78125 2.5q0.78125 0.90625 1.828125 0.90625q0.703125 0 1.21875 -0.375q0.53125 -0.390625 0.875 -1.328125l0.25 0.15625q-0.171875 1.0625 -0.96875 1.953125q-0.78125 0.875 -1.96875 0.875q-1.28125 0 -2.203125 -1.0q-0.921875 -1.015625 -0.921875 -2.703125q0 -1.84375 0.9375 -2.859375q0.953125 -1.03125 2.375 -1.03125q1.203125 0 1.96875 0.796875q0.78125 0.78125 0.78125 2.109375l-4.953125 0zm0 -0.453125l3.3125 0q-0.03125 -0.6875 -0.15625 -0.96875q-0.203125 -0.4375 -0.59375 -0.6875q-0.375 -0.25 -0.796875 -0.25q-0.65625 0 -1.171875 0.515625q-0.5 0.5 -0.59375 1.390625zm7.9921875 -2.453125l0 1.609375q0.90625 -1.609375 1.84375 -1.609375q0.4375 0 0.71875 0.265625q0.28125 0.265625 0.28125 0.609375q0 0.296875 -0.203125 0.515625q-0.203125 0.203125 -0.484375 0.203125q-0.28125 0 -0.625 -0.265625q-0.328125 -0.265625 -0.5 -0.265625q-0.140625 0 -0.296875 0.15625q-0.359375 0.3125 -0.734375 1.046875l0 3.4375q0 0.59375 0.15625 0.890625q0.09375 0.21875 0.34375 0.359375q0.265625 0.140625 0.75 0.140625l0 0.28125l-3.65625 0l0 -0.28125q0.546875 0 0.8125 -0.171875q0.1875 -0.125 0.265625 -0.40625q0.046875 -0.125 0.046875 -0.75l0 -2.78125q0 -1.25 -0.0625 -1.484375q-0.046875 -0.234375 -0.1875 -0.34375q-0.125 -0.109375 -0.328125 -0.109375q-0.25 0 -0.546875 0.109375l-0.078125 -0.28125l2.15625 -0.875l0.328125 0zm5.3125 -2.140625l0 2.359375l1.671875 0l0 0.546875l-1.671875 0l0 4.640625q0 0.6875 0.203125 0.9375q0.203125 0.234375 0.515625 0.234375q0.25 0 0.484375 -0.15625q0.25 -0.15625 0.390625 -0.46875l0.296875 0q-0.265625 0.765625 -0.765625 1.15625q-0.5 0.390625 -1.03125 0.390625q-0.359375 0 -0.703125 -0.203125q-0.34375 -0.203125 -0.515625 -0.578125q-0.15625 -0.375 -0.15625 -1.140625l0 -4.8125l-1.140625 0l0 -0.265625q0.4375 -0.171875 0.875 -0.578125q0.453125 -0.40625 0.8125 -0.96875q0.171875 -0.296875 0.5 -1.09375l0.234375 0zm13.2109375 -1.328125l0 3.671875l-0.296875 0q-0.140625 -1.0625 -0.5 -1.6875q-0.359375 -0.625 -1.03125 -0.984375q-0.671875 -0.375 -1.390625 -0.375q-0.8125 0 -1.34375 0.5q-0.53125 0.5 -0.53125 1.125q0 0.484375 0.328125 0.890625q0.484375 0.578125 2.3125 1.5625q1.484375 0.796875 2.015625 1.21875q0.546875 0.421875 0.84375 1.0q0.296875 0.578125 0.296875 1.21875q0 1.203125 -0.9375 2.078125q-0.9375 0.875 -2.40625 0.875q-0.453125 0 -0.859375 -0.078125q-0.25 -0.03125 -1.015625 -0.28125q-0.75 -0.25 -0.953125 -0.25q-0.203125 0 -0.3125 0.125q-0.109375 0.109375 -0.171875 0.484375l-0.28125 0l0 -3.640625l0.28125 0q0.203125 1.140625 0.546875 1.703125q0.34375 0.5625 1.046875 0.9375q0.71875 0.375 1.5625 0.375q0.96875 0 1.53125 -0.515625q0.578125 -0.515625 0.578125 -1.21875q0 -0.390625 -0.21875 -0.78125q-0.21875 -0.40625 -0.671875 -0.75q-0.296875 -0.234375 -1.65625 -0.984375q-1.359375 -0.765625 -1.9375 -1.21875q-0.578125 -0.453125 -0.875 -1.0q-0.296875 -0.546875 -0.296875 -1.203125q0 -1.140625 0.875 -1.96875q0.875 -0.828125 2.234375 -0.828125q0.84375 0 1.78125 0.421875q0.4375 0.1875 0.625 0.1875q0.203125 0 0.328125 -0.109375q0.125 -0.125 0.203125 -0.5l0.296875 0zm1.6484375 3.6875l3.34375 0l0 0.28125l-0.171875 0q-0.34375 0 -0.53125 0.15625q-0.171875 0.15625 -0.171875 0.375q0 0.3125 0.265625 0.84375l1.734375 3.609375l1.609375 -3.953125q0.125 -0.3125 0.125 -0.625q0 -0.140625 -0.046875 -0.21875q-0.0625 -0.078125 -0.203125 -0.125q-0.125 -0.0625 -0.46875 -0.0625l0 -0.28125l2.328125 0l0 0.28125q-0.28125 0.03125 -0.4375 0.125q-0.15625 0.09375 -0.34375 0.359375q-0.078125 0.109375 -0.265625 0.59375l-2.921875 7.15625q-0.421875 1.03125 -1.109375 1.5625q-0.671875 0.53125 -1.3125 0.53125q-0.453125 0 -0.75 -0.265625q-0.296875 -0.265625 -0.296875 -0.609375q0 -0.328125 0.203125 -0.53125q0.21875 -0.1875 0.59375 -0.1875q0.265625 0 0.703125 0.171875q0.3125 0.109375 0.390625 0.109375q0.234375 0 0.515625 -0.25q0.28125 -0.234375 0.5625 -0.921875l0.5 -1.25l-2.5625 -5.40625q-0.125 -0.234375 -0.375 -0.59375q-0.203125 -0.28125 -0.328125 -0.375q-0.171875 -0.125 -0.578125 -0.21875l0 -0.28125zm13.03125 -0.21875l0 2.4375l-0.25 0q-0.296875 -1.140625 -0.765625 -1.546875q-0.46875 -0.421875 -1.1875 -0.421875q-0.546875 0 -0.890625 0.296875q-0.328125 0.28125 -0.328125 0.625q0 0.4375 0.25 0.75q0.25 0.328125 0.984375 0.6875l1.140625 0.546875q1.59375 0.78125 1.59375 2.046875q0 0.96875 -0.75 1.578125q-0.734375 0.59375 -1.640625 0.59375q-0.65625 0 -1.5 -0.234375q-0.265625 -0.078125 -0.421875 -0.078125q-0.1875 0 -0.28125 0.203125l-0.265625 0l0 -2.5625l0.265625 0q0.21875 1.09375 0.828125 1.65625q0.625 0.546875 1.390625 0.546875q0.53125 0 0.875 -0.3125q0.34375 -0.3125 0.34375 -0.765625q0 -0.53125 -0.390625 -0.890625q-0.375 -0.375 -1.515625 -0.9375q-1.125 -0.5625 -1.46875 -1.015625q-0.359375 -0.453125 -0.359375 -1.125q0 -0.890625 0.609375 -1.484375q0.609375 -0.59375 1.5625 -0.59375q0.421875 0 1.03125 0.1875q0.390625 0.109375 0.53125 0.109375q0.125 0 0.1875 -0.046875q0.078125 -0.0625 0.171875 -0.25l0.25 0zm3.6796875 -2.140625l0 2.359375l1.671875 0l0 0.546875l-1.671875 0l0 4.640625q0 0.6875 0.203125 0.9375q0.203125 0.234375 0.515625 0.234375q0.25 0 0.484375 -0.15625q0.25 -0.15625 0.390625 -0.46875l0.296875 0q-0.265625 0.765625 -0.765625 1.15625q-0.5 0.390625 -1.03125 0.390625q-0.359375 0 -0.703125 -0.203125q-0.34375 -0.203125 -0.515625 -0.578125q-0.15625 -0.375 -0.15625 -1.140625l0 -4.8125l-1.140625 0l0 -0.265625q0.4375 -0.171875 0.875 -0.578125q0.453125 -0.40625 0.8125 -0.96875q0.171875 -0.296875 0.5 -1.09375l0.234375 0zm3.5703125 5.046875q0 1.59375 0.78125 2.5q0.78125 0.90625 1.828125 0.90625q0.703125 0 1.21875 -0.375q0.53125 -0.390625 0.875 -1.328125l0.25 0.15625q-0.171875 1.0625 -0.96875 1.953125q-0.78125 0.875 -1.96875 0.875q-1.28125 0 -2.203125 -1.0q-0.921875 -1.015625 -0.921875 -2.703125q0 -1.84375 0.9375 -2.859375q0.953125 -1.03125 2.375 -1.03125q1.203125 0 1.96875 0.796875q0.78125 0.78125 0.78125 2.109375l-4.953125 0zm0 -0.453125l3.3125 0q-0.03125 -0.6875 -0.15625 -0.96875q-0.203125 -0.4375 -0.59375 -0.6875q-0.375 -0.25 -0.796875 -0.25q-0.65625 0 -1.171875 0.515625q-0.5 0.5 -0.59375 1.390625zm8.0234375 -0.921875q0.78125 -0.78125 0.921875 -0.90625q0.359375 -0.296875 0.765625 -0.453125q0.40625 -0.171875 0.796875 -0.171875q0.671875 0 1.15625 0.390625q0.484375 0.390625 0.65625 1.140625q0.796875 -0.9375 1.34375 -1.234375q0.5625 -0.296875 1.15625 -0.296875q0.5625 0 1.0 0.296875q0.453125 0.296875 0.703125 0.953125q0.171875 0.453125 0.171875 1.421875l0 3.078125q0 0.671875 0.109375 0.921875q0.078125 0.171875 0.28125 0.296875q0.21875 0.125 0.6875 0.125l0 0.28125l-3.53125 0l0 -0.28125l0.15625 0q0.453125 0 0.71875 -0.1875q0.171875 -0.125 0.25 -0.390625q0.03125 -0.140625 0.03125 -0.765625l0 -3.078125q0 -0.875 -0.203125 -1.234375q-0.3125 -0.5 -0.984375 -0.5q-0.40625 0 -0.828125 0.21875q-0.421875 0.203125 -1.015625 0.765625l-0.015625 0.078125l0.015625 0.34375l0 3.40625q0 0.734375 0.078125 0.921875q0.09375 0.171875 0.3125 0.296875q0.234375 0.125 0.78125 0.125l0 0.28125l-3.625 0l0 -0.28125q0.59375 0 0.8125 -0.140625q0.234375 -0.140625 0.3125 -0.421875q0.046875 -0.140625 0.046875 -0.78125l0 -3.078125q0 -0.875 -0.265625 -1.25q-0.34375 -0.5 -0.953125 -0.5q-0.421875 0 -0.84375 0.21875q-0.640625 0.34375 -1.0 0.78125l0 3.828125q0 0.703125 0.09375 0.921875q0.109375 0.203125 0.296875 0.3125q0.1875 0.109375 0.78125 0.109375l0 0.28125l-3.546875 0l0 -0.28125q0.5 0 0.6875 -0.109375q0.203125 -0.109375 0.296875 -0.328125q0.109375 -0.234375 0.109375 -0.90625l0 -2.734375q0 -1.171875 -0.078125 -1.515625q-0.046875 -0.265625 -0.171875 -0.359375q-0.109375 -0.09375 -0.3125 -0.09375q-0.21875 0 -0.53125 0.109375l-0.109375 -0.28125l2.15625 -0.875l0.328125 0l0 1.53125zm14.9453125 -1.53125l0 2.4375l-0.25 0q-0.296875 -1.140625 -0.765625 -1.546875q-0.46875 -0.421875 -1.1875 -0.421875q-0.546875 0 -0.890625 0.296875q-0.328125 0.28125 -0.328125 0.625q0 0.4375 0.25 0.75q0.25 0.328125 0.984375 0.6875l1.140625 0.546875q1.59375 0.78125 1.59375 2.046875q0 0.96875 -0.75 1.578125q-0.734375 0.59375 -1.640625 0.59375q-0.65625 0 -1.5 -0.234375q-0.265625 -0.078125 -0.421875 -0.078125q-0.1875 0 -0.28125 0.203125l-0.265625 0l0 -2.5625l0.265625 0q0.21875 1.09375 0.828125 1.65625q0.625 0.546875 1.390625 0.546875q0.53125 0 0.875 -0.3125q0.34375 -0.3125 0.34375 -0.765625q0 -0.53125 -0.390625 -0.890625q-0.375 -0.375 -1.515625 -0.9375q-1.125 -0.5625 -1.46875 -1.015625q-0.359375 -0.453125 -0.359375 -1.125q0 -0.890625 0.609375 -1.484375q0.609375 -0.59375 1.5625 -0.59375q0.421875 0 1.03125 0.1875q0.390625 0.109375 0.53125 0.109375q0.125 0 0.1875 -0.046875q0.078125 -0.0625 0.171875 -0.25l0.25 0z" fill-rule="nonzero"/><path fill="#000000" fill-opacity="0.0" d="m436.5013 20.505249l175.96848 0l0 38.771652l-175.96848 0z" fill-rule="evenodd"/><path fill="#000000" d="m474.53244 34.0215l0 3.671875l-0.296875 0q-0.140625 -1.0625 -0.5 -1.6875q-0.359375 -0.625 -1.03125 -0.984375q-0.671875 -0.375 -1.390625 -0.375q-0.8125 0 -1.34375 0.5q-0.53125 0.5 -0.53125 1.125q0 0.484375 0.328125 0.890625q0.484375 0.578125 2.3125 1.5625q1.484375 0.796875 2.015625 1.21875q0.546875 0.421875 0.84375 1.0q0.296875 0.578125 0.296875 1.21875q0 1.203125 -0.9375 2.078125q-0.9375 0.875 -2.40625 0.875q-0.453125 0 -0.859375 -0.078125q-0.25 -0.03125 -1.015625 -0.28125q-0.75 -0.25 -0.953125 -0.25q-0.203125 0 -0.3125 0.125q-0.109375 0.109375 -0.171875 0.484375l-0.28125 0l0 -3.640625l0.28125 0q0.203125 1.140625 0.546875 1.703125q0.34375 0.5625 1.046875 0.9375q0.71875 0.375 1.5625 0.375q0.96875 0 1.53125 -0.515625q0.578125 -0.515625 0.578125 -1.21875q0 -0.390625 -0.21875 -0.78125q-0.21875 -0.40625 -0.671875 -0.75q-0.296875 -0.234375 -1.65625 -0.984375q-1.359375 -0.765625 -1.9375 -1.21875q-0.578125 -0.453125 -0.875 -1.0q-0.296875 -0.546875 -0.296875 -1.203125q0 -1.140625 0.875 -1.96875q0.875 -0.828125 2.234375 -0.828125q0.84375 0 1.78125 0.421875q0.4375 0.1875 0.625 0.1875q0.203125 0 0.328125 -0.109375q0.125 -0.125 0.203125 -0.5l0.296875 0zm3.2578125 6.375q0 1.59375 0.78125 2.5q0.78125 0.90625 1.828125 0.90625q0.703125 0 1.21875 -0.375q0.53125 -0.390625 0.875 -1.328125l0.25 0.15625q-0.171875 1.0625 -0.96875 1.953125q-0.78125 0.875 -1.96875 0.875q-1.28125 0 -2.203125 -1.0q-0.921875 -1.015625 -0.921875 -2.703125q0 -1.84375 0.9375 -2.859375q0.953125 -1.03125 2.375 -1.03125q1.203125 0 1.96875 0.796875q0.78125 0.78125 0.78125 2.109375l-4.953125 0zm0 -0.453125l3.3125 0q-0.03125 -0.6875 -0.15625 -0.96875q-0.203125 -0.4375 -0.59375 -0.6875q-0.375 -0.25 -0.796875 -0.25q-0.65625 0 -1.171875 0.515625q-0.5 0.5 -0.59375 1.390625zm11.9765625 2.203125q-0.28125 1.40625 -1.125 2.171875q-0.84375 0.765625 -1.875 0.765625q-1.21875 0 -2.125 -1.015625q-0.90625 -1.03125 -0.90625 -2.78125q0 -1.6875 1.0 -2.734375q1.015625 -1.0625 2.421875 -1.0625q1.046875 0 1.71875 0.5625q0.6875 0.5625 0.6875 1.15625q0 0.296875 -0.1875 0.484375q-0.1875 0.1875 -0.53125 0.1875q-0.46875 0 -0.703125 -0.296875q-0.125 -0.171875 -0.171875 -0.625q-0.046875 -0.46875 -0.3125 -0.703125q-0.28125 -0.234375 -0.765625 -0.234375q-0.78125 0 -1.25 0.578125q-0.640625 0.765625 -0.640625 2.015625q0 1.28125 0.625 2.265625q0.640625 0.984375 1.703125 0.984375q0.765625 0 1.375 -0.53125q0.4375 -0.359375 0.84375 -1.296875l0.21875 0.109375zm4.5234375 -4.65625q1.625 0 2.609375 1.234375q0.84375 1.0625 0.84375 2.421875q0 0.96875 -0.46875 1.953125q-0.453125 0.984375 -1.265625 1.484375q-0.8125 0.5 -1.796875 0.5q-1.625 0 -2.578125 -1.296875q-0.796875 -1.078125 -0.796875 -2.4375q0 -0.984375 0.484375 -1.953125q0.484375 -0.96875 1.28125 -1.4375q0.796875 -0.46875 1.6875 -0.46875zm-0.234375 0.515625q-0.421875 0 -0.84375 0.25q-0.40625 0.234375 -0.671875 0.859375q-0.25 0.609375 -0.25 1.578125q0 1.5625 0.609375 2.703125q0.625 1.125 1.640625 1.125q0.765625 0 1.25 -0.625q0.5 -0.625 0.5 -2.140625q0 -1.90625 -0.828125 -3.0q-0.546875 -0.75 -1.40625 -0.75zm6.828125 1.0q1.25 -1.515625 2.390625 -1.515625q0.59375 0 1.015625 0.296875q0.421875 0.296875 0.671875 0.96875q0.171875 0.46875 0.171875 1.4375l0 3.046875q0 0.6875 0.109375 0.921875q0.078125 0.203125 0.265625 0.3125q0.203125 0.109375 0.71875 0.109375l0 0.28125l-3.546875 0l0 -0.28125l0.15625 0q0.5 0 0.6875 -0.15625q0.203125 -0.15625 0.28125 -0.453125q0.03125 -0.109375 0.03125 -0.734375l0 -2.921875q0 -0.984375 -0.25 -1.421875q-0.25 -0.4375 -0.859375 -0.4375q-0.921875 0 -1.84375 1.015625l0 3.765625q0 0.734375 0.078125 0.90625q0.109375 0.21875 0.296875 0.328125q0.203125 0.109375 0.78125 0.109375l0 0.28125l-3.53125 0l0 -0.28125l0.15625 0q0.546875 0 0.734375 -0.28125q0.1875 -0.28125 0.1875 -1.0625l0 -2.65625q0 -1.28125 -0.0625 -1.5625q-0.046875 -0.28125 -0.171875 -0.375q-0.125 -0.109375 -0.328125 -0.109375q-0.21875 0 -0.515625 0.109375l-0.125 -0.28125l2.15625 -0.875l0.34375 0l0 1.515625zm10.96875 5.046875q-0.53125 0.546875 -1.03125 0.796875q-0.5 0.234375 -1.078125 0.234375q-1.171875 0 -2.046875 -0.984375q-0.875 -0.984375 -0.875 -2.515625q0 -1.546875 0.96875 -2.8125q0.96875 -1.28125 2.5 -1.28125q0.9375 0 1.5625 0.59375l0 -1.3125q0 -1.234375 -0.0625 -1.515625q-0.0625 -0.28125 -0.1875 -0.375q-0.125 -0.109375 -0.3125 -0.109375q-0.203125 0 -0.53125 0.125l-0.109375 -0.265625l2.1406555 -0.875l0.34375 0l0 8.265625q0 1.265625 0.0625 1.546875q0.0625 0.265625 0.1875 0.375q0.125 0.109375 0.296875 0.109375q0.21875 0 0.5625 -0.125l0.09375 0.265625l-2.125 0.890625l-0.35940552 0l0 -1.03125zm0 -0.546875l0 -3.6875q-0.046875 -0.53125 -0.28125 -0.96875q-0.234375 -0.4375 -0.625 -0.65625q-0.390625 -0.21875 -0.75 -0.21875q-0.6875 0 -1.234375 0.609375q-0.703125 0.8125 -0.703125 2.375q0 1.578125 0.6875 2.421875q0.6875 0.84375 1.53125 0.84375q0.703125 0 1.375 -0.71875zm12.882843 -2.1875l-4.109375 0l-0.71875 1.671875q-0.265625 0.609375 -0.265625 0.921875q0 0.234375 0.234375 0.421875q0.234375 0.1875 1.0 0.234375l0 0.296875l-3.34375 0l0 -0.296875q0.671875 -0.109375 0.859375 -0.296875q0.40625 -0.375 0.890625 -1.53125l3.71875 -8.71875l0.28125 0l3.6875 8.8125q0.4375 1.0625 0.796875 1.390625q0.375 0.3125 1.015625 0.34375l0 0.296875l-4.171875 0l0 -0.296875q0.625 -0.03125 0.84375 -0.203125q0.234375 -0.1875 0.234375 -0.4375q0 -0.34375 -0.3125 -1.09375l-0.640625 -1.515625zm-0.21875 -0.578125l-1.796875 -4.28125l-1.84375 4.28125l3.640625 0zm9.3828125 3.828125l0 0.296875l-4.53125 0l0 -0.296875l0.375 0q0.65625 0 0.953125 -0.375q0.1875 -0.25 0.1875 -1.203125l0 -6.84375q0 -0.8125 -0.109375 -1.0625q-0.078125 -0.203125 -0.3125 -0.34375q-0.34375 -0.1875 -0.71875 -0.1875l-0.375 0l0 -0.28125l4.53125 0l0 0.28125l-0.375 0q-0.65625 0 -0.953125 0.390625q-0.1875 0.25 -0.1875 1.203125l0 6.84375q0 0.796875 0.09375 1.0625q0.078125 0.1875 0.328125 0.328125q0.34375 0.1875 0.71875 0.1875l0.375 0zm19.085938 -10.296875l0 0.28125q-0.421875 0 -0.6875 0.15625q-0.25 0.140625 -0.484375 0.546875q-0.15625 0.28125 -0.484375 1.3125l-2.953125 8.546875l-0.3125 0l-2.421875 -6.78125l-2.390625 6.78125l-0.28125 0l-3.15625 -8.8125q-0.34375 -0.984375 -0.4375 -1.15625q-0.15625 -0.296875 -0.4375 -0.4375q-0.265625 -0.15625 -0.71875 -0.15625l0 -0.28125l3.921875 0l0 0.28125l-0.1875 0q-0.421875 0 -0.640625 0.1875q-0.21875 0.1875 -0.21875 0.453125q0 0.28125 0.34375 1.265625l2.09375 5.9375l1.75 -5.046875l-0.3125 -0.890625l-0.25 -0.71875q-0.15625 -0.390625 -0.359375 -0.6875q-0.109375 -0.140625 -0.25 -0.25q-0.203125 -0.140625 -0.390625 -0.203125q-0.15625 -0.046875 -0.46875 -0.046875l0 -0.28125l4.125 0l0 0.28125l-0.28125 0q-0.4375 0 -0.640625 0.1875q-0.203125 0.1875 -0.203125 0.515625q0 0.390625 0.34375 1.390625l2.03125 5.75l2.015625 -5.828125q0.34375 -0.96875 0.34375 -1.34375q0 -0.1875 -0.109375 -0.34375q-0.109375 -0.15625 -0.28125 -0.21875q-0.296875 -0.109375 -0.78125 -0.109375l0 -0.28125l3.171875 0zm1.8046875 -0.515625q0.328125 0 0.546875 0.234375q0.234375 0.21875 0.234375 0.546875q0 0.328125 -0.234375 0.5625q-0.21875 0.234375 -0.546875 0.234375q-0.328125 0 -0.5625 -0.234375q-0.234375 -0.234375 -0.234375 -0.5625q0 -0.328125 0.21875 -0.546875q0.234375 -0.234375 0.578125 -0.234375zm0.640625 3.734375l0 5.75q0 0.671875 0.09375 0.90625q0.109375 0.21875 0.296875 0.328125q0.1875 0.109375 0.703125 0.109375l0 0.28125l-3.484375 0l0 -0.28125q0.53125 0 0.703125 -0.09375q0.1875 -0.109375 0.28125 -0.34375q0.109375 -0.234375 0.109375 -0.90625l0 -2.75q0 -1.171875 -0.0625 -1.515625q-0.0625 -0.25 -0.1875 -0.34375q-0.109375 -0.09375 -0.3125 -0.09375q-0.21875 0 -0.53125 0.109375l-0.109375 -0.28125l2.15625 -0.875l0.34375 0zm4.0703125 1.515625q1.25 -1.515625 2.390625 -1.515625q0.59375 0 1.015625 0.296875q0.421875 0.296875 0.671875 0.96875q0.171875 0.46875 0.171875 1.4375l0 3.046875q0 0.6875 0.109375 0.921875q0.078125 0.203125 0.265625 0.3125q0.203125 0.109375 0.71875 0.109375l0 0.28125l-3.546875 0l0 -0.28125l0.15625 0q0.5 0 0.6875 -0.15625q0.203125 -0.15625 0.28125 -0.453125q0.03125 -0.109375 0.03125 -0.734375l0 -2.921875q0 -0.984375 -0.25 -1.421875q-0.25 -0.4375 -0.859375 -0.4375q-0.921875 0 -1.84375 1.015625l0 3.765625q0 0.734375 0.078125 0.90625q0.109375 0.21875 0.296875 0.328125q0.203125 0.109375 0.78125 0.109375l0 0.28125l-3.53125 0l0 -0.28125l0.15625 0q0.546875 0 0.734375 -0.28125q0.1875 -0.28125 0.1875 -1.0625l0 -2.65625q0 -1.28125 -0.0625 -1.5625q-0.046875 -0.28125 -0.171875 -0.375q-0.125 -0.109375 -0.328125 -0.109375q-0.21875 0 -0.515625 0.109375l-0.125 -0.28125l2.15625 -0.875l0.34375 0l0 1.515625zm7.984375 -3.65625l0 2.359375l1.671875 0l0 0.546875l-1.671875 0l0 4.640625q0 0.6875 0.203125 0.9375q0.203125 0.234375 0.515625 0.234375q0.25 0 0.484375 -0.15625q0.25 -0.15625 0.390625 -0.46875l0.296875 0q-0.265625 0.765625 -0.765625 1.15625q-0.5 0.390625 -1.03125 0.390625q-0.359375 0 -0.703125 -0.203125q-0.34375 -0.203125 -0.515625 -0.578125q-0.15625 -0.375 -0.15625 -1.140625l0 -4.8125l-1.140625 0l0 -0.265625q0.4375 -0.171875 0.875 -0.578125q0.453125 -0.40625 0.8125 -0.96875q0.171875 -0.296875 0.5 -1.09375l0.234375 0zm3.5703125 5.046875q0 1.59375 0.78125 2.5q0.78125 0.90625 1.828125 0.90625q0.703125 0 1.21875 -0.375q0.53125 -0.390625 0.875 -1.328125l0.25 0.15625q-0.171875 1.0625 -0.96875 1.953125q-0.78125 0.875 -1.96875 0.875q-1.28125 0 -2.203125 -1.0q-0.921875 -1.015625 -0.921875 -2.703125q0 -1.84375 0.9375 -2.859375q0.953125 -1.03125 2.375 -1.03125q1.203125 0 1.96875 0.796875q0.78125 0.78125 0.78125 2.109375l-4.953125 0zm0 -0.453125l3.3125 0q-0.03125 -0.6875 -0.15625 -0.96875q-0.203125 -0.4375 -0.59375 -0.6875q-0.375 -0.25 -0.796875 -0.25q-0.65625 0 -1.171875 0.515625q-0.5 0.5 -0.59375 1.390625zm7.9921875 -2.453125l0 1.609375q0.90625 -1.609375 1.84375 -1.609375q0.4375 0 0.71875 0.265625q0.28125 0.265625 0.28125 0.609375q0 0.296875 -0.203125 0.515625q-0.203125 0.203125 -0.484375 0.203125q-0.28125 0 -0.625 -0.265625q-0.328125 -0.265625 -0.5 -0.265625q-0.140625 0 -0.296875 0.15625q-0.359375 0.3125 -0.734375 1.046875l0 3.4375q0 0.59375 0.15625 0.890625q0.09375 0.21875 0.34375 0.359375q0.265625 0.140625 0.75 0.140625l0 0.28125l-3.65625 0l0 -0.28125q0.546875 0 0.8125 -0.171875q0.1875 -0.125 0.265625 -0.40625q0.046875 -0.125 0.046875 -0.75l0 -2.78125q0 -1.25 -0.0625 -1.484375q-0.046875 -0.234375 -0.1875 -0.34375q-0.125 -0.109375 -0.328125 -0.109375q-0.25 0 -0.546875 0.109375l-0.078125 -0.28125l2.15625 -0.875l0.328125 0z" fill-rule="nonzero"/><path fill="#000000" fill-opacity="0.0" d="m586.0184 174.11679l175.9685 0l0 58.173233l-175.9685 0z" fill-rule="evenodd"/><path fill="#000000" d="m626.52997 198.47679l0 -0.296875l0.390625 0q0.671875 0 0.953125 -0.421875q0.171875 -0.265625 0.171875 -1.15625l0 -6.84375q0 -1.0 -0.21875 -1.25q-0.296875 -0.34375 -0.90625 -0.34375l-0.390625 0l0 -0.28125l4.3125 0q2.375 0 3.609375 0.546875q1.234375 0.53125 1.984375 1.796875q0.765625 1.25 0.765625 2.890625q0 2.21875 -1.34375 3.703125q-1.515625 1.65625 -4.59375 1.65625l-4.734375 0zm3.015625 -0.765625q1.0 0.21875 1.671875 0.21875q1.8125 0 3.0 -1.265625q1.203125 -1.28125 1.203125 -3.46875q0 -2.1875 -1.203125 -3.453125q-1.1875 -1.265625 -3.0625 -1.265625q-0.703125 0 -1.609375 0.21875l0 9.015625zm9.9609375 -3.703125q0 1.59375 0.78125 2.5q0.78125 0.90625 1.828125 0.90625q0.703125 0 1.21875 -0.375q0.53125 -0.390625 0.875 -1.328125l0.25 0.15625q-0.171875 1.0625 -0.96875 1.953125q-0.78125 0.875 -1.96875 0.875q-1.28125 0 -2.203125 -1.0q-0.921875 -1.015625 -0.921875 -2.703125q0 -1.84375 0.9375 -2.859375q0.953125 -1.03125 2.375 -1.03125q1.203125 0 1.96875 0.796875q0.78125 0.78125 0.78125 2.109375l-4.953125 0zm0 -0.453125l3.3125 0q-0.03125 -0.6875 -0.15625 -0.96875q-0.203125 -0.4375 -0.59375 -0.6875q-0.375 -0.25 -0.796875 -0.25q-0.65625 0 -1.171875 0.515625q-0.5 0.5 -0.59375 1.390625zm7.1015625 0.453125q0 1.59375 0.78125 2.5q0.78125 0.90625 1.828125 0.90625q0.703125 0 1.21875 -0.375q0.53125 -0.390625 0.875 -1.328125l0.25 0.15625q-0.171875 1.0625 -0.96875 1.953125q-0.78125 0.875 -1.96875 0.875q-1.28125 0 -2.203125 -1.0q-0.921875 -1.015625 -0.921875 -2.703125q0 -1.84375 0.9375 -2.859375q0.953125 -1.03125 2.375 -1.03125q1.203125 0 1.96875 0.796875q0.78125 0.78125 0.78125 2.109375l-4.953125 0zm0 -0.453125l3.3125 0q-0.03125 -0.6875 -0.15625 -0.96875q-0.203125 -0.4375 -0.59375 -0.6875q-0.375 -0.25 -0.796875 -0.25q-0.65625 0 -1.171875 0.515625q-0.5 0.5 -0.59375 1.390625zm5.3828125 -1.53125l2.203125 -0.890625l0.296875 0l0 1.671875q0.5625 -0.9375 1.109375 -1.3125q0.5625 -0.390625 1.1875 -0.390625q1.078125 0 1.796875 0.84375q0.875 1.03125 0.875 2.6875q0 1.859375 -1.0625 3.0625q-0.875 1.0 -2.203125 1.0q-0.578125 0 -1.0 -0.15625q-0.3125 -0.125 -0.703125 -0.484375l0 2.1875q0 0.734375 0.09375 0.9375q0.09375 0.203125 0.3125 0.3125q0.21875 0.125 0.8125 0.125l0 0.28125l-3.765625 0l0 -0.28125l0.203125 0q0.4375 0 0.734375 -0.171875q0.15625 -0.078125 0.234375 -0.28125q0.078125 -0.1875 0.078125 -0.96875l0 -6.765625q0 -0.703125 -0.0625 -0.890625q-0.0625 -0.1875 -0.203125 -0.28125q-0.125 -0.09375 -0.359375 -0.09375q-0.1875 0 -0.484375 0.109375l-0.09375 -0.25zm2.5 1.25l0 2.671875q0 0.859375 0.078125 1.140625q0.109375 0.453125 0.53125 0.796875q0.421875 0.34375 1.078125 0.34375q0.78125 0 1.265625 -0.609375q0.625 -0.796875 0.625 -2.25q0 -1.640625 -0.71875 -2.515625q-0.5 -0.609375 -1.1875 -0.609375q-0.375 0 -0.734375 0.1875q-0.28125 0.140625 -0.9375 0.84375zm18.6875 2.265625l0.265625 0.0625l-0.90625 2.875l-8.203125 0l0 -0.296875l0.390625 0q0.671875 0 0.96875 -0.4375q0.15625 -0.25 0.15625 -1.15625l0 -6.828125q0 -1.0 -0.21875 -1.25q-0.296875 -0.34375 -0.90625 -0.34375l-0.390625 0l0 -0.28125l4.796875 0l0 0.28125q-0.84375 0 -1.1875 0.171875q-0.34375 0.15625 -0.46875 0.40625q-0.125 0.25 -0.125 1.1875l0 6.65625q0 0.65625 0.125 0.890625q0.09375 0.171875 0.28125 0.25q0.203125 0.078125 1.234375 0.078125l0.765625 0q1.21875 0 1.703125 -0.171875q0.5 -0.1875 0.90625 -0.640625q0.40625 -0.46875 0.8125 -1.453125zm2.3046875 -1.53125q0 1.59375 0.78125 2.5q0.78125 0.90625 1.828125 0.90625q0.703125 0 1.21875 -0.375q0.53125 -0.390625 0.875 -1.328125l0.25 0.15625q-0.171875 1.0625 -0.96875 1.953125q-0.78125 0.875 -1.96875 0.875q-1.28125 0 -2.203125 -1.0q-0.921875 -1.015625 -0.921875 -2.703125q0 -1.84375 0.9375 -2.859375q0.953125 -1.03125 2.375 -1.03125q1.203125 0 1.96875 0.796875q0.78125 0.78125 0.78125 2.109375l-4.953125 0zm0 -0.453125l3.3125 0q-0.03125 -0.6875 -0.15625 -0.96875q-0.203125 -0.4375 -0.59375 -0.6875q-0.375 -0.25 -0.796875 -0.25q-0.65625 0 -1.171875 0.515625q-0.5 0.5 -0.59375 1.390625zm9.9609375 3.890625q-1.109375 0.84375 -1.390625 0.984375q-0.421875 0.203125 -0.890625 0.203125q-0.75 0 -1.234375 -0.515625q-0.46875 -0.515625 -0.46875 -1.34375q0 -0.515625 0.234375 -0.90625q0.3125 -0.53125 1.109375 -1.0q0.796875 -0.46875 2.640625 -1.140625l0 -0.28125q0 -1.0625 -0.34375 -1.453125q-0.34375 -0.40625 -0.984375 -0.40625q-0.5 0 -0.78125 0.265625q-0.296875 0.265625 -0.296875 0.609375l0.015625 0.453125q0 0.359375 -0.1875 0.5625q-0.1875 0.1875 -0.484375 0.1875q-0.28125 0 -0.46875 -0.203125q-0.1875 -0.203125 -0.1875 -0.5625q0 -0.671875 0.6875 -1.234375q0.6875 -0.5625 1.9375 -0.5625q0.953125 0 1.5625 0.328125q0.453125 0.234375 0.671875 0.75q0.140625 0.34375 0.140625 1.375l0 2.4375q0 1.015625 0.03125 1.25q0.046875 0.234375 0.140625 0.3125q0.09375 0.078125 0.203125 0.078125q0.125 0 0.21875 -0.0625q0.171875 -0.09375 0.640625 -0.5625l0 0.4375q-0.875 1.171875 -1.671875 1.171875q-0.390625 0 -0.625 -0.265625q-0.21875 -0.265625 -0.21875 -0.90625zm0 -0.515625l0 -2.71875q-1.1875 0.46875 -1.53125 0.65625q-0.609375 0.34375 -0.875 0.71875q-0.265625 0.375 -0.265625 0.828125q0 0.5625 0.328125 0.9375q0.34375 0.359375 0.78125 0.359375q0.59375 0 1.5625 -0.78125zm5.1328125 -5.828125l0 1.609375q0.90625 -1.609375 1.84375 -1.609375q0.4375 0 0.71875 0.265625q0.28125 0.265625 0.28125 0.609375q0 0.296875 -0.203125 0.515625q-0.203125 0.203125 -0.484375 0.203125q-0.28125 0 -0.625 -0.265625q-0.328125 -0.265625 -0.5 -0.265625q-0.140625 0 -0.296875 0.15625q-0.359375 0.3125 -0.734375 1.046875l0 3.4375q0 0.59375 0.15625 0.890625q0.09375 0.21875 0.34375 0.359375q0.265625 0.140625 0.75 0.140625l0 0.28125l-3.65625 0l0 -0.28125q0.546875 0 0.8125 -0.171875q0.1875 -0.125 0.265625 -0.40625q0.046875 -0.125 0.046875 -0.75l0 -2.78125q0 -1.25 -0.0625 -1.484375q-0.046875 -0.234375 -0.1875 -0.34375q-0.125 -0.109375 -0.328125 -0.109375q-0.25 0 -0.546875 0.109375l-0.078125 -0.28125l2.15625 -0.875l0.328125 0zm5.328125 1.515625q1.25 -1.515625 2.390625 -1.515625q0.59375 0 1.015625 0.296875q0.421875 0.296875 0.671875 0.96875q0.171875 0.46875 0.171875 1.4375l0 3.046875q0 0.6875 0.109375 0.921875q0.078125 0.203125 0.265625 0.3125q0.203125 0.109375 0.71875 0.109375l0 0.28125l-3.546875 0l0 -0.28125l0.15625 0q0.5 0 0.6875 -0.15625q0.203125 -0.15625 0.28125 -0.453125q0.03125 -0.109375 0.03125 -0.734375l0 -2.921875q0 -0.984375 -0.25 -1.421875q-0.25 -0.4375 -0.859375 -0.4375q-0.921875 0 -1.84375 1.015625l0 3.765625q0 0.734375 0.078125 0.90625q0.109375 0.21875 0.296875 0.328125q0.203125 0.109375 0.78125 0.109375l0 0.28125l-3.53125 0l0 -0.28125l0.15625 0q0.546875 0 0.734375 -0.28125q0.1875 -0.28125 0.1875 -1.0625l0 -2.65625q0 -1.28125 -0.0625 -1.5625q-0.046875 -0.28125 -0.171875 -0.375q-0.125 -0.109375 -0.328125 -0.109375q-0.21875 0 -0.515625 0.109375l-0.125 -0.28125l2.15625 -0.875l0.34375 0l0 1.515625zm7.734375 -5.25q0.328125 0 0.546875 0.234375q0.234375 0.21875 0.234375 0.546875q0 0.328125 -0.234375 0.5625q-0.21875 0.234375 -0.546875 0.234375q-0.328125 0 -0.5625 -0.234375q-0.234375 -0.234375 -0.234375 -0.5625q0 -0.328125 0.21875 -0.546875q0.234375 -0.234375 0.578125 -0.234375zm0.640625 3.734375l0 5.75q0 0.671875 0.09375 0.90625q0.109375 0.21875 0.296875 0.328125q0.1875 0.109375 0.703125 0.109375l0 0.28125l-3.484375 0l0 -0.28125q0.53125 0 0.703125 -0.09375q0.1875 -0.109375 0.28125 -0.34375q0.109375 -0.234375 0.109375 -0.90625l0 -2.75q0 -1.171875 -0.0625 -1.515625q-0.0625 -0.25 -0.1875 -0.34375q-0.109375 -0.09375 -0.3125 -0.09375q-0.21875 0 -0.53125 0.109375l-0.109375 -0.28125l2.15625 -0.875l0.34375 0zm4.0703125 1.515625q1.25 -1.515625 2.390625 -1.515625q0.59375 0 1.015625 0.296875q0.421875 0.296875 0.671875 0.96875q0.171875 0.46875 0.171875 1.4375l0 3.046875q0 0.6875 0.109375 0.921875q0.078125 0.203125 0.265625 0.3125q0.203125 0.109375 0.71875 0.109375l0 0.28125l-3.546875 0l0 -0.28125l0.15625 0q0.5 0 0.6875 -0.15625q0.203125 -0.15625 0.28125 -0.453125q0.03125 -0.109375 0.03125 -0.734375l0 -2.921875q0 -0.984375 -0.25 -1.421875q-0.25 -0.4375 -0.859375 -0.4375q-0.921875 0 -1.84375 1.015625l0 3.765625q0 0.734375 0.078125 0.90625q0.109375 0.21875 0.296875 0.328125q0.203125 0.109375 0.78125 0.109375l0 0.28125l-3.53125 0l0 -0.28125l0.15625 0q0.546875 0 0.734375 -0.28125q0.1875 -0.28125 0.1875 -1.0625l0 -2.65625q0 -1.28125 -0.0625 -1.5625q-0.046875 -0.28125 -0.171875 -0.375q-0.125 -0.109375 -0.328125 -0.109375q-0.21875 0 -0.515625 0.109375l-0.125 -0.28125l2.15625 -0.875l0.34375 0l0 1.515625zm7.828125 3.25q-0.65625 -0.328125 -1.015625 -0.890625q-0.34375 -0.578125 -0.34375 -1.28125q0 -1.0625 0.796875 -1.828125q0.796875 -0.765625 2.046875 -0.765625q1.03125 0 1.78125 0.5l1.515625 0q0.328125 0 0.375 0.03125q0.0625 0.015625 0.09375 0.0625q0.046875 0.0625 0.046875 0.25q0 0.203125 -0.046875 0.28125q-0.015625 0.03125 -0.078125 0.0625q-0.0625 0.015625 -0.390625 0.015625l-0.9375 0q0.4375 0.5625 0.4375 1.4375q0 1.0 -0.765625 1.71875q-0.765625 0.703125 -2.046875 0.703125q-0.53125 0 -1.09375 -0.15625q-0.34375 0.296875 -0.46875 0.53125q-0.109375 0.21875 -0.109375 0.375q0 0.125 0.125 0.25q0.125 0.125 0.5 0.1875q0.21875 0.03125 1.09375 0.046875q1.609375 0.046875 2.09375 0.109375q0.71875 0.109375 1.15625 0.546875q0.4375 0.4375 0.4375 1.078125q0 0.890625 -0.828125 1.65625q-1.21875 1.140625 -3.1875 1.140625q-1.5 0 -2.546875 -0.671875q-0.578125 -0.390625 -0.578125 -0.8125q0 -0.1875 0.078125 -0.375q0.140625 -0.296875 0.546875 -0.8125q0.0625 -0.0625 0.796875 -0.84375q-0.40625 -0.25 -0.578125 -0.4375q-0.15625 -0.1875 -0.15625 -0.4375q0 -0.265625 0.21875 -0.625q0.21875 -0.375 1.03125 -1.046875zm1.359375 -4.390625q-0.578125 0 -0.96875 0.46875q-0.390625 0.453125 -0.390625 1.40625q0 1.234375 0.53125 1.921875q0.40625 0.515625 1.03125 0.515625q0.59375 0 0.96875 -0.4375q0.390625 -0.453125 0.390625 -1.40625q0 -1.25 -0.546875 -1.953125q-0.390625 -0.515625 -1.015625 -0.515625zm-1.4375 7.0q-0.375 0.40625 -0.5625 0.75q-0.1875 0.34375 -0.1875 0.625q0 0.375 0.453125 0.65625q0.78125 0.484375 2.265625 0.484375q1.40625 0 2.0625 -0.5q0.671875 -0.484375 0.671875 -1.046875q0 -0.40625 -0.390625 -0.578125q-0.40625 -0.171875 -1.609375 -0.203125q-1.765625 -0.046875 -2.703125 -0.1875z" fill-rule="nonzero"/><path fill="#000000" d="m649.26044 217.6768l-2.828125 0l-3.578125 -4.953125q-0.40625 0.015625 -0.65625 0.015625q-0.09375 0 -0.21875 0q-0.109375 -0.015625 -0.234375 -0.015625l0 3.078125q0 1.0 0.21875 1.234375q0.296875 0.34375 0.890625 0.34375l0.40625 0l0 0.296875l-4.53125 0l0 -0.296875l0.390625 0q0.671875 0 0.96875 -0.4375q0.15625 -0.234375 0.15625 -1.140625l0 -6.84375q0 -1.0 -0.21875 -1.25q-0.296875 -0.34375 -0.90625 -0.34375l-0.390625 0l0 -0.28125l3.859375 0q1.6875 0 2.484375 0.25q0.796875 0.234375 1.359375 0.90625q0.5625 0.65625 0.5625 1.5625q0 0.984375 -0.640625 1.703125q-0.640625 0.71875 -1.96875 1.015625l2.1875 3.03125q0.75 1.046875 1.28125 1.390625q0.546875 0.34375 1.40625 0.4375l0 0.296875zm-7.515625 -5.453125q0.140625 0 0.25 0.015625q0.109375 0 0.1875 0q1.515625 0 2.28125 -0.65625q0.765625 -0.65625 0.765625 -1.671875q0 -1.0 -0.625 -1.609375q-0.609375 -0.625 -1.640625 -0.625q-0.453125 0 -1.21875 0.140625l0 4.40625zm9.078125 0.984375q0 1.59375 0.78125 2.5q0.78125 0.90625 1.828125 0.90625q0.703125 0 1.21875 -0.375q0.53125 -0.390625 0.875 -1.328125l0.25 0.15625q-0.171875 1.0625 -0.96875 1.953125q-0.78125 0.875 -1.96875 0.875q-1.28125 0 -2.203125 -1.0q-0.921875 -1.015625 -0.921875 -2.703125q0 -1.84375 0.9375 -2.859375q0.953125 -1.03125 2.375 -1.03125q1.203125 0 1.96875 0.796875q0.78125 0.78125 0.78125 2.109375l-4.953125 0zm0 -0.453125l3.3125 0q-0.03125 -0.6875 -0.15625 -0.96875q-0.203125 -0.4375 -0.59375 -0.6875q-0.375 -0.25 -0.796875 -0.25q-0.65625 0 -1.171875 0.515625q-0.5 0.5 -0.59375 1.390625zm5.5390625 -2.234375l3.359375 0l0 0.28125l-0.21875 0q-0.296875 0 -0.46875 0.15625q-0.15625 0.140625 -0.15625 0.390625q0 0.28125 0.171875 0.65625l1.65625 3.953125l1.671875 -4.109375q0.1875 -0.4375 0.1875 -0.65625q0 -0.109375 -0.0625 -0.1875q-0.09375 -0.109375 -0.234375 -0.15625q-0.125 -0.046875 -0.53125 -0.046875l0 -0.28125l2.34375 0l0 0.28125q-0.40625 0.03125 -0.5625 0.171875q-0.28125 0.234375 -0.5 0.78125l-2.53125 6.140625l-0.328125 0l-2.546875 -6.046875q-0.171875 -0.421875 -0.328125 -0.59375q-0.15625 -0.1875 -0.40625 -0.3125q-0.125 -0.078125 -0.515625 -0.140625l0 -0.28125zm11.859375 -0.21875q1.625 0 2.609375 1.234375q0.84375 1.0625 0.84375 2.421875q0 0.96875 -0.46875 1.953125q-0.453125 0.984375 -1.265625 1.484375q-0.8125 0.5 -1.796875 0.5q-1.625 0 -2.578125 -1.296875q-0.796875 -1.078125 -0.796875 -2.4375q0 -0.984375 0.484375 -1.953125q0.484375 -0.96875 1.28125 -1.4375q0.796875 -0.46875 1.6875 -0.46875zm-0.234375 0.515625q-0.421875 0 -0.84375 0.25q-0.40625 0.234375 -0.671875 0.859375q-0.25 0.609375 -0.25 1.578125q0 1.5625 0.609375 2.703125q0.625 1.125 1.640625 1.125q0.765625 0 1.25 -0.625q0.5 -0.625 0.5 -2.140625q0 -1.90625 -0.828125 -3.0q-0.546875 -0.75 -1.40625 -0.75zm7.203125 -4.25l0 9.484375q0 0.671875 0.09375 0.890625q0.09375 0.21875 0.296875 0.34375q0.203125 0.109375 0.765625 0.109375l0 0.28125l-3.515625 0l0 -0.28125q0.5 0 0.671875 -0.09375q0.1875 -0.109375 0.28125 -0.34375q0.109375 -0.234375 0.109375 -0.90625l0 -6.5q0 -1.203125 -0.0625 -1.484375q-0.046875 -0.28125 -0.171875 -0.375q-0.125 -0.109375 -0.3125 -0.109375q-0.203125 0 -0.515625 0.125l-0.125 -0.265625l2.125 -0.875l0.359375 0zm8.2578125 3.953125l0 4.328125q0 1.25 0.046875 1.53125q0.0625 0.265625 0.1875 0.375q0.140625 0.109375 0.3125 0.109375q0.234375 0 0.546875 -0.125l0.109375 0.265625l-2.140625 0.890625l-0.359375 0l0 -1.515625q-0.921875 1.0 -1.40625 1.265625q-0.484375 0.25 -1.015625 0.25q-0.609375 0 -1.046875 -0.34375q-0.4375 -0.359375 -0.609375 -0.90625q-0.171875 -0.546875 -0.171875 -1.546875l0 -3.1875q0 -0.515625 -0.109375 -0.703125q-0.109375 -0.203125 -0.328125 -0.296875q-0.21875 -0.109375 -0.78125 -0.109375l0 -0.28125l2.515625 0l0 4.78125q0 1.0 0.34375 1.3125q0.34375 0.3125 0.84375 0.3125q0.328125 0 0.75 -0.203125q0.4375 -0.21875 1.015625 -0.8125l0 -4.046875q0 -0.609375 -0.21875 -0.828125q-0.21875 -0.21875 -0.921875 -0.234375l0 -0.28125l2.4375 0zm3.796875 -2.359375l0 2.359375l1.671875 0l0 0.546875l-1.671875 0l0 4.640625q0 0.6875 0.203125 0.9375q0.203125 0.234375 0.515625 0.234375q0.25 0 0.484375 -0.15625q0.25 -0.15625 0.390625 -0.46875l0.296875 0q-0.265625 0.765625 -0.765625 1.15625q-0.5 0.390625 -1.03125 0.390625q-0.359375 0 -0.703125 -0.203125q-0.34375 -0.203125 -0.515625 -0.578125q-0.15625 -0.375 -0.15625 -1.140625l0 -4.8125l-1.140625 0l0 -0.265625q0.4375 -0.171875 0.875 -0.578125q0.453125 -0.40625 0.8125 -0.96875q0.171875 -0.296875 0.5 -1.09375l0.234375 0zm4.1953125 -1.59375q0.328125 0 0.546875 0.234375q0.234375 0.21875 0.234375 0.546875q0 0.328125 -0.234375 0.5625q-0.21875 0.234375 -0.546875 0.234375q-0.328125 0 -0.5625 -0.234375q-0.234375 -0.234375 -0.234375 -0.5625q0 -0.328125 0.21875 -0.546875q0.234375 -0.234375 0.578125 -0.234375zm0.640625 3.734375l0 5.75q0 0.671875 0.09375 0.90625q0.109375 0.21875 0.296875 0.328125q0.1875 0.109375 0.703125 0.109375l0 0.28125l-3.484375 0l0 -0.28125q0.53125 0 0.703125 -0.09375q0.1875 -0.109375 0.28125 -0.34375q0.109375 -0.234375 0.109375 -0.90625l0 -2.75q0 -1.171875 -0.0625 -1.515625q-0.0625 -0.25 -0.1875 -0.34375q-0.109375 -0.09375 -0.3125 -0.09375q-0.21875 0 -0.53125 0.109375l-0.109375 -0.28125l2.15625 -0.875l0.34375 0zm5.4765625 0q1.625 0 2.609375 1.234375q0.84375 1.0625 0.84375 2.421875q0 0.96875 -0.46875 1.953125q-0.453125 0.984375 -1.265625 1.484375q-0.8125 0.5 -1.796875 0.5q-1.625 0 -2.578125 -1.296875q-0.796875 -1.078125 -0.796875 -2.4375q0 -0.984375 0.484375 -1.953125q0.484375 -0.96875 1.28125 -1.4375q0.796875 -0.46875 1.6875 -0.46875zm-0.234375 0.515625q-0.421875 0 -0.84375 0.25q-0.40625 0.234375 -0.671875 0.859375q-0.25 0.609375 -0.25 1.578125q0 1.5625 0.609375 2.703125q0.625 1.125 1.640625 1.125q0.765625 0 1.25 -0.625q0.5 -0.625 0.5 -2.140625q0 -1.90625 -0.828125 -3.0q-0.546875 -0.75 -1.40625 -0.75zm6.828125 1.0q1.25 -1.515625 2.390625 -1.515625q0.59375 0 1.015625 0.296875q0.421875 0.296875 0.671875 0.96875q0.171875 0.46875 0.171875 1.4375l0 3.046875q0 0.6875 0.109375 0.921875q0.078125 0.203125 0.265625 0.3125q0.203125 0.109375 0.71875 0.109375l0 0.28125l-3.546875 0l0 -0.28125l0.15625 0q0.5 0 0.6875 -0.15625q0.203125 -0.15625 0.28125 -0.453125q0.03125 -0.109375 0.03125 -0.734375l0 -2.921875q0 -0.984375 -0.25 -1.421875q-0.25 -0.4375 -0.859375 -0.4375q-0.921875 0 -1.84375 1.015625l0 3.765625q0 0.734375 0.078125 0.90625q0.109375 0.21875 0.296875 0.328125q0.203125 0.109375 0.78125 0.109375l0 0.28125l-3.53125 0l0 -0.28125l0.15625 0q0.546875 0 0.734375 -0.28125q0.1875 -0.28125 0.1875 -1.0625l0 -2.65625q0 -1.28125 -0.0625 -1.5625q-0.046875 -0.28125 -0.171875 -0.375q-0.125 -0.109375 -0.328125 -0.109375q-0.21875 0 -0.515625 0.109375l-0.125 -0.28125l2.15625 -0.875l0.34375 0l0 1.515625z" fill-rule="nonzero"/><path fill="#000000" fill-opacity="0.0" d="m95.47244 59.2769l0 49.6063" fill-rule="evenodd"/><path stroke="#666666" stroke-width="1.0" stroke-linejoin="round" stroke-linecap="butt" stroke-dasharray="4.0,3.0" d="m95.47244 59.2769l0 49.6063" fill-rule="evenodd"/><path fill="#000000" fill-opacity="0.0" d="m299.60104 59.2769l0 49.6063" fill-rule="evenodd"/><path stroke="#666666" stroke-width="1.0" stroke-linejoin="round" stroke-linecap="butt" stroke-dasharray="4.0,3.0" d="m299.60104 59.2769l0 49.6063" fill-rule="evenodd"/><path fill="#000000" fill-opacity="0.0" d="m396.73752 127.75197l0 46.362198" fill-rule="evenodd"/><path stroke="#666666" stroke-width="1.0" stroke-linejoin="round" stroke-linecap="butt" stroke-dasharray="4.0,3.0" d="m396.73752 127.75197l0 46.362198" fill-rule="evenodd"/><path fill="#000000" fill-opacity="0.0" d="m524.48553 59.2769l0 49.6063" fill-rule="evenodd"/><path stroke="#666666" stroke-width="1.0" stroke-linejoin="round" stroke-linecap="butt" stroke-dasharray="4.0,3.0" d="m524.48553 59.2769l0 49.6063" fill-rule="evenodd"/><path fill="#000000" fill-opacity="0.0" d="m674.0026 127.75197l0 46.362198" fill-rule="evenodd"/><path stroke="#666666" stroke-width="1.0" stroke-linejoin="round" stroke-linecap="butt" stroke-dasharray="4.0,3.0" d="m674.0026 127.75197l0 46.362198" fill-rule="evenodd"/><path fill="#000000" fill-opacity="0.0" d="m298.87402 118.3189l98.64566 0" fill-rule="evenodd"/><path stroke="#4a86e8" stroke-width="12.0" stroke-linejoin="round" stroke-linecap="butt" d="m298.87402 118.3189l98.64566 0" fill-rule="evenodd"/><path fill="#434343" d="m86.03937 118.3189l0 0c0 -5.2097473 4.2233353 -9.433075 9.433075 -9.433075l0 0c2.5018005 0 4.901146 0.99383545 6.670189 2.762886c1.769043 1.769043 2.7628784 4.1683807 2.7628784 6.670189l0 0c0 5.2097397 -4.2233276 9.433067 -9.433067 9.433067l0 0c-5.2097397 0 -9.433075 -4.2233276 -9.433075 -9.433067z" fill-rule="evenodd"/><path fill="#434343" d="m807.2362 118.3189l0 0c0 -5.2097473 4.2233276 -9.433075 9.433105 -9.433075l0 0c2.50177 0 4.901123 0.99383545 6.670166 2.762886c1.769043 1.769043 2.7628784 4.1683807 2.7628784 6.670189l0 0c0 5.2097397 -4.2233276 9.433067 -9.433044 9.433067l0 0c-5.209778 0 -9.433105 -4.2233276 -9.433105 -9.433067z" fill-rule="evenodd"/><path fill="#434343" d="m290.16797 118.3189l0 0c0 -5.2097473 4.2233276 -9.433075 9.433075 -9.433075l0 0c2.5018005 0 4.9011536 0.99383545 6.6701965 2.762886c1.769043 1.769043 2.7628784 4.1683807 2.7628784 6.670189l0 0c0 5.2097397 -4.2233276 9.433067 -9.433075 9.433067l0 0c-5.2097473 0 -9.433075 -4.2233276 -9.433075 -9.433067z" fill-rule="evenodd"/><path fill="#434343" d="m387.30447 118.3189l0 0c0 -5.2097473 4.2233276 -9.433075 9.433044 -9.433075l0 0c2.501831 0 4.9011536 0.99383545 6.6701965 2.762886c1.769043 1.769043 2.7628784 4.1683807 2.7628784 6.670189l0 0c0 5.2097397 -4.2233276 9.433067 -9.433075 9.433067l0 0c-5.209717 0 -9.433044 -4.2233276 -9.433044 -9.433067z" fill-rule="evenodd"/><path fill="#434343" d="m664.5696 118.3189l0 0c0 -5.2097473 4.2233276 -9.433075 9.433044 -9.433075l0 0c2.501831 0 4.901123 0.99383545 6.670166 2.762886c1.769043 1.769043 2.7628784 4.1683807 2.7628784 6.670189l0 0c0 5.2097397 -4.2233276 9.433067 -9.433044 9.433067l0 0c-5.209717 0 -9.433044 -4.2233276 -9.433044 -9.433067z" fill-rule="evenodd"/><path fill="#000000" fill-opacity="0.0" d="m524.48553 118.53937l78.36224 0" fill-rule="evenodd"/><path stroke="#4a86e8" stroke-width="12.0" stroke-linejoin="round" stroke-linecap="butt" d="m524.48553 118.53937l78.36224 0" fill-rule="evenodd"/><path fill="#434343" d="m515.0525 118.3189l0 0c0 -5.2097473 4.2233276 -9.433075 9.433044 -9.433075l0 0c2.501831 0 4.901184 0.99383545 6.670227 2.762886c1.769043 1.769043 2.7628784 4.1683807 2.7628784 6.670189l0 0c0 5.2097397 -4.2233276 9.433067 -9.433105 9.433067l0 0c-5.209717 0 -9.433044 -4.2233276 -9.433044 -9.433067z" fill-rule="evenodd"/><path fill="#000000" fill-opacity="0.0" d="m65.062996 127.755905l60.818893 0l0 38.771652l-60.818893 0z" fill-rule="evenodd"/><path fill="#000000" d="m84.69119 141.3034l0 8.65625q0 0.984375 0.078125 1.25q0.09375 0.265625 0.359375 0.4375q0.28125 0.171875 0.875 0.171875l0.25 0l0 0.296875l-5.578125 0l0 -0.296875l0.28125 0q0.671875 0 0.953125 -0.15625q0.296875 -0.15625 0.390625 -0.421875q0.109375 -0.28125 0.109375 -1.28125l0 -5.484375q0 -0.734375 -0.078125 -0.921875q-0.0625 -0.1875 -0.25 -0.3125q-0.1875 -0.125 -0.4375 -0.125q-0.40625 0 -0.96875 0.25l-0.140625 -0.28125l3.890625 -1.78125l0.265625 0zm3.28125 11.03125l0 -0.21875q1.296875 -0.296875 2.1875 -0.875q0.90625 -0.578125 1.4375 -1.421875q0.53125 -0.859375 0.734375 -1.96875q-0.484375 0.25 -0.828125 0.34375q-0.328125 0.09375 -0.703125 0.09375q-1.203125 0 -2.015625 -0.859375q-0.796875 -0.875 -0.796875 -2.375q0 -1.046875 0.4375 -1.921875q0.4375 -0.875 1.234375 -1.34375q0.8125 -0.484375 1.671875 -0.484375q0.9375 0 1.765625 0.53125q0.828125 0.53125 1.3125 1.546875q0.5 1.0 0.5 2.28125q0 1.671875 -0.8125 3.203125q-0.796875 1.53125 -2.390625 2.46875q-1.578125 0.921875 -3.734375 1.0zm4.484375 -5.140625q0.078125 -0.875 0.078125 -1.546875q0 -1.421875 -0.328125 -2.640625q-0.1875 -0.6875 -0.5625 -1.0q-0.1875 -0.171875 -0.5 -0.171875q-0.390625 0 -0.609375 0.328125q-0.3125 0.46875 -0.3125 1.765625q0 2.15625 0.515625 2.984375q0.34375 0.53125 0.90625 0.53125q0.3125 0 0.8125 -0.25zm5.453125 -5.671875l4.96875 0l-0.796875 2.015625l-4.171875 0l-0.390625 1.046875q2.6875 0.109375 4.140625 1.34375q1.203125 1.03125 1.203125 2.546875q0 0.984375 -0.5625 1.921875q-0.546875 0.921875 -1.5625 1.4375q-1.0 0.5 -2.203125 0.5q-1.296875 0 -2.0 -0.484375q-0.484375 -0.34375 -0.484375 -0.78125q0 -0.34375 0.25 -0.59375q0.265625 -0.265625 0.59375 -0.265625q0.3125 0 0.625 0.125q0.3125 0.125 1.0625 0.65625q0.484375 0.328125 0.828125 0.453125q0.234375 0.09375 0.546875 0.09375q0.640625 0 1.078125 -0.46875q0.453125 -0.46875 0.453125 -1.125q0 -1.375 -1.375 -2.234375q-1.375 -0.859375 -3.46875 -0.859375q-0.203125 0 -0.625 0.015625l1.890625 -5.34375zm12.984375 5.296875q0 1.578125 -0.453125 2.953125q-0.265625 0.84375 -0.71875 1.390625q-0.4375 0.53125 -1.015625 0.859375q-0.5625 0.3125 -1.234375 0.3125q-0.765625 0 -1.390625 -0.390625q-0.609375 -0.390625 -1.09375 -1.125q-0.34375 -0.53125 -0.59375 -1.40625q-0.34375 -1.203125 -0.34375 -2.46875q0 -1.734375 0.484375 -3.171875q0.40625 -1.203125 1.21875 -1.828125q0.8125 -0.640625 1.71875 -0.640625q0.921875 0 1.71875 0.625q0.796875 0.625 1.171875 1.6875q0.53125 1.46875 0.53125 3.203125zm-2.40625 -0.015625q0 -2.78125 -0.03125 -3.25q-0.078125 -1.078125 -0.375 -1.46875q-0.203125 -0.25 -0.640625 -0.25q-0.328125 0 -0.53125 0.1875q-0.28125 0.28125 -0.390625 0.96875q-0.09375 0.6875 -0.09375 4.828125q0 2.25 0.15625 3.015625q0.109375 0.546875 0.328125 0.734375q0.21875 0.1875 0.578125 0.1875q0.390625 0 0.59375 -0.25q0.328125 -0.4375 0.375 -1.34375l0.03125 -3.359375z" fill-rule="nonzero"/><path fill="#000000" fill-opacity="0.0" d="m269.1916 127.755905l60.81891 0l0 38.771652l-60.81891 0z" fill-rule="evenodd"/><path fill="#000000" d="m288.8198 141.3034l0 8.65625q0 0.984375 0.078125 1.25q0.09375 0.265625 0.359375 0.4375q0.28125 0.171875 0.875 0.171875l0.25 0l0 0.296875l-5.578125 0l0 -0.296875l0.28125 0q0.671875 0 0.953125 -0.15625q0.296875 -0.15625 0.390625 -0.421875q0.109375 -0.28125 0.109375 -1.28125l0 -5.484375q0 -0.734375 -0.078125 -0.921875q-0.0625 -0.1875 -0.25 -0.3125q-0.1875 -0.125 -0.4375 -0.125q-0.40625 0 -0.96875 0.25l-0.140625 -0.28125l3.890625 -1.78125l0.265625 0zm3.28125 11.03125l0 -0.21875q1.296875 -0.296875 2.1875 -0.875q0.90625 -0.578125 1.4375 -1.421875q0.53125 -0.859375 0.734375 -1.96875q-0.484375 0.25 -0.828125 0.34375q-0.328125 0.09375 -0.703125 0.09375q-1.203125 0 -2.015625 -0.859375q-0.796875 -0.875 -0.796875 -2.375q0 -1.046875 0.4375 -1.921875q0.4375 -0.875 1.234375 -1.34375q0.8125 -0.484375 1.671875 -0.484375q0.9375 0 1.765625 0.53125q0.828125 0.53125 1.3125 1.546875q0.5 1.0 0.5 2.28125q0 1.671875 -0.8125 3.203125q-0.796875 1.53125 -2.390625 2.46875q-1.578125 0.921875 -3.734375 1.0zm4.484375 -5.140625q0.078125 -0.875 0.078125 -1.546875q0 -1.421875 -0.328125 -2.640625q-0.1875 -0.6875 -0.5625 -1.0q-0.1875 -0.171875 -0.5 -0.171875q-0.390625 0 -0.609375 0.328125q-0.3125 0.46875 -0.3125 1.765625q0 2.15625 0.515625 2.984375q0.34375 0.53125 0.90625 0.53125q0.3125 0 0.8125 -0.25zm5.859375 5.140625l2.875 -8.75l-2.1875 0q-1.296875 0 -1.9375 0.34375q-0.453125 0.234375 -0.75 0.875l-0.296875 0l0.765625 -3.28125l6.3125 0l-3.5625 10.8125l-1.21875 0zm7.53125 -5.53125l0 -0.28125q0.890625 -0.25 1.234375 -0.46875q0.34375 -0.234375 0.59375 -0.6875q0.25 -0.453125 0.25 -0.921875q0 -0.65625 -0.484375 -1.109375q-0.46875 -0.46875 -1.171875 -0.46875q-1.09375 0 -1.859375 1.15625l-0.28125 -0.109375q0.5625 -1.296875 1.4375 -1.953125q0.875 -0.65625 1.953125 -0.65625q1.109375 0 1.8125 0.671875q0.71875 0.671875 0.71875 1.5625q0 0.59375 -0.328125 1.140625q-0.328125 0.53125 -1.046875 0.953125q0.921875 0.4375 1.390625 1.09375q0.484375 0.65625 0.484375 1.640625q0 1.65625 -1.203125 2.828125q-1.1875 1.15625 -3.203125 1.15625q-1.34375 0 -1.96875 -0.453125q-0.4375 -0.3125 -0.4375 -0.8125q0 -0.359375 0.25 -0.609375q0.265625 -0.25 0.59375 -0.25q0.265625 0 0.484375 0.109375q0.125 0.0625 0.890625 0.6875q0.765625 0.609375 1.421875 0.609375q0.578125 0 0.984375 -0.453125q0.421875 -0.453125 0.421875 -1.15625q0 -1.078125 -0.75 -1.96875q-0.75 -0.90625 -2.1875 -1.25z" fill-rule="nonzero"/><path fill="#000000" fill-opacity="0.0" d="m366.3281 66.87139l60.81888 0l0 38.771652l-60.81888 0z" fill-rule="evenodd"/><path fill="#000000" d="m385.95627 80.41889l0 8.65625q0 0.984375 0.078125 1.25q0.09375 0.265625 0.359375 0.4375q0.28125 0.171875 0.875 0.171875l0.25 0l0 0.296875l-5.578125 0l0 -0.296875l0.28125 0q0.671875 0 0.953125 -0.15625q0.296875 -0.15625 0.390625 -0.421875q0.109375 -0.28125 0.109375 -1.28125l0 -5.484375q0 -0.734375 -0.078125 -0.921875q-0.0625 -0.1875 -0.25 -0.3125q-0.1875 -0.125 -0.4375 -0.125q-0.40625 0 -0.96875 0.25l-0.140625 -0.28125l3.890625 -1.78125l0.265625 0zm3.28125 11.03125l0 -0.21875q1.296875 -0.296875 2.1875 -0.875q0.90625 -0.578125 1.4375 -1.421875q0.53125 -0.859375 0.734375 -1.96875q-0.484375 0.25 -0.828125 0.34375q-0.328125 0.09375 -0.703125 0.09375q-1.203125 0 -2.015625 -0.859375q-0.796875 -0.875 -0.796875 -2.375q0 -1.046875 0.4375 -1.921875q0.4375 -0.875 1.234375 -1.34375q0.8125 -0.484375 1.671875 -0.484375q0.9375 0 1.765625 0.53125q0.828125 0.53125 1.3125 1.546875q0.5 1.0 0.5 2.28125q0 1.671875 -0.8125 3.203125q-0.796875 1.53125 -2.390625 2.46875q-1.578125 0.921875 -3.734375 1.0zm4.484375 -5.140625q0.078125 -0.875 0.078125 -1.546875q0 -1.421875 -0.328125 -2.640625q-0.1875 -0.6875 -0.5625 -1.0q-0.1875 -0.171875 -0.5 -0.171875q-0.390625 0 -0.609375 0.328125q-0.3125 0.46875 -0.3125 1.765625q0 2.15625 0.515625 2.984375q0.34375 0.53125 0.90625 0.53125q0.3125 0 0.8125 -0.25zm8.46875 -1.0625q1.125 0.8125 1.546875 1.53125q0.4375 0.703125 0.4375 1.609375q0 1.28125 -0.96875 2.171875q-0.953125 0.890625 -2.609375 0.890625q-1.578125 0 -2.4375 -0.765625q-0.859375 -0.78125 -0.859375 -1.90625q0 -0.84375 0.5 -1.484375q0.5 -0.640625 1.65625 -1.171875q-1.265625 -0.96875 -1.625 -1.578125q-0.34375 -0.609375 -0.34375 -1.40625q0 -1.0625 0.890625 -1.875q0.90625 -0.8125 2.484375 -0.8125q1.515625 0 2.328125 0.71875q0.8125 0.71875 0.8125 1.71875q0 0.75 -0.4375 1.328125q-0.4375 0.5625 -1.375 1.03125zm-0.59375 -0.40625q0.296875 -0.390625 0.4375 -0.875q0.140625 -0.484375 0.140625 -1.0625q0 -1.015625 -0.4375 -1.546875q-0.328125 -0.421875 -0.90625 -0.421875q-0.53125 0 -0.90625 0.390625q-0.359375 0.375 -0.359375 0.9375q0 0.5625 0.40625 1.1875q0.421875 0.609375 1.625 1.390625zm-1.5625 1.65625q-0.234375 0.21875 -0.34375 0.390625q-0.15625 0.28125 -0.28125 0.8125q-0.125 0.515625 -0.125 1.078125q0 0.734375 0.1875 1.234375q0.1875 0.5 0.53125 0.71875q0.359375 0.21875 0.71875 0.21875q0.578125 0 0.96875 -0.421875q0.390625 -0.421875 0.390625 -1.140625q0 -1.515625 -2.046875 -2.890625zm12.125 -0.5625q0 1.578125 -0.453125 2.953125q-0.265625 0.84375 -0.71875 1.390625q-0.4375 0.53125 -1.015625 0.859375q-0.5625 0.3125 -1.234375 0.3125q-0.765625 0 -1.390625 -0.390625q-0.609375 -0.390625 -1.09375 -1.125q-0.34375 -0.53125 -0.59375 -1.40625q-0.34375 -1.203125 -0.34375 -2.46875q0 -1.734375 0.484375 -3.171875q0.40625 -1.203125 1.21875 -1.828125q0.8125 -0.640625 1.71875 -0.640625q0.921875 0 1.71875 0.625q0.796875 0.625 1.171875 1.6875q0.53125 1.46875 0.53125 3.203125zm-2.40625 -0.015625q0 -2.78125 -0.03125 -3.25q-0.078125 -1.078125 -0.375 -1.46875q-0.203125 -0.25 -0.640625 -0.25q-0.328125 0 -0.53125 0.1875q-0.28125 0.28125 -0.390625 0.96875q-0.09375 0.6875 -0.09375 4.828125q0 2.25 0.15625 3.015625q0.109375 0.546875 0.328125 0.734375q0.21875 0.1875 0.578125 0.1875q0.390625 0 0.59375 -0.25q0.328125 -0.4375 0.375 -1.34375l0.03125 -3.359375z" fill-rule="nonzero"/><path fill="#000000" fill-opacity="0.0" d="m494.0761 127.755905l60.81891 0l0 38.771652l-60.81891 0z" fill-rule="evenodd"/><path fill="#000000" d="m513.7043 141.3034l0 8.65625q0 0.984375 0.078125 1.25q0.09375 0.265625 0.359375 0.4375q0.28125 0.171875 0.875 0.171875l0.25 0l0 0.296875l-5.5780945 0l0 -0.296875l0.28125 0q0.671875 0 0.953125 -0.15625q0.296875 -0.15625 0.390625 -0.421875q0.109375 -0.28125 0.109375 -1.28125l0 -5.484375q0 -0.734375 -0.078125 -0.921875q-0.0625 -0.1875 -0.25 -0.3125q-0.1875 -0.125 -0.4375 -0.125q-0.40625 0 -0.96875 0.25l-0.140625 -0.28125l3.8905945 -1.78125l0.265625 0zm3.28125 11.03125l0 -0.21875q1.296875 -0.296875 2.1875 -0.875q0.90625 -0.578125 1.4375 -1.421875q0.53125 -0.859375 0.734375 -1.96875q-0.484375 0.25 -0.828125 0.34375q-0.328125 0.09375 -0.703125 0.09375q-1.203125 0 -2.015625 -0.859375q-0.796875 -0.875 -0.796875 -2.375q0 -1.046875 0.4375 -1.921875q0.4375 -0.875 1.234375 -1.34375q0.8125 -0.484375 1.671875 -0.484375q0.9375 0 1.765625 0.53125q0.828125 0.53125 1.3125 1.546875q0.5 1.0 0.5 2.28125q0 1.671875 -0.8125 3.203125q-0.796875 1.53125 -2.390625 2.46875q-1.578125 0.921875 -3.734375 1.0zm4.484375 -5.140625q0.078125 -0.875 0.078125 -1.546875q0 -1.421875 -0.328125 -2.640625q-0.1875 -0.6875 -0.5625 -1.0q-0.1875 -0.171875 -0.5 -0.171875q-0.390625 0 -0.609375 0.328125q-0.3125 0.46875 -0.3125 1.765625q0 2.15625 0.515625 2.984375q0.34375 0.53125 0.90625 0.53125q0.3125 0 0.8125 -0.25zm8.46875 -1.0625q1.125 0.8125 1.546875 1.53125q0.4375 0.703125 0.4375 1.609375q0 1.28125 -0.96875 2.171875q-0.953125 0.890625 -2.609375 0.890625q-1.578125 0 -2.4375 -0.765625q-0.859375 -0.78125 -0.859375 -1.90625q0 -0.84375 0.5 -1.484375q0.5 -0.640625 1.65625 -1.171875q-1.265625 -0.96875 -1.625 -1.578125q-0.34375 -0.609375 -0.34375 -1.40625q0 -1.0625 0.890625 -1.875q0.90625 -0.8125 2.484375 -0.8125q1.515625 0 2.328125 0.71875q0.8125 0.71875 0.8125 1.71875q0 0.75 -0.4375 1.328125q-0.4375 0.5625 -1.375 1.03125zm-0.59375 -0.40625q0.296875 -0.390625 0.4375 -0.875q0.140625 -0.484375 0.140625 -1.0625q0 -1.015625 -0.4375 -1.546875q-0.328125 -0.421875 -0.90625 -0.421875q-0.53125 0 -0.90625 0.390625q-0.359375 0.375 -0.359375 0.9375q0 0.5625 0.40625 1.1875q0.421875 0.609375 1.625 1.390625zm-1.5625 1.65625q-0.234375 0.21875 -0.34375 0.390625q-0.15625 0.28125 -0.28125 0.8125q-0.125 0.515625 -0.125 1.078125q0 0.734375 0.1875 1.234375q0.1875 0.5 0.53125 0.71875q0.359375 0.21875 0.71875 0.21875q0.578125 0 0.96875 -0.421875q0.390625 -0.421875 0.390625 -1.140625q0 -1.515625 -2.046875 -2.890625zm10.15625 -1.25q1.125 0.8125 1.546875 1.53125q0.4375 0.703125 0.4375 1.609375q0 1.28125 -0.96875 2.171875q-0.953125 0.890625 -2.609375 0.890625q-1.578125 0 -2.4375 -0.765625q-0.859375 -0.78125 -0.859375 -1.90625q0 -0.84375 0.5 -1.484375q0.5 -0.640625 1.65625 -1.171875q-1.265625 -0.96875 -1.625 -1.578125q-0.34375 -0.609375 -0.34375 -1.40625q0 -1.0625 0.890625 -1.875q0.90625 -0.8125 2.484375 -0.8125q1.515625 0 2.328125 0.71875q0.8125 0.71875 0.8125 1.71875q0 0.75 -0.4375 1.328125q-0.4375 0.5625 -1.375 1.03125zm-0.59375 -0.40625q0.296875 -0.390625 0.4375 -0.875q0.140625 -0.484375 0.140625 -1.0625q0 -1.015625 -0.4375 -1.546875q-0.328125 -0.421875 -0.90625 -0.421875q-0.53125 0 -0.90625 0.390625q-0.359375 0.375 -0.359375 0.9375q0 0.5625 0.40625 1.1875q0.421875 0.609375 1.625 1.390625zm-1.5625 1.65625q-0.234375 0.21875 -0.34375 0.390625q-0.15625 0.28125 -0.28125 0.8125q-0.125 0.515625 -0.125 1.078125q0 0.734375 0.1875 1.234375q0.1875 0.5 0.53125 0.71875q0.359375 0.21875 0.71875 0.21875q0.578125 0 0.96875 -0.421875q0.390625 -0.421875 0.390625 -1.140625q0 -1.515625 -2.046875 -2.890625z" fill-rule="nonzero"/><path fill="#000000" fill-opacity="0.0" d="m643.5932 67.31233l60.818848 0l0 38.77166l-60.818848 0z" fill-rule="evenodd"/><path fill="#000000" d="m664.6276 91.67233l-6.234375 0l0 -0.171875q2.875 -3.421875 3.484375 -4.59375q0.609375 -1.1875 0.609375 -2.3125q0 -0.8125 -0.515625 -1.359375q-0.5 -0.546875 -1.234375 -0.546875q-1.203125 0 -1.859375 1.203125l-0.296875 -0.09375q0.421875 -1.5 1.28125 -2.21875q0.859375 -0.71875 1.984375 -0.71875q0.8125 0 1.46875 0.375q0.671875 0.375 1.046875 1.03125q0.375 0.640625 0.375 1.21875q0 1.03125 -0.578125 2.109375q-0.796875 1.4375 -3.453125 4.03125l2.296875 0q0.84375 0 1.09375 -0.0625q0.25 -0.078125 0.40625 -0.25q0.171875 -0.171875 0.4375 -0.703125l0.28125 0l-0.59375 3.0625zm8.796875 -5.296875q0 1.578125 -0.453125 2.953125q-0.265625 0.84375 -0.71875 1.390625q-0.4375 0.53125 -1.015625 0.859375q-0.5625 0.3125 -1.234375 0.3125q-0.765625 0 -1.390625 -0.390625q-0.609375 -0.390625 -1.09375 -1.125q-0.34375 -0.53125 -0.59375 -1.40625q-0.34375 -1.203125 -0.34375 -2.46875q0 -1.734375 0.484375 -3.171875q0.40625 -1.203125 1.21875 -1.828125q0.8125 -0.640625 1.71875 -0.640625q0.921875 0 1.71875 0.625q0.796875 0.625 1.171875 1.6875q0.53125 1.46875 0.53125 3.203125zm-2.40625 -0.015625q0 -2.78125 -0.03125 -3.25q-0.078125 -1.078125 -0.375 -1.46875q-0.203125 -0.25 -0.640625 -0.25q-0.328125 0 -0.53125 0.1875q-0.28125 0.28125 -0.390625 0.96875q-0.09375 0.6875 -0.09375 4.828125q0 2.25 0.15625 3.015625q0.109375 0.546875 0.328125 0.734375q0.21875 0.1875 0.578125 0.1875q0.390625 0 0.59375 -0.25q0.328125 -0.4375 0.375 -1.34375l0.03125 -3.359375zm8.203125 -5.5l0 8.65625q0 0.984375 0.078125 1.25q0.09375 0.265625 0.359375 0.4375q0.28125 0.171875 0.875 0.171875l0.25 0l0 0.296875l-5.578125 0l0 -0.296875l0.28125 0q0.671875 0 0.953125 -0.15625q0.296875 -0.15625 0.390625 -0.421875q0.109375 -0.28125 0.109375 -1.28125l0 -5.484375q0 -0.734375 -0.078125 -0.921875q-0.0625 -0.1875 -0.25 -0.3125q-0.1875 -0.125 -0.4375 -0.125q-0.40625 0 -0.96875 0.25l-0.140625 -0.28125l3.890625 -1.78125l0.265625 0zm9.40625 10.8125l-6.234375 0l0 -0.171875q2.875 -3.421875 3.484375 -4.59375q0.609375 -1.1875 0.609375 -2.3125q0 -0.8125 -0.515625 -1.359375q-0.5 -0.546875 -1.234375 -0.546875q-1.203125 0 -1.859375 1.203125l-0.296875 -0.09375q0.421875 -1.5 1.28125 -2.21875q0.859375 -0.71875 1.984375 -0.71875q0.8125 0 1.46875 0.375q0.671875 0.375 1.046875 1.03125q0.375 0.640625 0.375 1.21875q0 1.03125 -0.578125 2.109375q-0.796875 1.4375 -3.453125 4.03125l2.296875 0q0.84375 0 1.09375 -0.0625q0.25 -0.078125 0.40625 -0.25q0.171875 -0.171875 0.4375 -0.703125l0.28125 0l-0.59375 3.0625z" fill-rule="nonzero"/><path fill="#000000" fill-opacity="0.0" d="m786.2598 127.755905l60.81891 0l0 38.771652l-60.81891 0z" fill-rule="evenodd"/><path fill="#000000" d="m807.2943 152.1159l-6.234375 0l0 -0.171875q2.875 -3.421875 3.484375 -4.59375q0.609375 -1.1875 0.609375 -2.3125q0 -0.8125 -0.515625 -1.359375q-0.5 -0.546875 -1.234375 -0.546875q-1.203125 0 -1.859375 1.203125l-0.296875 -0.09375q0.421875 -1.5 1.28125 -2.21875q0.859375 -0.71875 1.984375 -0.71875q0.8125 0 1.46875 0.375q0.671875 0.375 1.046875 1.03125q0.375 0.640625 0.375 1.21875q0 1.03125 -0.578125 2.109375q-0.796875 1.4375 -3.453125 4.03125l2.296875 0q0.84375 0 1.09375 -0.0625q0.25 -0.078125 0.40625 -0.25q0.171875 -0.171875 0.4375 -0.703125l0.28125 0l-0.59375 3.0625zm8.796875 -5.296875q0 1.578125 -0.453125 2.953125q-0.265625 0.84375 -0.71875 1.390625q-0.4375 0.53125 -1.015625 0.859375q-0.5625 0.3125 -1.234375 0.3125q-0.765625 0 -1.390625 -0.390625q-0.609375 -0.390625 -1.09375 -1.125q-0.34375 -0.53125 -0.59375 -1.40625q-0.34375 -1.203125 -0.34375 -2.46875q0 -1.734375 0.484375 -3.171875q0.40625 -1.203125 1.21875 -1.828125q0.8125 -0.640625 1.71875 -0.640625q0.921875 0 1.71875 0.625q0.796875 0.625 1.171875 1.6875q0.53125 1.46875 0.53125 3.203125zm-2.40625 -0.015625q0 -2.78125 -0.03125 -3.25q-0.078125 -1.078125 -0.375 -1.46875q-0.203125 -0.25 -0.640625 -0.25q-0.328125 0 -0.53125 0.1875q-0.28125 0.28125 -0.390625 0.96875q-0.09375 0.6875 -0.09375 4.828125q0 2.25 0.15625 3.015625q0.109375 0.546875 0.328125 0.734375q0.21875 0.1875 0.578125 0.1875q0.390625 0 0.59375 -0.25q0.328125 -0.4375 0.375 -1.34375l0.03125 -3.359375zm9.609375 5.3125l-6.234375 0l0 -0.171875q2.875 -3.421875 3.484375 -4.59375q0.609375 -1.1875 0.609375 -2.3125q0 -0.8125 -0.515625 -1.359375q-0.5 -0.546875 -1.234375 -0.546875q-1.203125 0 -1.859375 1.203125l-0.296875 -0.09375q0.421875 -1.5 1.28125 -2.21875q0.859375 -0.71875 1.984375 -0.71875q0.8125 0 1.46875 0.375q0.671875 0.375 1.046875 1.03125q0.375 0.640625 0.375 1.21875q0 1.03125 -0.578125 2.109375q-0.796875 1.4375 -3.453125 4.03125l2.296875 0q0.84375 0 1.09375 -0.0625q0.25 -0.078125 0.40625 -0.25q0.171875 -0.171875 0.4375 -0.703125l0.28125 0l-0.59375 3.0625zm3.75 -5.3125l0 -0.28125q0.890625 -0.25 1.234375 -0.46875q0.34375 -0.234375 0.59375 -0.6875q0.25 -0.453125 0.25 -0.921875q0 -0.65625 -0.484375 -1.109375q-0.46875 -0.46875 -1.171875 -0.46875q-1.09375 0 -1.859375 1.15625l-0.28125 -0.109375q0.5625 -1.296875 1.4375 -1.953125q0.875 -0.65625 1.953125 -0.65625q1.109375 0 1.8125 0.671875q0.71875 0.671875 0.71875 1.5625q0 0.59375 -0.328125 1.140625q-0.328125 0.53125 -1.046875 0.953125q0.921875 0.4375 1.390625 1.09375q0.484375 0.65625 0.484375 1.640625q0 1.65625 -1.203125 2.828125q-1.1875 1.15625 -3.203125 1.15625q-1.34375 0 -1.96875 -0.453125q-0.4375 -0.3125 -0.4375 -0.8125q0 -0.359375 0.25 -0.609375q0.265625 -0.25 0.59375 -0.25q0.265625 0 0.484375 0.109375q0.125 0.0625 0.890625 0.6875q0.765625 0.609375 1.421875 0.609375q0.578125 0 0.984375 -0.453125q0.421875 -0.453125 0.421875 -1.15625q0 -1.078125 -0.75 -1.96875q-0.75 -0.90625 -2.1875 -1.25z" fill-rule="nonzero"/></g></svg>