<?xml version="1.0" encoding="utf-8" standalone="no"?>
<!DOCTYPE svg PUBLIC "-//W3C//DTD SVG 1.1//EN"
  "http://www.w3.org/Graphics/SVG/1.1/DTD/svg11.dtd">
<svg xmlns:xlink="http://www.w3.org/1999/xlink" width="720pt" height="288pt" viewBox="0 0 720 288" xmlns="http://www.w3.org/2000/svg" version="1.1">
 <metadata>
  <rdf:RDF xmlns:dc="http://purl.org/dc/elements/1.1/" xmlns:cc="http://creativecommons.org/ns#" xmlns:rdf="http://www.w3.org/1999/02/22-rdf-syntax-ns#">
   <cc:Work>
    <dc:type rdf:resource="http://purl.org/dc/dcmitype/StillImage"/>
    <dc:date>2023-02-04T10:39:09.461864</dc:date>
    <dc:format>image/svg+xml</dc:format>
    <dc:creator>
     <cc:Agent>
      <dc:title>Matplotlib v3.5.0, https://matplotlib.org/</dc:title>
     </cc:Agent>
    </dc:creator>
   </cc:Work>
  </rdf:RDF>
 </metadata>
 <defs>
  <style type="text/css">*{stroke-linejoin: round; stroke-linecap: butt}</style>
 </defs>
 <g id="figure_1">
  <g id="patch_1">
   <path d="M 0 288 
L 720 288 
L 720 0 
L 0 0 
z
" style="fill: #ffffff"/>
  </g>
  <g id="axes_1">
   <g id="patch_2">
    <path d="M 54.078 246.612 
L 265.684 246.612 
L 265.684 13.968 
L 54.078 13.968 
z
" style="fill: #ffffff"/>
   </g>
   <g id="matplotlib.axis_1">
    <g id="xtick_1">
     <g id="text_1">
      <!-- −1.0 -->
      <g style="fill: #262626" transform="translate(61.027396 261.598625)scale(0.088 -0.088)">
       <defs>
        <path id="DejaVuSans-2212" d="M 678 2272 
L 4684 2272 
L 4684 1741 
L 678 1741 
L 678 2272 
z
" transform="scale(0.015625)"/>
        <path id="DejaVuSans-31" d="M 794 531 
L 1825 531 
L 1825 4091 
L 703 3866 
L 703 4441 
L 1819 4666 
L 2450 4666 
L 2450 531 
L 3481 531 
L 3481 0 
L 794 0 
L 794 531 
z
" transform="scale(0.015625)"/>
        <path id="DejaVuSans-2e" d="M 684 794 
L 1344 794 
L 1344 0 
L 684 0 
L 684 794 
z
" transform="scale(0.015625)"/>
        <path id="DejaVuSans-30" d="M 2034 4250 
Q 1547 4250 1301 3770 
Q 1056 3291 1056 2328 
Q 1056 1369 1301 889 
Q 1547 409 2034 409 
Q 2525 409 2770 889 
Q 3016 1369 3016 2328 
Q 3016 3291 2770 3770 
Q 2525 4250 2034 4250 
z
M 2034 4750 
Q 2819 4750 3233 4129 
Q 3647 3509 3647 2328 
Q 3647 1150 3233 529 
Q 2819 -91 2034 -91 
Q 1250 -91 836 529 
Q 422 1150 422 2328 
Q 422 3509 836 4129 
Q 1250 4750 2034 4750 
z
" transform="scale(0.015625)"/>
       </defs>
       <use xlink:href="#DejaVuSans-2212"/>
       <use xlink:href="#DejaVuSans-31" x="83.789062"/>
       <use xlink:href="#DejaVuSans-2e" x="147.412109"/>
       <use xlink:href="#DejaVuSans-30" x="179.199219"/>
      </g>
     </g>
    </g>
    <g id="xtick_2">
     <g id="text_2">
      <!-- −0.5 -->
      <g style="fill: #262626" transform="translate(105.111979 261.598625)scale(0.088 -0.088)">
       <defs>
        <path id="DejaVuSans-35" d="M 691 4666 
L 3169 4666 
L 3169 4134 
L 1269 4134 
L 1269 2991 
Q 1406 3038 1543 3061 
Q 1681 3084 1819 3084 
Q 2600 3084 3056 2656 
Q 3513 2228 3513 1497 
Q 3513 744 3044 326 
Q 2575 -91 1722 -91 
Q 1428 -91 1123 -41 
Q 819 9 494 109 
L 494 744 
Q 775 591 1075 516 
Q 1375 441 1709 441 
Q 2250 441 2565 725 
Q 2881 1009 2881 1497 
Q 2881 1984 2565 2268 
Q 2250 2553 1709 2553 
Q 1456 2553 1204 2497 
Q 953 2441 691 2322 
L 691 4666 
z
" transform="scale(0.015625)"/>
       </defs>
       <use xlink:href="#DejaVuSans-2212"/>
       <use xlink:href="#DejaVuSans-30" x="83.789062"/>
       <use xlink:href="#DejaVuSans-2e" x="147.412109"/>
       <use xlink:href="#DejaVuSans-35" x="179.199219"/>
      </g>
     </g>
    </g>
    <g id="xtick_3">
     <g id="text_3">
      <!-- 0.0 -->
      <g style="fill: #262626" transform="translate(152.883625 261.598625)scale(0.088 -0.088)">
       <use xlink:href="#DejaVuSans-30"/>
       <use xlink:href="#DejaVuSans-2e" x="63.623047"/>
       <use xlink:href="#DejaVuSans-30" x="95.410156"/>
      </g>
     </g>
    </g>
    <g id="xtick_4">
     <g id="text_4">
      <!-- 0.5 -->
      <g style="fill: #262626" transform="translate(196.968208 261.598625)scale(0.088 -0.088)">
       <use xlink:href="#DejaVuSans-30"/>
       <use xlink:href="#DejaVuSans-2e" x="63.623047"/>
       <use xlink:href="#DejaVuSans-35" x="95.410156"/>
      </g>
     </g>
    </g>
    <g id="xtick_5">
     <g id="text_5">
      <!-- 1.0 -->
      <g style="fill: #262626" transform="translate(241.052792 261.598625)scale(0.088 -0.088)">
       <use xlink:href="#DejaVuSans-31"/>
       <use xlink:href="#DejaVuSans-2e" x="63.623047"/>
       <use xlink:href="#DejaVuSans-30" x="95.410156"/>
      </g>
     </g>
    </g>
    <g id="text_6">
     <!-- $x$ -->
     <g style="fill: #262626" transform="translate(157.001 274.72325)scale(0.096 -0.096)">
      <defs>
       <path id="DejaVuSans-Oblique-78" d="M 3841 3500 
L 2234 1784 
L 3219 0 
L 2559 0 
L 1819 1388 
L 531 0 
L -166 0 
L 1556 1844 
L 641 3500 
L 1300 3500 
L 1972 2234 
L 3144 3500 
L 3841 3500 
z
" transform="scale(0.015625)"/>
      </defs>
      <use xlink:href="#DejaVuSans-Oblique-78" transform="translate(0 0.3125)"/>
     </g>
    </g>
   </g>
   <g id="matplotlib.axis_2">
    <g id="ytick_1">
     <g id="text_7">
      <!-- −0.2 -->
      <g style="fill: #262626" transform="translate(24.409125 249.955312)scale(0.088 -0.088)">
       <defs>
        <path id="DejaVuSans-32" d="M 1228 531 
L 3431 531 
L 3431 0 
L 469 0 
L 469 531 
Q 828 903 1448 1529 
Q 2069 2156 2228 2338 
Q 2531 2678 2651 2914 
Q 2772 3150 2772 3378 
Q 2772 3750 2511 3984 
Q 2250 4219 1831 4219 
Q 1534 4219 1204 4116 
Q 875 4013 500 3803 
L 500 4441 
Q 881 4594 1212 4672 
Q 1544 4750 1819 4750 
Q 2544 4750 2975 4387 
Q 3406 4025 3406 3419 
Q 3406 3131 3298 2873 
Q 3191 2616 2906 2266 
Q 2828 2175 2409 1742 
Q 1991 1309 1228 531 
z
" transform="scale(0.015625)"/>
       </defs>
       <use xlink:href="#DejaVuSans-2212"/>
       <use xlink:href="#DejaVuSans-30" x="83.789062"/>
       <use xlink:href="#DejaVuSans-2e" x="147.412109"/>
       <use xlink:href="#DejaVuSans-32" x="179.199219"/>
      </g>
     </g>
    </g>
    <g id="ytick_2">
     <g id="text_8">
      <!-- 0.0 -->
      <g style="fill: #262626" transform="translate(31.78325 216.720455)scale(0.088 -0.088)">
       <use xlink:href="#DejaVuSans-30"/>
       <use xlink:href="#DejaVuSans-2e" x="63.623047"/>
       <use xlink:href="#DejaVuSans-30" x="95.410156"/>
      </g>
     </g>
    </g>
    <g id="ytick_3">
     <g id="text_9">
      <!-- 0.2 -->
      <g style="fill: #262626" transform="translate(31.78325 183.485598)scale(0.088 -0.088)">
       <use xlink:href="#DejaVuSans-30"/>
       <use xlink:href="#DejaVuSans-2e" x="63.623047"/>
       <use xlink:href="#DejaVuSans-32" x="95.410156"/>
      </g>
     </g>
    </g>
    <g id="ytick_4">
     <g id="text_10">
      <!-- 0.4 -->
      <g style="fill: #262626" transform="translate(31.78325 150.250741)scale(0.088 -0.088)">
       <defs>
        <path id="DejaVuSans-34" d="M 2419 4116 
L 825 1625 
L 2419 1625 
L 2419 4116 
z
M 2253 4666 
L 3047 4666 
L 3047 1625 
L 3713 1625 
L 3713 1100 
L 3047 1100 
L 3047 0 
L 2419 0 
L 2419 1100 
L 313 1100 
L 313 1709 
L 2253 4666 
z
" transform="scale(0.015625)"/>
       </defs>
       <use xlink:href="#DejaVuSans-30"/>
       <use xlink:href="#DejaVuSans-2e" x="63.623047"/>
       <use xlink:href="#DejaVuSans-34" x="95.410156"/>
      </g>
     </g>
    </g>
    <g id="ytick_5">
     <g id="text_11">
      <!-- 0.6 -->
      <g style="fill: #262626" transform="translate(31.78325 117.015884)scale(0.088 -0.088)">
       <defs>
        <path id="DejaVuSans-36" d="M 2113 2584 
Q 1688 2584 1439 2293 
Q 1191 2003 1191 1497 
Q 1191 994 1439 701 
Q 1688 409 2113 409 
Q 2538 409 2786 701 
Q 3034 994 3034 1497 
Q 3034 2003 2786 2293 
Q 2538 2584 2113 2584 
z
M 3366 4563 
L 3366 3988 
Q 3128 4100 2886 4159 
Q 2644 4219 2406 4219 
Q 1781 4219 1451 3797 
Q 1122 3375 1075 2522 
Q 1259 2794 1537 2939 
Q 1816 3084 2150 3084 
Q 2853 3084 3261 2657 
Q 3669 2231 3669 1497 
Q 3669 778 3244 343 
Q 2819 -91 2113 -91 
Q 1303 -91 875 529 
Q 447 1150 447 2328 
Q 447 3434 972 4092 
Q 1497 4750 2381 4750 
Q 2619 4750 2861 4703 
Q 3103 4656 3366 4563 
z
" transform="scale(0.015625)"/>
       </defs>
       <use xlink:href="#DejaVuSans-30"/>
       <use xlink:href="#DejaVuSans-2e" x="63.623047"/>
       <use xlink:href="#DejaVuSans-36" x="95.410156"/>
      </g>
     </g>
    </g>
    <g id="ytick_6">
     <g id="text_12">
      <!-- 0.8 -->
      <g style="fill: #262626" transform="translate(31.78325 83.781027)scale(0.088 -0.088)">
       <defs>
        <path id="DejaVuSans-38" d="M 2034 2216 
Q 1584 2216 1326 1975 
Q 1069 1734 1069 1313 
Q 1069 891 1326 650 
Q 1584 409 2034 409 
Q 2484 409 2743 651 
Q 3003 894 3003 1313 
Q 3003 1734 2745 1975 
Q 2488 2216 2034 2216 
z
M 1403 2484 
Q 997 2584 770 2862 
Q 544 3141 544 3541 
Q 544 4100 942 4425 
Q 1341 4750 2034 4750 
Q 2731 4750 3128 4425 
Q 3525 4100 3525 3541 
Q 3525 3141 3298 2862 
Q 3072 2584 2669 2484 
Q 3125 2378 3379 2068 
Q 3634 1759 3634 1313 
Q 3634 634 3220 271 
Q 2806 -91 2034 -91 
Q 1263 -91 848 271 
Q 434 634 434 1313 
Q 434 1759 690 2068 
Q 947 2378 1403 2484 
z
M 1172 3481 
Q 1172 3119 1398 2916 
Q 1625 2713 2034 2713 
Q 2441 2713 2670 2916 
Q 2900 3119 2900 3481 
Q 2900 3844 2670 4047 
Q 2441 4250 2034 4250 
Q 1625 4250 1398 4047 
Q 1172 3844 1172 3481 
z
" transform="scale(0.015625)"/>
       </defs>
       <use xlink:href="#DejaVuSans-30"/>
       <use xlink:href="#DejaVuSans-2e" x="63.623047"/>
       <use xlink:href="#DejaVuSans-38" x="95.410156"/>
      </g>
     </g>
    </g>
    <g id="ytick_7">
     <g id="text_13">
      <!-- 1.0 -->
      <g style="fill: #262626" transform="translate(31.78325 50.54617)scale(0.088 -0.088)">
       <use xlink:href="#DejaVuSans-31"/>
       <use xlink:href="#DejaVuSans-2e" x="63.623047"/>
       <use xlink:href="#DejaVuSans-30" x="95.410156"/>
      </g>
     </g>
    </g>
    <g id="ytick_8">
     <g id="text_14">
      <!-- 1.2 -->
      <g style="fill: #262626" transform="translate(31.78325 17.311313)scale(0.088 -0.088)">
       <use xlink:href="#DejaVuSans-31"/>
       <use xlink:href="#DejaVuSans-2e" x="63.623047"/>
       <use xlink:href="#DejaVuSans-32" x="95.410156"/>
      </g>
     </g>
    </g>
    <g id="text_15">
     <!-- $y$ -->
     <g style="fill: #262626" transform="translate(18.393125 133.17)rotate(-90)scale(0.096 -0.096)">
      <defs>
       <path id="DejaVuSans-Oblique-79" d="M 1588 -325 
Q 1188 -997 936 -1164 
Q 684 -1331 294 -1331 
L -159 -1331 
L -63 -850 
L 269 -850 
Q 509 -850 678 -719 
Q 847 -588 1056 -206 
L 1234 128 
L 459 3500 
L 1069 3500 
L 1650 819 
L 3256 3500 
L 3859 3500 
L 1588 -325 
z
" transform="scale(0.015625)"/>
      </defs>
      <use xlink:href="#DejaVuSans-Oblique-79" transform="translate(0 0.3125)"/>
     </g>
    </g>
   </g>
   <g id="PathCollection_1">
    <defs>
     <path id="mcb00f86421" d="M -2.4 0 
L 2.4 0 
M 0 2.4 
L 0 -2.4 
" style="stroke: #1e90ff; stroke-width: 1.2"/>
    </defs>
    <g clip-path="url(#p9f77a3ff53)">
     <use xlink:href="#mcb00f86421" x="71.711833" y="47.202857" style="fill: #1e90ff; stroke: #1e90ff; stroke-width: 1.2"/>
     <use xlink:href="#mcb00f86421" x="84.499629" y="-1" style="fill: #1e90ff; stroke: #1e90ff; stroke-width: 1.2"/>
    </g>
   </g>
   <g id="line2d_1">
    <path d="M 59.737288 -1 
L 64.386467 18.443246 
L 68.975853 36.729725 
L 73.565239 54.115734 
L 78.154625 70.601272 
L 82.390982 85.019458 
L 86.627338 98.670379 
L 90.863694 111.554035 
L 94.747021 122.690032 
L 98.630348 133.181313 
L 102.513674 143.027879 
L 106.397001 152.229729 
L 109.927298 160.035584 
L 113.457595 167.308615 
L 116.987892 174.048824 
L 120.165159 179.659448 
L 123.342426 184.838486 
L 126.519694 189.585938 
L 129.696961 193.901802 
L 132.521199 197.375807 
L 135.345436 200.508806 
L 138.169674 203.300797 
L 140.993911 205.751782 
L 143.465119 207.616662 
L 145.936327 209.220459 
L 148.407535 210.563172 
L 150.878743 211.644803 
L 153.349951 212.46535 
L 155.821158 213.024814 
L 158.292366 213.323195 
L 160.410545 213.371149 
L 162.528723 213.227286 
L 164.999931 212.817013 
L 167.471138 212.145656 
L 169.942346 211.213216 
L 172.413554 210.019693 
L 174.884762 208.565087 
L 177.35597 206.849397 
L 179.827178 204.872625 
L 182.298386 202.634769 
L 185.122623 199.757525 
L 187.946861 196.539275 
L 190.771098 192.980019 
L 193.595336 189.079756 
L 196.772603 184.28435 
L 199.949871 179.057359 
L 203.127138 173.39878 
L 206.304405 167.308615 
L 209.834702 160.035584 
L 213.364999 152.229729 
L 216.895296 143.891052 
L 220.778623 134.103097 
L 224.661949 123.670426 
L 228.545276 112.593039 
L 232.428603 100.870937 
L 236.664959 87.347894 
L 240.901315 73.057585 
L 245.137672 58.000012 
L 249.727058 40.821804 
L 254.316444 22.743126 
L 258.90583 3.763977 
L 260.024712 -1 
L 260.024712 -1 
" clip-path="url(#p9f77a3ff53)" style="fill: none; stroke: #1f77b4; stroke-opacity: 0.5; stroke-width: 1.2; stroke-linecap: round"/>
   </g>
   <g id="line2d_2">
    <path d="M 71.711833 47.202857 
L 84.499629 -1 
" clip-path="url(#p9f77a3ff53)" style="fill: none; stroke: #1e90ff; stroke-width: 1.2; stroke-linecap: round"/>
   </g>
   <g id="patch_3">
    <path d="M 54.078 246.612 
L 54.078 13.968 
" style="fill: none; stroke: #262626; stroke-linejoin: miter; stroke-linecap: square"/>
   </g>
   <g id="patch_4">
    <path d="M 265.684 246.612 
L 265.684 13.968 
" style="fill: none; stroke: #262626; stroke-linejoin: miter; stroke-linecap: square"/>
   </g>
   <g id="patch_5">
    <path d="M 54.078 246.612 
L 265.684 246.612 
" style="fill: none; stroke: #262626; stroke-linejoin: miter; stroke-linecap: square"/>
   </g>
   <g id="patch_6">
    <path d="M 54.078 13.968 
L 265.684 13.968 
" style="fill: none; stroke: #262626; stroke-linejoin: miter; stroke-linecap: square"/>
   </g>
   <g id="legend_1">
    <g id="patch_7">
     <path d="M 201.796 242.212 
L 259.524 242.212 
Q 261.284 242.212 261.284 240.452 
L 261.284 214.15925 
Q 261.284 212.39925 259.524 212.39925 
L 201.796 212.39925 
Q 200.036 212.39925 200.036 214.15925 
L 200.036 240.452 
Q 200.036 242.212 201.796 242.212 
z
" style="fill: #ffffff; opacity: 0.8; stroke: #cccccc; stroke-width: 0.8; stroke-linejoin: miter"/>
    </g>
    <g id="line2d_3">
     <path d="M 203.556 220.84725 
L 212.356 220.84725 
L 221.156 220.84725 
" style="fill: none; stroke: #1f77b4; stroke-opacity: 0.5; stroke-width: 1.2; stroke-linecap: round"/>
    </g>
    <g id="text_16">
     <!-- $y = x^2$ -->
     <g style="fill: #262626" transform="translate(228.196 223.92725)scale(0.088 -0.088)">
      <defs>
       <path id="DejaVuSans-3d" d="M 678 2906 
L 4684 2906 
L 4684 2381 
L 678 2381 
L 678 2906 
z
M 678 1631 
L 4684 1631 
L 4684 1100 
L 678 1100 
L 678 1631 
z
" transform="scale(0.015625)"/>
      </defs>
      <use xlink:href="#DejaVuSans-Oblique-79" transform="translate(0 0.765625)"/>
      <use xlink:href="#DejaVuSans-3d" transform="translate(78.662109 0.765625)"/>
      <use xlink:href="#DejaVuSans-Oblique-78" transform="translate(181.933594 0.765625)"/>
      <use xlink:href="#DejaVuSans-32" transform="translate(245.579427 39.046875)scale(0.7)"/>
     </g>
    </g>
    <g id="PathCollection_2">
     <g>
      <use xlink:href="#mcb00f86421" x="212.356" y="234.551875" style="fill: #1e90ff; stroke: #1e90ff; stroke-width: 1.2"/>
     </g>
    </g>
    <g id="text_17">
     <!-- $\epsilon = 2.0$ -->
     <g style="fill: #262626" transform="translate(228.196 236.861875)scale(0.088 -0.088)">
      <defs>
       <path id="DejaVuSans-Oblique-3b5" d="M 1263 1888 
Q 925 1963 778 2166 
Q 669 2309 669 2503 
Q 669 3034 1175 3344 
Q 1575 3588 2188 3588 
Q 2425 3588 2684 3550 
Q 2944 3513 3234 3438 
L 3134 2916 
Q 2847 3006 2606 3047 
Q 2359 3088 2138 3088 
Q 1766 3088 1522 2944 
Q 1228 2772 1228 2522 
Q 1228 2356 1381 2241 
Q 1563 2103 1925 2103 
L 2409 2103 
L 2319 1628 
L 1856 1628 
Q 1425 1628 1172 1469 
Q 828 1253 828 916 
Q 828 703 1013 563 
Q 1244 388 1716 388 
Q 2006 388 2284 444 
Q 2563 503 2806 619 
L 2700 84 
Q 2403 -3 2131 -47 
Q 1859 -91 1609 -91 
Q 866 -91 516 194 
Q 250 413 250 781 
Q 250 1278 600 1584 
Q 859 1813 1263 1888 
z
" transform="scale(0.015625)"/>
      </defs>
      <use xlink:href="#DejaVuSans-Oblique-3b5" transform="translate(0 0.78125)"/>
      <use xlink:href="#DejaVuSans-3d" transform="translate(73.535156 0.78125)"/>
      <use xlink:href="#DejaVuSans-32" transform="translate(176.806641 0.78125)"/>
      <use xlink:href="#DejaVuSans-2e" transform="translate(240.429688 0.78125)"/>
      <use xlink:href="#DejaVuSans-30" transform="translate(272.216797 0.78125)"/>
     </g>
    </g>
   </g>
  </g>
  <g id="axes_2">
   <g id="patch_8">
    <path d="M 276.052 246.612 
L 487.658 246.612 
L 487.658 13.968 
L 276.052 13.968 
z
" style="fill: #ffffff"/>
   </g>
   <g id="matplotlib.axis_3">
    <g id="xtick_6">
     <g id="text_18">
      <!-- −1.0 -->
      <g style="fill: #262626" transform="translate(283.001396 261.598625)scale(0.088 -0.088)">
       <use xlink:href="#DejaVuSans-2212"/>
       <use xlink:href="#DejaVuSans-31" x="83.789062"/>
       <use xlink:href="#DejaVuSans-2e" x="147.412109"/>
       <use xlink:href="#DejaVuSans-30" x="179.199219"/>
      </g>
     </g>
    </g>
    <g id="xtick_7">
     <g id="text_19">
      <!-- −0.5 -->
      <g style="fill: #262626" transform="translate(327.085979 261.598625)scale(0.088 -0.088)">
       <use xlink:href="#DejaVuSans-2212"/>
       <use xlink:href="#DejaVuSans-30" x="83.789062"/>
       <use xlink:href="#DejaVuSans-2e" x="147.412109"/>
       <use xlink:href="#DejaVuSans-35" x="179.199219"/>
      </g>
     </g>
    </g>
    <g id="xtick_8">
     <g id="text_20">
      <!-- 0.0 -->
      <g style="fill: #262626" transform="translate(374.857625 261.598625)scale(0.088 -0.088)">
       <use xlink:href="#DejaVuSans-30"/>
       <use xlink:href="#DejaVuSans-2e" x="63.623047"/>
       <use xlink:href="#DejaVuSans-30" x="95.410156"/>
      </g>
     </g>
    </g>
    <g id="xtick_9">
     <g id="text_21">
      <!-- 0.5 -->
      <g style="fill: #262626" transform="translate(418.942208 261.598625)scale(0.088 -0.088)">
       <use xlink:href="#DejaVuSans-30"/>
       <use xlink:href="#DejaVuSans-2e" x="63.623047"/>
       <use xlink:href="#DejaVuSans-35" x="95.410156"/>
      </g>
     </g>
    </g>
    <g id="xtick_10">
     <g id="text_22">
      <!-- 1.0 -->
      <g style="fill: #262626" transform="translate(463.026792 261.598625)scale(0.088 -0.088)">
       <use xlink:href="#DejaVuSans-31"/>
       <use xlink:href="#DejaVuSans-2e" x="63.623047"/>
       <use xlink:href="#DejaVuSans-30" x="95.410156"/>
      </g>
     </g>
    </g>
    <g id="text_23">
     <!-- $x$ -->
     <g style="fill: #262626" transform="translate(378.975 274.72325)scale(0.096 -0.096)">
      <use xlink:href="#DejaVuSans-Oblique-78" transform="translate(0 0.3125)"/>
     </g>
    </g>
   </g>
   <g id="matplotlib.axis_4"/>
   <g id="PathCollection_3">
    <defs>
     <path id="m41344853c4" d="M -2.4 0 
L 2.4 0 
M 0 2.4 
L 0 -2.4 
" style="stroke: #ff8c00; stroke-width: 1.2"/>
    </defs>
    <g clip-path="url(#p083cb551ff)">
     <use xlink:href="#m41344853c4" x="293.685833" y="47.202857" style="fill: #ff8c00; stroke: #ff8c00; stroke-width: 1.2"/>
     <use xlink:href="#m41344853c4" x="470.024167" y="47.202857" style="fill: #ff8c00; stroke: #ff8c00; stroke-width: 1.2"/>
     <use xlink:href="#m41344853c4" x="293.685833" y="47.202857" style="fill: #ff8c00; stroke: #ff8c00; stroke-width: 1.2"/>
     <use xlink:href="#m41344853c4" x="470.024167" y="47.202857" style="fill: #ff8c00; stroke: #ff8c00; stroke-width: 1.2"/>
     <use xlink:href="#m41344853c4" x="293.685833" y="47.202857" style="fill: #ff8c00; stroke: #ff8c00; stroke-width: 1.2"/>
     <use xlink:href="#m41344853c4" x="470.024167" y="47.202857" style="fill: #ff8c00; stroke: #ff8c00; stroke-width: 1.2"/>
     <use xlink:href="#m41344853c4" x="293.685833" y="47.202857" style="fill: #ff8c00; stroke: #ff8c00; stroke-width: 1.2"/>
     <use xlink:href="#m41344853c4" x="470.024167" y="47.202857" style="fill: #ff8c00; stroke: #ff8c00; stroke-width: 1.2"/>
     <use xlink:href="#m41344853c4" x="293.685833" y="47.202857" style="fill: #ff8c00; stroke: #ff8c00; stroke-width: 1.2"/>
     <use xlink:href="#m41344853c4" x="470.024167" y="47.202857" style="fill: #ff8c00; stroke: #ff8c00; stroke-width: 1.2"/>
     <use xlink:href="#m41344853c4" x="293.685833" y="47.202857" style="fill: #ff8c00; stroke: #ff8c00; stroke-width: 1.2"/>
    </g>
   </g>
   <g id="line2d_4">
    <path d="M 281.711288 -1 
L 286.360467 18.443246 
L 290.949853 36.729725 
L 295.539239 54.115734 
L 300.128625 70.601272 
L 304.364982 85.019458 
L 308.601338 98.670379 
L 312.837694 111.554035 
L 316.721021 122.690032 
L 320.604348 133.181313 
L 324.487674 143.027879 
L 328.371001 152.229729 
L 331.901298 160.035584 
L 335.431595 167.308615 
L 338.961892 174.048824 
L 342.139159 179.659448 
L 345.316426 184.838486 
L 348.493694 189.585938 
L 351.670961 193.901802 
L 354.495199 197.375807 
L 357.319436 200.508806 
L 360.143674 203.300797 
L 362.967911 205.751782 
L 365.439119 207.616662 
L 367.910327 209.220459 
L 370.381535 210.563172 
L 372.852743 211.644803 
L 375.323951 212.46535 
L 377.795158 213.024814 
L 380.266366 213.323195 
L 382.384545 213.371149 
L 384.502723 213.227286 
L 386.973931 212.817013 
L 389.445138 212.145656 
L 391.916346 211.213216 
L 394.387554 210.019693 
L 396.858762 208.565087 
L 399.32997 206.849397 
L 401.801178 204.872625 
L 404.272386 202.634769 
L 407.096623 199.757525 
L 409.920861 196.539275 
L 412.745098 192.980019 
L 415.569336 189.079756 
L 418.746603 184.28435 
L 421.923871 179.057359 
L 425.101138 173.39878 
L 428.278405 167.308615 
L 431.808702 160.035584 
L 435.338999 152.229729 
L 438.869296 143.891052 
L 442.752623 134.103097 
L 446.635949 123.670426 
L 450.519276 112.593039 
L 454.402603 100.870937 
L 458.638959 87.347894 
L 462.875315 73.057585 
L 467.111672 58.000012 
L 471.701058 40.821804 
L 476.290444 22.743126 
L 480.87983 3.763977 
L 481.998712 -1 
L 481.998712 -1 
" clip-path="url(#p083cb551ff)" style="fill: none; stroke: #1f77b4; stroke-opacity: 0.5; stroke-width: 1.2; stroke-linecap: round"/>
   </g>
   <g id="line2d_5">
    <path d="M 293.685833 47.202857 
L 470.024167 47.202857 
L 293.685833 47.202857 
L 470.024167 47.202857 
L 293.685833 47.202857 
L 470.024167 47.202857 
L 293.685833 47.202857 
L 470.024167 47.202857 
L 293.685833 47.202857 
L 470.024167 47.202857 
L 293.685833 47.202857 
" clip-path="url(#p083cb551ff)" style="fill: none; stroke: #ff8c00; stroke-width: 1.2; stroke-linecap: round"/>
   </g>
   <g id="patch_9">
    <path d="M 276.052 246.612 
L 276.052 13.968 
" style="fill: none; stroke: #262626; stroke-linejoin: miter; stroke-linecap: square"/>
   </g>
   <g id="patch_10">
    <path d="M 487.658 246.612 
L 487.658 13.968 
" style="fill: none; stroke: #262626; stroke-linejoin: miter; stroke-linecap: square"/>
   </g>
   <g id="patch_11">
    <path d="M 276.052 246.612 
L 487.658 246.612 
" style="fill: none; stroke: #262626; stroke-linejoin: miter; stroke-linecap: square"/>
   </g>
   <g id="patch_12">
    <path d="M 276.052 13.968 
L 487.658 13.968 
" style="fill: none; stroke: #262626; stroke-linejoin: miter; stroke-linecap: square"/>
   </g>
   <g id="legend_2">
    <g id="patch_13">
     <path d="M 423.77 242.212 
L 481.498 242.212 
Q 483.258 242.212 483.258 240.452 
L 483.258 214.15925 
Q 483.258 212.39925 481.498 212.39925 
L 423.77 212.39925 
Q 422.01 212.39925 422.01 214.15925 
L 422.01 240.452 
Q 422.01 242.212 423.77 242.212 
z
" style="fill: #ffffff; opacity: 0.8; stroke: #cccccc; stroke-width: 0.8; stroke-linejoin: miter"/>
    </g>
    <g id="line2d_6">
     <path d="M 425.53 220.84725 
L 434.33 220.84725 
L 443.13 220.84725 
" style="fill: none; stroke: #1f77b4; stroke-opacity: 0.5; stroke-width: 1.2; stroke-linecap: round"/>
    </g>
    <g id="text_24">
     <!-- $y = x^2$ -->
     <g style="fill: #262626" transform="translate(450.17 223.92725)scale(0.088 -0.088)">
      <use xlink:href="#DejaVuSans-Oblique-79" transform="translate(0 0.765625)"/>
      <use xlink:href="#DejaVuSans-3d" transform="translate(78.662109 0.765625)"/>
      <use xlink:href="#DejaVuSans-Oblique-78" transform="translate(181.933594 0.765625)"/>
      <use xlink:href="#DejaVuSans-32" transform="translate(245.579427 39.046875)scale(0.7)"/>
     </g>
    </g>
    <g id="PathCollection_4">
     <g>
      <use xlink:href="#m41344853c4" x="434.33" y="234.551875" style="fill: #ff8c00; stroke: #ff8c00; stroke-width: 1.2"/>
     </g>
    </g>
    <g id="text_25">
     <!-- $\epsilon = 1.0$ -->
     <g style="fill: #262626" transform="translate(450.17 236.861875)scale(0.088 -0.088)">
      <use xlink:href="#DejaVuSans-Oblique-3b5" transform="translate(0 0.78125)"/>
      <use xlink:href="#DejaVuSans-3d" transform="translate(73.535156 0.78125)"/>
      <use xlink:href="#DejaVuSans-31" transform="translate(176.806641 0.78125)"/>
      <use xlink:href="#DejaVuSans-2e" transform="translate(240.429688 0.78125)"/>
      <use xlink:href="#DejaVuSans-30" transform="translate(272.216797 0.78125)"/>
     </g>
    </g>
   </g>
  </g>
  <g id="axes_3">
   <g id="patch_14">
    <path d="M 498.026 246.612 
L 709.632 246.612 
L 709.632 13.968 
L 498.026 13.968 
z
" style="fill: #ffffff"/>
   </g>
   <g id="matplotlib.axis_5">
    <g id="xtick_11">
     <g id="text_26">
      <!-- −1.0 -->
      <g style="fill: #262626" transform="translate(504.975396 261.598625)scale(0.088 -0.088)">
       <use xlink:href="#DejaVuSans-2212"/>
       <use xlink:href="#DejaVuSans-31" x="83.789062"/>
       <use xlink:href="#DejaVuSans-2e" x="147.412109"/>
       <use xlink:href="#DejaVuSans-30" x="179.199219"/>
      </g>
     </g>
    </g>
    <g id="xtick_12">
     <g id="text_27">
      <!-- −0.5 -->
      <g style="fill: #262626" transform="translate(549.059979 261.598625)scale(0.088 -0.088)">
       <use xlink:href="#DejaVuSans-2212"/>
       <use xlink:href="#DejaVuSans-30" x="83.789062"/>
       <use xlink:href="#DejaVuSans-2e" x="147.412109"/>
       <use xlink:href="#DejaVuSans-35" x="179.199219"/>
      </g>
     </g>
    </g>
    <g id="xtick_13">
     <g id="text_28">
      <!-- 0.0 -->
      <g style="fill: #262626" transform="translate(596.831625 261.598625)scale(0.088 -0.088)">
       <use xlink:href="#DejaVuSans-30"/>
       <use xlink:href="#DejaVuSans-2e" x="63.623047"/>
       <use xlink:href="#DejaVuSans-30" x="95.410156"/>
      </g>
     </g>
    </g>
    <g id="xtick_14">
     <g id="text_29">
      <!-- 0.5 -->
      <g style="fill: #262626" transform="translate(640.916208 261.598625)scale(0.088 -0.088)">
       <use xlink:href="#DejaVuSans-30"/>
       <use xlink:href="#DejaVuSans-2e" x="63.623047"/>
       <use xlink:href="#DejaVuSans-35" x="95.410156"/>
      </g>
     </g>
    </g>
    <g id="xtick_15">
     <g id="text_30">
      <!-- 1.0 -->
      <g style="fill: #262626" transform="translate(685.000792 261.598625)scale(0.088 -0.088)">
       <use xlink:href="#DejaVuSans-31"/>
       <use xlink:href="#DejaVuSans-2e" x="63.623047"/>
       <use xlink:href="#DejaVuSans-30" x="95.410156"/>
      </g>
     </g>
    </g>
    <g id="text_31">
     <!-- $x$ -->
     <g style="fill: #262626" transform="translate(600.949 274.72325)scale(0.096 -0.096)">
      <use xlink:href="#DejaVuSans-Oblique-78" transform="translate(0 0.3125)"/>
     </g>
    </g>
   </g>
   <g id="matplotlib.axis_6"/>
   <g id="PathCollection_5">
    <defs>
     <path id="me74aca2c15" d="M -2.4 0 
L 2.4 0 
M 0 2.4 
L 0 -2.4 
" style="stroke: #dc143c; stroke-width: 1.2"/>
    </defs>
    <g clip-path="url(#p9916ba2255)">
     <use xlink:href="#me74aca2c15" x="515.659833" y="47.202857" style="fill: #dc143c; stroke: #dc143c; stroke-width: 1.2"/>
     <use xlink:href="#me74aca2c15" x="533.293667" y="107.0256" style="fill: #dc143c; stroke: #dc143c; stroke-width: 1.2"/>
     <use xlink:href="#me74aca2c15" x="547.400733" y="145.312155" style="fill: #dc143c; stroke: #dc143c; stroke-width: 1.2"/>
     <use xlink:href="#me74aca2c15" x="558.686387" y="169.815551" style="fill: #dc143c; stroke: #dc143c; stroke-width: 1.2"/>
     <use xlink:href="#me74aca2c15" x="567.714909" y="185.497724" style="fill: #dc143c; stroke: #dc143c; stroke-width: 1.2"/>
     <use xlink:href="#me74aca2c15" x="574.937727" y="195.534315" style="fill: #dc143c; stroke: #dc143c; stroke-width: 1.2"/>
     <use xlink:href="#me74aca2c15" x="580.715982" y="201.957733" style="fill: #dc143c; stroke: #dc143c; stroke-width: 1.2"/>
     <use xlink:href="#me74aca2c15" x="585.338586" y="206.06872" style="fill: #dc143c; stroke: #dc143c; stroke-width: 1.2"/>
     <use xlink:href="#me74aca2c15" x="589.036668" y="208.699753" style="fill: #dc143c; stroke: #dc143c; stroke-width: 1.2"/>
     <use xlink:href="#me74aca2c15" x="591.995135" y="210.383613" style="fill: #dc143c; stroke: #dc143c; stroke-width: 1.2"/>
     <use xlink:href="#me74aca2c15" x="594.361908" y="211.461284" style="fill: #dc143c; stroke: #dc143c; stroke-width: 1.2"/>
    </g>
   </g>
   <g id="line2d_7">
    <path d="M 503.685288 -1 
L 508.334467 18.443246 
L 512.923853 36.729725 
L 517.513239 54.115734 
L 522.102625 70.601272 
L 526.338982 85.019458 
L 530.575338 98.670379 
L 534.811694 111.554035 
L 538.695021 122.690032 
L 542.578348 133.181313 
L 546.461674 143.027879 
L 550.345001 152.229729 
L 553.875298 160.035584 
L 557.405595 167.308615 
L 560.935892 174.048824 
L 564.113159 179.659448 
L 567.290426 184.838486 
L 570.467694 189.585938 
L 573.644961 193.901802 
L 576.469199 197.375807 
L 579.293436 200.508806 
L 582.117674 203.300797 
L 584.941911 205.751782 
L 587.413119 207.616662 
L 589.884327 209.220459 
L 592.355535 210.563172 
L 594.826743 211.644803 
L 597.297951 212.46535 
L 599.769158 213.024814 
L 602.240366 213.323195 
L 604.358545 213.371149 
L 606.476723 213.227286 
L 608.947931 212.817013 
L 611.419138 212.145656 
L 613.890346 211.213216 
L 616.361554 210.019693 
L 618.832762 208.565087 
L 621.30397 206.849397 
L 623.775178 204.872625 
L 626.246386 202.634769 
L 629.070623 199.757525 
L 631.894861 196.539275 
L 634.719098 192.980019 
L 637.543336 189.079756 
L 640.720603 184.28435 
L 643.897871 179.057359 
L 647.075138 173.39878 
L 650.252405 167.308615 
L 653.782702 160.035584 
L 657.312999 152.229729 
L 660.843296 143.891052 
L 664.726623 134.103097 
L 668.609949 123.670426 
L 672.493276 112.593039 
L 676.376603 100.870937 
L 680.612959 87.347894 
L 684.849315 73.057585 
L 689.085672 58.000012 
L 693.675058 40.821804 
L 698.264444 22.743126 
L 702.85383 3.763977 
L 703.972712 -1 
L 703.972712 -1 
" clip-path="url(#p9916ba2255)" style="fill: none; stroke: #1f77b4; stroke-opacity: 0.5; stroke-width: 1.2; stroke-linecap: round"/>
   </g>
   <g id="line2d_8">
    <path d="M 515.659833 47.202857 
L 533.293667 107.0256 
L 547.400733 145.312155 
L 558.686387 169.815551 
L 567.714909 185.497724 
L 574.937727 195.534315 
L 580.715982 201.957733 
L 585.338586 206.06872 
L 589.036668 208.699753 
L 591.995135 210.383613 
L 594.361908 211.461284 
" clip-path="url(#p9916ba2255)" style="fill: none; stroke: #dc143c; stroke-width: 1.2; stroke-linecap: round"/>
   </g>
   <g id="patch_15">
    <path d="M 498.026 246.612 
L 498.026 13.968 
" style="fill: none; stroke: #262626; stroke-linejoin: miter; stroke-linecap: square"/>
   </g>
   <g id="patch_16">
    <path d="M 709.632 246.612 
L 709.632 13.968 
" style="fill: none; stroke: #262626; stroke-linejoin: miter; stroke-linecap: square"/>
   </g>
   <g id="patch_17">
    <path d="M 498.026 246.612 
L 709.632 246.612 
" style="fill: none; stroke: #262626; stroke-linejoin: miter; stroke-linecap: square"/>
   </g>
   <g id="patch_18">
    <path d="M 498.026 13.968 
L 709.632 13.968 
" style="fill: none; stroke: #262626; stroke-linejoin: miter; stroke-linecap: square"/>
   </g>
   <g id="legend_3">
    <g id="patch_19">
     <path d="M 645.744 242.212 
L 703.472 242.212 
Q 705.232 242.212 705.232 240.452 
L 705.232 214.15925 
Q 705.232 212.39925 703.472 212.39925 
L 645.744 212.39925 
Q 643.984 212.39925 643.984 214.15925 
L 643.984 240.452 
Q 643.984 242.212 645.744 242.212 
z
" style="fill: #ffffff; opacity: 0.8; stroke: #cccccc; stroke-width: 0.8; stroke-linejoin: miter"/>
    </g>
    <g id="line2d_9">
     <path d="M 647.504 220.84725 
L 656.304 220.84725 
L 665.104 220.84725 
" style="fill: none; stroke: #1f77b4; stroke-opacity: 0.5; stroke-width: 1.2; stroke-linecap: round"/>
    </g>
    <g id="text_32">
     <!-- $y = x^2$ -->
     <g style="fill: #262626" transform="translate(672.144 223.92725)scale(0.088 -0.088)">
      <use xlink:href="#DejaVuSans-Oblique-79" transform="translate(0 0.765625)"/>
      <use xlink:href="#DejaVuSans-3d" transform="translate(78.662109 0.765625)"/>
      <use xlink:href="#DejaVuSans-Oblique-78" transform="translate(181.933594 0.765625)"/>
      <use xlink:href="#DejaVuSans-32" transform="translate(245.579427 39.046875)scale(0.7)"/>
     </g>
    </g>
    <g id="PathCollection_6">
     <g>
      <use xlink:href="#me74aca2c15" x="656.304" y="234.551875" style="fill: #dc143c; stroke: #dc143c; stroke-width: 1.2"/>
     </g>
    </g>
    <g id="text_33">
     <!-- $\epsilon = 0.1$ -->
     <g style="fill: #262626" transform="translate(672.144 236.861875)scale(0.088 -0.088)">
      <use xlink:href="#DejaVuSans-Oblique-3b5" transform="translate(0 0.78125)"/>
      <use xlink:href="#DejaVuSans-3d" transform="translate(73.535156 0.78125)"/>
      <use xlink:href="#DejaVuSans-30" transform="translate(176.806641 0.78125)"/>
      <use xlink:href="#DejaVuSans-2e" transform="translate(240.429688 0.78125)"/>
      <use xlink:href="#DejaVuSans-31" transform="translate(272.216797 0.78125)"/>
     </g>
    </g>
   </g>
  </g>
 </g>
 <defs>
  <clipPath id="p9f77a3ff53">
   <rect x="54.078" y="13.968" width="211.606" height="232.644"/>
  </clipPath>
  <clipPath id="p083cb551ff">
   <rect x="276.052" y="13.968" width="211.606" height="232.644"/>
  </clipPath>
  <clipPath id="p9916ba2255">
   <rect x="498.026" y="13.968" width="211.606" height="232.644"/>
  </clipPath>
 </defs>
</svg>
