<?xml version="1.0" encoding="utf-8" standalone="no"?>
<!DOCTYPE svg PUBLIC "-//W3C//DTD SVG 1.1//EN"
  "http://www.w3.org/Graphics/SVG/1.1/DTD/svg11.dtd">
<svg xmlns:xlink="http://www.w3.org/1999/xlink" width="720pt" height="288pt" viewBox="0 0 720 288" xmlns="http://www.w3.org/2000/svg" version="1.1">
 <metadata>
  <rdf:RDF xmlns:dc="http://purl.org/dc/elements/1.1/" xmlns:cc="http://creativecommons.org/ns#" xmlns:rdf="http://www.w3.org/1999/02/22-rdf-syntax-ns#">
   <cc:Work>
    <dc:type rdf:resource="http://purl.org/dc/dcmitype/StillImage"/>
    <dc:date>2023-02-03T12:21:48.530936</dc:date>
    <dc:format>image/svg+xml</dc:format>
    <dc:creator>
     <cc:Agent>
      <dc:title>Matplotlib v3.5.0, https://matplotlib.org/</dc:title>
     </cc:Agent>
    </dc:creator>
   </cc:Work>
  </rdf:RDF>
 </metadata>
 <defs>
  <style type="text/css">*{stroke-linejoin: round; stroke-linecap: butt}</style>
 </defs>
 <g id="figure_1">
  <g id="patch_1">
   <path d="M 0 288 
L 720 288 
L 720 0 
L 0 0 
z
" style="fill: #ffffff"/>
  </g>
  <g id="axes_1">
   <g id="patch_2">
    <path d="M 90 256.32 
L 254.117647 256.32 
L 254.117647 34.56 
L 90 34.56 
z
" style="fill: #ffffff"/>
   </g>
   <g id="matplotlib.axis_1">
    <g id="xtick_1">
     <g id="text_1">
      <!-- −1.0 -->
      <g style="fill: #262626" transform="translate(92.992033 271.306625)scale(0.088 -0.088)">
       <defs>
        <path id="DejaVuSans-2212" d="M 678 2272 
L 4684 2272 
L 4684 1741 
L 678 1741 
L 678 2272 
z
" transform="scale(0.015625)"/>
        <path id="DejaVuSans-31" d="M 794 531 
L 1825 531 
L 1825 4091 
L 703 3866 
L 703 4441 
L 1819 4666 
L 2450 4666 
L 2450 531 
L 3481 531 
L 3481 0 
L 794 0 
L 794 531 
z
" transform="scale(0.015625)"/>
        <path id="DejaVuSans-2e" d="M 684 794 
L 1344 794 
L 1344 0 
L 684 0 
L 684 794 
z
" transform="scale(0.015625)"/>
        <path id="DejaVuSans-30" d="M 2034 4250 
Q 1547 4250 1301 3770 
Q 1056 3291 1056 2328 
Q 1056 1369 1301 889 
Q 1547 409 2034 409 
Q 2525 409 2770 889 
Q 3016 1369 3016 2328 
Q 3016 3291 2770 3770 
Q 2525 4250 2034 4250 
z
M 2034 4750 
Q 2819 4750 3233 4129 
Q 3647 3509 3647 2328 
Q 3647 1150 3233 529 
Q 2819 -91 2034 -91 
Q 1250 -91 836 529 
Q 422 1150 422 2328 
Q 422 3509 836 4129 
Q 1250 4750 2034 4750 
z
" transform="scale(0.015625)"/>
       </defs>
       <use xlink:href="#DejaVuSans-2212"/>
       <use xlink:href="#DejaVuSans-31" x="83.789062"/>
       <use xlink:href="#DejaVuSans-2e" x="147.412109"/>
       <use xlink:href="#DejaVuSans-30" x="179.199219"/>
      </g>
     </g>
    </g>
    <g id="xtick_2">
     <g id="text_2">
      <!-- −0.5 -->
      <g style="fill: #262626" transform="translate(127.18321 271.306625)scale(0.088 -0.088)">
       <defs>
        <path id="DejaVuSans-35" d="M 691 4666 
L 3169 4666 
L 3169 4134 
L 1269 4134 
L 1269 2991 
Q 1406 3038 1543 3061 
Q 1681 3084 1819 3084 
Q 2600 3084 3056 2656 
Q 3513 2228 3513 1497 
Q 3513 744 3044 326 
Q 2575 -91 1722 -91 
Q 1428 -91 1123 -41 
Q 819 9 494 109 
L 494 744 
Q 775 591 1075 516 
Q 1375 441 1709 441 
Q 2250 441 2565 725 
Q 2881 1009 2881 1497 
Q 2881 1984 2565 2268 
Q 2250 2553 1709 2553 
Q 1456 2553 1204 2497 
Q 953 2441 691 2322 
L 691 4666 
z
" transform="scale(0.015625)"/>
       </defs>
       <use xlink:href="#DejaVuSans-2212"/>
       <use xlink:href="#DejaVuSans-30" x="83.789062"/>
       <use xlink:href="#DejaVuSans-2e" x="147.412109"/>
       <use xlink:href="#DejaVuSans-35" x="179.199219"/>
      </g>
     </g>
    </g>
    <g id="xtick_3">
     <g id="text_3">
      <!-- 0.0 -->
      <g style="fill: #262626" transform="translate(165.061449 271.306625)scale(0.088 -0.088)">
       <use xlink:href="#DejaVuSans-30"/>
       <use xlink:href="#DejaVuSans-2e" x="63.623047"/>
       <use xlink:href="#DejaVuSans-30" x="95.410156"/>
      </g>
     </g>
    </g>
    <g id="xtick_4">
     <g id="text_4">
      <!-- 0.5 -->
      <g style="fill: #262626" transform="translate(199.252625 271.306625)scale(0.088 -0.088)">
       <use xlink:href="#DejaVuSans-30"/>
       <use xlink:href="#DejaVuSans-2e" x="63.623047"/>
       <use xlink:href="#DejaVuSans-35" x="95.410156"/>
      </g>
     </g>
    </g>
    <g id="xtick_5">
     <g id="text_5">
      <!-- 1.0 -->
      <g style="fill: #262626" transform="translate(233.443801 271.306625)scale(0.088 -0.088)">
       <use xlink:href="#DejaVuSans-31"/>
       <use xlink:href="#DejaVuSans-2e" x="63.623047"/>
       <use xlink:href="#DejaVuSans-30" x="95.410156"/>
      </g>
     </g>
    </g>
    <g id="text_6">
     <!-- $x$ -->
     <g style="fill: #262626" transform="translate(169.178824 284.43125)scale(0.096 -0.096)">
      <defs>
       <path id="DejaVuSans-Oblique-78" d="M 3841 3500 
L 2234 1784 
L 3219 0 
L 2559 0 
L 1819 1388 
L 531 0 
L -166 0 
L 1556 1844 
L 641 3500 
L 1300 3500 
L 1972 2234 
L 3144 3500 
L 3841 3500 
z
" transform="scale(0.015625)"/>
      </defs>
      <use xlink:href="#DejaVuSans-Oblique-78" transform="translate(0 0.3125)"/>
     </g>
    </g>
   </g>
   <g id="matplotlib.axis_2">
    <g id="ytick_1">
     <g id="text_7">
      <!-- −0.2 -->
      <g style="fill: #262626" transform="translate(60.331125 259.663313)scale(0.088 -0.088)">
       <defs>
        <path id="DejaVuSans-32" d="M 1228 531 
L 3431 531 
L 3431 0 
L 469 0 
L 469 531 
Q 828 903 1448 1529 
Q 2069 2156 2228 2338 
Q 2531 2678 2651 2914 
Q 2772 3150 2772 3378 
Q 2772 3750 2511 3984 
Q 2250 4219 1831 4219 
Q 1534 4219 1204 4116 
Q 875 4013 500 3803 
L 500 4441 
Q 881 4594 1212 4672 
Q 1544 4750 1819 4750 
Q 2544 4750 2975 4387 
Q 3406 4025 3406 3419 
Q 3406 3131 3298 2873 
Q 3191 2616 2906 2266 
Q 2828 2175 2409 1742 
Q 1991 1309 1228 531 
z
" transform="scale(0.015625)"/>
       </defs>
       <use xlink:href="#DejaVuSans-2212"/>
       <use xlink:href="#DejaVuSans-30" x="83.789062"/>
       <use xlink:href="#DejaVuSans-2e" x="147.412109"/>
       <use xlink:href="#DejaVuSans-32" x="179.199219"/>
      </g>
     </g>
    </g>
    <g id="ytick_2">
     <g id="text_8">
      <!-- 0.0 -->
      <g style="fill: #262626" transform="translate(67.70525 227.983313)scale(0.088 -0.088)">
       <use xlink:href="#DejaVuSans-30"/>
       <use xlink:href="#DejaVuSans-2e" x="63.623047"/>
       <use xlink:href="#DejaVuSans-30" x="95.410156"/>
      </g>
     </g>
    </g>
    <g id="ytick_3">
     <g id="text_9">
      <!-- 0.2 -->
      <g style="fill: #262626" transform="translate(67.70525 196.303313)scale(0.088 -0.088)">
       <use xlink:href="#DejaVuSans-30"/>
       <use xlink:href="#DejaVuSans-2e" x="63.623047"/>
       <use xlink:href="#DejaVuSans-32" x="95.410156"/>
      </g>
     </g>
    </g>
    <g id="ytick_4">
     <g id="text_10">
      <!-- 0.4 -->
      <g style="fill: #262626" transform="translate(67.70525 164.623312)scale(0.088 -0.088)">
       <defs>
        <path id="DejaVuSans-34" d="M 2419 4116 
L 825 1625 
L 2419 1625 
L 2419 4116 
z
M 2253 4666 
L 3047 4666 
L 3047 1625 
L 3713 1625 
L 3713 1100 
L 3047 1100 
L 3047 0 
L 2419 0 
L 2419 1100 
L 313 1100 
L 313 1709 
L 2253 4666 
z
" transform="scale(0.015625)"/>
       </defs>
       <use xlink:href="#DejaVuSans-30"/>
       <use xlink:href="#DejaVuSans-2e" x="63.623047"/>
       <use xlink:href="#DejaVuSans-34" x="95.410156"/>
      </g>
     </g>
    </g>
    <g id="ytick_5">
     <g id="text_11">
      <!-- 0.6 -->
      <g style="fill: #262626" transform="translate(67.70525 132.943312)scale(0.088 -0.088)">
       <defs>
        <path id="DejaVuSans-36" d="M 2113 2584 
Q 1688 2584 1439 2293 
Q 1191 2003 1191 1497 
Q 1191 994 1439 701 
Q 1688 409 2113 409 
Q 2538 409 2786 701 
Q 3034 994 3034 1497 
Q 3034 2003 2786 2293 
Q 2538 2584 2113 2584 
z
M 3366 4563 
L 3366 3988 
Q 3128 4100 2886 4159 
Q 2644 4219 2406 4219 
Q 1781 4219 1451 3797 
Q 1122 3375 1075 2522 
Q 1259 2794 1537 2939 
Q 1816 3084 2150 3084 
Q 2853 3084 3261 2657 
Q 3669 2231 3669 1497 
Q 3669 778 3244 343 
Q 2819 -91 2113 -91 
Q 1303 -91 875 529 
Q 447 1150 447 2328 
Q 447 3434 972 4092 
Q 1497 4750 2381 4750 
Q 2619 4750 2861 4703 
Q 3103 4656 3366 4563 
z
" transform="scale(0.015625)"/>
       </defs>
       <use xlink:href="#DejaVuSans-30"/>
       <use xlink:href="#DejaVuSans-2e" x="63.623047"/>
       <use xlink:href="#DejaVuSans-36" x="95.410156"/>
      </g>
     </g>
    </g>
    <g id="ytick_6">
     <g id="text_12">
      <!-- 0.8 -->
      <g style="fill: #262626" transform="translate(67.70525 101.263312)scale(0.088 -0.088)">
       <defs>
        <path id="DejaVuSans-38" d="M 2034 2216 
Q 1584 2216 1326 1975 
Q 1069 1734 1069 1313 
Q 1069 891 1326 650 
Q 1584 409 2034 409 
Q 2484 409 2743 651 
Q 3003 894 3003 1313 
Q 3003 1734 2745 1975 
Q 2488 2216 2034 2216 
z
M 1403 2484 
Q 997 2584 770 2862 
Q 544 3141 544 3541 
Q 544 4100 942 4425 
Q 1341 4750 2034 4750 
Q 2731 4750 3128 4425 
Q 3525 4100 3525 3541 
Q 3525 3141 3298 2862 
Q 3072 2584 2669 2484 
Q 3125 2378 3379 2068 
Q 3634 1759 3634 1313 
Q 3634 634 3220 271 
Q 2806 -91 2034 -91 
Q 1263 -91 848 271 
Q 434 634 434 1313 
Q 434 1759 690 2068 
Q 947 2378 1403 2484 
z
M 1172 3481 
Q 1172 3119 1398 2916 
Q 1625 2713 2034 2713 
Q 2441 2713 2670 2916 
Q 2900 3119 2900 3481 
Q 2900 3844 2670 4047 
Q 2441 4250 2034 4250 
Q 1625 4250 1398 4047 
Q 1172 3844 1172 3481 
z
" transform="scale(0.015625)"/>
       </defs>
       <use xlink:href="#DejaVuSans-30"/>
       <use xlink:href="#DejaVuSans-2e" x="63.623047"/>
       <use xlink:href="#DejaVuSans-38" x="95.410156"/>
      </g>
     </g>
    </g>
    <g id="ytick_7">
     <g id="text_13">
      <!-- 1.0 -->
      <g style="fill: #262626" transform="translate(67.70525 69.583312)scale(0.088 -0.088)">
       <use xlink:href="#DejaVuSans-31"/>
       <use xlink:href="#DejaVuSans-2e" x="63.623047"/>
       <use xlink:href="#DejaVuSans-30" x="95.410156"/>
      </g>
     </g>
    </g>
    <g id="ytick_8">
     <g id="text_14">
      <!-- 1.2 -->
      <g style="fill: #262626" transform="translate(67.70525 37.903312)scale(0.088 -0.088)">
       <use xlink:href="#DejaVuSans-31"/>
       <use xlink:href="#DejaVuSans-2e" x="63.623047"/>
       <use xlink:href="#DejaVuSans-32" x="95.410156"/>
      </g>
     </g>
    </g>
    <g id="text_15">
     <!-- $y$ -->
     <g style="fill: #262626" transform="translate(54.315125 148.32)rotate(-90)scale(0.096 -0.096)">
      <defs>
       <path id="DejaVuSans-Oblique-79" d="M 1588 -325 
Q 1188 -997 936 -1164 
Q 684 -1331 294 -1331 
L -159 -1331 
L -63 -850 
L 269 -850 
Q 509 -850 678 -719 
Q 847 -588 1056 -206 
L 1234 128 
L 459 3500 
L 1069 3500 
L 1650 819 
L 3256 3500 
L 3859 3500 
L 1588 -325 
z
" transform="scale(0.015625)"/>
      </defs>
      <use xlink:href="#DejaVuSans-Oblique-79" transform="translate(0 0.3125)"/>
     </g>
    </g>
   </g>
   <g id="PathCollection_1">
    <defs>
     <path id="mc3a6732136" d="M -2.4 0 
L 2.4 0 
M 0 2.4 
L 0 -2.4 
" style="stroke: #1e90ff; stroke-width: 1.2"/>
    </defs>
    <g clip-path="url(#p55fd04e25e)">
     <use xlink:href="#mc3a6732136" x="103.676471" y="66.24" style="fill: #1e90ff; stroke: #1e90ff; stroke-width: 1.2"/>
     <use xlink:href="#mc3a6732136" x="118.190452" y="-1" style="fill: #1e90ff; stroke: #1e90ff; stroke-width: 1.2"/>
    </g>
   </g>
   <g id="line2d_1">
    <path d="M 90.443087 -1 
L 94.709415 21.97391 
L 98.816464 42.924591 
L 102.923512 62.732507 
L 106.756757 80.188868 
L 110.590002 96.649754 
L 114.423247 112.115165 
L 117.982689 125.584548 
L 121.54213 138.195588 
L 124.827769 149.074705 
L 128.113408 159.222453 
L 131.399046 168.638831 
L 134.410881 176.628024 
L 137.422717 184.002664 
L 140.434552 190.76275 
L 143.172584 196.374993 
L 145.910616 201.47934 
L 148.374845 205.639003 
L 150.839074 209.38727 
L 153.303303 212.724142 
L 155.493729 215.344881 
L 157.684155 217.640568 
L 159.87458 219.611202 
L 162.065006 221.256783 
L 163.981629 222.430021 
L 165.898251 223.35439 
L 167.814874 224.029891 
L 169.731496 224.456523 
L 171.648119 224.634286 
L 173.564741 224.563181 
L 175.481364 224.243207 
L 177.397986 223.674364 
L 179.314609 222.856653 
L 181.231231 221.790073 
L 183.147854 220.474624 
L 185.064476 218.910306 
L 187.254902 216.817778 
L 189.445328 214.400196 
L 191.635753 211.657562 
L 194.099982 208.183558 
L 196.564211 204.298159 
L 199.02844 200.001365 
L 201.766472 194.744649 
L 204.504505 188.980037 
L 207.242537 182.707531 
L 210.254372 175.221154 
L 213.266207 167.120224 
L 216.278043 158.404741 
L 219.563681 148.196046 
L 222.84932 137.255982 
L 226.408762 124.578915 
L 229.968203 111.043506 
L 233.527645 96.649754 
L 237.36089 80.188868 
L 241.194135 62.732507 
L 245.02738 44.280671 
L 249.134429 23.406175 
L 253.241477 1.388915 
L 253.67456 -1 
L 253.67456 -1 
" clip-path="url(#p55fd04e25e)" style="fill: none; stroke: #1f77b4; stroke-opacity: 0.5; stroke-width: 1.2; stroke-linecap: round"/>
   </g>
   <g id="line2d_2">
    <path d="M 103.676471 66.24 
L 118.190452 -1 
" clip-path="url(#p55fd04e25e)" style="fill: none; stroke: #1e90ff; stroke-width: 1.2; stroke-linecap: round"/>
   </g>
   <g id="patch_3">
    <path d="M 90 256.32 
L 90 34.56 
" style="fill: none; stroke: #262626; stroke-linejoin: miter; stroke-linecap: square"/>
   </g>
   <g id="patch_4">
    <path d="M 254.117647 256.32 
L 254.117647 34.56 
" style="fill: none; stroke: #262626; stroke-linejoin: miter; stroke-linecap: square"/>
   </g>
   <g id="patch_5">
    <path d="M 90 256.32 
L 254.117647 256.32 
" style="fill: none; stroke: #262626; stroke-linejoin: miter; stroke-linecap: square"/>
   </g>
   <g id="patch_6">
    <path d="M 90 34.56 
L 254.117647 34.56 
" style="fill: none; stroke: #262626; stroke-linejoin: miter; stroke-linecap: square"/>
   </g>
   <g id="legend_1">
    <g id="patch_7">
     <path d="M 190.229647 251.92 
L 247.957647 251.92 
Q 249.717647 251.92 249.717647 250.16 
L 249.717647 223.86725 
Q 249.717647 222.10725 247.957647 222.10725 
L 190.229647 222.10725 
Q 188.469647 222.10725 188.469647 223.86725 
L 188.469647 250.16 
Q 188.469647 251.92 190.229647 251.92 
z
" style="fill: #ffffff; opacity: 0.8; stroke: #cccccc; stroke-width: 0.8; stroke-linejoin: miter"/>
    </g>
    <g id="line2d_3">
     <path d="M 191.989647 230.55525 
L 200.789647 230.55525 
L 209.589647 230.55525 
" style="fill: none; stroke: #1f77b4; stroke-opacity: 0.5; stroke-width: 1.2; stroke-linecap: round"/>
    </g>
    <g id="text_16">
     <!-- $y = x^2$ -->
     <g style="fill: #262626" transform="translate(216.629647 233.63525)scale(0.088 -0.088)">
      <defs>
       <path id="DejaVuSans-3d" d="M 678 2906 
L 4684 2906 
L 4684 2381 
L 678 2381 
L 678 2906 
z
M 678 1631 
L 4684 1631 
L 4684 1100 
L 678 1100 
L 678 1631 
z
" transform="scale(0.015625)"/>
      </defs>
      <use xlink:href="#DejaVuSans-Oblique-79" transform="translate(0 0.765625)"/>
      <use xlink:href="#DejaVuSans-3d" transform="translate(78.662109 0.765625)"/>
      <use xlink:href="#DejaVuSans-Oblique-78" transform="translate(181.933594 0.765625)"/>
      <use xlink:href="#DejaVuSans-32" transform="translate(245.579427 39.046875)scale(0.7)"/>
     </g>
    </g>
    <g id="PathCollection_2">
     <g>
      <use xlink:href="#mc3a6732136" x="200.789647" y="244.259875" style="fill: #1e90ff; stroke: #1e90ff; stroke-width: 1.2"/>
     </g>
    </g>
    <g id="text_17">
     <!-- $\epsilon = 2.0$ -->
     <g style="fill: #262626" transform="translate(216.629647 246.569875)scale(0.088 -0.088)">
      <defs>
       <path id="DejaVuSans-Oblique-3b5" d="M 1263 1888 
Q 925 1963 778 2166 
Q 669 2309 669 2503 
Q 669 3034 1175 3344 
Q 1575 3588 2188 3588 
Q 2425 3588 2684 3550 
Q 2944 3513 3234 3438 
L 3134 2916 
Q 2847 3006 2606 3047 
Q 2359 3088 2138 3088 
Q 1766 3088 1522 2944 
Q 1228 2772 1228 2522 
Q 1228 2356 1381 2241 
Q 1563 2103 1925 2103 
L 2409 2103 
L 2319 1628 
L 1856 1628 
Q 1425 1628 1172 1469 
Q 828 1253 828 916 
Q 828 703 1013 563 
Q 1244 388 1716 388 
Q 2006 388 2284 444 
Q 2563 503 2806 619 
L 2700 84 
Q 2403 -3 2131 -47 
Q 1859 -91 1609 -91 
Q 866 -91 516 194 
Q 250 413 250 781 
Q 250 1278 600 1584 
Q 859 1813 1263 1888 
z
" transform="scale(0.015625)"/>
      </defs>
      <use xlink:href="#DejaVuSans-Oblique-3b5" transform="translate(0 0.78125)"/>
      <use xlink:href="#DejaVuSans-3d" transform="translate(73.535156 0.78125)"/>
      <use xlink:href="#DejaVuSans-32" transform="translate(176.806641 0.78125)"/>
      <use xlink:href="#DejaVuSans-2e" transform="translate(240.429688 0.78125)"/>
      <use xlink:href="#DejaVuSans-30" transform="translate(272.216797 0.78125)"/>
     </g>
    </g>
   </g>
  </g>
  <g id="axes_2">
   <g id="patch_8">
    <path d="M 286.941176 256.32 
L 451.058824 256.32 
L 451.058824 34.56 
L 286.941176 34.56 
z
" style="fill: #ffffff"/>
   </g>
   <g id="matplotlib.axis_3">
    <g id="xtick_6">
     <g id="text_18">
      <!-- −1.0 -->
      <g style="fill: #262626" transform="translate(289.93321 271.306625)scale(0.088 -0.088)">
       <use xlink:href="#DejaVuSans-2212"/>
       <use xlink:href="#DejaVuSans-31" x="83.789062"/>
       <use xlink:href="#DejaVuSans-2e" x="147.412109"/>
       <use xlink:href="#DejaVuSans-30" x="179.199219"/>
      </g>
     </g>
    </g>
    <g id="xtick_7">
     <g id="text_19">
      <!-- −0.5 -->
      <g style="fill: #262626" transform="translate(324.124386 271.306625)scale(0.088 -0.088)">
       <use xlink:href="#DejaVuSans-2212"/>
       <use xlink:href="#DejaVuSans-30" x="83.789062"/>
       <use xlink:href="#DejaVuSans-2e" x="147.412109"/>
       <use xlink:href="#DejaVuSans-35" x="179.199219"/>
      </g>
     </g>
    </g>
    <g id="xtick_8">
     <g id="text_20">
      <!-- 0.0 -->
      <g style="fill: #262626" transform="translate(362.002625 271.306625)scale(0.088 -0.088)">
       <use xlink:href="#DejaVuSans-30"/>
       <use xlink:href="#DejaVuSans-2e" x="63.623047"/>
       <use xlink:href="#DejaVuSans-30" x="95.410156"/>
      </g>
     </g>
    </g>
    <g id="xtick_9">
     <g id="text_21">
      <!-- 0.5 -->
      <g style="fill: #262626" transform="translate(396.193801 271.306625)scale(0.088 -0.088)">
       <use xlink:href="#DejaVuSans-30"/>
       <use xlink:href="#DejaVuSans-2e" x="63.623047"/>
       <use xlink:href="#DejaVuSans-35" x="95.410156"/>
      </g>
     </g>
    </g>
    <g id="xtick_10">
     <g id="text_22">
      <!-- 1.0 -->
      <g style="fill: #262626" transform="translate(430.384978 271.306625)scale(0.088 -0.088)">
       <use xlink:href="#DejaVuSans-31"/>
       <use xlink:href="#DejaVuSans-2e" x="63.623047"/>
       <use xlink:href="#DejaVuSans-30" x="95.410156"/>
      </g>
     </g>
    </g>
    <g id="text_23">
     <!-- $x$ -->
     <g style="fill: #262626" transform="translate(366.12 284.43125)scale(0.096 -0.096)">
      <use xlink:href="#DejaVuSans-Oblique-78" transform="translate(0 0.3125)"/>
     </g>
    </g>
   </g>
   <g id="matplotlib.axis_4"/>
   <g id="PathCollection_3">
    <defs>
     <path id="ma7ed98a3cf" d="M -2.4 0 
L 2.4 0 
M 0 2.4 
L 0 -2.4 
" style="stroke: #ff8c00; stroke-width: 1.2"/>
    </defs>
    <g clip-path="url(#pee20979633)">
     <use xlink:href="#ma7ed98a3cf" x="300.617647" y="66.24" style="fill: #ff8c00; stroke: #ff8c00; stroke-width: 1.2"/>
     <use xlink:href="#ma7ed98a3cf" x="437.382353" y="66.24" style="fill: #ff8c00; stroke: #ff8c00; stroke-width: 1.2"/>
     <use xlink:href="#ma7ed98a3cf" x="300.617647" y="66.24" style="fill: #ff8c00; stroke: #ff8c00; stroke-width: 1.2"/>
     <use xlink:href="#ma7ed98a3cf" x="437.382353" y="66.24" style="fill: #ff8c00; stroke: #ff8c00; stroke-width: 1.2"/>
     <use xlink:href="#ma7ed98a3cf" x="300.617647" y="66.24" style="fill: #ff8c00; stroke: #ff8c00; stroke-width: 1.2"/>
     <use xlink:href="#ma7ed98a3cf" x="437.382353" y="66.24" style="fill: #ff8c00; stroke: #ff8c00; stroke-width: 1.2"/>
     <use xlink:href="#ma7ed98a3cf" x="300.617647" y="66.24" style="fill: #ff8c00; stroke: #ff8c00; stroke-width: 1.2"/>
     <use xlink:href="#ma7ed98a3cf" x="437.382353" y="66.24" style="fill: #ff8c00; stroke: #ff8c00; stroke-width: 1.2"/>
     <use xlink:href="#ma7ed98a3cf" x="300.617647" y="66.24" style="fill: #ff8c00; stroke: #ff8c00; stroke-width: 1.2"/>
     <use xlink:href="#ma7ed98a3cf" x="437.382353" y="66.24" style="fill: #ff8c00; stroke: #ff8c00; stroke-width: 1.2"/>
     <use xlink:href="#ma7ed98a3cf" x="300.617647" y="66.24" style="fill: #ff8c00; stroke: #ff8c00; stroke-width: 1.2"/>
    </g>
   </g>
   <g id="line2d_4">
    <path d="M 287.384264 -1 
L 291.650592 21.97391 
L 295.75764 42.924591 
L 299.864688 62.732507 
L 303.697933 80.188868 
L 307.531178 96.649754 
L 311.364423 112.115165 
L 314.923865 125.584548 
L 318.483307 138.195588 
L 321.768945 149.074705 
L 325.054584 159.222453 
L 328.340223 168.638831 
L 331.352058 176.628024 
L 334.363893 184.002664 
L 337.375729 190.76275 
L 340.113761 196.374993 
L 342.851793 201.47934 
L 345.316022 205.639003 
L 347.780251 209.38727 
L 350.24448 212.724142 
L 352.434905 215.344881 
L 354.625331 217.640568 
L 356.815757 219.611202 
L 359.006183 221.256783 
L 360.922805 222.430021 
L 362.839428 223.35439 
L 364.75605 224.029891 
L 366.672673 224.456523 
L 368.589295 224.634286 
L 370.505918 224.563181 
L 372.42254 224.243207 
L 374.339163 223.674364 
L 376.255785 222.856653 
L 378.172408 221.790073 
L 380.08903 220.474624 
L 382.005653 218.910306 
L 384.196078 216.817778 
L 386.386504 214.400196 
L 388.57693 211.657562 
L 391.041159 208.183558 
L 393.505388 204.298159 
L 395.969617 200.001365 
L 398.707649 194.744649 
L 401.445681 188.980037 
L 404.183713 182.707531 
L 407.195548 175.221154 
L 410.207384 167.120224 
L 413.219219 158.404741 
L 416.504858 148.196046 
L 419.790496 137.255982 
L 423.349938 124.578915 
L 426.90938 111.043506 
L 430.468822 96.649754 
L 434.302067 80.188868 
L 438.135312 62.732507 
L 441.968557 44.280671 
L 446.075605 23.406175 
L 450.182653 1.388915 
L 450.615736 -1 
L 450.615736 -1 
" clip-path="url(#pee20979633)" style="fill: none; stroke: #1f77b4; stroke-opacity: 0.5; stroke-width: 1.2; stroke-linecap: round"/>
   </g>
   <g id="line2d_5">
    <path d="M 300.617647 66.24 
L 437.382353 66.24 
L 300.617647 66.24 
L 437.382353 66.24 
L 300.617647 66.24 
L 437.382353 66.24 
L 300.617647 66.24 
L 437.382353 66.24 
L 300.617647 66.24 
L 437.382353 66.24 
L 300.617647 66.24 
" clip-path="url(#pee20979633)" style="fill: none; stroke: #ff8c00; stroke-width: 1.2; stroke-linecap: round"/>
   </g>
   <g id="patch_9">
    <path d="M 286.941176 256.32 
L 286.941176 34.56 
" style="fill: none; stroke: #262626; stroke-linejoin: miter; stroke-linecap: square"/>
   </g>
   <g id="patch_10">
    <path d="M 451.058824 256.32 
L 451.058824 34.56 
" style="fill: none; stroke: #262626; stroke-linejoin: miter; stroke-linecap: square"/>
   </g>
   <g id="patch_11">
    <path d="M 286.941176 256.32 
L 451.058824 256.32 
" style="fill: none; stroke: #262626; stroke-linejoin: miter; stroke-linecap: square"/>
   </g>
   <g id="patch_12">
    <path d="M 286.941176 34.56 
L 451.058824 34.56 
" style="fill: none; stroke: #262626; stroke-linejoin: miter; stroke-linecap: square"/>
   </g>
   <g id="legend_2">
    <g id="patch_13">
     <path d="M 387.170824 251.92 
L 444.898824 251.92 
Q 446.658824 251.92 446.658824 250.16 
L 446.658824 223.86725 
Q 446.658824 222.10725 444.898824 222.10725 
L 387.170824 222.10725 
Q 385.410824 222.10725 385.410824 223.86725 
L 385.410824 250.16 
Q 385.410824 251.92 387.170824 251.92 
z
" style="fill: #ffffff; opacity: 0.8; stroke: #cccccc; stroke-width: 0.8; stroke-linejoin: miter"/>
    </g>
    <g id="line2d_6">
     <path d="M 388.930824 230.55525 
L 397.730824 230.55525 
L 406.530824 230.55525 
" style="fill: none; stroke: #1f77b4; stroke-opacity: 0.5; stroke-width: 1.2; stroke-linecap: round"/>
    </g>
    <g id="text_24">
     <!-- $y = x^2$ -->
     <g style="fill: #262626" transform="translate(413.570824 233.63525)scale(0.088 -0.088)">
      <use xlink:href="#DejaVuSans-Oblique-79" transform="translate(0 0.765625)"/>
      <use xlink:href="#DejaVuSans-3d" transform="translate(78.662109 0.765625)"/>
      <use xlink:href="#DejaVuSans-Oblique-78" transform="translate(181.933594 0.765625)"/>
      <use xlink:href="#DejaVuSans-32" transform="translate(245.579427 39.046875)scale(0.7)"/>
     </g>
    </g>
    <g id="PathCollection_4">
     <g>
      <use xlink:href="#ma7ed98a3cf" x="397.730824" y="244.259875" style="fill: #ff8c00; stroke: #ff8c00; stroke-width: 1.2"/>
     </g>
    </g>
    <g id="text_25">
     <!-- $\epsilon = 1.0$ -->
     <g style="fill: #262626" transform="translate(413.570824 246.569875)scale(0.088 -0.088)">
      <use xlink:href="#DejaVuSans-Oblique-3b5" transform="translate(0 0.78125)"/>
      <use xlink:href="#DejaVuSans-3d" transform="translate(73.535156 0.78125)"/>
      <use xlink:href="#DejaVuSans-31" transform="translate(176.806641 0.78125)"/>
      <use xlink:href="#DejaVuSans-2e" transform="translate(240.429688 0.78125)"/>
      <use xlink:href="#DejaVuSans-30" transform="translate(272.216797 0.78125)"/>
     </g>
    </g>
   </g>
  </g>
  <g id="axes_3">
   <g id="patch_14">
    <path d="M 483.882353 256.32 
L 648 256.32 
L 648 34.56 
L 483.882353 34.56 
z
" style="fill: #ffffff"/>
   </g>
   <g id="matplotlib.axis_5">
    <g id="xtick_11">
     <g id="text_26">
      <!-- −1.0 -->
      <g style="fill: #262626" transform="translate(486.874386 271.306625)scale(0.088 -0.088)">
       <use xlink:href="#DejaVuSans-2212"/>
       <use xlink:href="#DejaVuSans-31" x="83.789062"/>
       <use xlink:href="#DejaVuSans-2e" x="147.412109"/>
       <use xlink:href="#DejaVuSans-30" x="179.199219"/>
      </g>
     </g>
    </g>
    <g id="xtick_12">
     <g id="text_27">
      <!-- −0.5 -->
      <g style="fill: #262626" transform="translate(521.065563 271.306625)scale(0.088 -0.088)">
       <use xlink:href="#DejaVuSans-2212"/>
       <use xlink:href="#DejaVuSans-30" x="83.789062"/>
       <use xlink:href="#DejaVuSans-2e" x="147.412109"/>
       <use xlink:href="#DejaVuSans-35" x="179.199219"/>
      </g>
     </g>
    </g>
    <g id="xtick_13">
     <g id="text_28">
      <!-- 0.0 -->
      <g style="fill: #262626" transform="translate(558.943801 271.306625)scale(0.088 -0.088)">
       <use xlink:href="#DejaVuSans-30"/>
       <use xlink:href="#DejaVuSans-2e" x="63.623047"/>
       <use xlink:href="#DejaVuSans-30" x="95.410156"/>
      </g>
     </g>
    </g>
    <g id="xtick_14">
     <g id="text_29">
      <!-- 0.5 -->
      <g style="fill: #262626" transform="translate(593.134978 271.306625)scale(0.088 -0.088)">
       <use xlink:href="#DejaVuSans-30"/>
       <use xlink:href="#DejaVuSans-2e" x="63.623047"/>
       <use xlink:href="#DejaVuSans-35" x="95.410156"/>
      </g>
     </g>
    </g>
    <g id="xtick_15">
     <g id="text_30">
      <!-- 1.0 -->
      <g style="fill: #262626" transform="translate(627.326154 271.306625)scale(0.088 -0.088)">
       <use xlink:href="#DejaVuSans-31"/>
       <use xlink:href="#DejaVuSans-2e" x="63.623047"/>
       <use xlink:href="#DejaVuSans-30" x="95.410156"/>
      </g>
     </g>
    </g>
    <g id="text_31">
     <!-- $x$ -->
     <g style="fill: #262626" transform="translate(563.061176 284.43125)scale(0.096 -0.096)">
      <use xlink:href="#DejaVuSans-Oblique-78" transform="translate(0 0.3125)"/>
     </g>
    </g>
   </g>
   <g id="matplotlib.axis_6"/>
   <g id="PathCollection_5">
    <defs>
     <path id="mc93b762da2" d="M -2.4 0 
L 2.4 0 
M 0 2.4 
L 0 -2.4 
" style="stroke: #dc143c; stroke-width: 1.2"/>
    </defs>
    <g clip-path="url(#p7f5d9e2959)">
     <use xlink:href="#mc93b762da2" x="497.558824" y="66.24" style="fill: #dc143c; stroke: #dc143c; stroke-width: 1.2"/>
     <use xlink:href="#mc93b762da2" x="511.235294" y="123.264" style="fill: #dc143c; stroke: #dc143c; stroke-width: 1.2"/>
     <use xlink:href="#mc93b762da2" x="522.176471" y="159.75936" style="fill: #dc143c; stroke: #dc143c; stroke-width: 1.2"/>
     <use xlink:href="#mc93b762da2" x="530.929412" y="183.11639" style="fill: #dc143c; stroke: #dc143c; stroke-width: 1.2"/>
     <use xlink:href="#mc93b762da2" x="537.931765" y="198.06489" style="fill: #dc143c; stroke: #dc143c; stroke-width: 1.2"/>
     <use xlink:href="#mc93b762da2" x="543.533647" y="207.63193" style="fill: #dc143c; stroke: #dc143c; stroke-width: 1.2"/>
     <use xlink:href="#mc93b762da2" x="548.015153" y="213.754835" style="fill: #dc143c; stroke: #dc143c; stroke-width: 1.2"/>
     <use xlink:href="#mc93b762da2" x="551.600358" y="217.673494" style="fill: #dc143c; stroke: #dc143c; stroke-width: 1.2"/>
     <use xlink:href="#mc93b762da2" x="554.468521" y="220.181436" style="fill: #dc143c; stroke: #dc143c; stroke-width: 1.2"/>
     <use xlink:href="#mc93b762da2" x="556.763052" y="221.786519" style="fill: #dc143c; stroke: #dc143c; stroke-width: 1.2"/>
     <use xlink:href="#mc93b762da2" x="558.598677" y="222.813772" style="fill: #dc143c; stroke: #dc143c; stroke-width: 1.2"/>
    </g>
   </g>
   <g id="line2d_7">
    <path d="M 484.32544 -1 
L 488.591768 21.97391 
L 492.698816 42.924591 
L 496.805865 62.732507 
L 500.63911 80.188868 
L 504.472355 96.649754 
L 508.3056 112.115165 
L 511.865042 125.584548 
L 515.424483 138.195588 
L 518.710122 149.074705 
L 521.99576 159.222453 
L 525.281399 168.638831 
L 528.293234 176.628024 
L 531.30507 184.002664 
L 534.316905 190.76275 
L 537.054937 196.374993 
L 539.792969 201.47934 
L 542.257198 205.639003 
L 544.721427 209.38727 
L 547.185656 212.724142 
L 549.376082 215.344881 
L 551.566508 217.640568 
L 553.756933 219.611202 
L 555.947359 221.256783 
L 557.863982 222.430021 
L 559.780604 223.35439 
L 561.697227 224.029891 
L 563.613849 224.456523 
L 565.530472 224.634286 
L 567.447094 224.563181 
L 569.363717 224.243207 
L 571.280339 223.674364 
L 573.196962 222.856653 
L 575.113584 221.790073 
L 577.030207 220.474624 
L 578.946829 218.910306 
L 581.137255 216.817778 
L 583.327681 214.400196 
L 585.518106 211.657562 
L 587.982335 208.183558 
L 590.446564 204.298159 
L 592.910793 200.001365 
L 595.648825 194.744649 
L 598.386857 188.980037 
L 601.12489 182.707531 
L 604.136725 175.221154 
L 607.14856 167.120224 
L 610.160396 158.404741 
L 613.446034 148.196046 
L 616.731673 137.255982 
L 620.291115 124.578915 
L 623.850556 111.043506 
L 627.409998 96.649754 
L 631.243243 80.188868 
L 635.076488 62.732507 
L 638.909733 44.280671 
L 643.016781 23.406175 
L 647.12383 1.388915 
L 647.556913 -1 
L 647.556913 -1 
" clip-path="url(#p7f5d9e2959)" style="fill: none; stroke: #1f77b4; stroke-opacity: 0.5; stroke-width: 1.2; stroke-linecap: round"/>
   </g>
   <g id="line2d_8">
    <path d="M 497.558824 66.24 
L 511.235294 123.264 
L 522.176471 159.75936 
L 530.929412 183.11639 
L 537.931765 198.06489 
L 543.533647 207.63193 
L 548.015153 213.754835 
L 551.600358 217.673494 
L 554.468521 220.181436 
L 556.763052 221.786519 
L 558.598677 222.813772 
" clip-path="url(#p7f5d9e2959)" style="fill: none; stroke: #dc143c; stroke-width: 1.2; stroke-linecap: round"/>
   </g>
   <g id="patch_15">
    <path d="M 483.882353 256.32 
L 483.882353 34.56 
" style="fill: none; stroke: #262626; stroke-linejoin: miter; stroke-linecap: square"/>
   </g>
   <g id="patch_16">
    <path d="M 648 256.32 
L 648 34.56 
" style="fill: none; stroke: #262626; stroke-linejoin: miter; stroke-linecap: square"/>
   </g>
   <g id="patch_17">
    <path d="M 483.882353 256.32 
L 648 256.32 
" style="fill: none; stroke: #262626; stroke-linejoin: miter; stroke-linecap: square"/>
   </g>
   <g id="patch_18">
    <path d="M 483.882353 34.56 
L 648 34.56 
" style="fill: none; stroke: #262626; stroke-linejoin: miter; stroke-linecap: square"/>
   </g>
   <g id="legend_3">
    <g id="patch_19">
     <path d="M 584.112 251.92 
L 641.84 251.92 
Q 643.6 251.92 643.6 250.16 
L 643.6 223.86725 
Q 643.6 222.10725 641.84 222.10725 
L 584.112 222.10725 
Q 582.352 222.10725 582.352 223.86725 
L 582.352 250.16 
Q 582.352 251.92 584.112 251.92 
z
" style="fill: #ffffff; opacity: 0.8; stroke: #cccccc; stroke-width: 0.8; stroke-linejoin: miter"/>
    </g>
    <g id="line2d_9">
     <path d="M 585.872 230.55525 
L 594.672 230.55525 
L 603.472 230.55525 
" style="fill: none; stroke: #1f77b4; stroke-opacity: 0.5; stroke-width: 1.2; stroke-linecap: round"/>
    </g>
    <g id="text_32">
     <!-- $y = x^2$ -->
     <g style="fill: #262626" transform="translate(610.512 233.63525)scale(0.088 -0.088)">
      <use xlink:href="#DejaVuSans-Oblique-79" transform="translate(0 0.765625)"/>
      <use xlink:href="#DejaVuSans-3d" transform="translate(78.662109 0.765625)"/>
      <use xlink:href="#DejaVuSans-Oblique-78" transform="translate(181.933594 0.765625)"/>
      <use xlink:href="#DejaVuSans-32" transform="translate(245.579427 39.046875)scale(0.7)"/>
     </g>
    </g>
    <g id="PathCollection_6">
     <g>
      <use xlink:href="#mc93b762da2" x="594.672" y="244.259875" style="fill: #dc143c; stroke: #dc143c; stroke-width: 1.2"/>
     </g>
    </g>
    <g id="text_33">
     <!-- $\epsilon = 0.1$ -->
     <g style="fill: #262626" transform="translate(610.512 246.569875)scale(0.088 -0.088)">
      <use xlink:href="#DejaVuSans-Oblique-3b5" transform="translate(0 0.78125)"/>
      <use xlink:href="#DejaVuSans-3d" transform="translate(73.535156 0.78125)"/>
      <use xlink:href="#DejaVuSans-30" transform="translate(176.806641 0.78125)"/>
      <use xlink:href="#DejaVuSans-2e" transform="translate(240.429688 0.78125)"/>
      <use xlink:href="#DejaVuSans-31" transform="translate(272.216797 0.78125)"/>
     </g>
    </g>
   </g>
  </g>
 </g>
 <defs>
  <clipPath id="p55fd04e25e">
   <rect x="90" y="34.56" width="164.117647" height="221.76"/>
  </clipPath>
  <clipPath id="pee20979633">
   <rect x="286.941176" y="34.56" width="164.117647" height="221.76"/>
  </clipPath>
  <clipPath id="p7f5d9e2959">
   <rect x="483.882353" y="34.56" width="164.117647" height="221.76"/>
  </clipPath>
 </defs>
</svg>
