<svg version="1.1" viewBox="0.0 0.0 556.6141732283464 296.51706036745406" fill="none" stroke="none" stroke-linecap="square" stroke-miterlimit="10" xmlns:xlink="http://www.w3.org/1999/xlink" xmlns="http://www.w3.org/2000/svg"><clipPath id="p.0"><path d="m0 0l556.6142 0l0 296.51706l-556.6142 0l0 -296.51706z" clip-rule="nonzero"/></clipPath><g clip-path="url(#p.0)"><path fill="#000000" fill-opacity="0.0" d="m0 0l556.6142 0l0 296.51706l-556.6142 0z" fill-rule="evenodd"/><path fill="#ffffff" d="m52.540684 130.74147l0 0c0 -15.185654 12.310406 -27.496063 27.49606 -27.496063l0 0c7.292412 0 14.28614 2.8968964 19.442657 8.053413c5.1565094 5.1565094 8.053406 12.150238 8.053406 19.44265l0 0c0 15.185654 -12.310402 27.496063 -27.496063 27.496063l0 0c-15.185654 0 -27.49606 -12.31041 -27.49606 -27.496063z" fill-rule="evenodd"/><path stroke="#85200c" stroke-width="2.0" stroke-linejoin="round" stroke-linecap="butt" d="m52.540684 130.74147l0 0c0 -15.185654 12.310406 -27.496063 27.49606 -27.496063l0 0c7.292412 0 14.28614 2.8968964 19.442657 8.053413c5.1565094 5.1565094 8.053406 12.150238 8.053406 19.44265l0 0c0 15.185654 -12.310402 27.496063 -27.496063 27.496063l0 0c-15.185654 0 -27.49606 -12.31041 -27.49606 -27.496063z" fill-rule="evenodd"/><path fill="#ffffff" d="m52.540684 193.69948l0 0c0 -15.185654 12.310406 -27.496063 27.49606 -27.496063l0 0c7.292412 0 14.28614 2.8968964 19.442657 8.053406c5.1565094 5.1565094 8.053406 12.150238 8.053406 19.442657l0 0c0 15.185654 -12.310402 27.496063 -27.496063 27.496063l0 0c-15.185654 0 -27.49606 -12.31041 -27.49606 -27.496063z" fill-rule="evenodd"/><path stroke="#85200c" stroke-width="2.0" stroke-linejoin="round" stroke-linecap="butt" d="m52.540684 193.69948l0 0c0 -15.185654 12.310406 -27.496063 27.49606 -27.496063l0 0c7.292412 0 14.28614 2.8968964 19.442657 8.053406c5.1565094 5.1565094 8.053406 12.150238 8.053406 19.442657l0 0c0 15.185654 -12.310402 27.496063 -27.496063 27.496063l0 0c-15.185654 0 -27.49606 -12.31041 -27.49606 -27.496063z" fill-rule="evenodd"/><path fill="#ffffff" d="m52.540684 67.78215l0 0c0 -15.185654 12.310406 -27.49606 27.49606 -27.49606l0 0c7.292412 0 14.28614 2.8968964 19.442657 8.05341c5.1565094 5.1565094 8.053406 12.150242 8.053406 19.44265l0 0c0 15.185661 -12.310402 27.496063 -27.496063 27.496063l0 0c-15.185654 0 -27.49606 -12.310402 -27.49606 -27.496063z" fill-rule="evenodd"/><path stroke="#85200c" stroke-width="2.0" stroke-linejoin="round" stroke-linecap="butt" d="m52.540684 67.78215l0 0c0 -15.185654 12.310406 -27.49606 27.49606 -27.49606l0 0c7.292412 0 14.28614 2.8968964 19.442657 8.05341c5.1565094 5.1565094 8.053406 12.150242 8.053406 19.44265l0 0c0 15.185661 -12.310402 27.496063 -27.496063 27.496063l0 0c-15.185654 0 -27.49606 -12.310402 -27.49606 -27.496063z" fill-rule="evenodd"/><path fill="#000000" fill-opacity="0.0" d="m107.53281 67.78215l69.19685 -31.49606" fill-rule="evenodd"/><path stroke="#000000" stroke-width="2.0" stroke-linejoin="round" stroke-linecap="butt" d="m107.53281 67.78215l58.27501 -26.52481" fill-rule="evenodd"/><path fill="#000000" stroke="#000000" stroke-width="2.0" stroke-linecap="butt" d="m167.17635 44.264004l6.8921967 -6.7666664l-9.629257 0.7533455z" fill-rule="evenodd"/><path fill="#000000" fill-opacity="0.0" d="m107.53281 130.74147l69.19685 -94.4252" fill-rule="evenodd"/><path stroke="#000000" stroke-width="2.0" stroke-linejoin="round" stroke-linecap="butt" d="m107.53281 130.74147l62.103714 -84.74597" fill-rule="evenodd"/><path fill="#000000" stroke="#000000" stroke-width="2.0" stroke-linecap="butt" d="m172.3011 47.948154l2.7003174 -9.273537l-8.02948 5.3682137z" fill-rule="evenodd"/><path fill="#000000" fill-opacity="0.0" d="m107.53281 193.69948l69.19685 -157.38583" fill-rule="evenodd"/><path stroke="#000000" stroke-width="2.0" stroke-linejoin="round" stroke-linecap="butt" d="m107.53281 193.69948l64.36708 -146.4007" fill-rule="evenodd"/><path fill="#000000" stroke="#000000" stroke-width="2.0" stroke-linecap="butt" d="m174.92398 48.62837l0.62890625 -9.638187l-6.6770782 6.979027z" fill-rule="evenodd"/><path fill="#ffffff" d="m176.71916 99.26028l0 0c0 -15.185654 12.31041 -27.496063 27.496063 -27.496063l0 0c7.292404 0 14.286133 2.896904 19.442657 8.053413c5.1565094 5.1565094 8.053406 12.150246 8.053406 19.44265l0 0c0 15.185661 -12.31041 27.496063 -27.496063 27.496063l0 0c-15.185654 0 -27.496063 -12.310402 -27.496063 -27.496063z" fill-rule="evenodd"/><path stroke="#1155cc" stroke-width="2.0" stroke-linejoin="round" stroke-linecap="butt" d="m176.71916 99.26028l0 0c0 -15.185654 12.31041 -27.496063 27.496063 -27.496063l0 0c7.292404 0 14.286133 2.896904 19.442657 8.053413c5.1565094 5.1565094 8.053406 12.150246 8.053406 19.44265l0 0c0 15.185661 -12.31041 27.496063 -27.496063 27.496063l0 0c-15.185654 0 -27.496063 -12.310402 -27.496063 -27.496063z" fill-rule="evenodd"/><path fill="#ffffff" d="m176.71916 162.21872l0 0c0 -15.185654 12.31041 -27.496063 27.496063 -27.496063l0 0c7.292404 0 14.286133 2.8968964 19.442657 8.053421c5.1565094 5.1565094 8.053406 12.150238 8.053406 19.442642l0 0c0 15.185654 -12.31041 27.496063 -27.496063 27.496063l0 0c-15.185654 0 -27.496063 -12.31041 -27.496063 -27.496063z" fill-rule="evenodd"/><path stroke="#1155cc" stroke-width="2.0" stroke-linejoin="round" stroke-linecap="butt" d="m176.71916 162.21872l0 0c0 -15.185654 12.31041 -27.496063 27.496063 -27.496063l0 0c7.292404 0 14.286133 2.8968964 19.442657 8.053421c5.1565094 5.1565094 8.053406 12.150238 8.053406 19.442642l0 0c0 15.185654 -12.31041 27.496063 -27.496063 27.496063l0 0c-15.185654 0 -27.496063 -12.31041 -27.496063 -27.496063z" fill-rule="evenodd"/><path fill="#ffffff" d="m176.71916 36.301838l0 0c0 -15.1856575 12.31041 -27.496063 27.496063 -27.496063l0 0c7.292404 0 14.286133 2.8968983 19.442657 8.05341c5.1565094 5.156513 8.053406 12.150244 8.053406 19.442654l0 0c0 15.1856575 -12.31041 27.496063 -27.496063 27.496063l0 0c-15.185654 0 -27.496063 -12.310406 -27.496063 -27.496063z" fill-rule="evenodd"/><path stroke="#1155cc" stroke-width="2.0" stroke-linejoin="round" stroke-linecap="butt" d="m176.71916 36.301838l0 0c0 -15.1856575 12.31041 -27.496063 27.496063 -27.496063l0 0c7.292404 0 14.286133 2.8968983 19.442657 8.05341c5.1565094 5.156513 8.053406 12.150244 8.053406 19.442654l0 0c0 15.1856575 -12.31041 27.496063 -27.496063 27.496063l0 0c-15.185654 0 -27.496063 -12.310406 -27.496063 -27.496063z" fill-rule="evenodd"/><path fill="#ffffff" d="m176.71916 225.17717l0 0c0 -15.185654 12.31041 -27.496063 27.496063 -27.496063l0 0c7.292404 0 14.286133 2.8968964 19.442657 8.053406c5.1565094 5.1565094 8.053406 12.150238 8.053406 19.442657l0 0c0 15.185654 -12.31041 27.496063 -27.496063 27.496063l0 0c-15.185654 0 -27.496063 -12.31041 -27.496063 -27.496063z" fill-rule="evenodd"/><path stroke="#1155cc" stroke-width="2.0" stroke-linejoin="round" stroke-linecap="butt" d="m176.71916 225.17717l0 0c0 -15.185654 12.31041 -27.496063 27.496063 -27.496063l0 0c7.292404 0 14.286133 2.8968964 19.442657 8.053406c5.1565094 5.1565094 8.053406 12.150238 8.053406 19.442657l0 0c0 15.185654 -12.31041 27.496063 -27.496063 27.496063l0 0c-15.185654 0 -27.496063 -12.31041 -27.496063 -27.496063z" fill-rule="evenodd"/><path fill="#000000" fill-opacity="0.0" d="m107.53281 67.78215l69.19685 31.46457" fill-rule="evenodd"/><path stroke="#000000" stroke-width="2.0" stroke-linejoin="round" stroke-linecap="butt" d="m107.53281 67.78215l58.273132 26.497437" fill-rule="evenodd"/><path fill="#000000" stroke="#000000" stroke-width="2.0" stroke-linecap="butt" d="m164.43855 97.28676l9.629532 0.7497177l-6.894745 -6.7640686z" fill-rule="evenodd"/><path fill="#000000" fill-opacity="0.0" d="m107.53281 67.78215l69.19685 94.4252" fill-rule="evenodd"/><path stroke="#000000" stroke-width="2.0" stroke-linejoin="round" stroke-linecap="butt" d="m107.53281 67.78215l62.103714 84.74599" fill-rule="evenodd"/><path fill="#000000" stroke="#000000" stroke-width="2.0" stroke-linecap="butt" d="m166.97194 154.48079l8.02948 5.36821l-2.7003174 -9.273529z" fill-rule="evenodd"/><path fill="#000000" fill-opacity="0.0" d="m107.53281 67.78215l69.19685 157.38583" fill-rule="evenodd"/><path stroke="#000000" stroke-width="2.0" stroke-linejoin="round" stroke-linecap="butt" d="m107.53281 67.78215l64.36708 146.4007" fill-rule="evenodd"/><path fill="#000000" stroke="#000000" stroke-width="2.0" stroke-linecap="butt" d="m168.87581 215.51242l6.6770782 6.979019l-0.62890625 -9.638184z" fill-rule="evenodd"/><path fill="#000000" fill-opacity="0.0" d="m107.53281 130.74147l69.19685 -31.496063" fill-rule="evenodd"/><path stroke="#000000" stroke-width="2.0" stroke-linejoin="round" stroke-linecap="butt" d="m107.53281 130.74147l58.27501 -26.52481" fill-rule="evenodd"/><path fill="#000000" stroke="#000000" stroke-width="2.0" stroke-linecap="butt" d="m167.17635 107.22332l6.8921967 -6.7666626l-9.629257 0.7533417z" fill-rule="evenodd"/><path fill="#000000" fill-opacity="0.0" d="m107.53281 130.74147l69.19685 31.46457" fill-rule="evenodd"/><path stroke="#000000" stroke-width="2.0" stroke-linejoin="round" stroke-linecap="butt" d="m107.53281 130.74147l58.273132 26.497437" fill-rule="evenodd"/><path fill="#000000" stroke="#000000" stroke-width="2.0" stroke-linecap="butt" d="m164.43855 160.24608l9.629532 0.7497101l-6.894745 -6.7640686z" fill-rule="evenodd"/><path fill="#000000" fill-opacity="0.0" d="m107.53281 130.74147l69.19685 94.4252" fill-rule="evenodd"/><path stroke="#000000" stroke-width="2.0" stroke-linejoin="round" stroke-linecap="butt" d="m107.53281 130.74147l62.103714 84.74599" fill-rule="evenodd"/><path fill="#000000" stroke="#000000" stroke-width="2.0" stroke-linecap="butt" d="m166.97194 217.44011l8.02948 5.36821l-2.7003174 -9.273529z" fill-rule="evenodd"/><path fill="#000000" fill-opacity="0.0" d="m107.53281 193.69948l69.19685 -94.4252" fill-rule="evenodd"/><path stroke="#000000" stroke-width="2.0" stroke-linejoin="round" stroke-linecap="butt" d="m107.53281 193.69948l62.103714 -84.74599" fill-rule="evenodd"/><path fill="#000000" stroke="#000000" stroke-width="2.0" stroke-linecap="butt" d="m172.3011 110.90616l2.7003174 -9.273537l-8.02948 5.36821z" fill-rule="evenodd"/><path fill="#000000" fill-opacity="0.0" d="m107.53281 193.69948l69.19685 -31.496063" fill-rule="evenodd"/><path stroke="#000000" stroke-width="2.0" stroke-linejoin="round" stroke-linecap="butt" d="m107.53281 193.69948l58.27501 -26.52481" fill-rule="evenodd"/><path fill="#000000" stroke="#000000" stroke-width="2.0" stroke-linecap="butt" d="m167.17635 170.18132l6.8921967 -6.7666626l-9.629257 0.7533417z" fill-rule="evenodd"/><path fill="#000000" fill-opacity="0.0" d="m107.53281 193.69948l69.19685 31.46457" fill-rule="evenodd"/><path stroke="#000000" stroke-width="2.0" stroke-linejoin="round" stroke-linecap="butt" d="m107.53281 193.69948l58.273132 26.497437" fill-rule="evenodd"/><path fill="#000000" stroke="#000000" stroke-width="2.0" stroke-linecap="butt" d="m164.43855 223.20409l9.629532 0.7497101l-6.894745 -6.7640686z" fill-rule="evenodd"/><path fill="#ffffff" d="m316.89764 99.26159l0 0c0 -15.185654 12.310394 -27.496063 27.496063 -27.496063l0 0c7.292389 0 14.286133 2.896904 19.442657 8.053413c5.156494 5.1565094 8.053406 12.150246 8.053406 19.44265l0 0c0 15.185661 -12.310425 27.496063 -27.496063 27.496063l0 0c-15.185669 0 -27.496063 -12.310402 -27.496063 -27.496063z" fill-rule="evenodd"/><path stroke="#1155cc" stroke-width="2.0" stroke-linejoin="round" stroke-linecap="butt" d="m316.89764 99.26159l0 0c0 -15.185654 12.310394 -27.496063 27.496063 -27.496063l0 0c7.292389 0 14.286133 2.896904 19.442657 8.053413c5.156494 5.1565094 8.053406 12.150246 8.053406 19.44265l0 0c0 15.185661 -12.310425 27.496063 -27.496063 27.496063l0 0c-15.185669 0 -27.496063 -12.310402 -27.496063 -27.496063z" fill-rule="evenodd"/><path fill="#ffffff" d="m316.89764 162.22003l0 0c0 -15.185654 12.310394 -27.496063 27.496063 -27.496063l0 0c7.292389 0 14.286133 2.8968964 19.442657 8.053421c5.156494 5.1565094 8.053406 12.150238 8.053406 19.442642l0 0c0 15.185654 -12.310425 27.496063 -27.496063 27.496063l0 0c-15.185669 0 -27.496063 -12.31041 -27.496063 -27.496063z" fill-rule="evenodd"/><path stroke="#1155cc" stroke-width="2.0" stroke-linejoin="round" stroke-linecap="butt" d="m316.89764 162.22003l0 0c0 -15.185654 12.310394 -27.496063 27.496063 -27.496063l0 0c7.292389 0 14.286133 2.8968964 19.442657 8.053421c5.156494 5.1565094 8.053406 12.150238 8.053406 19.442642l0 0c0 15.185654 -12.310425 27.496063 -27.496063 27.496063l0 0c-15.185669 0 -27.496063 -12.31041 -27.496063 -27.496063z" fill-rule="evenodd"/><path fill="#ffffff" d="m316.89764 36.30315l0 0c0 -15.1856575 12.310394 -27.496063 27.496063 -27.496063l0 0c7.292389 0 14.286133 2.8968983 19.442657 8.05341c5.156494 5.156513 8.053406 12.150244 8.053406 19.442654l0 0c0 15.1856575 -12.310425 27.496063 -27.496063 27.496063l0 0c-15.185669 0 -27.496063 -12.310406 -27.496063 -27.496063z" fill-rule="evenodd"/><path stroke="#1155cc" stroke-width="2.0" stroke-linejoin="round" stroke-linecap="butt" d="m316.89764 36.30315l0 0c0 -15.1856575 12.310394 -27.496063 27.496063 -27.496063l0 0c7.292389 0 14.286133 2.8968983 19.442657 8.05341c5.156494 5.156513 8.053406 12.150244 8.053406 19.442654l0 0c0 15.1856575 -12.310425 27.496063 -27.496063 27.496063l0 0c-15.185669 0 -27.496063 -12.310406 -27.496063 -27.496063z" fill-rule="evenodd"/><path fill="#ffffff" d="m316.89764 225.17848l0 0c0 -15.185654 12.310394 -27.496063 27.496063 -27.496063l0 0c7.292389 0 14.286133 2.8968964 19.442657 8.053406c5.156494 5.1565094 8.053406 12.150238 8.053406 19.442657l0 0c0 15.185654 -12.310425 27.496063 -27.496063 27.496063l0 0c-15.185669 0 -27.496063 -12.31041 -27.496063 -27.496063z" fill-rule="evenodd"/><path stroke="#1155cc" stroke-width="2.0" stroke-linejoin="round" stroke-linecap="butt" d="m316.89764 225.17848l0 0c0 -15.185654 12.310394 -27.496063 27.496063 -27.496063l0 0c7.292389 0 14.286133 2.8968964 19.442657 8.053406c5.156494 5.1565094 8.053406 12.150238 8.053406 19.442657l0 0c0 15.185654 -12.310425 27.496063 -27.496063 27.496063l0 0c-15.185669 0 -27.496063 -12.31041 -27.496063 -27.496063z" fill-rule="evenodd"/><path fill="#000000" fill-opacity="0.0" d="m231.71129 36.301838l85.19685 0" fill-rule="evenodd"/><path stroke="#000000" stroke-width="2.0" stroke-linejoin="round" stroke-linecap="butt" d="m231.71129 36.301838l73.19685 0" fill-rule="evenodd"/><path fill="#000000" stroke="#000000" stroke-width="2.0" stroke-linecap="butt" d="m304.90814 39.6053l9.076202 -3.303463l-9.076202 -3.3034668z" fill-rule="evenodd"/><path fill="#000000" fill-opacity="0.0" d="m231.71129 36.301838l85.19685 62.96063" fill-rule="evenodd"/><path stroke="#000000" stroke-width="2.0" stroke-linejoin="round" stroke-linecap="butt" d="m231.71129 36.301838l75.54613 55.82874" fill-rule="evenodd"/><path fill="#000000" stroke="#000000" stroke-width="2.0" stroke-linecap="butt" d="m305.2941 94.78731l9.262634 2.7374725l-5.335968 -8.050934z" fill-rule="evenodd"/><path fill="#000000" fill-opacity="0.0" d="m231.71129 36.301838l85.19685 125.921265" fill-rule="evenodd"/><path stroke="#000000" stroke-width="2.0" stroke-linejoin="round" stroke-linecap="butt" d="m231.71129 36.301838l78.472336 115.98241" fill-rule="evenodd"/><path fill="#000000" stroke="#000000" stroke-width="2.0" stroke-linecap="butt" d="m307.44757 154.13542l7.8221436 5.6660614l-2.3500366 -9.368423z" fill-rule="evenodd"/><path fill="#000000" fill-opacity="0.0" d="m231.71129 36.301838l85.19685 188.8819" fill-rule="evenodd"/><path stroke="#000000" stroke-width="2.0" stroke-linejoin="round" stroke-linecap="butt" d="m231.71129 36.301838l80.26283 177.94318" fill-rule="evenodd"/><path fill="#000000" stroke="#000000" stroke-width="2.0" stroke-linecap="butt" d="m308.96283 215.60329l6.7431335 6.915222l-0.72052 -9.631775z" fill-rule="evenodd"/><path fill="#000000" fill-opacity="0.0" d="m231.71129 99.26028l85.19685 -62.96063" fill-rule="evenodd"/><path stroke="#000000" stroke-width="2.0" stroke-linejoin="round" stroke-linecap="butt" d="m231.71129 99.260284l75.54613 -55.828743" fill-rule="evenodd"/><path fill="#000000" stroke="#000000" stroke-width="2.0" stroke-linecap="butt" d="m309.22076 46.088272l5.335968 -8.050934l-9.262634 2.7374725z" fill-rule="evenodd"/><path fill="#000000" fill-opacity="0.0" d="m231.71129 99.26028l85.19685 0" fill-rule="evenodd"/><path stroke="#000000" stroke-width="2.0" stroke-linejoin="round" stroke-linecap="butt" d="m231.71129 99.260284l73.19685 0" fill-rule="evenodd"/><path fill="#000000" stroke="#000000" stroke-width="2.0" stroke-linecap="butt" d="m304.90814 102.56375l9.076202 -3.3034668l-9.076202 -3.3034668z" fill-rule="evenodd"/><path fill="#000000" fill-opacity="0.0" d="m231.71129 99.26028l85.19685 62.96064" fill-rule="evenodd"/><path stroke="#000000" stroke-width="2.0" stroke-linejoin="round" stroke-linecap="butt" d="m231.71129 99.260284l75.54613 55.828735" fill-rule="evenodd"/><path fill="#000000" stroke="#000000" stroke-width="2.0" stroke-linecap="butt" d="m305.2941 157.74576l9.262634 2.7374725l-5.335968 -8.050934z" fill-rule="evenodd"/><path fill="#000000" fill-opacity="0.0" d="m231.71129 99.26028l85.19685 125.92126" fill-rule="evenodd"/><path stroke="#000000" stroke-width="2.0" stroke-linejoin="round" stroke-linecap="butt" d="m231.71129 99.260284l78.472336 115.98239" fill-rule="evenodd"/><path fill="#000000" stroke="#000000" stroke-width="2.0" stroke-linecap="butt" d="m307.44757 217.09386l7.8221436 5.6660767l-2.3500366 -9.368439z" fill-rule="evenodd"/><path fill="#000000" fill-opacity="0.0" d="m231.71129 162.21872l85.19685 -125.92126" fill-rule="evenodd"/><path stroke="#000000" stroke-width="2.0" stroke-linejoin="round" stroke-linecap="butt" d="m231.71129 162.21872l78.472336 -115.98241" fill-rule="evenodd"/><path fill="#000000" stroke="#000000" stroke-width="2.0" stroke-linecap="butt" d="m312.91968 48.0875l2.3500366 -9.368435l-7.8221436 5.666069z" fill-rule="evenodd"/><path fill="#000000" fill-opacity="0.0" d="m231.71129 162.21872l85.19685 -62.960625" fill-rule="evenodd"/><path stroke="#000000" stroke-width="2.0" stroke-linejoin="round" stroke-linecap="butt" d="m231.71129 162.21872l75.54613 -55.828743" fill-rule="evenodd"/><path fill="#000000" stroke="#000000" stroke-width="2.0" stroke-linecap="butt" d="m309.22076 109.04671l5.335968 -8.050934l-9.262634 2.7374725z" fill-rule="evenodd"/><path fill="#000000" fill-opacity="0.0" d="m231.71129 162.21872l85.19685 0" fill-rule="evenodd"/><path stroke="#000000" stroke-width="2.0" stroke-linejoin="round" stroke-linecap="butt" d="m231.71129 162.21872l73.19685 0" fill-rule="evenodd"/><path fill="#000000" stroke="#000000" stroke-width="2.0" stroke-linecap="butt" d="m304.90814 165.52219l9.076202 -3.3034668l-9.076202 -3.3034668z" fill-rule="evenodd"/><path fill="#000000" fill-opacity="0.0" d="m231.71129 162.21872l85.19685 62.960632" fill-rule="evenodd"/><path stroke="#000000" stroke-width="2.0" stroke-linejoin="round" stroke-linecap="butt" d="m231.71129 162.21872l75.54613 55.82875" fill-rule="evenodd"/><path fill="#000000" stroke="#000000" stroke-width="2.0" stroke-linecap="butt" d="m305.2941 220.7042l9.262634 2.7374725l-5.335968 -8.050934z" fill-rule="evenodd"/><path fill="#000000" fill-opacity="0.0" d="m231.71129 225.17717l85.19685 -188.8819" fill-rule="evenodd"/><path stroke="#000000" stroke-width="2.0" stroke-linejoin="round" stroke-linecap="butt" d="m231.71129 225.17717l80.26283 -177.94318" fill-rule="evenodd"/><path fill="#000000" stroke="#000000" stroke-width="2.0" stroke-linecap="butt" d="m314.98544 48.59227l0.72052 -9.631771l-6.7431335 6.9152184z" fill-rule="evenodd"/><path fill="#000000" fill-opacity="0.0" d="m231.71129 225.17717l85.19685 -125.921265" fill-rule="evenodd"/><path stroke="#000000" stroke-width="2.0" stroke-linejoin="round" stroke-linecap="butt" d="m231.71129 225.17717l78.472336 -115.982414" fill-rule="evenodd"/><path fill="#000000" stroke="#000000" stroke-width="2.0" stroke-linecap="butt" d="m312.91968 111.045944l2.3500366 -9.368431l-7.8221436 5.666069z" fill-rule="evenodd"/><path fill="#000000" fill-opacity="0.0" d="m231.71129 225.17717l85.19685 -62.960632" fill-rule="evenodd"/><path stroke="#000000" stroke-width="2.0" stroke-linejoin="round" stroke-linecap="butt" d="m231.71129 225.17717l75.54613 -55.82875" fill-rule="evenodd"/><path fill="#000000" stroke="#000000" stroke-width="2.0" stroke-linecap="butt" d="m309.22076 172.00516l5.335968 -8.050934l-9.262634 2.7374725z" fill-rule="evenodd"/><path fill="#000000" fill-opacity="0.0" d="m238.7874 221.7769l78.110245 3.4015808" fill-rule="evenodd"/><path stroke="#000000" stroke-width="2.0" stroke-linejoin="round" stroke-linecap="butt" d="m238.7874 221.7769l66.1216 2.879486" fill-rule="evenodd"/><path fill="#000000" stroke="#000000" stroke-width="2.0" stroke-linecap="butt" d="m304.7653 227.95673l9.211304 -2.9054565l-8.923859 -3.695221z" fill-rule="evenodd"/><path fill="#ffffff" d="m449.0761 130.73622l0 0c0 -15.185654 12.310425 -27.496063 27.496063 -27.496063l0 0c7.2924194 0 14.286133 2.8968964 19.442657 8.053413c5.1565247 5.1565094 8.053406 12.150238 8.053406 19.44265l0 0c0 15.185654 -12.310394 27.496063 -27.496063 27.496063l0 0c-15.185638 0 -27.496063 -12.31041 -27.496063 -27.496063z" fill-rule="evenodd"/><path stroke="#38761d" stroke-width="2.0" stroke-linejoin="round" stroke-linecap="butt" d="m449.0761 130.73622l0 0c0 -15.185654 12.310425 -27.496063 27.496063 -27.496063l0 0c7.2924194 0 14.286133 2.8968964 19.442657 8.053413c5.1565247 5.1565094 8.053406 12.150238 8.053406 19.44265l0 0c0 15.185654 -12.310394 27.496063 -27.496063 27.496063l0 0c-15.185638 0 -27.496063 -12.31041 -27.496063 -27.496063z" fill-rule="evenodd"/><path fill="#000000" fill-opacity="0.0" d="m371.88977 36.30315l77.19684 94.4252" fill-rule="evenodd"/><path stroke="#000000" stroke-width="2.0" stroke-linejoin="round" stroke-linecap="butt" d="m371.88977 36.30315l69.60153 85.13481" fill-rule="evenodd"/><path fill="#000000" stroke="#000000" stroke-width="2.0" stroke-linecap="butt" d="m438.93378 123.52886l8.302246 4.935875l-3.1871643 -9.117676z" fill-rule="evenodd"/><path fill="#000000" fill-opacity="0.0" d="m371.88977 99.26159l77.19684 31.464577" fill-rule="evenodd"/><path stroke="#000000" stroke-width="2.0" stroke-linejoin="round" stroke-linecap="butt" d="m371.88977 99.2616l66.08444 26.935272" fill-rule="evenodd"/><path fill="#000000" stroke="#000000" stroke-width="2.0" stroke-linecap="butt" d="m436.72736 129.256l9.651703 0.36660767l-7.1579895 -6.4848557z" fill-rule="evenodd"/><path fill="#000000" fill-opacity="0.0" d="m371.88977 162.22003l77.19684 -31.496063" fill-rule="evenodd"/><path stroke="#000000" stroke-width="2.0" stroke-linejoin="round" stroke-linecap="butt" d="m371.88977 162.22003l66.08603 -26.96289" fill-rule="evenodd"/><path fill="#000000" stroke="#000000" stroke-width="2.0" stroke-linecap="butt" d="m439.22372 138.31583l7.155731 -6.4873505l-9.651581 0.36997986z" fill-rule="evenodd"/><path fill="#000000" fill-opacity="0.0" d="m371.88977 225.17848l77.19684 -94.456696" fill-rule="evenodd"/><path stroke="#000000" stroke-width="2.0" stroke-linejoin="round" stroke-linecap="butt" d="m371.88977 225.17848l69.60306 -85.16507" fill-rule="evenodd"/><path fill="#000000" stroke="#000000" stroke-width="2.0" stroke-linecap="butt" d="m444.0507 142.1039l3.1856995 -9.11821l-8.301453 4.9372406z" fill-rule="evenodd"/><path fill="#000000" fill-opacity="0.0" d="m154.48425 252.51837l115.46457 0l0 38.771667l-115.46457 0z" fill-rule="evenodd"/><path fill="#1155cc" d="m169.0642 265.769l0 5.234375q0.859375 -0.953125 1.359375 -1.21875q0.515625 -0.28125 1.03125 -0.28125q0.609375 0 1.046875 0.34375q0.4375 0.328125 0.640625 1.046875q0.15625 0.5 0.15625 1.828125l0 2.53125q0 0.6875 0.109375 0.9375q0.078125 0.1875 0.265625 0.296875q0.1875 0.109375 0.6875 0.109375l0 0.28125l-3.515625 0l0 -0.28125l0.15625 0q0.5 0 0.6875 -0.15625q0.203125 -0.15625 0.28125 -0.453125q0.03125 -0.125 0.03125 -0.734375l0 -2.53125q0 -1.171875 -0.125 -1.53125q-0.125 -0.375 -0.390625 -0.546875q-0.265625 -0.1875 -0.640625 -0.1875q-0.375 0 -0.796875 0.203125q-0.40625 0.203125 -0.984375 0.8125l0 3.78125q0 0.734375 0.078125 0.921875q0.078125 0.171875 0.296875 0.296875q0.234375 0.125 0.78125 0.125l0 0.28125l-3.546875 0l0 -0.28125q0.46875 0 0.75 -0.15625q0.15625 -0.078125 0.25 -0.296875q0.09375 -0.21875 0.09375 -0.890625l0 -6.46875q0 -1.234375 -0.0625 -1.515625q-0.0625 -0.28125 -0.1875 -0.375q-0.109375 -0.109375 -0.3125 -0.109375q-0.171875 0 -0.53125 0.125l-0.109375 -0.265625l2.140625 -0.875l0.359375 0zm7.71875 0q0.328125 0 0.546875 0.234375q0.234375 0.21875 0.234375 0.546875q0 0.328125 -0.234375 0.5625q-0.21875 0.234375 -0.546875 0.234375q-0.328125 0 -0.5625 -0.234375q-0.234375 -0.234375 -0.234375 -0.5625q0 -0.328125 0.21875 -0.546875q0.234375 -0.234375 0.578125 -0.234375zm0.640625 3.734375l0 5.75q0 0.671875 0.09375 0.90625q0.109375 0.21875 0.296875 0.328125q0.1875 0.109375 0.703125 0.109375l0 0.28125l-3.484375 0l0 -0.28125q0.53125 0 0.703125 -0.09375q0.1875 -0.109375 0.28125 -0.34375q0.109375 -0.234375 0.109375 -0.90625l0 -2.75q0 -1.171875 -0.0625 -1.515625q-0.0625 -0.25 -0.1875 -0.34375q-0.109375 -0.09375 -0.3125 -0.09375q-0.21875 0 -0.53125 0.109375l-0.109375 -0.28125l2.15625 -0.875l0.34375 0zm7.0390625 6.5625q-0.53125 0.546875 -1.03125 0.796875q-0.5 0.234375 -1.078125 0.234375q-1.171875 0 -2.046875 -0.984375q-0.875 -0.984375 -0.875 -2.515625q0 -1.546875 0.96875 -2.8125q0.96875 -1.28125 2.5 -1.28125q0.9375 0 1.5625 0.59375l0 -1.3125q0 -1.234375 -0.0625 -1.515625q-0.0625 -0.28125 -0.1875 -0.375q-0.125 -0.109375 -0.3125 -0.109375q-0.203125 0 -0.53125 0.125l-0.109375 -0.265625l2.140625 -0.875l0.34375 0l0 8.265625q0 1.265625 0.0625 1.546875q0.0625 0.265625 0.1875 0.375q0.125 0.109375 0.296875 0.109375q0.21875 0 0.5625 -0.125l0.09375 0.265625l-2.125 0.890625l-0.359375 0l0 -1.03125zm0 -0.546875l0 -3.6875q-0.046875 -0.53125 -0.28125 -0.96875q-0.234375 -0.4375 -0.625 -0.65625q-0.390625 -0.21875 -0.75 -0.21875q-0.6875 0 -1.234375 0.609375q-0.703125 0.8125 -0.703125 2.375q0 1.578125 0.6875 2.421875q0.6875 0.84375 1.53125 0.84375q0.703125 0 1.375 -0.71875zm8.0 0.546875q-0.53125 0.546875 -1.03125 0.796875q-0.5 0.234375 -1.078125 0.234375q-1.171875 0 -2.046875 -0.984375q-0.875 -0.984375 -0.875 -2.515625q0 -1.546875 0.96875 -2.8125q0.96875 -1.28125 2.5 -1.28125q0.9375 0 1.5625 0.59375l0 -1.3125q0 -1.234375 -0.0625 -1.515625q-0.0625 -0.28125 -0.1875 -0.375q-0.125 -0.109375 -0.3125 -0.109375q-0.203125 0 -0.53125 0.125l-0.109375 -0.265625l2.140625 -0.875l0.34375 0l0 8.265625q0 1.265625 0.0625 1.546875q0.0625 0.265625 0.1875 0.375q0.125 0.109375 0.296875 0.109375q0.21875 0 0.5625 -0.125l0.09375 0.265625l-2.125 0.890625l-0.359375 0l0 -1.03125zm0 -0.546875l0 -3.6875q-0.046875 -0.53125 -0.28125 -0.96875q-0.234375 -0.4375 -0.625 -0.65625q-0.390625 -0.21875 -0.75 -0.21875q-0.6875 0 -1.234375 0.609375q-0.703125 0.8125 -0.703125 2.375q0 1.578125 0.6875 2.421875q0.6875 0.84375 1.53125 0.84375q0.703125 0 1.375 -0.71875zm4.140625 -3.109375q0 1.59375 0.78125 2.5q0.78125 0.90625 1.828125 0.90625q0.703125 0 1.21875 -0.375q0.53125 -0.390625 0.875 -1.328125l0.25 0.15625q-0.171875 1.0625 -0.96875 1.953125q-0.78125 0.875 -1.96875 0.875q-1.28125 0 -2.203125 -1.0q-0.921875 -1.015625 -0.921875 -2.703125q0 -1.84375 0.9375 -2.859375q0.953125 -1.03125 2.375 -1.03125q1.203125 0 1.96875 0.796875q0.78125 0.78125 0.78125 2.109375l-4.953125 0zm0 -0.453125l3.3125 0q-0.03125 -0.6875 -0.15625 -0.96875q-0.203125 -0.4375 -0.59375 -0.6875q-0.375 -0.25 -0.796875 -0.25q-0.65625 0 -1.171875 0.515625q-0.5 0.5 -0.59375 1.390625zm7.9921875 -0.9375q1.25 -1.515625 2.390625 -1.515625q0.59375 0 1.015625 0.296875q0.421875 0.296875 0.671875 0.96875q0.171875 0.46875 0.171875 1.4375l0 3.046875q0 0.6875 0.109375 0.921875q0.078125 0.203125 0.265625 0.3125q0.203125 0.109375 0.71875 0.109375l0 0.28125l-3.546875 0l0 -0.28125l0.15625 0q0.5 0 0.6875 -0.15625q0.203125 -0.15625 0.28125 -0.453125q0.03125 -0.109375 0.03125 -0.734375l0 -2.921875q0 -0.984375 -0.25 -1.421875q-0.25 -0.4375 -0.859375 -0.4375q-0.921875 0 -1.84375 1.015625l0 3.765625q0 0.734375 0.078125 0.90625q0.109375 0.21875 0.296875 0.328125q0.203125 0.109375 0.78125 0.109375l0 0.28125l-3.53125 0l0 -0.28125l0.15625 0q0.546875 0 0.734375 -0.28125q0.1875 -0.28125 0.1875 -1.0625l0 -2.65625q0 -1.28125 -0.0625 -1.5625q-0.046875 -0.28125 -0.171875 -0.375q-0.125 -0.109375 -0.328125 -0.109375q-0.21875 0 -0.515625 0.109375l-0.125 -0.28125l2.15625 -0.875l0.34375 0l0 1.515625zm12.375 -5.25l0 9.484375q0 0.671875 0.09375 0.890625q0.09375 0.21875 0.296875 0.34375q0.203125 0.109375 0.765625 0.109375l0 0.28125l-3.515625 0l0 -0.28125q0.5 0 0.671875 -0.09375q0.1875 -0.109375 0.28125 -0.34375q0.109375 -0.234375 0.109375 -0.90625l0 -6.5q0 -1.203125 -0.0625 -1.484375q-0.046875 -0.28125 -0.171875 -0.375q-0.125 -0.109375 -0.3125 -0.109375q-0.203125 0 -0.515625 0.125l-0.125 -0.265625l2.125 -0.875l0.359375 0zm6.0390625 10.078125q-1.109375 0.84375 -1.390625 0.984375q-0.421875 0.203125 -0.890625 0.203125q-0.75 0 -1.234375 -0.515625q-0.46875 -0.515625 -0.46875 -1.34375q0 -0.515625 0.234375 -0.90625q0.3125 -0.53125 1.109375 -1.0q0.796875 -0.46875 2.640625 -1.140625l0 -0.28125q0 -1.0625 -0.34375 -1.453125q-0.34375 -0.40625 -0.984375 -0.40625q-0.5 0 -0.78125 0.265625q-0.296875 0.265625 -0.296875 0.609375l0.015625 0.453125q0 0.359375 -0.1875 0.5625q-0.1875 0.1875 -0.484375 0.1875q-0.28125 0 -0.46875 -0.203125q-0.1875 -0.203125 -0.1875 -0.5625q0 -0.671875 0.6875 -1.234375q0.6875 -0.5625 1.9375 -0.5625q0.953125 0 1.5625 0.328125q0.453125 0.234375 0.671875 0.75q0.140625 0.34375 0.140625 1.375l0 2.4375q0 1.015625 0.03125 1.25q0.046875 0.234375 0.140625 0.3125q0.09375 0.078125 0.203125 0.078125q0.125 0 0.21875 -0.0625q0.171875 -0.09375 0.640625 -0.5625l0 0.4375q-0.875 1.171875 -1.671875 1.171875q-0.390625 0 -0.625 -0.265625q-0.21875 -0.265625 -0.21875 -0.90625zm0 -0.515625l0 -2.71875q-1.1875 0.46875 -1.53125 0.65625q-0.609375 0.34375 -0.875 0.71875q-0.265625 0.375 -0.265625 0.828125q0 0.5625 0.328125 0.9375q0.34375 0.359375 0.78125 0.359375q0.59375 0 1.5625 -0.78125zm2.6328125 -5.609375l3.34375 0l0 0.28125l-0.171875 0q-0.34375 0 -0.53125 0.15625q-0.171875 0.15625 -0.171875 0.375q0 0.3125 0.265625 0.84375l1.734375 3.609375l1.609375 -3.953125q0.125 -0.3125 0.125 -0.625q0 -0.140625 -0.046875 -0.21875q-0.0625 -0.078125 -0.203125 -0.125q-0.125 -0.0625 -0.46875 -0.0625l0 -0.28125l2.328125 0l0 0.28125q-0.28125 0.03125 -0.4375 0.125q-0.15625 0.09375 -0.34375 0.359375q-0.078125 0.109375 -0.265625 0.59375l-2.921875 7.15625q-0.421875 1.03125 -1.109375 1.5625q-0.671875 0.53125 -1.3125 0.53125q-0.453125 0 -0.75 -0.265625q-0.296875 -0.265625 -0.296875 -0.609375q0 -0.328125 0.203125 -0.53125q0.21875 -0.1875 0.59375 -0.1875q0.265625 0 0.703125 0.171875q0.3125 0.109375 0.390625 0.109375q0.234375 0 0.515625 -0.25q0.28125 -0.234375 0.5625 -0.921875l0.5 -1.25l-2.5625 -5.40625q-0.125 -0.234375 -0.375 -0.59375q-0.203125 -0.28125 -0.328125 -0.375q-0.171875 -0.125 -0.578125 -0.21875l0 -0.28125zm9.609375 2.6875q0 1.59375 0.78125 2.5q0.78125 0.90625 1.828125 0.90625q0.703125 0 1.21875 -0.375q0.53125 -0.390625 0.875 -1.328125l0.25 0.15625q-0.171875 1.0625 -0.96875 1.953125q-0.78125 0.875 -1.96875 0.875q-1.28125 0 -2.203125 -1.0q-0.921875 -1.015625 -0.921875 -2.703125q0 -1.84375 0.9375 -2.859375q0.953125 -1.03125 2.375 -1.03125q1.203125 0 1.96875 0.796875q0.78125 0.78125 0.78125 2.109375l-4.953125 0zm0 -0.453125l3.3125 0q-0.03125 -0.6875 -0.15625 -0.96875q-0.203125 -0.4375 -0.59375 -0.6875q-0.375 -0.25 -0.796875 -0.25q-0.65625 0 -1.171875 0.515625q-0.5 0.5 -0.59375 1.390625zm7.9921875 -2.453125l0 1.609375q0.90625 -1.609375 1.84375 -1.609375q0.4375 0 0.71875 0.265625q0.28125 0.265625 0.28125 0.609375q0 0.296875 -0.203125 0.515625q-0.203125 0.203125 -0.484375 0.203125q-0.28125 0 -0.625 -0.265625q-0.328125 -0.265625 -0.5 -0.265625q-0.140625 0 -0.296875 0.15625q-0.359375 0.3125 -0.734375 1.046875l0 3.4375q0 0.59375 0.15625 0.890625q0.09375 0.21875 0.34375 0.359375q0.265625 0.140625 0.75 0.140625l0 0.28125l-3.65625 0l0 -0.28125q0.546875 0 0.8125 -0.171875q0.1875 -0.125 0.265625 -0.40625q0.046875 -0.125 0.046875 -0.75l0 -2.78125q0 -1.25 -0.0625 -1.484375q-0.046875 -0.234375 -0.1875 -0.34375q-0.125 -0.109375 -0.328125 -0.109375q-0.25 0 -0.546875 0.109375l-0.078125 -0.28125l2.15625 -0.875l0.328125 0zm8.609375 -2.1875l2.578125 -1.25l0.265625 0l0 8.9375q0 0.890625 0.0625 1.109375q0.078125 0.21875 0.3125 0.34375q0.234375 0.109375 0.95310974 0.125l0 0.296875l-3.9843597 0l0 -0.296875q0.75 -0.015625 0.96875 -0.125q0.21875 -0.109375 0.296875 -0.296875q0.09375 -0.203125 0.09375 -1.15625l0 -5.71875q0 -1.15625 -0.078125 -1.484375q-0.046875 -0.25 -0.203125 -0.359375q-0.140625 -0.125 -0.34375 -0.125q-0.28125 0 -0.796875 0.25l-0.125 -0.25z" fill-rule="nonzero"/><path fill="#000000" fill-opacity="0.0" d="m286.66272 252.51837l115.46457 0l0 38.771667l-115.46457 0z" fill-rule="evenodd"/><path fill="#1155cc" d="m301.24268 265.769l0 5.234375q0.859375 -0.953125 1.359375 -1.21875q0.515625 -0.28125 1.03125 -0.28125q0.609375 0 1.046875 0.34375q0.4375 0.328125 0.640625 1.046875q0.15625 0.5 0.15625 1.828125l0 2.53125q0 0.6875 0.109375 0.9375q0.078125 0.1875 0.265625 0.296875q0.1875 0.109375 0.6875 0.109375l0 0.28125l-3.515625 0l0 -0.28125l0.15625 0q0.5 0 0.6875 -0.15625q0.203125 -0.15625 0.28125 -0.453125q0.03125 -0.125 0.03125 -0.734375l0 -2.53125q0 -1.171875 -0.125 -1.53125q-0.125 -0.375 -0.390625 -0.546875q-0.265625 -0.1875 -0.640625 -0.1875q-0.375 0 -0.796875 0.203125q-0.40625 0.203125 -0.984375 0.8125l0 3.78125q0 0.734375 0.078125 0.921875q0.078125 0.171875 0.296875 0.296875q0.234375 0.125 0.78125 0.125l0 0.28125l-3.546875 0l0 -0.28125q0.46875 0 0.75 -0.15625q0.15625 -0.078125 0.25 -0.296875q0.09375 -0.21875 0.09375 -0.890625l0 -6.46875q0 -1.234375 -0.0625 -1.515625q-0.0625 -0.28125 -0.1875 -0.375q-0.109375 -0.109375 -0.3125 -0.109375q-0.171875 0 -0.53125 0.125l-0.109375 -0.265625l2.140625 -0.875l0.359375 0zm7.71875 0q0.328125 0 0.546875 0.234375q0.234375 0.21875 0.234375 0.546875q0 0.328125 -0.234375 0.5625q-0.21875 0.234375 -0.546875 0.234375q-0.328125 0 -0.5625 -0.234375q-0.234375 -0.234375 -0.234375 -0.5625q0 -0.328125 0.21875 -0.546875q0.234375 -0.234375 0.578125 -0.234375zm0.640625 3.734375l0 5.75q0 0.671875 0.09375 0.90625q0.109375 0.21875 0.296875 0.328125q0.1875 0.109375 0.703125 0.109375l0 0.28125l-3.484375 0l0 -0.28125q0.53125 0 0.703125 -0.09375q0.1875 -0.109375 0.28125 -0.34375q0.109375 -0.234375 0.109375 -0.90625l0 -2.75q0 -1.171875 -0.0625 -1.515625q-0.0625 -0.25 -0.1875 -0.34375q-0.109375 -0.09375 -0.3125 -0.09375q-0.21875 0 -0.53125 0.109375l-0.109375 -0.28125l2.15625 -0.875l0.34375 0zm7.0390625 6.5625q-0.53125 0.546875 -1.03125 0.796875q-0.5 0.234375 -1.078125 0.234375q-1.171875 0 -2.046875 -0.984375q-0.875 -0.984375 -0.875 -2.515625q0 -1.546875 0.96875 -2.8125q0.96875 -1.28125 2.5 -1.28125q0.9375 0 1.5625 0.59375l0 -1.3125q0 -1.234375 -0.0625 -1.515625q-0.0625 -0.28125 -0.1875 -0.375q-0.125 -0.109375 -0.3125 -0.109375q-0.203125 0 -0.53125 0.125l-0.109375 -0.265625l2.140625 -0.875l0.34375 0l0 8.265625q0 1.265625 0.0625 1.546875q0.0625 0.265625 0.1875 0.375q0.125 0.109375 0.296875 0.109375q0.21875 0 0.5625 -0.125l0.09375 0.265625l-2.125 0.890625l-0.359375 0l0 -1.03125zm0 -0.546875l0 -3.6875q-0.046875 -0.53125 -0.28125 -0.96875q-0.234375 -0.4375 -0.625 -0.65625q-0.390625 -0.21875 -0.75 -0.21875q-0.6875 0 -1.234375 0.609375q-0.703125 0.8125 -0.703125 2.375q0 1.578125 0.6875 2.421875q0.6875 0.84375 1.53125 0.84375q0.703125 0 1.375 -0.71875zm8.0 0.546875q-0.53125 0.546875 -1.03125 0.796875q-0.5 0.234375 -1.078125 0.234375q-1.171875 0 -2.046875 -0.984375q-0.875 -0.984375 -0.875 -2.515625q0 -1.546875 0.96875 -2.8125q0.96875 -1.28125 2.5 -1.28125q0.9375 0 1.5625 0.59375l0 -1.3125q0 -1.234375 -0.0625 -1.515625q-0.0625 -0.28125 -0.1875 -0.375q-0.125 -0.109375 -0.3125 -0.109375q-0.203125 0 -0.53125 0.125l-0.109375 -0.265625l2.140625 -0.875l0.34375 0l0 8.265625q0 1.265625 0.0625 1.546875q0.0625 0.265625 0.1875 0.375q0.125 0.109375 0.296875 0.109375q0.21875 0 0.5625 -0.125l0.09375 0.265625l-2.125 0.890625l-0.359375 0l0 -1.03125zm0 -0.546875l0 -3.6875q-0.046875 -0.53125 -0.28125 -0.96875q-0.234375 -0.4375 -0.625 -0.65625q-0.390625 -0.21875 -0.75 -0.21875q-0.6875 0 -1.234375 0.609375q-0.703125 0.8125 -0.703125 2.375q0 1.578125 0.6875 2.421875q0.6875 0.84375 1.53125 0.84375q0.703125 0 1.375 -0.71875zm4.140625 -3.109375q0 1.59375 0.78125 2.5q0.78125 0.90625 1.828125 0.90625q0.703125 0 1.21875 -0.375q0.53125 -0.390625 0.875 -1.328125l0.25 0.15625q-0.171875 1.0625 -0.96875 1.953125q-0.78125 0.875 -1.96875 0.875q-1.28125 0 -2.203125 -1.0q-0.921875 -1.015625 -0.921875 -2.703125q0 -1.84375 0.9375 -2.859375q0.953125 -1.03125 2.375 -1.03125q1.203125 0 1.96875 0.796875q0.78125 0.78125 0.78125 2.109375l-4.953125 0zm0 -0.453125l3.3125 0q-0.03125 -0.6875 -0.15625 -0.96875q-0.203125 -0.4375 -0.59375 -0.6875q-0.375 -0.25 -0.796875 -0.25q-0.65625 0 -1.171875 0.515625q-0.5 0.5 -0.59375 1.390625zm7.9921875 -0.9375q1.25 -1.515625 2.390625 -1.515625q0.59375 0 1.015625 0.296875q0.421875 0.296875 0.671875 0.96875q0.171875 0.46875 0.171875 1.4375l0 3.046875q0 0.6875 0.109375 0.921875q0.078125 0.203125 0.265625 0.3125q0.203125 0.109375 0.71875 0.109375l0 0.28125l-3.546875 0l0 -0.28125l0.15625 0q0.5 0 0.6875 -0.15625q0.203125 -0.15625 0.28125 -0.453125q0.03125 -0.109375 0.03125 -0.734375l0 -2.921875q0 -0.984375 -0.25 -1.421875q-0.25 -0.4375 -0.859375 -0.4375q-0.921875 0 -1.84375 1.015625l0 3.765625q0 0.734375 0.078125 0.90625q0.109375 0.21875 0.296875 0.328125q0.203125 0.109375 0.78125 0.109375l0 0.28125l-3.53125 0l0 -0.28125l0.15625 0q0.546875 0 0.734375 -0.28125q0.1875 -0.28125 0.1875 -1.0625l0 -2.65625q0 -1.28125 -0.0625 -1.5625q-0.046875 -0.28125 -0.171875 -0.375q-0.125 -0.109375 -0.328125 -0.109375q-0.21875 0 -0.515625 0.109375l-0.125 -0.28125l2.15625 -0.875l0.34375 0l0 1.515625zm12.375 -5.25l0 9.484375q0 0.671875 0.09375 0.890625q0.09375 0.21875 0.296875 0.34375q0.203125 0.109375 0.765625 0.109375l0 0.28125l-3.515625 0l0 -0.28125q0.5 0 0.671875 -0.09375q0.1875 -0.109375 0.28125 -0.34375q0.109375 -0.234375 0.109375 -0.90625l0 -6.5q0 -1.203125 -0.0625 -1.484375q-0.046875 -0.28125 -0.171875 -0.375q-0.125 -0.109375 -0.3125 -0.109375q-0.203125 0 -0.515625 0.125l-0.125 -0.265625l2.125 -0.875l0.359375 0zm6.0390625 10.078125q-1.109375 0.84375 -1.390625 0.984375q-0.421875 0.203125 -0.890625 0.203125q-0.75 0 -1.234375 -0.515625q-0.46875 -0.515625 -0.46875 -1.34375q0 -0.515625 0.234375 -0.90625q0.3125 -0.53125 1.109375 -1.0q0.796875 -0.46875 2.640625 -1.140625l0 -0.28125q0 -1.0625 -0.34375 -1.453125q-0.34375 -0.40625 -0.984375 -0.40625q-0.5 0 -0.78125 0.265625q-0.296875 0.265625 -0.296875 0.609375l0.015625 0.453125q0 0.359375 -0.1875 0.5625q-0.1875 0.1875 -0.484375 0.1875q-0.28125 0 -0.46875 -0.203125q-0.1875 -0.203125 -0.1875 -0.5625q0 -0.671875 0.6875 -1.234375q0.6875 -0.5625 1.9375 -0.5625q0.953125 0 1.5625 0.328125q0.453125 0.234375 0.671875 0.75q0.140625 0.34375 0.140625 1.375l0 2.4375q0 1.015625 0.03125 1.25q0.046875 0.234375 0.140625 0.3125q0.09375 0.078125 0.203125 0.078125q0.125 0 0.21875 -0.0625q0.171875 -0.09375 0.640625 -0.5625l0 0.4375q-0.875 1.171875 -1.671875 1.171875q-0.390625 0 -0.625 -0.265625q-0.21875 -0.265625 -0.21875 -0.90625zm0 -0.515625l0 -2.71875q-1.1875 0.46875 -1.53125 0.65625q-0.609375 0.34375 -0.875 0.71875q-0.265625 0.375 -0.265625 0.828125q0 0.5625 0.328125 0.9375q0.34375 0.359375 0.78125 0.359375q0.59375 0 1.5625 -0.78125zm2.6328125 -5.609375l3.34375 0l0 0.28125l-0.171875 0q-0.34375 0 -0.53125 0.15625q-0.171875 0.15625 -0.171875 0.375q0 0.3125 0.265625 0.84375l1.734375 3.609375l1.609375 -3.953125q0.125 -0.3125 0.125 -0.625q0 -0.140625 -0.046875 -0.21875q-0.0625 -0.078125 -0.203125 -0.125q-0.125 -0.0625 -0.46875 -0.0625l0 -0.28125l2.328125 0l0 0.28125q-0.28125 0.03125 -0.4375 0.125q-0.15625 0.09375 -0.34375 0.359375q-0.078125 0.109375 -0.265625 0.59375l-2.921875 7.15625q-0.421875 1.03125 -1.109375 1.5625q-0.671875 0.53125 -1.3125 0.53125q-0.453125 0 -0.75 -0.265625q-0.296875 -0.265625 -0.296875 -0.609375q0 -0.328125 0.203125 -0.53125q0.21875 -0.1875 0.59375 -0.1875q0.265625 0 0.703125 0.171875q0.3125 0.109375 0.390625 0.109375q0.234375 0 0.515625 -0.25q0.28125 -0.234375 0.5625 -0.921875l0.5 -1.25l-2.5625 -5.40625q-0.125 -0.234375 -0.375 -0.59375q-0.203125 -0.28125 -0.328125 -0.375q-0.171875 -0.125 -0.578125 -0.21875l0 -0.28125zm9.609375 2.6875q0 1.59375 0.78125 2.5q0.78125 0.90625 1.828125 0.90625q0.703125 0 1.21875 -0.375q0.53125 -0.390625 0.875 -1.328125l0.25 0.15625q-0.171875 1.0625 -0.96875 1.953125q-0.78125 0.875 -1.96875 0.875q-1.28125 0 -2.203125 -1.0q-0.921875 -1.015625 -0.921875 -2.703125q0 -1.84375 0.9375 -2.859375q0.953125 -1.03125 2.375 -1.03125q1.203125 0 1.96875 0.796875q0.78125 0.78125 0.78125 2.109375l-4.953125 0zm0 -0.453125l3.3125 0q-0.03125 -0.6875 -0.15625 -0.96875q-0.203125 -0.4375 -0.59375 -0.6875q-0.375 -0.25 -0.796875 -0.25q-0.65625 0 -1.171875 0.515625q-0.5 0.5 -0.59375 1.390625zm7.9921875 -2.453125l0 1.609375q0.90625 -1.609375 1.84375 -1.609375q0.4375 0 0.71875 0.265625q0.28125 0.265625 0.28125 0.609375q0 0.296875 -0.203125 0.515625q-0.203125 0.203125 -0.484375 0.203125q-0.28125 0 -0.625 -0.265625q-0.328125 -0.265625 -0.5 -0.265625q-0.140625 0 -0.296875 0.15625q-0.359375 0.3125 -0.734375 1.046875l0 3.4375q0 0.59375 0.15625 0.890625q0.09375 0.21875 0.34375 0.359375q0.265625 0.140625 0.75 0.140625l0 0.28125l-3.65625 0l0 -0.28125q0.546875 0 0.8125 -0.171875q0.1875 -0.125 0.265625 -0.40625q0.046875 -0.125 0.046875 -0.75l0 -2.78125q0 -1.25 -0.0625 -1.484375q-0.046875 -0.234375 -0.1875 -0.34375q-0.125 -0.109375 -0.328125 -0.109375q-0.25 0 -0.546875 0.109375l-0.078125 -0.28125l2.15625 -0.875l0.328125 0zm14.078125 5.328125l-0.75 2.046875l-6.25 0l0 -0.296875q2.765625 -2.515625 3.890625 -4.109375q1.125 -1.59375 1.125 -2.90625q0 -1.015625 -0.625 -1.65625q-0.609375 -0.65625 -1.46875 -0.65625q-0.78125 0 -1.40625 0.46875q-0.625 0.453125 -0.921875 1.328125l-0.28125 0q0.1875 -1.4375 1.0 -2.203125q0.8125 -0.78125 2.015625 -0.78125q1.296875 0 2.15625 0.828125q0.859375 0.828125 0.859375 1.953125q0 0.796875 -0.375 1.609375q-0.578125 1.265625 -1.875 2.671875q-1.9375 2.125 -2.421875 2.5625l2.765625 0q0.84375 0 1.171875 -0.0625q0.34375 -0.0625 0.609375 -0.25q0.28125 -0.1875 0.484375 -0.546875l0.296875 0z" fill-rule="nonzero"/><path fill="#000000" fill-opacity="0.0" d="m22.305775 225.18242l115.46457 0l0 38.771652l-115.46457 0z" fill-rule="evenodd"/><path fill="#85200c" d="m47.93259 238.43304q0.328125 0 0.546875 0.234375q0.234375 0.21875 0.234375 0.546875q0 0.328125 -0.234375 0.5625q-0.21875 0.234375 -0.546875 0.234375q-0.328125 0 -0.5625 -0.234375q-0.234375 -0.234375 -0.234375 -0.5625q0 -0.328125 0.21875 -0.546875q0.234375 -0.234375 0.578125 -0.234375zm0.640625 3.734375l0 5.75q0 0.671875 0.09375 0.90625q0.109375 0.21875 0.296875 0.328125q0.1875 0.109375 0.703125 0.109375l0 0.28125l-3.484375 0l0 -0.28125q0.53125 0 0.703125 -0.09375q0.1875 -0.109375 0.28125 -0.34375q0.109375 -0.234375 0.109375 -0.90625l0 -2.75q0 -1.171875 -0.0625 -1.515625q-0.0625 -0.25 -0.1875 -0.34375q-0.109375 -0.09375 -0.3125 -0.09375q-0.21875 0 -0.53125 0.109375l-0.109375 -0.28125l2.15625 -0.875l0.34375 0zm4.0703125 1.515625q1.25 -1.515625 2.390625 -1.515625q0.59375 0 1.015625 0.296875q0.421875 0.296875 0.671875 0.96875q0.171875 0.46875 0.171875 1.4375l0 3.046875q0 0.6875 0.109375 0.921875q0.078125 0.203125 0.265625 0.3125q0.203125 0.109375 0.71875 0.109375l0 0.28125l-3.546875 0l0 -0.28125l0.15625 0q0.5 0 0.6875 -0.15625q0.203125 -0.15625 0.28125 -0.453125q0.03125 -0.109375 0.03125 -0.734375l0 -2.921875q0 -0.984375 -0.25 -1.421875q-0.25 -0.4375 -0.859375 -0.4375q-0.921875 0 -1.84375 1.015625l0 3.765625q0 0.734375 0.078125 0.90625q0.109375 0.21875 0.296875 0.328125q0.203125 0.109375 0.78125 0.109375l0 0.28125l-3.53125 0l0 -0.28125l0.15625 0q0.546875 0 0.734375 -0.28125q0.1875 -0.28125 0.1875 -1.0625l0 -2.65625q0 -1.28125 -0.0625 -1.5625q-0.046875 -0.28125 -0.171875 -0.375q-0.125 -0.109375 -0.328125 -0.109375q-0.21875 0 -0.515625 0.109375l-0.125 -0.28125l2.15625 -0.875l0.34375 0l0 1.515625zm5.390625 -0.59375l2.203125 -0.890625l0.296875 0l0 1.671875q0.5625 -0.9375 1.109375 -1.3125q0.5625 -0.390625 1.1875 -0.390625q1.078125 0 1.7968712 0.84375q0.875 1.03125 0.875 2.6875q0 1.859375 -1.0625 3.0625q-0.8749962 1.0 -2.2031212 1.0q-0.578125 0 -1.0 -0.15625q-0.3125 -0.125 -0.703125 -0.484375l0 2.1875q0 0.734375 0.09375 0.9375q0.09375 0.203125 0.3125 0.3125q0.21875 0.125 0.8125 0.125l0 0.28125l-3.765625 0l0 -0.28125l0.203125 0q0.4375 0 0.734375 -0.171875q0.15625 -0.078125 0.234375 -0.28125q0.078125 -0.1875 0.078125 -0.96875l0 -6.765625q0 -0.703125 -0.0625 -0.890625q-0.0625 -0.1875 -0.203125 -0.28125q-0.125 -0.09375 -0.359375 -0.09375q-0.1875 0 -0.484375 0.109375l-0.09375 -0.25zm2.5 1.25l0 2.671875q0 0.859375 0.078125 1.140625q0.109375 0.453125 0.53125 0.796875q0.421875 0.34375 1.078125 0.34375q0.78125 0 1.265625 -0.609375q0.6249962 -0.796875 0.6249962 -2.25q0 -1.640625 -0.7187462 -2.515625q-0.5 -0.609375 -1.1875 -0.609375q-0.375 0 -0.734375 0.1875q-0.28125 0.140625 -0.9375 0.84375zm12.296871 -1.953125l0 4.328125q0 1.25 0.046875 1.53125q0.0625 0.265625 0.1875 0.375q0.140625 0.109375 0.3125 0.109375q0.234375 0 0.546875 -0.125l0.109375 0.265625l-2.140625 0.890625l-0.359375 0l0 -1.515625q-0.921875 1.0 -1.40625 1.265625q-0.484375 0.25 -1.015625 0.25q-0.609375 0 -1.046875 -0.34375q-0.4375 -0.359375 -0.609375 -0.90625q-0.171875 -0.546875 -0.171875 -1.546875l0 -3.1875q0 -0.515625 -0.109375 -0.703125q-0.109375 -0.203125 -0.328125 -0.296875q-0.21875 -0.109375 -0.78125 -0.109375l0 -0.28125l2.515625 0l0 4.78125q0 1.0 0.34375 1.3125q0.34375 0.3125 0.84375 0.3125q0.328125 0 0.75 -0.203125q0.4375 -0.21875 1.015625 -0.8125l0 -4.046875q0 -0.609375 -0.21875 -0.828125q-0.21875 -0.21875 -0.921875 -0.234375l0 -0.28125l2.4375 0zm3.796875 -2.359375l0 2.359375l1.671875 0l0 0.546875l-1.671875 0l0 4.640625q0 0.6875 0.203125 0.9375q0.203125 0.234375 0.515625 0.234375q0.25 0 0.484375 -0.15625q0.25 -0.15625 0.390625 -0.46875l0.296875 0q-0.265625 0.765625 -0.765625 1.15625q-0.5 0.390625 -1.03125 0.390625q-0.359375 0 -0.703125 -0.203125q-0.34375 -0.203125 -0.515625 -0.578125q-0.15625 -0.375 -0.15625 -1.140625l0 -4.8125l-1.140625 0l0 -0.265625q0.4375 -0.171875 0.875 -0.578125q0.453125 -0.40625 0.8125 -0.96875q0.171875 -0.296875 0.5 -1.09375l0.234375 0zm8.8359375 -1.59375l0 9.484375q0 0.671875 0.09375 0.890625q0.09375 0.21875 0.296875 0.34375q0.203125 0.109375 0.765625 0.109375l0 0.28125l-3.515625 0l0 -0.28125q0.5 0 0.671875 -0.09375q0.1875 -0.109375 0.28125 -0.34375q0.109375 -0.234375 0.109375 -0.90625l0 -6.5q0 -1.203125 -0.0625 -1.484375q-0.046875 -0.28125 -0.171875 -0.375q-0.125 -0.109375 -0.3125 -0.109375q-0.203125 0 -0.515625 0.125l-0.125 -0.265625l2.125 -0.875l0.359375 0zm6.0390625 10.078125q-1.109375 0.84375 -1.390625 0.984375q-0.421875 0.203125 -0.890625 0.203125q-0.75 0 -1.234375 -0.515625q-0.46875 -0.515625 -0.46875 -1.34375q0 -0.515625 0.234375 -0.90625q0.3125 -0.53125 1.109375 -1.0q0.796875 -0.46875 2.640625 -1.140625l0 -0.28125q0 -1.0625 -0.34375 -1.453125q-0.34375 -0.40625 -0.984375 -0.40625q-0.5 0 -0.78125 0.265625q-0.296875 0.265625 -0.296875 0.609375l0.015625 0.453125q0 0.359375 -0.1875 0.5625q-0.1875 0.1875 -0.484375 0.1875q-0.28125 0 -0.46875 -0.203125q-0.1875 -0.203125 -0.1875 -0.5625q0 -0.671875 0.6875 -1.234375q0.6875 -0.5625 1.9375 -0.5625q0.953125 0 1.5625 0.328125q0.453125 0.234375 0.671875 0.75q0.140625 0.34375 0.140625 1.375l0 2.4375q0 1.015625 0.03125 1.25q0.046875 0.234375 0.140625 0.3125q0.09375 0.078125 0.203125 0.078125q0.125 0 0.21875 -0.0625q0.171875 -0.09375 0.640625 -0.5625l0 0.4375q-0.875 1.171875 -1.671875 1.171875q-0.390625 0 -0.625 -0.265625q-0.21875 -0.265625 -0.21875 -0.90625zm0 -0.515625l0 -2.71875q-1.1875 0.46875 -1.53125 0.65625q-0.609375 0.34375 -0.875 0.71875q-0.265625 0.375 -0.265625 0.828125q0 0.5625 0.328125 0.9375q0.34375 0.359375 0.78125 0.359375q0.59375 0 1.5625 -0.78125zm2.6328125 -5.609375l3.34375 0l0 0.28125l-0.171875 0q-0.34375 0 -0.53125 0.15625q-0.171875 0.15625 -0.171875 0.375q0 0.3125 0.265625 0.84375l1.734375 3.609375l1.609375 -3.953125q0.125 -0.3125 0.125 -0.625q0 -0.140625 -0.046875 -0.21875q-0.0625 -0.078125 -0.203125 -0.125q-0.125 -0.0625 -0.46875 -0.0625l0 -0.28125l2.328125 0l0 0.28125q-0.28125 0.03125 -0.4375 0.125q-0.15625 0.09375 -0.34375 0.359375q-0.078125 0.109375 -0.265625 0.59375l-2.921875 7.15625q-0.421875 1.03125 -1.109375 1.5625q-0.671875 0.53125 -1.3125 0.53125q-0.453125 0 -0.75 -0.265625q-0.296875 -0.265625 -0.296875 -0.609375q0 -0.328125 0.203125 -0.53125q0.21875 -0.1875 0.59375 -0.1875q0.265625 0 0.703125 0.171875q0.3125 0.109375 0.390625 0.109375q0.234375 0 0.515625 -0.25q0.28125 -0.234375 0.5625 -0.921875l0.5 -1.25l-2.5625 -5.40625q-0.125 -0.234375 -0.375 -0.59375q-0.203125 -0.28125 -0.328125 -0.375q-0.171875 -0.125 -0.578125 -0.21875l0 -0.28125zm9.609375 2.6875q0 1.59375 0.78125 2.5q0.78125 0.90625 1.828125 0.90625q0.703125 0 1.21875 -0.375q0.53125 -0.390625 0.875 -1.328125l0.25 0.15625q-0.171875 1.0625 -0.96875 1.953125q-0.78125 0.875 -1.96875 0.875q-1.28125 0 -2.203125 -1.0q-0.921875 -1.015625 -0.921875 -2.703125q0 -1.84375 0.9375 -2.859375q0.953125 -1.03125 2.375 -1.03125q1.203125 0 1.96875 0.796875q0.78125 0.78125 0.78125 2.109375l-4.953125 0zm0 -0.453125l3.3125 0q-0.03125 -0.6875 -0.15625 -0.96875q-0.203125 -0.4375 -0.59375 -0.6875q-0.375 -0.25 -0.796875 -0.25q-0.65625 0 -1.171875 0.515625q-0.5 0.5 -0.59375 1.390625zm7.9921875 -2.453125l0 1.609375q0.90625 -1.609375 1.84375 -1.609375q0.4375 0 0.71875 0.265625q0.28125 0.265625 0.28125 0.609375q0 0.296875 -0.203125 0.515625q-0.203125 0.203125 -0.484375 0.203125q-0.28125 0 -0.625 -0.265625q-0.328125 -0.265625 -0.5 -0.265625q-0.140625 0 -0.296875 0.15625q-0.359375 0.3125 -0.734375 1.046875l0 3.4375q0 0.59375 0.15625 0.890625q0.09375 0.21875 0.34375 0.359375q0.265625 0.140625 0.75 0.140625l0 0.28125l-3.65625 0l0 -0.28125q0.546875 0 0.8125 -0.171875q0.1875 -0.125 0.265625 -0.40625q0.046875 -0.125 0.046875 -0.75l0 -2.78125q0 -1.25 -0.0625 -1.484375q-0.046875 -0.234375 -0.1875 -0.34375q-0.125 -0.109375 -0.328125 -0.109375q-0.25 0 -0.546875 0.109375l-0.078125 -0.28125l2.15625 -0.875l0.328125 0z" fill-rule="nonzero"/><path fill="#000000" fill-opacity="0.0" d="m418.84122 162.22179l115.46457 0l0 38.771652l-115.46457 0z" fill-rule="evenodd"/><path fill="#38761d" d="m442.1399 179.20679q1.625 0 2.609375 1.234375q0.84375 1.0625 0.84375 2.421875q0 0.96875 -0.46875 1.953125q-0.453125 0.984375 -1.265625 1.484375q-0.8125 0.5 -1.796875 0.5q-1.625 0 -2.578125 -1.296875q-0.796875 -1.078125 -0.796875 -2.4375q0 -0.984375 0.484375 -1.953125q0.484375 -0.96875 1.28125 -1.4375q0.796875 -0.46875 1.6875 -0.46875zm-0.234375 0.515625q-0.421875 0 -0.84375 0.25q-0.40625 0.234375 -0.671875 0.859375q-0.25 0.609375 -0.25 1.578125q0 1.5625 0.609375 2.703125q0.625 1.125 1.640625 1.125q0.765625 0 1.25 -0.625q0.5 -0.625 0.5 -2.140625q0 -1.90625 -0.828125 -3.0q-0.546875 -0.75 -1.40625 -0.75zm11.015625 -0.296875l0 4.328125q0 1.25 0.046875 1.53125q0.0625 0.265625 0.1875 0.375q0.140625 0.109375 0.3125 0.109375q0.234375 0 0.546875 -0.125l0.109375 0.265625l-2.140625 0.890625l-0.359375 0l0 -1.515625q-0.921875 1.0 -1.40625 1.265625q-0.484375 0.25 -1.015625 0.25q-0.609375 0 -1.046875 -0.34375q-0.4375 -0.359375 -0.609375 -0.90625q-0.171875 -0.546875 -0.171875 -1.546875l0 -3.1875q0 -0.515625 -0.109375 -0.703125q-0.109375 -0.203125 -0.328125 -0.296875q-0.21875 -0.109375 -0.78125 -0.109375l0 -0.28125l2.515625 0l0 4.78125q0 1.0 0.34375 1.3125q0.34375 0.3125 0.84375 0.3125q0.328125 0 0.75 -0.203125q0.4375 -0.21875 1.015625 -0.8125l0 -4.046875q0 -0.609375 -0.21875 -0.828125q-0.21875 -0.21875 -0.921875 -0.234375l0 -0.28125l2.4375 0zm3.796875 -2.359375l0 2.359375l1.671875 0l0 0.546875l-1.671875 0l0 4.640625q0 0.6875 0.203125 0.9375q0.203125 0.234375 0.515625 0.234375q0.25 0 0.484375 -0.15625q0.25 -0.15625 0.390625 -0.46875l0.296875 0q-0.265625 0.765625 -0.765625 1.15625q-0.5 0.390625 -1.03125 0.390625q-0.359375 0 -0.703125 -0.203125q-0.34375 -0.203125 -0.515625 -0.578125q-0.15625 -0.375 -0.15625 -1.140625l0 -4.8125l-1.140625 0l0 -0.265625q0.4375 -0.171875 0.875 -0.578125q0.453125 -0.40625 0.8125 -0.96875q0.171875 -0.296875 0.5 -1.09375l0.234375 0zm1.8515625 3.0625l2.203125 -0.890625l0.296875 0l0 1.671875q0.5625 -0.9375 1.109375 -1.3125q0.5625 -0.390625 1.1875 -0.390625q1.078125 0 1.796875 0.84375q0.875 1.03125 0.875 2.6875q0 1.859375 -1.0625 3.0625q-0.875 1.0 -2.203125 1.0q-0.578125 0 -1.0 -0.15625q-0.3125 -0.125 -0.703125 -0.484375l0 2.1875q0 0.734375 0.09375 0.9375q0.09375 0.203125 0.3125 0.3125q0.21875 0.125 0.8125 0.125l0 0.28125l-3.765625 0l0 -0.28125l0.203125 0q0.4375 0 0.734375 -0.171875q0.15625 -0.078125 0.234375 -0.28125q0.078125 -0.1875 0.078125 -0.96875l0 -6.765625q0 -0.703125 -0.0625 -0.890625q-0.0625 -0.1875 -0.203125 -0.28125q-0.125 -0.09375 -0.359375 -0.09375q-0.1875 0 -0.484375 0.109375l-0.09375 -0.25zm2.5 1.25l0 2.671875q0 0.859375 0.078125 1.140625q0.109375 0.453125 0.53125 0.796875q0.421875 0.34375 1.078125 0.34375q0.78125 0 1.265625 -0.609375q0.625 -0.796875 0.625 -2.25q0 -1.640625 -0.71875 -2.515625q-0.5 -0.609375 -1.1875 -0.609375q-0.375 0 -0.734375 0.1875q-0.28125 0.140625 -0.9375 0.84375zm12.296875 -1.953125l0 4.328125q0 1.25 0.046875 1.53125q0.0625 0.265625 0.1875 0.375q0.140625 0.109375 0.3125 0.109375q0.234375 0 0.546875 -0.125l0.109375 0.265625l-2.140625 0.890625l-0.359375 0l0 -1.515625q-0.921875 1.0 -1.40625 1.265625q-0.484375 0.25 -1.015625 0.25q-0.609375 0 -1.046875 -0.34375q-0.4375 -0.359375 -0.609375 -0.90625q-0.171875 -0.546875 -0.171875 -1.546875l0 -3.1875q0 -0.515625 -0.109375 -0.703125q-0.109375 -0.203125 -0.328125 -0.296875q-0.21875 -0.109375 -0.78125 -0.109375l0 -0.28125l2.515625 0l0 4.78125q0 1.0 0.34375 1.3125q0.34375 0.3125 0.84375 0.3125q0.328125 0 0.75 -0.203125q0.4375 -0.21875 1.015625 -0.8125l0 -4.046875q0 -0.609375 -0.21875 -0.828125q-0.21875 -0.21875 -0.921875 -0.234375l0 -0.28125l2.4375 0zm3.796875 -2.359375l0 2.359375l1.671875 0l0 0.546875l-1.671875 0l0 4.640625q0 0.6875 0.203125 0.9375q0.203125 0.234375 0.515625 0.234375q0.25 0 0.484375 -0.15625q0.25 -0.15625 0.390625 -0.46875l0.296875 0q-0.265625 0.765625 -0.765625 1.15625q-0.5 0.390625 -1.03125 0.390625q-0.359375 0 -0.703125 -0.203125q-0.34375 -0.203125 -0.515625 -0.578125q-0.15625 -0.375 -0.15625 -1.140625l0 -4.8125l-1.140625 0l0 -0.265625q0.4375 -0.171875 0.875 -0.578125q0.453125 -0.40625 0.8125 -0.96875q0.171875 -0.296875 0.5 -1.09375l0.234375 0zm8.8359375 -1.59375l0 9.484375q0 0.671875 0.09375 0.890625q0.09375 0.21875 0.296875 0.34375q0.203125 0.109375 0.765625 0.109375l0 0.28125l-3.515625 0l0 -0.28125q0.5 0 0.671875 -0.09375q0.1875 -0.109375 0.28125 -0.34375q0.109375 -0.234375 0.109375 -0.90625l0 -6.5q0 -1.203125 -0.0625 -1.484375q-0.046875 -0.28125 -0.171875 -0.375q-0.125 -0.109375 -0.3125 -0.109375q-0.203125 0 -0.515625 0.125l-0.125 -0.265625l2.125 -0.875l0.359375 0zm6.0390625 10.078125q-1.109375 0.84375 -1.390625 0.984375q-0.421875 0.203125 -0.890625 0.203125q-0.75 0 -1.234375 -0.515625q-0.46875 -0.515625 -0.46875 -1.34375q0 -0.515625 0.234375 -0.90625q0.3125 -0.53125 1.109375 -1.0q0.796875 -0.46875 2.640625 -1.140625l0 -0.28125q0 -1.0625 -0.34375 -1.453125q-0.34375 -0.40625 -0.984375 -0.40625q-0.5 0 -0.78125 0.265625q-0.296875 0.265625 -0.296875 0.609375l0.015625 0.453125q0 0.359375 -0.1875 0.5625q-0.1875 0.1875 -0.484375 0.1875q-0.28125 0 -0.46875 -0.203125q-0.1875 -0.203125 -0.1875 -0.5625q0 -0.671875 0.6875 -1.234375q0.6875 -0.5625 1.9375 -0.5625q0.953125 0 1.5625 0.328125q0.453125 0.234375 0.671875 0.75q0.140625 0.34375 0.140625 1.375l0 2.4375q0 1.015625 0.03125 1.25q0.046875 0.234375 0.140625 0.3125q0.09375 0.078125 0.203125 0.078125q0.125 0 0.21875 -0.0625q0.171875 -0.09375 0.640625 -0.5625l0 0.4375q-0.875 1.171875 -1.671875 1.171875q-0.390625 0 -0.625 -0.265625q-0.21875 -0.265625 -0.21875 -0.90625zm0 -0.515625l0 -2.71875q-1.1875 0.46875 -1.53125 0.65625q-0.609375 0.34375 -0.875 0.71875q-0.265625 0.375 -0.265625 0.828125q0 0.5625 0.328125 0.9375q0.34375 0.359375 0.78125 0.359375q0.59375 0 1.5625 -0.78125zm2.6328125 -5.609375l3.34375 0l0 0.28125l-0.171875 0q-0.34375 0 -0.53125 0.15625q-0.171875 0.15625 -0.171875 0.375q0 0.3125 0.265625 0.84375l1.734375 3.609375l1.609375 -3.953125q0.125 -0.3125 0.125 -0.625q0 -0.140625 -0.046875 -0.21875q-0.0625 -0.078125 -0.203125 -0.125q-0.125 -0.0625 -0.46875 -0.0625l0 -0.28125l2.328125 0l0 0.28125q-0.28125 0.03125 -0.4375 0.125q-0.15625 0.09375 -0.34375 0.359375q-0.078125 0.109375 -0.265625 0.59375l-2.921875 7.15625q-0.421875 1.03125 -1.109375 1.5625q-0.671875 0.53125 -1.3125 0.53125q-0.453125 0 -0.75 -0.265625q-0.296875 -0.265625 -0.296875 -0.609375q0 -0.328125 0.203125 -0.53125q0.21875 -0.1875 0.59375 -0.1875q0.265625 0 0.703125 0.171875q0.3125 0.109375 0.390625 0.109375q0.234375 0 0.515625 -0.25q0.28125 -0.234375 0.5625 -0.921875l0.5 -1.25l-2.5625 -5.40625q-0.125 -0.234375 -0.375 -0.59375q-0.203125 -0.28125 -0.328125 -0.375q-0.171875 -0.125 -0.578125 -0.21875l0 -0.28125zm9.609375 2.6875q0 1.59375 0.78125 2.5q0.78125 0.90625 1.828125 0.90625q0.703125 0 1.21875 -0.375q0.53125 -0.390625 0.875 -1.328125l0.25 0.15625q-0.171875 1.0625 -0.96875 1.953125q-0.78125 0.875 -1.96875 0.875q-1.28125 0 -2.203125 -1.0q-0.921875 -1.015625 -0.921875 -2.703125q0 -1.84375 0.9375 -2.859375q0.953125 -1.03125 2.375 -1.03125q1.203125 0 1.96875 0.796875q0.78125 0.78125 0.78125 2.109375l-4.953125 0zm0 -0.453125l3.3125 0q-0.03125 -0.6875 -0.15625 -0.96875q-0.203125 -0.4375 -0.59375 -0.6875q-0.375 -0.25 -0.796875 -0.25q-0.65625 0 -1.171875 0.515625q-0.5 0.5 -0.59375 1.390625zm7.9921875 -2.453125l0 1.609375q0.90625 -1.609375 1.84375 -1.609375q0.4375 0 0.71875 0.265625q0.28125 0.265625 0.28125 0.609375q0 0.296875 -0.203125 0.515625q-0.203125 0.203125 -0.484375 0.203125q-0.28125 0 -0.625 -0.265625q-0.328125 -0.265625 -0.5 -0.265625q-0.140625 0 -0.296875 0.15625q-0.359375 0.3125 -0.734375 1.046875l0 3.4375q0 0.59375 0.15625 0.890625q0.09375 0.21875 0.34375 0.359375q0.265625 0.140625 0.75 0.140625l0 0.28125l-3.65625 0l0 -0.28125q0.546875 0 0.8125 -0.171875q0.1875 -0.125 0.265625 -0.40625q0.046875 -0.125 0.046875 -0.75l0 -2.78125q0 -1.25 -0.0625 -1.484375q-0.046875 -0.234375 -0.1875 -0.34375q-0.125 -0.109375 -0.328125 -0.109375q-0.25 0 -0.546875 0.109375l-0.078125 -0.28125l2.15625 -0.875l0.328125 0z" fill-rule="nonzero"/></g></svg>