<?xml version="1.0" encoding="utf-8" standalone="no"?>
<!DOCTYPE svg PUBLIC "-//W3C//DTD SVG 1.1//EN"
  "http://www.w3.org/Graphics/SVG/1.1/DTD/svg11.dtd">
<svg xmlns:xlink="http://www.w3.org/1999/xlink" width="576pt" height="288pt" viewBox="0 0 576 288" xmlns="http://www.w3.org/2000/svg" version="1.1">
 <metadata>
  <rdf:RDF xmlns:dc="http://purl.org/dc/elements/1.1/" xmlns:cc="http://creativecommons.org/ns#" xmlns:rdf="http://www.w3.org/1999/02/22-rdf-syntax-ns#">
   <cc:Work>
    <dc:type rdf:resource="http://purl.org/dc/dcmitype/StillImage"/>
    <dc:date>2023-02-02T19:57:22.847698</dc:date>
    <dc:format>image/svg+xml</dc:format>
    <dc:creator>
     <cc:Agent>
      <dc:title>Matplotlib v3.5.0, https://matplotlib.org/</dc:title>
     </cc:Agent>
    </dc:creator>
   </cc:Work>
  </rdf:RDF>
 </metadata>
 <defs>
  <style type="text/css">*{stroke-linejoin: round; stroke-linecap: butt}</style>
 </defs>
 <g id="figure_1">
  <g id="patch_1">
   <path d="M 0 288 
L 576 288 
L 576 0 
L 0 0 
z
" style="fill: #ffffff"/>
  </g>
  <g id="axes_1">
   <g id="patch_2">
    <path d="M 72 256.32 
L 518.4 256.32 
L 518.4 34.56 
L 72 34.56 
z
" style="fill: #ffffff"/>
   </g>
   <g id="matplotlib.axis_1">
    <g id="xtick_1">
     <g id="text_1">
      <!-- −10.0 -->
      <g style="fill: #262626" transform="translate(66.422831 271.306625)scale(0.088 -0.088)">
       <defs>
        <path id="DejaVuSans-2212" d="M 678 2272 
L 4684 2272 
L 4684 1741 
L 678 1741 
L 678 2272 
z
" transform="scale(0.015625)"/>
        <path id="DejaVuSans-31" d="M 794 531 
L 1825 531 
L 1825 4091 
L 703 3866 
L 703 4441 
L 1819 4666 
L 2450 4666 
L 2450 531 
L 3481 531 
L 3481 0 
L 794 0 
L 794 531 
z
" transform="scale(0.015625)"/>
        <path id="DejaVuSans-30" d="M 2034 4250 
Q 1547 4250 1301 3770 
Q 1056 3291 1056 2328 
Q 1056 1369 1301 889 
Q 1547 409 2034 409 
Q 2525 409 2770 889 
Q 3016 1369 3016 2328 
Q 3016 3291 2770 3770 
Q 2525 4250 2034 4250 
z
M 2034 4750 
Q 2819 4750 3233 4129 
Q 3647 3509 3647 2328 
Q 3647 1150 3233 529 
Q 2819 -91 2034 -91 
Q 1250 -91 836 529 
Q 422 1150 422 2328 
Q 422 3509 836 4129 
Q 1250 4750 2034 4750 
z
" transform="scale(0.015625)"/>
        <path id="DejaVuSans-2e" d="M 684 794 
L 1344 794 
L 1344 0 
L 684 0 
L 684 794 
z
" transform="scale(0.015625)"/>
       </defs>
       <use xlink:href="#DejaVuSans-2212"/>
       <use xlink:href="#DejaVuSans-31" x="83.789062"/>
       <use xlink:href="#DejaVuSans-30" x="147.412109"/>
       <use xlink:href="#DejaVuSans-2e" x="211.035156"/>
       <use xlink:href="#DejaVuSans-30" x="242.822266"/>
      </g>
     </g>
    </g>
    <g id="xtick_2">
     <g id="text_2">
      <!-- −7.5 -->
      <g style="fill: #262626" transform="translate(123.045639 271.306625)scale(0.088 -0.088)">
       <defs>
        <path id="DejaVuSans-37" d="M 525 4666 
L 3525 4666 
L 3525 4397 
L 1831 0 
L 1172 0 
L 2766 4134 
L 525 4134 
L 525 4666 
z
" transform="scale(0.015625)"/>
        <path id="DejaVuSans-35" d="M 691 4666 
L 3169 4666 
L 3169 4134 
L 1269 4134 
L 1269 2991 
Q 1406 3038 1543 3061 
Q 1681 3084 1819 3084 
Q 2600 3084 3056 2656 
Q 3513 2228 3513 1497 
Q 3513 744 3044 326 
Q 2575 -91 1722 -91 
Q 1428 -91 1123 -41 
Q 819 9 494 109 
L 494 744 
Q 775 591 1075 516 
Q 1375 441 1709 441 
Q 2250 441 2565 725 
Q 2881 1009 2881 1497 
Q 2881 1984 2565 2268 
Q 2250 2553 1709 2553 
Q 1456 2553 1204 2497 
Q 953 2441 691 2322 
L 691 4666 
z
" transform="scale(0.015625)"/>
       </defs>
       <use xlink:href="#DejaVuSans-2212"/>
       <use xlink:href="#DejaVuSans-37" x="83.789062"/>
       <use xlink:href="#DejaVuSans-2e" x="147.412109"/>
       <use xlink:href="#DejaVuSans-35" x="179.199219"/>
      </g>
     </g>
    </g>
    <g id="xtick_3">
     <g id="text_3">
      <!-- −5.0 -->
      <g style="fill: #262626" transform="translate(176.868947 271.306625)scale(0.088 -0.088)">
       <use xlink:href="#DejaVuSans-2212"/>
       <use xlink:href="#DejaVuSans-35" x="83.789062"/>
       <use xlink:href="#DejaVuSans-2e" x="147.412109"/>
       <use xlink:href="#DejaVuSans-30" x="179.199219"/>
      </g>
     </g>
    </g>
    <g id="xtick_4">
     <g id="text_4">
      <!-- −2.5 -->
      <g style="fill: #262626" transform="translate(230.692255 271.306625)scale(0.088 -0.088)">
       <defs>
        <path id="DejaVuSans-32" d="M 1228 531 
L 3431 531 
L 3431 0 
L 469 0 
L 469 531 
Q 828 903 1448 1529 
Q 2069 2156 2228 2338 
Q 2531 2678 2651 2914 
Q 2772 3150 2772 3378 
Q 2772 3750 2511 3984 
Q 2250 4219 1831 4219 
Q 1534 4219 1204 4116 
Q 875 4013 500 3803 
L 500 4441 
Q 881 4594 1212 4672 
Q 1544 4750 1819 4750 
Q 2544 4750 2975 4387 
Q 3406 4025 3406 3419 
Q 3406 3131 3298 2873 
Q 3191 2616 2906 2266 
Q 2828 2175 2409 1742 
Q 1991 1309 1228 531 
z
" transform="scale(0.015625)"/>
       </defs>
       <use xlink:href="#DejaVuSans-2212"/>
       <use xlink:href="#DejaVuSans-32" x="83.789062"/>
       <use xlink:href="#DejaVuSans-2e" x="147.412109"/>
       <use xlink:href="#DejaVuSans-35" x="179.199219"/>
      </g>
     </g>
    </g>
    <g id="xtick_5">
     <g id="text_5">
      <!-- 0.0 -->
      <g style="fill: #262626" transform="translate(288.202625 271.306625)scale(0.088 -0.088)">
       <use xlink:href="#DejaVuSans-30"/>
       <use xlink:href="#DejaVuSans-2e" x="63.623047"/>
       <use xlink:href="#DejaVuSans-30" x="95.410156"/>
      </g>
     </g>
    </g>
    <g id="xtick_6">
     <g id="text_6">
      <!-- 2.5 -->
      <g style="fill: #262626" transform="translate(342.025933 271.306625)scale(0.088 -0.088)">
       <use xlink:href="#DejaVuSans-32"/>
       <use xlink:href="#DejaVuSans-2e" x="63.623047"/>
       <use xlink:href="#DejaVuSans-35" x="95.410156"/>
      </g>
     </g>
    </g>
    <g id="xtick_7">
     <g id="text_7">
      <!-- 5.0 -->
      <g style="fill: #262626" transform="translate(395.849241 271.306625)scale(0.088 -0.088)">
       <use xlink:href="#DejaVuSans-35"/>
       <use xlink:href="#DejaVuSans-2e" x="63.623047"/>
       <use xlink:href="#DejaVuSans-30" x="95.410156"/>
      </g>
     </g>
    </g>
    <g id="xtick_8">
     <g id="text_8">
      <!-- 7.5 -->
      <g style="fill: #262626" transform="translate(449.672549 271.306625)scale(0.088 -0.088)">
       <use xlink:href="#DejaVuSans-37"/>
       <use xlink:href="#DejaVuSans-2e" x="63.623047"/>
       <use xlink:href="#DejaVuSans-35" x="95.410156"/>
      </g>
     </g>
    </g>
    <g id="xtick_9">
     <g id="text_9">
      <!-- 10.0 -->
      <g style="fill: #262626" transform="translate(500.696357 271.306625)scale(0.088 -0.088)">
       <use xlink:href="#DejaVuSans-31"/>
       <use xlink:href="#DejaVuSans-30" x="63.623047"/>
       <use xlink:href="#DejaVuSans-2e" x="127.246094"/>
       <use xlink:href="#DejaVuSans-30" x="159.033203"/>
      </g>
     </g>
    </g>
    <g id="text_10">
     <!-- $x$ -->
     <g style="fill: #262626" transform="translate(292.32 284.43125)scale(0.096 -0.096)">
      <defs>
       <path id="DejaVuSans-Oblique-78" d="M 3841 3500 
L 2234 1784 
L 3219 0 
L 2559 0 
L 1819 1388 
L 531 0 
L -166 0 
L 1556 1844 
L 641 3500 
L 1300 3500 
L 1972 2234 
L 3144 3500 
L 3841 3500 
z
" transform="scale(0.015625)"/>
      </defs>
      <use xlink:href="#DejaVuSans-Oblique-78" transform="translate(0 0.3125)"/>
     </g>
    </g>
   </g>
   <g id="matplotlib.axis_2">
    <g id="ytick_1">
     <g id="text_11">
      <!-- −1.0 -->
      <g style="fill: #262626" transform="translate(42.331125 245.426218)scale(0.088 -0.088)">
       <use xlink:href="#DejaVuSans-2212"/>
       <use xlink:href="#DejaVuSans-31" x="83.789062"/>
       <use xlink:href="#DejaVuSans-2e" x="147.412109"/>
       <use xlink:href="#DejaVuSans-30" x="179.199219"/>
      </g>
     </g>
    </g>
    <g id="ytick_2">
     <g id="text_12">
      <!-- −0.5 -->
      <g style="fill: #262626" transform="translate(42.331125 205.253611)scale(0.088 -0.088)">
       <use xlink:href="#DejaVuSans-2212"/>
       <use xlink:href="#DejaVuSans-30" x="83.789062"/>
       <use xlink:href="#DejaVuSans-2e" x="147.412109"/>
       <use xlink:href="#DejaVuSans-35" x="179.199219"/>
      </g>
     </g>
    </g>
    <g id="ytick_3">
     <g id="text_13">
      <!-- 0.0 -->
      <g style="fill: #262626" transform="translate(49.70525 165.081003)scale(0.088 -0.088)">
       <use xlink:href="#DejaVuSans-30"/>
       <use xlink:href="#DejaVuSans-2e" x="63.623047"/>
       <use xlink:href="#DejaVuSans-30" x="95.410156"/>
      </g>
     </g>
    </g>
    <g id="ytick_4">
     <g id="text_14">
      <!-- 0.5 -->
      <g style="fill: #262626" transform="translate(49.70525 124.908395)scale(0.088 -0.088)">
       <use xlink:href="#DejaVuSans-30"/>
       <use xlink:href="#DejaVuSans-2e" x="63.623047"/>
       <use xlink:href="#DejaVuSans-35" x="95.410156"/>
      </g>
     </g>
    </g>
    <g id="ytick_5">
     <g id="text_15">
      <!-- 1.0 -->
      <g style="fill: #262626" transform="translate(49.70525 84.735788)scale(0.088 -0.088)">
       <use xlink:href="#DejaVuSans-31"/>
       <use xlink:href="#DejaVuSans-2e" x="63.623047"/>
       <use xlink:href="#DejaVuSans-30" x="95.410156"/>
      </g>
     </g>
    </g>
    <g id="ytick_6">
     <g id="text_16">
      <!-- 1.5 -->
      <g style="fill: #262626" transform="translate(49.70525 44.56318)scale(0.088 -0.088)">
       <use xlink:href="#DejaVuSans-31"/>
       <use xlink:href="#DejaVuSans-2e" x="63.623047"/>
       <use xlink:href="#DejaVuSans-35" x="95.410156"/>
      </g>
     </g>
    </g>
    <g id="text_17">
     <!-- $y$ -->
     <g style="fill: #262626" transform="translate(36.315125 148.32)rotate(-90)scale(0.096 -0.096)">
      <defs>
       <path id="DejaVuSans-Oblique-79" d="M 1588 -325 
Q 1188 -997 936 -1164 
Q 684 -1331 294 -1331 
L -159 -1331 
L -63 -850 
L 269 -850 
Q 509 -850 678 -719 
Q 847 -588 1056 -206 
L 1234 128 
L 459 3500 
L 1069 3500 
L 1650 819 
L 3256 3500 
L 3859 3500 
L 1588 -325 
z
" transform="scale(0.015625)"/>
      </defs>
      <use xlink:href="#DejaVuSans-Oblique-79" transform="translate(0 0.3125)"/>
     </g>
    </g>
   </g>
   <g id="PathCollection_1">
    <defs>
     <path id="m6c33ff5446" d="M -2.4 0 
L 2.4 0 
M 0 2.4 
L 0 -2.4 
" style="stroke: #1f77b4; stroke-width: 1.2"/>
    </defs>
    <g clip-path="url(#p4980fa663b)">
     <use xlink:href="#m6c33ff5446" x="151.193455" y="193.444743" style="fill: #1f77b4; stroke: #1f77b4; stroke-width: 1.2"/>
     <use xlink:href="#m6c33ff5446" x="151.59968" y="192.046234" style="fill: #1f77b4; stroke: #1f77b4; stroke-width: 1.2"/>
     <use xlink:href="#m6c33ff5446" x="271.8421" y="232.784771" style="fill: #1f77b4; stroke: #1f77b4; stroke-width: 1.2"/>
     <use xlink:href="#m6c33ff5446" x="375.835546" y="207.354982" style="fill: #1f77b4; stroke: #1f77b4; stroke-width: 1.2"/>
     <use xlink:href="#m6c33ff5446" x="167.442419" y="134.258027" style="fill: #1f77b4; stroke: #1f77b4; stroke-width: 1.2"/>
     <use xlink:href="#m6c33ff5446" x="336.431774" y="86.109096" style="fill: #1f77b4; stroke: #1f77b4; stroke-width: 1.2"/>
     <use xlink:href="#m6c33ff5446" x="184.503854" y="88.681757" style="fill: #1f77b4; stroke: #1f77b4; stroke-width: 1.2"/>
     <use xlink:href="#m6c33ff5446" x="417.676668" y="206.728957" style="fill: #1f77b4; stroke: #1f77b4; stroke-width: 1.2"/>
     <use xlink:href="#m6c33ff5446" x="299.465351" y="145.923769" style="fill: #1f77b4; stroke: #1f77b4; stroke-width: 1.2"/>
     <use xlink:href="#m6c33ff5446" x="191.409667" y="81.864876" style="fill: #1f77b4; stroke: #1f77b4; stroke-width: 1.2"/>
     <use xlink:href="#m6c33ff5446" x="264.123838" y="241.43214" style="fill: #1f77b4; stroke: #1f77b4; stroke-width: 1.2"/>
     <use xlink:href="#m6c33ff5446" x="246.656183" y="224.010355" style="fill: #1f77b4; stroke: #1f77b4; stroke-width: 1.2"/>
     <use xlink:href="#m6c33ff5446" x="353.899423" y="129.335553" style="fill: #1f77b4; stroke: #1f77b4; stroke-width: 1.2"/>
     <use xlink:href="#m6c33ff5446" x="144.287632" y="215.103658" style="fill: #1f77b4; stroke: #1f77b4; stroke-width: 1.2"/>
     <use xlink:href="#m6c33ff5446" x="257.624245" y="240.862284" style="fill: #1f77b4; stroke: #1f77b4; stroke-width: 1.2"/>
     <use xlink:href="#m6c33ff5446" x="156.474358" y="174.568442" style="fill: #1f77b4; stroke: #1f77b4; stroke-width: 1.2"/>
     <use xlink:href="#m6c33ff5446" x="94.728258" y="170.814208" style="fill: #1f77b4; stroke: #1f77b4; stroke-width: 1.2"/>
     <use xlink:href="#m6c33ff5446" x="430.269618" y="162.49566" style="fill: #1f77b4; stroke: #1f77b4; stroke-width: 1.2"/>
     <use xlink:href="#m6c33ff5446" x="134.94447" y="235.411523" style="fill: #1f77b4; stroke: #1f77b4; stroke-width: 1.2"/>
     <use xlink:href="#m6c33ff5446" x="217.001803" y="123.884114" style="fill: #1f77b4; stroke: #1f77b4; stroke-width: 1.2"/>
     <use xlink:href="#m6c33ff5446" x="294.184445" y="165.526233" style="fill: #1f77b4; stroke: #1f77b4; stroke-width: 1.2"/>
     <use xlink:href="#m6c33ff5446" x="200.346604" y="85.139645" style="fill: #1f77b4; stroke: #1f77b4; stroke-width: 1.2"/>
     <use xlink:href="#m6c33ff5446" x="396.146769" y="242.060561" style="fill: #1f77b4; stroke: #1f77b4; stroke-width: 1.2"/>
     <use xlink:href="#m6c33ff5446" x="272.65455" y="231.318682" style="fill: #1f77b4; stroke: #1f77b4; stroke-width: 1.2"/>
     <use xlink:href="#m6c33ff5446" x="124.788858" y="241.931886" style="fill: #1f77b4; stroke: #1f77b4; stroke-width: 1.2"/>
     <use xlink:href="#m6c33ff5446" x="408.73972" y="229.753524" style="fill: #1f77b4; stroke: #1f77b4; stroke-width: 1.2"/>
     <use xlink:href="#m6c33ff5446" x="440.42522" y="125.904808" style="fill: #1f77b4; stroke: #1f77b4; stroke-width: 1.2"/>
     <use xlink:href="#m6c33ff5446" x="327.901062" y="81.50061" style="fill: #1f77b4; stroke: #1f77b4; stroke-width: 1.2"/>
     <use xlink:href="#m6c33ff5446" x="435.144317" y="144.440284" style="fill: #1f77b4; stroke: #1f77b4; stroke-width: 1.2"/>
     <use xlink:href="#m6c33ff5446" x="409.958395" y="227.224917" style="fill: #1f77b4; stroke: #1f77b4; stroke-width: 1.2"/>
     <use xlink:href="#m6c33ff5446" x="242.18772" y="212.212178" style="fill: #1f77b4; stroke: #1f77b4; stroke-width: 1.2"/>
     <use xlink:href="#m6c33ff5446" x="268.592306" y="237.618792" style="fill: #1f77b4; stroke: #1f77b4; stroke-width: 1.2"/>
     <use xlink:href="#m6c33ff5446" x="123.976409" y="241.689024" style="fill: #1f77b4; stroke: #1f77b4; stroke-width: 1.2"/>
     <use xlink:href="#m6c33ff5446" x="286.466181" y="193.444748" style="fill: #1f77b4; stroke: #1f77b4; stroke-width: 1.2"/>
     <use xlink:href="#m6c33ff5446" x="470.079615" y="84.279258" style="fill: #1f77b4; stroke: #1f77b4; stroke-width: 1.2"/>
     <use xlink:href="#m6c33ff5446" x="276.31057" y="223.528615" style="fill: #1f77b4; stroke: #1f77b4; stroke-width: 1.2"/>
     <use xlink:href="#m6c33ff5446" x="315.714328" y="96.250469" style="fill: #1f77b4; stroke: #1f77b4; stroke-width: 1.2"/>
     <use xlink:href="#m6c33ff5446" x="373.398197" y="199.591267" style="fill: #1f77b4; stroke: #1f77b4; stroke-width: 1.2"/>
     <use xlink:href="#m6c33ff5446" x="212.53334" y="110.092799" style="fill: #1f77b4; stroke: #1f77b4; stroke-width: 1.2"/>
     <use xlink:href="#m6c33ff5446" x="468.454716" y="82.89042" style="fill: #1f77b4; stroke: #1f77b4; stroke-width: 1.2"/>
     <use xlink:href="#m6c33ff5446" x="131.694671" y="239.394046" style="fill: #1f77b4; stroke: #1f77b4; stroke-width: 1.2"/>
     <use xlink:href="#m6c33ff5446" x="344.150036" y="100.433969" style="fill: #1f77b4; stroke: #1f77b4; stroke-width: 1.2"/>
     <use xlink:href="#m6c33ff5446" x="139.006719" y="228.091506" style="fill: #1f77b4; stroke: #1f77b4; stroke-width: 1.2"/>
     <use xlink:href="#m6c33ff5446" x="210.90844" y="105.59897" style="fill: #1f77b4; stroke: #1f77b4; stroke-width: 1.2"/>
     <use xlink:href="#m6c33ff5446" x="384.366248" y="229.346991" style="fill: #1f77b4; stroke: #1f77b4; stroke-width: 1.2"/>
     <use xlink:href="#m6c33ff5446" x="431.488293" y="157.949108" style="fill: #1f77b4; stroke: #1f77b4; stroke-width: 1.2"/>
     <use xlink:href="#m6c33ff5446" x="460.330228" y="82.748236" style="fill: #1f77b4; stroke: #1f77b4; stroke-width: 1.2"/>
     <use xlink:href="#m6c33ff5446" x="473.735639" y="89.000504" style="fill: #1f77b4; stroke: #1f77b4; stroke-width: 1.2"/>
     <use xlink:href="#m6c33ff5446" x="162.973956" y="150.405695" style="fill: #1f77b4; stroke: #1f77b4; stroke-width: 1.2"/>
     <use xlink:href="#m6c33ff5446" x="468.048491" y="82.613101" style="fill: #1f77b4; stroke: #1f77b4; stroke-width: 1.2"/>
    </g>
   </g>
   <g id="PathCollection_2">
    <defs>
     <path id="md9fc7cbc7a" d="M -2.4 0 
L 2.4 0 
M 0 2.4 
L 0 -2.4 
" style="stroke: #ff7f0e; stroke-width: 1.2"/>
    </defs>
    <g clip-path="url(#p4980fa663b)">
     <use xlink:href="#md9fc7cbc7a" x="151.193455" y="187.07726" style="fill: #ff7f0e; stroke: #ff7f0e; stroke-width: 1.2"/>
     <use xlink:href="#md9fc7cbc7a" x="151.59968" y="186.274191" style="fill: #ff7f0e; stroke: #ff7f0e; stroke-width: 1.2"/>
     <use xlink:href="#md9fc7cbc7a" x="271.8421" y="231.76461" style="fill: #ff7f0e; stroke: #ff7f0e; stroke-width: 1.2"/>
     <use xlink:href="#md9fc7cbc7a" x="375.835546" y="213.737553" style="fill: #ff7f0e; stroke: #ff7f0e; stroke-width: 1.2"/>
     <use xlink:href="#md9fc7cbc7a" x="167.442419" y="150.498271" style="fill: #ff7f0e; stroke: #ff7f0e; stroke-width: 1.2"/>
     <use xlink:href="#md9fc7cbc7a" x="336.431774" y="81.97314" style="fill: #ff7f0e; stroke: #ff7f0e; stroke-width: 1.2"/>
     <use xlink:href="#md9fc7cbc7a" x="184.503854" y="109.45312" style="fill: #ff7f0e; stroke: #ff7f0e; stroke-width: 1.2"/>
     <use xlink:href="#md9fc7cbc7a" x="417.676668" y="198.625731" style="fill: #ff7f0e; stroke: #ff7f0e; stroke-width: 1.2"/>
     <use xlink:href="#md9fc7cbc7a" x="299.465351" y="148.493578" style="fill: #ff7f0e; stroke: #ff7f0e; stroke-width: 1.2"/>
     <use xlink:href="#md9fc7cbc7a" x="191.409667" y="96.938128" style="fill: #ff7f0e; stroke: #ff7f0e; stroke-width: 1.2"/>
     <use xlink:href="#md9fc7cbc7a" x="264.123838" y="243.419616" style="fill: #ff7f0e; stroke: #ff7f0e; stroke-width: 1.2"/>
     <use xlink:href="#md9fc7cbc7a" x="246.656183" y="226.698171" style="fill: #ff7f0e; stroke: #ff7f0e; stroke-width: 1.2"/>
     <use xlink:href="#md9fc7cbc7a" x="353.899423" y="131.616994" style="fill: #ff7f0e; stroke: #ff7f0e; stroke-width: 1.2"/>
     <use xlink:href="#md9fc7cbc7a" x="144.287632" y="199.723961" style="fill: #ff7f0e; stroke: #ff7f0e; stroke-width: 1.2"/>
     <use xlink:href="#md9fc7cbc7a" x="257.624245" y="244.456213" style="fill: #ff7f0e; stroke: #ff7f0e; stroke-width: 1.2"/>
     <use xlink:href="#md9fc7cbc7a" x="156.474358" y="176.142093" style="fill: #ff7f0e; stroke: #ff7f0e; stroke-width: 1.2"/>
     <use xlink:href="#md9fc7cbc7a" x="94.728258" y="245.331058" style="fill: #ff7f0e; stroke: #ff7f0e; stroke-width: 1.2"/>
     <use xlink:href="#md9fc7cbc7a" x="430.269618" y="166.833903" style="fill: #ff7f0e; stroke: #ff7f0e; stroke-width: 1.2"/>
     <use xlink:href="#md9fc7cbc7a" x="134.94447" y="213.850477" style="fill: #ff7f0e; stroke: #ff7f0e; stroke-width: 1.2"/>
     <use xlink:href="#md9fc7cbc7a" x="217.001803" y="114.063588" style="fill: #ff7f0e; stroke: #ff7f0e; stroke-width: 1.2"/>
     <use xlink:href="#md9fc7cbc7a" x="294.184445" y="165.312239" style="fill: #ff7f0e; stroke: #ff7f0e; stroke-width: 1.2"/>
     <use xlink:href="#md9fc7cbc7a" x="200.346604" y="89.390564" style="fill: #ff7f0e; stroke: #ff7f0e; stroke-width: 1.2"/>
     <use xlink:href="#md9fc7cbc7a" x="396.146769" y="233.875118" style="fill: #ff7f0e; stroke: #ff7f0e; stroke-width: 1.2"/>
     <use xlink:href="#md9fc7cbc7a" x="272.65455" y="229.982776" style="fill: #ff7f0e; stroke: #ff7f0e; stroke-width: 1.2"/>
     <use xlink:href="#md9fc7cbc7a" x="124.788858" y="225.677857" style="fill: #ff7f0e; stroke: #ff7f0e; stroke-width: 1.2"/>
     <use xlink:href="#md9fc7cbc7a" x="408.73972" y="217.823853" style="fill: #ff7f0e; stroke: #ff7f0e; stroke-width: 1.2"/>
     <use xlink:href="#md9fc7cbc7a" x="440.42522" y="140.863653" style="fill: #ff7f0e; stroke: #ff7f0e; stroke-width: 1.2"/>
     <use xlink:href="#md9fc7cbc7a" x="327.901062" y="79.814095" style="fill: #ff7f0e; stroke: #ff7f0e; stroke-width: 1.2"/>
     <use xlink:href="#md9fc7cbc7a" x="435.144317" y="154.230211" style="fill: #ff7f0e; stroke: #ff7f0e; stroke-width: 1.2"/>
     <use xlink:href="#md9fc7cbc7a" x="409.958395" y="215.491841" style="fill: #ff7f0e; stroke: #ff7f0e; stroke-width: 1.2"/>
     <use xlink:href="#md9fc7cbc7a" x="242.18772" y="213.145826" style="fill: #ff7f0e; stroke: #ff7f0e; stroke-width: 1.2"/>
     <use xlink:href="#md9fc7cbc7a" x="268.592306" y="237.910535" style="fill: #ff7f0e; stroke: #ff7f0e; stroke-width: 1.2"/>
     <use xlink:href="#md9fc7cbc7a" x="123.976409" y="226.483444" style="fill: #ff7f0e; stroke: #ff7f0e; stroke-width: 1.2"/>
     <use xlink:href="#md9fc7cbc7a" x="286.466181" y="190.283135" style="fill: #ff7f0e; stroke: #ff7f0e; stroke-width: 1.2"/>
     <use xlink:href="#md9fc7cbc7a" x="470.079615" y="79.107888" style="fill: #ff7f0e; stroke: #ff7f0e; stroke-width: 1.2"/>
     <use xlink:href="#md9fc7cbc7a" x="276.31057" y="220.941836" style="fill: #ff7f0e; stroke: #ff7f0e; stroke-width: 1.2"/>
     <use xlink:href="#md9fc7cbc7a" x="315.714328" y="100.88312" style="fill: #ff7f0e; stroke: #ff7f0e; stroke-width: 1.2"/>
     <use xlink:href="#md9fc7cbc7a" x="373.398197" y="206.855591" style="fill: #ff7f0e; stroke: #ff7f0e; stroke-width: 1.2"/>
     <use xlink:href="#md9fc7cbc7a" x="212.53334" y="102.072312" style="fill: #ff7f0e; stroke: #ff7f0e; stroke-width: 1.2"/>
     <use xlink:href="#md9fc7cbc7a" x="468.454716" y="81.788267" style="fill: #ff7f0e; stroke: #ff7f0e; stroke-width: 1.2"/>
     <use xlink:href="#md9fc7cbc7a" x="131.694671" y="218.008031" style="fill: #ff7f0e; stroke: #ff7f0e; stroke-width: 1.2"/>
     <use xlink:href="#md9fc7cbc7a" x="344.150036" y="97.622297" style="fill: #ff7f0e; stroke: #ff7f0e; stroke-width: 1.2"/>
     <use xlink:href="#md9fc7cbc7a" x="139.006719" y="208.117656" style="fill: #ff7f0e; stroke: #ff7f0e; stroke-width: 1.2"/>
     <use xlink:href="#md9fc7cbc7a" x="210.90844" y="98.662945" style="fill: #ff7f0e; stroke: #ff7f0e; stroke-width: 1.2"/>
     <use xlink:href="#md9fc7cbc7a" x="384.366248" y="230.317806" style="fill: #ff7f0e; stroke: #ff7f0e; stroke-width: 1.2"/>
     <use xlink:href="#md9fc7cbc7a" x="431.488293" y="163.672131" style="fill: #ff7f0e; stroke: #ff7f0e; stroke-width: 1.2"/>
     <use xlink:href="#md9fc7cbc7a" x="460.330228" y="96.44763" style="fill: #ff7f0e; stroke: #ff7f0e; stroke-width: 1.2"/>
     <use xlink:href="#md9fc7cbc7a" x="473.735639" y="73.376073" style="fill: #ff7f0e; stroke: #ff7f0e; stroke-width: 1.2"/>
     <use xlink:href="#md9fc7cbc7a" x="162.973956" y="161.339058" style="fill: #ff7f0e; stroke: #ff7f0e; stroke-width: 1.2"/>
     <use xlink:href="#md9fc7cbc7a" x="468.048491" y="82.471305" style="fill: #ff7f0e; stroke: #ff7f0e; stroke-width: 1.2"/>
    </g>
   </g>
   <g id="line2d_1">
    <path d="M 92.290909 161.737689 
L 98.790507 185.626745 
L 102.446511 198.24739 
L 105.290085 207.354963 
L 107.727434 214.534645 
L 110.164783 221.038367 
L 112.195908 225.881421 
L 114.227011 230.153952 
L 115.851911 233.135547 
L 117.476811 235.710636 
L 119.10171 237.864551 
L 120.72661 239.585029 
L 121.945284 240.584961 
L 123.163959 241.33232 
L 124.382633 241.82471 
L 125.601308 242.060561 
L 126.819983 242.039111 
L 128.038647 241.760432 
L 129.257322 241.225416 
L 130.475996 240.435781 
L 131.694671 239.394046 
L 132.913346 238.103553 
L 134.538245 236.003202 
L 136.163145 233.480011 
L 137.788044 230.548351 
L 139.819169 226.335006 
L 141.850283 221.547169 
L 143.881407 216.227366 
L 146.318756 209.208377 
L 149.162331 200.258159 
L 152.41213 189.217345 
L 156.474358 174.568442 
L 168.661094 130.030631 
L 171.910893 119.289854 
L 174.754457 110.675748 
L 177.191806 103.994868 
L 179.222931 98.988842 
L 181.254055 94.540901 
L 183.285179 90.690596 
L 184.910079 88.063853 
L 186.534968 85.856589 
L 188.159868 84.081345 
L 189.378542 83.03961 
L 190.597217 82.24997 
L 191.815892 81.714948 
L 193.034556 81.43627 
L 194.253231 81.41482 
L 195.471905 81.650666 
L 196.69058 82.143061 
L 197.909254 82.890415 
L 199.127929 83.890347 
L 200.346604 85.139645 
L 201.971503 87.18625 
L 203.596403 89.657328 
L 205.221302 92.538795 
L 207.252416 96.692522 
L 209.283541 101.424769 
L 211.314665 106.693431 
L 213.752004 113.657572 
L 216.595578 122.55374 
L 219.845377 133.546976 
L 223.907616 148.15928 
L 236.500577 194.139828 
L 239.750371 204.827213 
L 242.593945 213.382616 
L 245.031289 220.005013 
L 247.062408 224.957139 
L 249.093533 229.347015 
L 251.124652 233.135575 
L 252.749554 235.71066 
L 254.374451 237.864566 
L 255.999351 239.585043 
L 257.21802 240.584966 
L 258.436695 241.332324 
L 259.655369 241.824714 
L 260.874039 242.060561 
L 262.092713 242.039111 
L 263.311388 241.760428 
L 264.530063 241.225411 
L 265.748735 240.435771 
L 266.967407 239.394036 
L 268.186081 238.103544 
L 269.810981 236.003188 
L 271.435878 233.480001 
L 273.060775 230.548346 
L 275.091897 226.335006 
L 277.123019 221.547145 
L 279.15414 216.227351 
L 281.591487 209.208363 
L 284.435059 200.258154 
L 287.684854 189.217354 
L 291.747098 174.568394 
L 303.933819 130.030633 
L 307.183615 119.289868 
L 310.027186 110.675738 
L 312.464532 103.994873 
L 314.495655 98.988852 
L 316.526778 94.54091 
L 318.5579 90.69061 
L 320.182797 88.063868 
L 321.807694 85.856589 
L 323.432593 84.081345 
L 324.651265 83.03961 
L 325.869937 82.24997 
L 327.088612 81.714953 
L 328.307287 81.43627 
L 329.525961 81.41482 
L 330.744631 81.650666 
L 331.963305 82.143056 
L 333.18198 82.890415 
L 334.400649 83.890338 
L 335.619324 85.139635 
L 337.244221 87.18624 
L 338.869123 89.657313 
L 340.494018 92.538776 
L 342.525142 96.692518 
L 344.556261 101.42475 
L 346.587386 106.693412 
L 349.02473 113.657567 
L 351.868299 122.553713 
L 355.118098 133.546954 
L 359.180341 148.159275 
L 371.773297 194.139806 
L 375.023096 204.827203 
L 377.86666 213.382582 
L 380.304009 220.004993 
L 382.335134 224.957139 
L 384.366248 229.346991 
L 386.397372 233.135561 
L 388.022272 235.710645 
L 389.647171 237.864556 
L 391.272071 239.585034 
L 392.490746 240.584966 
L 393.70942 241.33232 
L 394.928095 241.824714 
L 396.146769 242.060561 
L 397.365444 242.039111 
L 398.584108 241.760432 
L 399.802783 241.225411 
L 401.021458 240.435771 
L 402.240132 239.394036 
L 403.458807 238.103544 
L 405.083696 236.003207 
L 406.708596 233.480016 
L 408.333495 230.548356 
L 410.36462 226.335011 
L 412.395744 221.54715 
L 414.426869 216.227347 
L 416.864218 209.208353 
L 419.707782 200.258169 
L 422.957581 189.217354 
L 427.019819 174.568415 
L 439.206545 130.030638 
L 442.456344 119.289858 
L 445.299918 110.675724 
L 447.737268 103.994849 
L 449.768382 98.988852 
L 451.799506 94.540905 
L 453.83063 90.690601 
L 455.45553 88.063858 
L 457.080429 85.856579 
L 458.705329 84.081335 
L 459.924004 83.0396 
L 461.142678 82.249965 
L 462.361353 81.714948 
L 463.580017 81.43627 
L 464.798692 81.41482 
L 466.017367 81.650671 
L 467.236041 82.143061 
L 468.454716 82.89042 
L 469.67339 83.890352 
L 470.892065 85.139655 
L 472.516965 87.186264 
L 474.141864 89.657337 
L 475.766764 92.538809 
L 477.797867 96.692513 
L 479.828992 101.42476 
L 481.860116 106.693421 
L 484.297466 113.657591 
L 487.14104 122.553761 
L 490.390839 133.547004 
L 494.453067 148.15927 
L 498.109091 161.737692 
L 498.109091 161.737692 
" clip-path="url(#p4980fa663b)" style="fill: none; stroke: #1f77b4; stroke-width: 1.2; stroke-linecap: round"/>
   </g>
   <g id="line2d_2">
    <path d="M 92.290909 246.24 
L 96.759383 244.51549 
L 100.821611 242.711273 
L 104.88386 240.651269 
L 108.539884 238.551564 
L 112.195908 236.192251 
L 115.851911 233.545552 
L 119.10171 230.927703 
L 122.351509 228.037568 
L 125.601308 224.852807 
L 128.851097 221.350616 
L 132.100896 217.508424 
L 135.350695 213.304479 
L 138.600494 208.718626 
L 141.850283 203.733398 
L 145.100082 198.335152 
L 148.349881 192.515713 
L 151.59968 186.274186 
L 155.255683 178.758925 
L 158.911707 170.750305 
L 162.973956 161.339052 
L 168.254869 148.487859 
L 180.441605 118.494433 
L 183.691404 111.184741 
L 186.534968 105.330238 
L 188.972317 100.837582 
L 191.003442 97.542417 
L 193.034556 94.719768 
L 194.659455 92.842543 
L 196.284355 91.33707 
L 197.50303 90.469821 
L 198.721704 89.840337 
L 199.940379 89.460052 
L 201.159053 89.339634 
L 202.377728 89.489006 
L 203.596403 89.916946 
L 204.815077 90.631122 
L 206.033752 91.637922 
L 207.252416 92.942211 
L 208.471091 94.547155 
L 209.689766 96.454234 
L 211.314665 99.465821 
L 212.939565 103.006425 
L 214.564454 107.06218 
L 216.595578 112.823452 
L 218.626703 119.298972 
L 221.064042 127.906167 
L 223.907616 138.898225 
L 227.563635 154.072372 
L 237.313027 195.171712 
L 240.156596 206.006017 
L 242.593945 214.505672 
L 245.031289 222.141678 
L 247.062408 227.766451 
L 249.093533 232.663433 
L 250.718427 236.027415 
L 252.343329 238.879205 
L 253.968226 241.204057 
L 255.186901 242.594998 
L 256.405575 243.679752 
L 257.624245 244.456203 
L 258.84292 244.923585 
L 260.061594 245.082415 
L 261.280264 244.9346 
L 262.498938 244.483625 
L 263.717613 243.73448 
L 264.936285 242.693717 
L 266.15496 241.369439 
L 267.373632 239.7713 
L 268.998531 237.234048 
L 270.623428 234.260494 
L 272.65455 229.982767 
L 274.685672 225.151705 
L 277.123019 218.736229 
L 279.966589 210.577528 
L 283.622609 199.351199 
L 289.715976 179.76832 
L 299.465351 148.493569 
L 305.964941 128.415979 
L 310.839635 114.06401 
L 314.08943 105.096254 
L 316.933003 97.873601 
L 319.370347 92.321185 
L 321.401469 88.262432 
L 323.026368 85.453129 
L 324.651265 83.081796 
L 325.869937 81.615793 
L 327.088612 80.435413 
L 328.307287 79.554486 
L 329.525961 78.984956 
L 330.744631 78.736525 
L 331.963305 78.816471 
L 333.18198 79.229748 
L 334.400649 79.978873 
L 335.619324 81.063992 
L 336.837999 82.483005 
L 338.056671 84.231502 
L 339.275348 86.303019 
L 340.900242 89.552632 
L 342.525142 93.335953 
L 344.150036 97.622277 
L 346.181161 103.632757 
L 348.618505 111.696105 
L 351.055849 120.540363 
L 354.305648 133.25036 
L 359.180341 153.389947 
L 364.867485 176.713877 
L 368.117284 189.140559 
L 370.960848 199.119567 
L 373.398197 206.85561 
L 375.429321 212.653087 
L 377.460435 217.816157 
L 379.49156 222.315555 
L 381.116459 225.424569 
L 382.741359 228.092272 
L 384.366248 230.317806 
L 385.991148 232.103964 
L 387.209822 233.158586 
L 388.428497 233.972765 
L 389.647171 234.550748 
L 390.865846 234.897472 
L 392.084521 235.018604 
L 393.303195 234.920268 
L 394.52187 234.609068 
L 395.740545 234.091976 
L 396.959219 233.376421 
L 398.584108 232.126827 
L 400.209008 230.556665 
L 401.833908 228.685091 
L 403.865032 225.951564 
L 405.896146 222.816077 
L 408.333495 218.576747 
L 410.770845 213.878971 
L 413.614419 207.903499 
L 416.864218 200.540305 
L 420.926456 190.733042 
L 426.207369 177.35045 
L 441.643894 137.84719 
L 446.518593 126.112117 
L 450.987056 115.89299 
L 455.049305 107.105879 
L 459.111554 98.828747 
L 463.173803 91.076729 
L 466.829816 84.551744 
L 470.48584 78.450672 
L 474.141864 72.76439 
L 477.797867 67.480073 
L 481.453891 62.581851 
L 485.109915 58.052196 
L 488.765939 53.872009 
L 492.421943 50.021523 
L 496.077967 46.48068 
L 498.109091 44.64 
L 498.109091 44.64 
" clip-path="url(#p4980fa663b)" style="fill: none; stroke-dasharray: 4.44,1.92; stroke-dashoffset: 0; stroke: #ff7f0e; stroke-width: 1.2"/>
   </g>
   <g id="patch_3">
    <path d="M 72 256.32 
L 72 34.56 
" style="fill: none; stroke: #262626; stroke-linejoin: miter; stroke-linecap: square"/>
   </g>
   <g id="patch_4">
    <path d="M 518.4 256.32 
L 518.4 34.56 
" style="fill: none; stroke: #262626; stroke-linejoin: miter; stroke-linecap: square"/>
   </g>
   <g id="patch_5">
    <path d="M 72 256.32 
L 518.4 256.32 
" style="fill: none; stroke: #262626; stroke-linejoin: miter; stroke-linecap: square"/>
   </g>
   <g id="patch_6">
    <path d="M 72 34.56 
L 518.4 34.56 
" style="fill: none; stroke: #262626; stroke-linejoin: miter; stroke-linecap: square"/>
   </g>
   <g id="legend_1">
    <g id="patch_7">
     <path d="M 78.16 94.7135 
L 161.144 94.7135 
Q 162.904 94.7135 162.904 92.9535 
L 162.904 40.72 
Q 162.904 38.96 161.144 38.96 
L 78.16 38.96 
Q 76.4 38.96 76.4 40.72 
L 76.4 92.9535 
Q 76.4 94.7135 78.16 94.7135 
z
" style="fill: #ffffff; opacity: 0.8; stroke: #cccccc; stroke-width: 0.8; stroke-linejoin: miter"/>
    </g>
    <g id="line2d_3">
     <path d="M 79.92 46.086625 
L 88.72 46.086625 
L 97.52 46.086625 
" style="fill: none; stroke: #1f77b4; stroke-width: 1.2; stroke-linecap: round"/>
    </g>
    <g id="text_18">
     <!-- $D$ -->
     <g style="fill: #262626" transform="translate(104.56 49.166625)scale(0.088 -0.088)">
      <defs>
       <path id="DejaVuSans-Oblique-44" d="M 1081 4666 
L 2438 4666 
Q 3519 4666 4070 4208 
Q 4622 3750 4622 2847 
Q 4622 2250 4412 1698 
Q 4203 1147 3834 769 
Q 3463 381 2891 190 
Q 2319 0 1538 0 
L 172 0 
L 1081 4666 
z
M 1613 4147 
L 909 519 
L 1734 519 
Q 2794 519 3375 1128 
Q 3956 1738 3956 2847 
Q 3956 3519 3581 3833 
Q 3206 4147 2406 4147 
L 1613 4147 
z
" transform="scale(0.015625)"/>
      </defs>
      <use xlink:href="#DejaVuSans-Oblique-44" transform="translate(0 0.09375)"/>
     </g>
    </g>
    <g id="line2d_4">
     <path d="M 79.92 59.003375 
L 88.72 59.003375 
L 97.52 59.003375 
" style="fill: none; stroke-dasharray: 4.44,1.92; stroke-dashoffset: 0; stroke: #ff7f0e; stroke-width: 1.2"/>
    </g>
    <g id="text_19">
     <!-- $f_\theta$ -->
     <g style="fill: #262626" transform="translate(104.56 62.083375)scale(0.088 -0.088)">
      <defs>
       <path id="DejaVuSans-Oblique-66" d="M 3059 4863 
L 2969 4384 
L 2419 4384 
Q 2106 4384 1964 4261 
Q 1822 4138 1753 3809 
L 1691 3500 
L 2638 3500 
L 2553 3053 
L 1606 3053 
L 1013 0 
L 434 0 
L 1031 3053 
L 481 3053 
L 563 3500 
L 1113 3500 
L 1159 3744 
Q 1278 4363 1576 4613 
Q 1875 4863 2516 4863 
L 3059 4863 
z
" transform="scale(0.015625)"/>
       <path id="DejaVuSans-Oblique-3b8" d="M 2913 2219 
L 925 2219 
Q 791 1284 928 888 
Q 1100 400 1566 400 
Q 2034 400 2391 891 
Q 2703 1322 2913 2219 
z
M 3009 2750 
Q 3094 3638 2984 3950 
Q 2813 4444 2353 4444 
Q 1875 4444 1525 3956 
Q 1250 3563 1034 2750 
L 3009 2750 
z
M 2444 4913 
Q 3194 4913 3494 4250 
Q 3794 3591 3566 2422 
Q 3341 1256 2781 594 
Q 2225 -72 1475 -72 
Q 722 -72 425 594 
Q 128 1256 353 2422 
Q 581 3591 1134 4250 
Q 1691 4913 2444 4913 
z
" transform="scale(0.015625)"/>
      </defs>
      <use xlink:href="#DejaVuSans-Oblique-66" transform="translate(0 0.015625)"/>
      <use xlink:href="#DejaVuSans-Oblique-3b8" transform="translate(35.205078 -16.390625)scale(0.7)"/>
     </g>
    </g>
    <g id="PathCollection_3">
     <g>
      <use xlink:href="#m6c33ff5446" x="88.72" y="72.6915" style="fill: #1f77b4; stroke: #1f77b4; stroke-width: 1.2"/>
     </g>
    </g>
    <g id="text_20">
     <!-- $\{(x_i, y_i)\} \in D$ -->
     <g style="fill: #262626" transform="translate(104.56 75.0015)scale(0.088 -0.088)">
      <defs>
       <path id="DejaVuSans-7b" d="M 3272 -594 
L 3272 -1044 
L 3078 -1044 
Q 2300 -1044 2036 -812 
Q 1772 -581 1772 109 
L 1772 856 
Q 1772 1328 1603 1509 
Q 1434 1691 991 1691 
L 800 1691 
L 800 2138 
L 991 2138 
Q 1438 2138 1605 2317 
Q 1772 2497 1772 2963 
L 1772 3713 
Q 1772 4403 2036 4633 
Q 2300 4863 3078 4863 
L 3272 4863 
L 3272 4416 
L 3059 4416 
Q 2619 4416 2484 4278 
Q 2350 4141 2350 3700 
L 2350 2925 
Q 2350 2434 2208 2212 
Q 2066 1991 1722 1913 
Q 2069 1828 2209 1606 
Q 2350 1384 2350 897 
L 2350 122 
Q 2350 -319 2484 -456 
Q 2619 -594 3059 -594 
L 3272 -594 
z
" transform="scale(0.015625)"/>
       <path id="DejaVuSans-28" d="M 1984 4856 
Q 1566 4138 1362 3434 
Q 1159 2731 1159 2009 
Q 1159 1288 1364 580 
Q 1569 -128 1984 -844 
L 1484 -844 
Q 1016 -109 783 600 
Q 550 1309 550 2009 
Q 550 2706 781 3412 
Q 1013 4119 1484 4856 
L 1984 4856 
z
" transform="scale(0.015625)"/>
       <path id="DejaVuSans-Oblique-69" d="M 1172 4863 
L 1747 4863 
L 1606 4134 
L 1031 4134 
L 1172 4863 
z
M 909 3500 
L 1484 3500 
L 800 0 
L 225 0 
L 909 3500 
z
" transform="scale(0.015625)"/>
       <path id="DejaVuSans-2c" d="M 750 794 
L 1409 794 
L 1409 256 
L 897 -744 
L 494 -744 
L 750 256 
L 750 794 
z
" transform="scale(0.015625)"/>
       <path id="DejaVuSans-29" d="M 513 4856 
L 1013 4856 
Q 1481 4119 1714 3412 
Q 1947 2706 1947 2009 
Q 1947 1309 1714 600 
Q 1481 -109 1013 -844 
L 513 -844 
Q 928 -128 1133 580 
Q 1338 1288 1338 2009 
Q 1338 2731 1133 3434 
Q 928 4138 513 4856 
z
" transform="scale(0.015625)"/>
       <path id="DejaVuSans-7d" d="M 800 -594 
L 1019 -594 
Q 1456 -594 1589 -459 
Q 1722 -325 1722 122 
L 1722 897 
Q 1722 1384 1862 1606 
Q 2003 1828 2350 1913 
Q 2003 1991 1862 2212 
Q 1722 2434 1722 2925 
L 1722 3700 
Q 1722 4144 1589 4280 
Q 1456 4416 1019 4416 
L 800 4416 
L 800 4863 
L 997 4863 
Q 1775 4863 2036 4633 
Q 2297 4403 2297 3713 
L 2297 2963 
Q 2297 2497 2465 2317 
Q 2634 2138 3078 2138 
L 3272 2138 
L 3272 1691 
L 3078 1691 
Q 2634 1691 2465 1509 
Q 2297 1328 2297 856 
L 2297 109 
Q 2297 -581 2036 -812 
Q 1775 -1044 997 -1044 
L 800 -1044 
L 800 -594 
z
" transform="scale(0.015625)"/>
       <path id="DejaVuSans-2208" d="M 1072 1959 
Q 1094 1728 1291 1353 
Q 1522 919 1959 675 
Q 2388 438 2850 434 
L 5028 434 
L 5028 -63 
L 2850 -63 
Q 2250 -63 1695 246 
Q 1141 556 844 1106 
Q 547 1656 547 2241 
Q 547 2819 844 3369 
Q 1141 3919 1695 4231 
Q 2250 4544 2850 4544 
L 5028 4544 
L 5028 4047 
L 2850 4047 
Q 2388 4044 1959 3803 
Q 1525 3556 1291 3125 
Q 1091 2750 1063 2459 
L 5028 2459 
L 5028 1959 
L 1072 1959 
z
" transform="scale(0.015625)"/>
      </defs>
      <use xlink:href="#DejaVuSans-7b" transform="translate(0 0.015625)"/>
      <use xlink:href="#DejaVuSans-28" transform="translate(63.623047 0.015625)"/>
      <use xlink:href="#DejaVuSans-Oblique-78" transform="translate(102.636719 0.015625)"/>
      <use xlink:href="#DejaVuSans-Oblique-69" transform="translate(161.816406 -16.390625)scale(0.7)"/>
      <use xlink:href="#DejaVuSans-2c" transform="translate(183.999023 0.015625)"/>
      <use xlink:href="#DejaVuSans-Oblique-79" transform="translate(235.268555 0.015625)"/>
      <use xlink:href="#DejaVuSans-Oblique-69" transform="translate(294.448242 -16.390625)scale(0.7)"/>
      <use xlink:href="#DejaVuSans-29" transform="translate(316.630859 0.015625)"/>
      <use xlink:href="#DejaVuSans-7d" transform="translate(355.644531 0.015625)"/>
      <use xlink:href="#DejaVuSans-2208" transform="translate(438.75 0.015625)"/>
      <use xlink:href="#DejaVuSans-Oblique-44" transform="translate(545.341797 0.015625)"/>
     </g>
    </g>
    <g id="PathCollection_4">
     <g>
      <use xlink:href="#md9fc7cbc7a" x="88.72" y="87.0355" style="fill: #ff7f0e; stroke: #ff7f0e; stroke-width: 1.2"/>
     </g>
    </g>
    <g id="text_21">
     <!-- $\hat{y}_i = f_\theta(x_i)$ -->
     <g style="fill: #262626" transform="translate(104.56 89.3455)scale(0.088 -0.088)">
      <defs>
       <path id="DejaVuSans-302" d="M -1831 5119 
L -1369 5119 
L -603 3944 
L -1038 3944 
L -1600 4709 
L -2163 3944 
L -2597 3944 
L -1831 5119 
z
M -1600 3584 
L -1600 3584 
z
" transform="scale(0.015625)"/>
       <path id="DejaVuSans-3d" d="M 678 2906 
L 4684 2906 
L 4684 2381 
L 678 2381 
L 678 2906 
z
M 678 1631 
L 4684 1631 
L 4684 1100 
L 678 1100 
L 678 1631 
z
" transform="scale(0.015625)"/>
      </defs>
      <use xlink:href="#DejaVuSans-302" transform="translate(62.373047 12.015625)"/>
      <use xlink:href="#DejaVuSans-Oblique-79" transform="translate(0 0.828125)"/>
      <use xlink:href="#DejaVuSans-Oblique-69" transform="translate(60.136719 -15.578125)scale(0.7)"/>
      <use xlink:href="#DejaVuSans-3d" transform="translate(101.801758 0.828125)"/>
      <use xlink:href="#DejaVuSans-Oblique-66" transform="translate(205.073242 0.828125)"/>
      <use xlink:href="#DejaVuSans-Oblique-3b8" transform="translate(240.27832 -15.578125)scale(0.7)"/>
      <use xlink:href="#DejaVuSans-28" transform="translate(285.839844 0.828125)"/>
      <use xlink:href="#DejaVuSans-Oblique-78" transform="translate(324.853516 0.828125)"/>
      <use xlink:href="#DejaVuSans-Oblique-69" transform="translate(384.033203 -15.578125)scale(0.7)"/>
      <use xlink:href="#DejaVuSans-29" transform="translate(406.21582 0.828125)"/>
     </g>
    </g>
   </g>
  </g>
 </g>
 <defs>
  <clipPath id="p4980fa663b">
   <rect x="72" y="34.56" width="446.4" height="221.76"/>
  </clipPath>
 </defs>
</svg>
