<svg version="1.1" viewBox="0.0 0.0 906.6981627296587 257.54068241469815" fill="none" stroke="none" stroke-linecap="square" stroke-miterlimit="10" xmlns:xlink="http://www.w3.org/1999/xlink" xmlns="http://www.w3.org/2000/svg"><clipPath id="p.0"><path d="m0 0l906.6982 0l0 257.54068l-906.6982 0l0 -257.54068z" clip-rule="nonzero"/></clipPath><g clip-path="url(#p.0)"><path fill="#000000" fill-opacity="0.0" d="m0 0l906.6982 0l0 257.54068l-906.6982 0z" fill-rule="evenodd"/><path fill="#000000" fill-opacity="0.0" d="m96.614174 118.53937l720.75586 0" fill-rule="evenodd"/><path stroke="#999999" stroke-width="12.0" stroke-linejoin="round" stroke-linecap="butt" d="m96.614174 118.53937l720.75586 0" fill-rule="evenodd"/><path fill="#000000" fill-opacity="0.0" d="m7.7177196 20.505249l175.9685 0l0 38.771652l-175.9685 0z" fill-rule="evenodd"/><path fill="#000000" d="m45.748848 34.0215l0 3.671875l-0.296875 0q-0.140625 -1.0625 -0.5 -1.6875q-0.359375 -0.625 -1.03125 -0.984375q-0.671875 -0.375 -1.390625 -0.375q-0.8125 0 -1.34375 0.5q-0.53125 0.5 -0.53125 1.125q0 0.484375 0.328125 0.890625q0.484375 0.578125 2.3125 1.5625q1.484375 0.796875 2.015625 1.21875q0.546875 0.421875 0.84375 1.0q0.296875 0.578125 0.296875 1.21875q0 1.203125 -0.9375 2.078125q-0.9375 0.875 -2.40625 0.875q-0.453125 0 -0.859375 -0.078125q-0.25 -0.03125 -1.015625 -0.28125q-0.75 -0.25 -0.953125 -0.25q-0.203125 0 -0.3125 0.125q-0.109375 0.109375 -0.171875 0.484375l-0.28125 0l0 -3.640625l0.28125 0q0.203125 1.140625 0.546875 1.703125q0.34375 0.5625 1.046875 0.9375q0.71875 0.375 1.5625 0.375q0.96875 0 1.53125 -0.515625q0.578125 -0.515625 0.578125 -1.21875q0 -0.390625 -0.21875 -0.78125q-0.21875 -0.40625 -0.671875 -0.75q-0.296875 -0.234375 -1.65625 -0.984375q-1.359375 -0.765625 -1.9375 -1.21875q-0.578125 -0.453125 -0.875 -1.0q-0.296875 -0.546875 -0.296875 -1.203125q0 -1.140625 0.875 -1.96875q0.875 -0.828125 2.234375 -0.828125q0.84375 0 1.78125 0.421875q0.4375 0.1875 0.625 0.1875q0.203125 0 0.328125 -0.109375q0.125 -0.125 0.203125 -0.5l0.296875 0zm3.2578125 6.375q0 1.59375 0.78125 2.5q0.78125 0.90625 1.828125 0.90625q0.703125 0 1.21875 -0.375q0.53125 -0.390625 0.875 -1.328125l0.25 0.15625q-0.171875 1.0625 -0.96875 1.953125q-0.78125 0.875 -1.96875 0.875q-1.28125 0 -2.203125 -1.0q-0.921875 -1.015625 -0.921875 -2.703125q0 -1.84375 0.9375 -2.859375q0.953125 -1.03125 2.375 -1.03125q1.203125 0 1.96875 0.796875q0.78125 0.78125 0.78125 2.109375l-4.953125 0zm0 -0.453125l3.3125 0q-0.03125 -0.6875 -0.15625 -0.96875q-0.203125 -0.4375 -0.59375 -0.6875q-0.375 -0.25 -0.796875 -0.25q-0.65625 0 -1.171875 0.515625q-0.5 0.5 -0.59375 1.390625zm11.9765625 2.203125q-0.28125 1.40625 -1.125 2.171875q-0.84375 0.765625 -1.875 0.765625q-1.21875 0 -2.125 -1.015625q-0.90625 -1.03125 -0.90625 -2.78125q0 -1.6875 1.0 -2.734375q1.015625 -1.0625 2.421875 -1.0625q1.046875 0 1.71875 0.5625q0.6875 0.5625 0.6875 1.15625q0 0.296875 -0.1875 0.484375q-0.1875 0.1875 -0.53125 0.1875q-0.46875 0 -0.703125 -0.296875q-0.125 -0.171875 -0.171875 -0.625q-0.046875 -0.46875 -0.3125 -0.703125q-0.28125 -0.234375 -0.765625 -0.234375q-0.78125 0 -1.25 0.578125q-0.640625 0.765625 -0.640625 2.015625q0 1.28125 0.625 2.265625q0.640625 0.984375 1.703125 0.984375q0.765625 0 1.375 -0.53125q0.4375 -0.359375 0.84375 -1.296875l0.21875 0.109375zm4.5234375 -4.65625q1.625 0 2.609375 1.234375q0.84375 1.0625 0.84375 2.421875q0 0.96875 -0.46875 1.953125q-0.453125 0.984375 -1.265625 1.484375q-0.8125 0.5 -1.796875 0.5q-1.625 0 -2.578125 -1.296875q-0.796875 -1.078125 -0.796875 -2.4375q0 -0.984375 0.484375 -1.953125q0.484375 -0.96875 1.28125 -1.4375q0.796875 -0.46875 1.6875 -0.46875zm-0.234375 0.515625q-0.421875 0 -0.84375 0.25q-0.40625 0.234375 -0.671875 0.859375q-0.25 0.609375 -0.25 1.578125q0 1.5625 0.609375 2.703125q0.625 1.125 1.640625 1.125q0.765625 0 1.25 -0.625q0.5 -0.625 0.5 -2.140625q0 -1.90625 -0.828125 -3.0q-0.546875 -0.75 -1.40625 -0.75zm6.828125 1.0q1.25 -1.515625 2.390625 -1.515625q0.59375 0 1.015625 0.296875q0.421875 0.296875 0.671875 0.96875q0.171875 0.46875 0.171875 1.4375l0 3.046875q0 0.6875 0.109375 0.921875q0.078125 0.203125 0.265625 0.3125q0.203125 0.109375 0.71875 0.109375l0 0.28125l-3.546875 0l0 -0.28125l0.15625 0q0.5 0 0.6875 -0.15625q0.203125 -0.15625 0.28125 -0.453125q0.03125 -0.109375 0.03125 -0.734375l0 -2.921875q0 -0.984375 -0.25 -1.421875q-0.25 -0.4375 -0.859375 -0.4375q-0.921875 0 -1.84375 1.015625l0 3.765625q0 0.734375 0.078125 0.90625q0.109375 0.21875 0.296875 0.328125q0.203125 0.109375 0.78125 0.109375l0 0.28125l-3.53125 0l0 -0.28125l0.15625 0q0.546875 0 0.734375 -0.28125q0.1875 -0.28125 0.1875 -1.0625l0 -2.65625q0 -1.28125 -0.0625 -1.5625q-0.046875 -0.28125 -0.171875 -0.375q-0.125 -0.109375 -0.328125 -0.109375q-0.21875 0 -0.515625 0.109375l-0.125 -0.28125l2.15625 -0.875l0.34375 0l0 1.515625zm10.96875 5.046875q-0.53125 0.546875 -1.03125 0.796875q-0.5 0.234375 -1.078125 0.234375q-1.171875 0 -2.046875 -0.984375q-0.875 -0.984375 -0.875 -2.515625q0 -1.546875 0.96875 -2.8125q0.96875 -1.28125 2.5 -1.28125q0.9375 0 1.5625 0.59375l0 -1.3125q0 -1.234375 -0.0625 -1.515625q-0.0625 -0.28125 -0.1875 -0.375q-0.125 -0.109375 -0.3125 -0.109375q-0.203125 0 -0.53125 0.125l-0.109375 -0.265625l2.140625 -0.875l0.34375 0l0 8.265625q0 1.265625 0.0625 1.546875q0.0625 0.265625 0.1875 0.375q0.125 0.109375 0.296875 0.109375q0.21875 0 0.5625 -0.125l0.09375 0.265625l-2.125 0.890625l-0.359375 0l0 -1.03125zm0 -0.546875l0 -3.6875q-0.046875 -0.53125 -0.28125 -0.96875q-0.234375 -0.4375 -0.625 -0.65625q-0.390625 -0.21875 -0.75 -0.21875q-0.6875 0 -1.234375 0.609375q-0.703125 0.8125 -0.703125 2.375q0 1.578125 0.6875 2.421875q0.6875 0.84375 1.53125 0.84375q0.703125 0 1.375 -0.71875zm12.8828125 -2.1875l-4.109375 0l-0.71875 1.671875q-0.265625 0.609375 -0.265625 0.921875q0 0.234375 0.234375 0.421875q0.234375 0.1875 1.0 0.234375l0 0.296875l-3.34375 0l0 -0.296875q0.671875 -0.109375 0.859375 -0.296875q0.40625 -0.375 0.890625 -1.53125l3.71875 -8.71875l0.28125 0l3.6875 8.8125q0.4375 1.0625 0.796875 1.390625q0.375 0.3125 1.015625 0.34375l0 0.296875l-4.171875 0l0 -0.296875q0.625 -0.03125 0.84375 -0.203125q0.234375 -0.1875 0.234375 -0.4375q0 -0.34375 -0.3125 -1.09375l-0.640625 -1.515625zm-0.21875 -0.578125l-1.796875 -4.28125l-1.84375 4.28125l3.640625 0zm9.3828125 3.828125l0 0.296875l-4.53125 0l0 -0.296875l0.375 0q0.65625 0 0.953125 -0.375q0.1875 -0.25 0.1875 -1.203125l0 -6.84375q0 -0.8125 -0.109375 -1.0625q-0.078125 -0.203125 -0.3125 -0.34375q-0.34375 -0.1875 -0.71875 -0.1875l-0.375 0l0 -0.28125l4.53125 0l0 0.28125l-0.375 0q-0.65625 0 -0.953125 0.390625q-0.1875 0.25 -0.1875 1.203125l0 6.84375q0 0.796875 0.09375 1.0625q0.078125 0.1875 0.328125 0.328125q0.34375 0.1875 0.71875 0.1875l0.375 0zm19.085938 -10.296875l0 0.28125q-0.421875 0 -0.6875 0.15625q-0.25 0.140625 -0.484375 0.546875q-0.15625 0.28125 -0.484375 1.3125l-2.953125 8.546875l-0.3125 0l-2.421875 -6.78125l-2.390625 6.78125l-0.28125 0l-3.15625 -8.8125q-0.34375 -0.984375 -0.4375 -1.15625q-0.15625 -0.296875 -0.4375 -0.4375q-0.265625 -0.15625 -0.71875 -0.15625l0 -0.28125l3.921875 0l0 0.28125l-0.1875 0q-0.421875 0 -0.640625 0.1875q-0.21875 0.1875 -0.21875 0.453125q0 0.28125 0.34375 1.265625l2.09375 5.9375l1.75 -5.046875l-0.3125 -0.890625l-0.25 -0.71875q-0.15625 -0.390625 -0.359375 -0.6875q-0.109375 -0.140625 -0.25 -0.25q-0.203125 -0.140625 -0.390625 -0.203125q-0.15625 -0.046875 -0.46875 -0.046875l0 -0.28125l4.125 0l0 0.28125l-0.28125 0q-0.4375 0 -0.640625 0.1875q-0.203125 0.1875 -0.203125 0.515625q0 0.390625 0.34375 1.390625l2.03125 5.75l2.015625 -5.828125q0.34375 -0.96875 0.34375 -1.34375q0 -0.1875 -0.109375 -0.34375q-0.109375 -0.15625 -0.28125 -0.21875q-0.296875 -0.109375 -0.78125 -0.109375l0 -0.28125l3.171875 0zm1.8046875 -0.515625q0.328125 0 0.546875 0.234375q0.234375 0.21875 0.234375 0.546875q0 0.328125 -0.234375 0.5625q-0.21875 0.234375 -0.546875 0.234375q-0.328125 0 -0.5625 -0.234375q-0.234375 -0.234375 -0.234375 -0.5625q0 -0.328125 0.21875 -0.546875q0.234375 -0.234375 0.578125 -0.234375zm0.640625 3.734375l0 5.75q0 0.671875 0.09375 0.90625q0.109375 0.21875 0.296875 0.328125q0.1875 0.109375 0.703125 0.109375l0 0.28125l-3.484375 0l0 -0.28125q0.53125 0 0.703125 -0.09375q0.1875 -0.109375 0.28125 -0.34375q0.109375 -0.234375 0.109375 -0.90625l0 -2.75q0 -1.171875 -0.0625 -1.515625q-0.0625 -0.25 -0.1875 -0.34375q-0.109375 -0.09375 -0.3125 -0.09375q-0.21875 0 -0.53125 0.109375l-0.109375 -0.28125l2.15625 -0.875l0.34375 0zm4.070305 1.515625q1.25 -1.515625 2.390625 -1.515625q0.59375 0 1.015625 0.296875q0.421875 0.296875 0.671875 0.96875q0.171875 0.46875 0.171875 1.4375l0 3.046875q0 0.6875 0.109375 0.921875q0.078125 0.203125 0.265625 0.3125q0.203125 0.109375 0.71875 0.109375l0 0.28125l-3.546875 0l0 -0.28125l0.15625 0q0.5 0 0.6875 -0.15625q0.203125 -0.15625 0.28125 -0.453125q0.03125 -0.109375 0.03125 -0.734375l0 -2.921875q0 -0.984375 -0.25 -1.421875q-0.25 -0.4375 -0.859375 -0.4375q-0.921875 0 -1.84375 1.015625l0 3.765625q0 0.734375 0.078125 0.90625q0.109375 0.21875 0.296875 0.328125q0.203125 0.109375 0.78125 0.109375l0 0.28125l-3.53125 0l0 -0.28125l0.15625 0q0.546875 0 0.734375 -0.28125q0.1875 -0.28125 0.1875 -1.0625l0 -2.65625q0 -1.28125 -0.0625 -1.5625q-0.046875 -0.28125 -0.171875 -0.375q-0.125 -0.109375 -0.328125 -0.109375q-0.21875 0 -0.515625 0.109375l-0.125 -0.28125l2.15625 -0.875l0.34375 0l0 1.515625zm7.984375 -3.65625l0 2.359375l1.671875 0l0 0.546875l-1.671875 0l0 4.640625q0 0.6875 0.203125 0.9375q0.203125 0.234375 0.515625 0.234375q0.25 0 0.484375 -0.15625q0.25 -0.15625 0.390625 -0.46875l0.296875 0q-0.265625 0.765625 -0.765625 1.15625q-0.5 0.390625 -1.03125 0.390625q-0.359375 0 -0.703125 -0.203125q-0.34375 -0.203125 -0.515625 -0.578125q-0.15625 -0.375 -0.15625 -1.140625l0 -4.8125l-1.140625 0l0 -0.265625q0.4375 -0.171875 0.875 -0.578125q0.453125 -0.40625 0.8125 -0.96875q0.171875 -0.296875 0.5 -1.09375l0.234375 0zm3.5703125 5.046875q0 1.59375 0.78125 2.5q0.78125 0.90625 1.828125 0.90625q0.703125 0 1.21875 -0.375q0.53125 -0.390625 0.875 -1.328125l0.25 0.15625q-0.171875 1.0625 -0.96875 1.953125q-0.78125 0.875 -1.96875 0.875q-1.28125 0 -2.203125 -1.0q-0.921875 -1.015625 -0.921875 -2.703125q0 -1.84375 0.9375 -2.859375q0.953125 -1.03125 2.375 -1.03125q1.203125 0 1.96875 0.796875q0.78125 0.78125 0.78125 2.109375l-4.953125 0zm0 -0.453125l3.3125 0q-0.03125 -0.6875 -0.15625 -0.96875q-0.203125 -0.4375 -0.59375 -0.6875q-0.375 -0.25 -0.796875 -0.25q-0.65625 0 -1.171875 0.515625q-0.5 0.5 -0.59375 1.390625zm7.9921875 -2.453125l0 1.609375q0.90625 -1.609375 1.84375 -1.609375q0.4375 0 0.71875 0.265625q0.28125 0.265625 0.28125 0.609375q0 0.296875 -0.203125 0.515625q-0.203125 0.203125 -0.484375 0.203125q-0.28125 0 -0.625 -0.265625q-0.328125 -0.265625 -0.5 -0.265625q-0.140625 0 -0.296875 0.15625q-0.359375 0.3125 -0.734375 1.046875l0 3.4375q0 0.59375 0.15625 0.890625q0.09375 0.21875 0.34375 0.359375q0.265625 0.140625 0.75 0.140625l0 0.28125l-3.65625 0l0 -0.28125q0.546875 0 0.8125 -0.171875q0.1875 -0.125 0.265625 -0.40625q0.046875 -0.125 0.046875 -0.75l0 -2.78125q0 -1.25 -0.0625 -1.484375q-0.046875 -0.234375 -0.1875 -0.34375q-0.125 -0.109375 -0.328125 -0.109375q-0.25 0 -0.546875 0.109375l-0.078125 -0.28125l2.15625 -0.875l0.328125 0z" fill-rule="nonzero"/><path fill="#000000" fill-opacity="0.0" d="m285.52383 174.11417l175.9685 0l0 38.771667l-175.9685 0z" fill-rule="evenodd"/><path fill="#000000" d="m346.90652 198.17729l0 0.296875l-4.53125 0l0 -0.296875l0.375 0q0.65625 0 0.953125 -0.375q0.1875 -0.25 0.1875 -1.203125l0 -6.84375q0 -0.8125 -0.109375 -1.0625q-0.078125 -0.203125 -0.3125 -0.34375q-0.34375 -0.1875 -0.71875 -0.1875l-0.375 0l0 -0.28125l4.53125 0l0 0.28125l-0.375 0q-0.65625 0 -0.953125 0.390625q-0.1875 0.25 -0.1875 1.203125l0 6.84375q0 0.796875 0.09375 1.0625q0.078125 0.1875 0.328125 0.328125q0.34375 0.1875 0.71875 0.1875l0.375 0zm3.015625 -5.546875q0.78125 -0.78125 0.921875 -0.90625q0.359375 -0.296875 0.765625 -0.453125q0.40625 -0.171875 0.796875 -0.171875q0.671875 0 1.15625 0.390625q0.484375 0.390625 0.65625 1.140625q0.796875 -0.9375 1.34375 -1.234375q0.5625 -0.296875 1.15625 -0.296875q0.5625 0 1.0 0.296875q0.453125 0.296875 0.703125 0.953125q0.171875 0.453125 0.171875 1.421875l0 3.078125q0 0.671875 0.109375 0.921875q0.078125 0.171875 0.28125 0.296875q0.21875 0.125 0.6875 0.125l0 0.28125l-3.53125 0l0 -0.28125l0.15625 0q0.453125 0 0.71875 -0.1875q0.171875 -0.125 0.25 -0.390625q0.03125 -0.140625 0.03125 -0.765625l0 -3.078125q0 -0.875 -0.203125 -1.234375q-0.3125 -0.5 -0.984375 -0.5q-0.40625 0 -0.828125 0.21875q-0.421875 0.203125 -1.015625 0.765625l-0.015625 0.078125l0.015625 0.34375l0 3.40625q0 0.734375 0.078125 0.921875q0.09375 0.171875 0.3125 0.296875q0.234375 0.125 0.78125 0.125l0 0.28125l-3.625 0l0 -0.28125q0.59375 0 0.8125 -0.140625q0.234375 -0.140625 0.3125 -0.421875q0.046875 -0.140625 0.046875 -0.78125l0 -3.078125q0 -0.875 -0.265625 -1.25q-0.34375 -0.5 -0.953125 -0.5q-0.421875 0 -0.84375 0.21875q-0.640625 0.34375 -1.0 0.78125l0 3.828125q0 0.703125 0.09375 0.921875q0.109375 0.203125 0.296875 0.3125q0.1875 0.109375 0.78125 0.109375l0 0.28125l-3.546875 0l0 -0.28125q0.5 0 0.6875 -0.109375q0.203125 -0.109375 0.296875 -0.328125q0.109375 -0.234375 0.109375 -0.90625l0 -2.734375q0 -1.171875 -0.078125 -1.515625q-0.046875 -0.265625 -0.171875 -0.359375q-0.109375 -0.09375 -0.3125 -0.09375q-0.21875 0 -0.53125 0.109375l-0.109375 -0.28125l2.15625 -0.875l0.328125 0l0 1.53125zm14.3828125 4.8125q-1.109375 0.84375 -1.390625 0.984375q-0.421875 0.203125 -0.890625 0.203125q-0.75 0 -1.234375 -0.515625q-0.46875 -0.515625 -0.46875 -1.34375q0 -0.515625 0.234375 -0.90625q0.3125 -0.53125 1.109375 -1.0q0.796875 -0.46875 2.640625 -1.140625l0 -0.28125q0 -1.0625 -0.34375 -1.453125q-0.34375 -0.40625 -0.984375 -0.40625q-0.5 0 -0.78125 0.265625q-0.296875 0.265625 -0.296875 0.609375l0.015625 0.453125q0 0.359375 -0.1875 0.5625q-0.1875 0.1875 -0.484375 0.1875q-0.28125 0 -0.46875 -0.203125q-0.1875 -0.203125 -0.1875 -0.5625q0 -0.671875 0.6875 -1.234375q0.6875 -0.5625 1.9375 -0.5625q0.953125 0 1.5625 0.328125q0.453125 0.234375 0.671875 0.75q0.140625 0.34375 0.140625 1.375l0 2.4375q0 1.015625 0.03125 1.25q0.046875 0.234375 0.140625 0.3125q0.09375 0.078125 0.203125 0.078125q0.125 0 0.21875 -0.0625q0.171875 -0.09375 0.640625 -0.5625l0 0.4375q-0.875 1.171875 -1.671875 1.171875q-0.390625 0 -0.625 -0.265625q-0.21875 -0.265625 -0.21875 -0.90625zm0 -0.515625l0 -2.71875q-1.1875 0.46875 -1.53125 0.65625q-0.609375 0.34375 -0.875 0.71875q-0.265625 0.375 -0.265625 0.828125q0 0.5625 0.328125 0.9375q0.34375 0.359375 0.78125 0.359375q0.59375 0 1.5625 -0.78125zm4.9609375 -1.0625q-0.65625 -0.328125 -1.015625 -0.890625q-0.34375 -0.578125 -0.34375 -1.28125q0 -1.0625 0.796875 -1.828125q0.796875 -0.765625 2.046875 -0.765625q1.03125 0 1.78125 0.5l1.515625 0q0.328125 0 0.375 0.03125q0.0625 0.015625 0.09375 0.0625q0.046875 0.0625 0.046875 0.25q0 0.203125 -0.046875 0.28125q-0.015625 0.03125 -0.078125 0.0625q-0.0625 0.015625 -0.390625 0.015625l-0.9375 0q0.4375 0.5625 0.4375 1.4375q0 1.0 -0.765625 1.71875q-0.765625 0.703125 -2.046875 0.703125q-0.53125 0 -1.09375 -0.15625q-0.34375 0.296875 -0.46875 0.53125q-0.109375 0.21875 -0.109375 0.375q0 0.125 0.125 0.25q0.125 0.125 0.5 0.1875q0.21875 0.03125 1.09375 0.046875q1.609375 0.046875 2.09375 0.109375q0.71875 0.109375 1.15625 0.546875q0.4375 0.4375 0.4375 1.078125q0 0.890625 -0.828125 1.65625q-1.21875 1.140625 -3.1875 1.140625q-1.5 0 -2.546875 -0.671875q-0.578125 -0.390625 -0.578125 -0.8125q0 -0.1875 0.078125 -0.375q0.140625 -0.296875 0.546875 -0.8125q0.0625 -0.0625 0.796875 -0.84375q-0.40625 -0.25 -0.578125 -0.4375q-0.15625 -0.1875 -0.15625 -0.4375q0 -0.265625 0.21875 -0.625q0.21875 -0.375 1.03125 -1.046875zm1.359375 -4.390625q-0.578125 0 -0.96875 0.46875q-0.390625 0.453125 -0.390625 1.40625q0 1.234375 0.53125 1.921875q0.40625 0.515625 1.03125 0.515625q0.59375 0 0.96875 -0.4375q0.390625 -0.453125 0.390625 -1.40625q0 -1.25 -0.546875 -1.953125q-0.390625 -0.515625 -1.015625 -0.515625zm-1.4375 7.0q-0.375 0.40625 -0.5625 0.75q-0.1875 0.34375 -0.1875 0.625q0 0.375 0.453125 0.65625q0.78125 0.484375 2.265625 0.484375q1.40625 0 2.0625 -0.5q0.671875 -0.484375 0.671875 -1.046875q0 -0.40625 -0.390625 -0.578125q-0.40625 -0.171875 -1.609375 -0.203125q-1.765625 -0.046875 -2.703125 -0.1875zm7.359375 -4.46875q0 1.59375 0.78125 2.5q0.78125 0.90625 1.828125 0.90625q0.703125 0 1.21875 -0.375q0.53125 -0.390625 0.875 -1.328125l0.25 0.15625q-0.171875 1.0625 -0.96875 1.953125q-0.78125 0.875 -1.96875 0.875q-1.28125 0 -2.203125 -1.0q-0.921875 -1.015625 -0.921875 -2.703125q0 -1.84375 0.9375 -2.859375q0.953125 -1.03125 2.375 -1.03125q1.203125 0 1.96875 0.796875q0.78125 0.78125 0.78125 2.109375l-4.953125 0zm0 -0.453125l3.3125 0q-0.03125 -0.6875 -0.15625 -0.96875q-0.203125 -0.4375 -0.59375 -0.6875q-0.375 -0.25 -0.796875 -0.25q-0.65625 0 -1.171875 0.515625q-0.5 0.5 -0.59375 1.390625zm5.1796875 -5.671875l2.890625 0l6.46875 7.9375l0 -6.109375q0 -0.96875 -0.21875 -1.21875q-0.28125 -0.328125 -0.90625 -0.328125l-0.375 0l0 -0.28125l3.6875 0l0 0.28125l-0.375 0q-0.671875 0 -0.953125 0.40625q-0.171875 0.25 -0.171875 1.140625l0 8.9375l-0.28125 0l-6.984375 -8.53125l0 6.515625q0 0.984375 0.21875 1.21875q0.296875 0.328125 0.90625 0.328125l0.375 0l0 0.296875l-3.6875 0l0 -0.296875l0.375 0q0.671875 0 0.953125 -0.40625q0.171875 -0.25 0.171875 -1.140625l0 -7.359375q-0.453125 -0.546875 -0.703125 -0.71875q-0.234375 -0.171875 -0.6875 -0.3125q-0.234375 -0.078125 -0.703125 -0.078125l0 -0.28125zm13.4765625 6.125q0 1.59375 0.78125 2.5q0.78125 0.90625 1.828125 0.90625q0.703125 0 1.21875 -0.375q0.53125 -0.390625 0.875 -1.328125l0.25 0.15625q-0.171875 1.0625 -0.96875 1.953125q-0.78125 0.875 -1.96875 0.875q-1.28125 0 -2.203125 -1.0q-0.921875 -1.015625 -0.921875 -2.703125q0 -1.84375 0.9375 -2.859375q0.953125 -1.03125 2.375 -1.03125q1.203125 0 1.96875 0.796875q0.78125 0.78125 0.78125 2.109375l-4.953125 0zm0 -0.453125l3.3125 0q-0.03125 -0.6875 -0.15625 -0.96875q-0.203125 -0.4375 -0.59375 -0.6875q-0.375 -0.25 -0.796875 -0.25q-0.65625 0 -1.171875 0.515625q-0.5 0.5 -0.59375 1.390625zm7.9765625 -4.59375l0 2.359375l1.671875 0l0 0.546875l-1.671875 0l0 4.640625q0 0.6875 0.203125 0.9375q0.203125 0.234375 0.515625 0.234375q0.25 0 0.484375 -0.15625q0.25 -0.15625 0.390625 -0.46875l0.296875 0q-0.265625 0.765625 -0.765625 1.15625q-0.5 0.390625 -1.03125 0.390625q-0.359375 0 -0.703125 -0.203125q-0.34375 -0.203125 -0.515625 -0.578125q-0.15625 -0.375 -0.15625 -1.140625l0 -4.8125l-1.140625 0l0 -0.265625q0.4375 -0.171875 0.875 -0.578125q0.453125 -0.40625 0.8125 -0.96875q0.171875 -0.296875 0.5 -1.09375l0.234375 0z" fill-rule="nonzero"/><path fill="#000000" fill-opacity="0.0" d="m95.70197 59.2769l0 49.6063" fill-rule="evenodd"/><path stroke="#666666" stroke-width="1.0" stroke-linejoin="round" stroke-linecap="butt" stroke-dasharray="4.0,3.0" d="m95.70197 59.2769l0 49.6063" fill-rule="evenodd"/><path fill="#000000" fill-opacity="0.0" d="m373.5081 127.749344l0 46.362198" fill-rule="evenodd"/><path stroke="#666666" stroke-width="1.0" stroke-linejoin="round" stroke-linecap="butt" stroke-dasharray="4.0,3.0" d="m373.5081 127.749344l0 46.362198" fill-rule="evenodd"/><path fill="#434343" d="m807.2362 118.3189l0 0c0 -5.2097473 4.2233276 -9.433075 9.433105 -9.433075l0 0c2.50177 0 4.901123 0.99383545 6.670166 2.762886c1.769043 1.769043 2.7628784 4.1683807 2.7628784 6.670189l0 0c0 5.2097397 -4.2233276 9.433067 -9.433044 9.433067l0 0c-5.209778 0 -9.433105 -4.2233276 -9.433105 -9.433067z" fill-rule="evenodd"/><path fill="#434343" d="m364.075 118.31628l0 0c0 -5.2097473 4.2233276 -9.433075 9.433075 -9.433075l0 0c2.5018005 0 4.9011536 0.99383545 6.6701965 2.762886c1.769043 1.769043 2.7628784 4.1683807 2.7628784 6.670189l0 0c0 5.2097397 -4.2233276 9.433067 -9.433075 9.433067l0 0c-5.2097473 0 -9.433075 -4.2233276 -9.433075 -9.433067z" fill-rule="evenodd"/><path fill="#000000" fill-opacity="0.0" d="m65.29253 127.755905l60.818893 0l0 38.771652l-60.818893 0z" fill-rule="evenodd"/><path fill="#000000" d="m84.92072 141.3034l0 8.65625q0 0.984375 0.078125 1.25q0.09375 0.265625 0.359375 0.4375q0.28125 0.171875 0.875 0.171875l0.25 0l0 0.296875l-5.578125 0l0 -0.296875l0.28125 0q0.671875 0 0.953125 -0.15625q0.296875 -0.15625 0.390625 -0.421875q0.109375 -0.28125 0.109375 -1.28125l0 -5.484375q0 -0.734375 -0.078125 -0.921875q-0.0625 -0.1875 -0.25 -0.3125q-0.1875 -0.125 -0.4375 -0.125q-0.40625 0 -0.96875 0.25l-0.140625 -0.28125l3.890625 -1.78125l0.265625 0zm3.28125 11.03125l0 -0.21875q1.296875 -0.296875 2.1875 -0.875q0.90625 -0.578125 1.4375 -1.421875q0.53125 -0.859375 0.734375 -1.96875q-0.484375 0.25 -0.828125 0.34375q-0.328125 0.09375 -0.703125 0.09375q-1.203125 0 -2.015625 -0.859375q-0.796875 -0.875 -0.796875 -2.375q0 -1.046875 0.4375 -1.921875q0.4375 -0.875 1.234375 -1.34375q0.8125 -0.484375 1.671875 -0.484375q0.9375 0 1.765625 0.53125q0.828125 0.53125 1.3125 1.546875q0.5 1.0 0.5 2.28125q0 1.671875 -0.8125 3.203125q-0.796875 1.53125 -2.390625 2.46875q-1.578125 0.921875 -3.734375 1.0zm4.484375 -5.140625q0.078125 -0.875 0.078125 -1.546875q0 -1.421875 -0.328125 -2.640625q-0.1875 -0.6875 -0.5625 -1.0q-0.1875 -0.171875 -0.5 -0.171875q-0.390625 0 -0.609375 0.328125q-0.3125 0.46875 -0.3125 1.765625q0 2.15625 0.515625 2.984375q0.34375 0.53125 0.90625 0.53125q0.3125 0 0.8125 -0.25zm8.46875 -1.0625q1.125 0.8125 1.546875 1.53125q0.4375 0.703125 0.4375 1.609375q0 1.28125 -0.96875 2.171875q-0.953125 0.890625 -2.609375 0.890625q-1.578125 0 -2.4375 -0.765625q-0.859375 -0.78125 -0.859375 -1.90625q0 -0.84375 0.5 -1.484375q0.5 -0.640625 1.65625 -1.171875q-1.265625 -0.96875 -1.625 -1.578125q-0.34375 -0.609375 -0.34375 -1.40625q0 -1.0625 0.890625 -1.875q0.90625 -0.8125 2.484375 -0.8125q1.515625 0 2.328125 0.71875q0.8125 0.71875 0.8125 1.71875q0 0.75 -0.4375 1.328125q-0.4375 0.5625 -1.375 1.03125zm-0.59375 -0.40625q0.296875 -0.390625 0.4375 -0.875q0.140625 -0.484375 0.140625 -1.0625q0 -1.015625 -0.4375 -1.546875q-0.328125 -0.421875 -0.90625 -0.421875q-0.53125 0 -0.90625 0.390625q-0.359375 0.375 -0.359375 0.9375q0 0.5625 0.40625 1.1875q0.421875 0.609375 1.625 1.390625zm-1.5625 1.65625q-0.234375 0.21875 -0.34375 0.390625q-0.15625 0.28125 -0.28125 0.8125q-0.125 0.515625 -0.125 1.078125q0 0.734375 0.1875 1.234375q0.1875 0.5 0.53125 0.71875q0.359375 0.21875 0.71875 0.21875q0.578125 0 0.96875 -0.421875q0.390625 -0.421875 0.390625 -1.140625q0 -1.515625 -2.046875 -2.890625zm10.15625 -1.25q1.125 0.8125 1.546875 1.53125q0.4375 0.703125 0.4375 1.609375q0 1.28125 -0.96875 2.171875q-0.953125 0.890625 -2.609375 0.890625q-1.578125 0 -2.4375 -0.765625q-0.859375 -0.78125 -0.859375 -1.90625q0 -0.84375 0.5 -1.484375q0.5 -0.640625 1.65625 -1.171875q-1.265625 -0.96875 -1.625 -1.578125q-0.34375 -0.609375 -0.34375 -1.40625q0 -1.0625 0.890625 -1.875q0.90625 -0.8125 2.484375 -0.8125q1.515625 0 2.328125 0.71875q0.8125 0.71875 0.8125 1.71875q0 0.75 -0.4375 1.328125q-0.4375 0.5625 -1.375 1.03125zm-0.59375 -0.40625q0.296875 -0.390625 0.4375 -0.875q0.140625 -0.484375 0.140625 -1.0625q0 -1.015625 -0.4375 -1.546875q-0.328125 -0.421875 -0.90625 -0.421875q-0.53125 0 -0.90625 0.390625q-0.359375 0.375 -0.359375 0.9375q0 0.5625 0.40625 1.1875q0.421875 0.609375 1.625 1.390625zm-1.5625 1.65625q-0.234375 0.21875 -0.34375 0.390625q-0.15625 0.28125 -0.28125 0.8125q-0.125 0.515625 -0.125 1.078125q0 0.734375 0.1875 1.234375q0.1875 0.5 0.53125 0.71875q0.359375 0.21875 0.71875 0.21875q0.578125 0 0.96875 -0.421875q0.390625 -0.421875 0.390625 -1.140625q0 -1.515625 -2.046875 -2.890625z" fill-rule="nonzero"/><path fill="#000000" fill-opacity="0.0" d="m343.09863 67.31233l60.81891 0l0 38.77166l-60.81891 0z" fill-rule="evenodd"/><path fill="#000000" d="m364.1331 91.67233l-6.234375 0l0 -0.171875q2.875 -3.421875 3.484375 -4.59375q0.609375 -1.1875 0.609375 -2.3125q0 -0.8125 -0.515625 -1.359375q-0.5 -0.546875 -1.234375 -0.546875q-1.203125 0 -1.859375 1.203125l-0.296875 -0.09375q0.421875 -1.5 1.28125 -2.21875q0.859375 -0.71875 1.984375 -0.71875q0.8125 0 1.46875 0.375q0.671875 0.375 1.046875 1.03125q0.375 0.640625 0.375 1.21875q0 1.03125 -0.578125 2.109375q-0.796875 1.4375 -3.453125 4.03125l2.296875 0q0.84375 0 1.09375 -0.0625q0.25 -0.078125 0.40625 -0.25q0.171875 -0.171875 0.4375 -0.703125l0.28125 0l-0.59375 3.0625zm8.796875 -5.296875q0 1.578125 -0.453125 2.953125q-0.265625 0.84375 -0.71875 1.390625q-0.4375 0.53125 -1.015625 0.859375q-0.5625 0.3125 -1.234375 0.3125q-0.765625 0 -1.390625 -0.390625q-0.609375 -0.390625 -1.09375 -1.125q-0.34375 -0.53125 -0.59375 -1.40625q-0.34375 -1.203125 -0.34375 -2.46875q0 -1.734375 0.484375 -3.171875q0.40625 -1.203125 1.21875 -1.828125q0.8125 -0.640625 1.71875 -0.640625q0.921875 0 1.71875 0.625q0.796875 0.625 1.171875 1.6875q0.53125 1.46875 0.53125 3.203125zm-2.40625 -0.015625q0 -2.78125 -0.03125 -3.25q-0.078125 -1.078125 -0.375 -1.46875q-0.203125 -0.25 -0.640625 -0.25q-0.328125 0 -0.53125 0.1875q-0.28125 0.28125 -0.390625 0.96875q-0.09375 0.6875 -0.09375 4.828125q0 2.25 0.15625 3.015625q0.109375 0.546875 0.328125 0.734375q0.21875 0.1875 0.578125 0.1875q0.390625 0 0.59375 -0.25q0.328125 -0.4375 0.375 -1.34375l0.03125 -3.359375zm10.40625 0.015625q0 1.578125 -0.453125 2.953125q-0.265625 0.84375 -0.71875 1.390625q-0.4375 0.53125 -1.015625 0.859375q-0.5625 0.3125 -1.234375 0.3125q-0.765625 0 -1.390625 -0.390625q-0.609375 -0.390625 -1.09375 -1.125q-0.34375 -0.53125 -0.59375 -1.40625q-0.34375 -1.203125 -0.34375 -2.46875q0 -1.734375 0.484375 -3.171875q0.40625 -1.203125 1.21875 -1.828125q0.8125 -0.640625 1.71875 -0.640625q0.921875 0 1.71875 0.625q0.796875 0.625 1.171875 1.6875q0.53125 1.46875 0.53125 3.203125zm-2.40625 -0.015625q0 -2.78125 -0.03125 -3.25q-0.078125 -1.078125 -0.375 -1.46875q-0.203125 -0.25 -0.640625 -0.25q-0.328125 0 -0.53125 0.1875q-0.28125 0.28125 -0.390625 0.96875q-0.09375 0.6875 -0.09375 4.828125q0 2.25 0.15625 3.015625q0.109375 0.546875 0.328125 0.734375q0.21875 0.1875 0.578125 0.1875q0.390625 0 0.59375 -0.25q0.328125 -0.4375 0.375 -1.34375l0.03125 -3.359375zm3.484375 5.53125l0 -0.21875q1.296875 -0.296875 2.1875 -0.875q0.90625 -0.578125 1.4375 -1.421875q0.53125 -0.859375 0.734375 -1.96875q-0.484375 0.25 -0.828125 0.34375q-0.328125 0.09375 -0.703125 0.09375q-1.203125 0 -2.015625 -0.859375q-0.796875 -0.875 -0.796875 -2.375q0 -1.046875 0.4375 -1.921875q0.4375 -0.875 1.234375 -1.34375q0.8125 -0.484375 1.671875 -0.484375q0.9375 0 1.765625 0.53125q0.828125 0.53125 1.3125 1.546875q0.5 1.0 0.5 2.28125q0 1.671875 -0.8125 3.203125q-0.796875 1.53125 -2.390625 2.46875q-1.578125 0.921875 -3.734375 1.0zm4.484375 -5.140625q0.078125 -0.875 0.078125 -1.546875q0 -1.421875 -0.328125 -2.640625q-0.1875 -0.6875 -0.5625 -1.0q-0.1875 -0.171875 -0.5 -0.171875q-0.390625 0 -0.609375 0.328125q-0.3125 0.46875 -0.3125 1.765625q0 2.15625 0.515625 2.984375q0.34375 0.53125 0.90625 0.53125q0.3125 0 0.8125 -0.25z" fill-rule="nonzero"/><path fill="#000000" fill-opacity="0.0" d="m786.2598 127.755905l60.81891 0l0 38.771652l-60.81891 0z" fill-rule="evenodd"/><path fill="#000000" d="m807.2943 152.1159l-6.234375 0l0 -0.171875q2.875 -3.421875 3.484375 -4.59375q0.609375 -1.1875 0.609375 -2.3125q0 -0.8125 -0.515625 -1.359375q-0.5 -0.546875 -1.234375 -0.546875q-1.203125 0 -1.859375 1.203125l-0.296875 -0.09375q0.421875 -1.5 1.28125 -2.21875q0.859375 -0.71875 1.984375 -0.71875q0.8125 0 1.46875 0.375q0.671875 0.375 1.046875 1.03125q0.375 0.640625 0.375 1.21875q0 1.03125 -0.578125 2.109375q-0.796875 1.4375 -3.453125 4.03125l2.296875 0q0.84375 0 1.09375 -0.0625q0.25 -0.078125 0.40625 -0.25q0.171875 -0.171875 0.4375 -0.703125l0.28125 0l-0.59375 3.0625zm8.796875 -5.296875q0 1.578125 -0.453125 2.953125q-0.265625 0.84375 -0.71875 1.390625q-0.4375 0.53125 -1.015625 0.859375q-0.5625 0.3125 -1.234375 0.3125q-0.765625 0 -1.390625 -0.390625q-0.609375 -0.390625 -1.09375 -1.125q-0.34375 -0.53125 -0.59375 -1.40625q-0.34375 -1.203125 -0.34375 -2.46875q0 -1.734375 0.484375 -3.171875q0.40625 -1.203125 1.21875 -1.828125q0.8125 -0.640625 1.71875 -0.640625q0.921875 0 1.71875 0.625q0.796875 0.625 1.171875 1.6875q0.53125 1.46875 0.53125 3.203125zm-2.40625 -0.015625q0 -2.78125 -0.03125 -3.25q-0.078125 -1.078125 -0.375 -1.46875q-0.203125 -0.25 -0.640625 -0.25q-0.328125 0 -0.53125 0.1875q-0.28125 0.28125 -0.390625 0.96875q-0.09375 0.6875 -0.09375 4.828125q0 2.25 0.15625 3.015625q0.109375 0.546875 0.328125 0.734375q0.21875 0.1875 0.578125 0.1875q0.390625 0 0.59375 -0.25q0.328125 -0.4375 0.375 -1.34375l0.03125 -3.359375zm9.609375 5.3125l-6.234375 0l0 -0.171875q2.875 -3.421875 3.484375 -4.59375q0.609375 -1.1875 0.609375 -2.3125q0 -0.8125 -0.515625 -1.359375q-0.5 -0.546875 -1.234375 -0.546875q-1.203125 0 -1.859375 1.203125l-0.296875 -0.09375q0.421875 -1.5 1.28125 -2.21875q0.859375 -0.71875 1.984375 -0.71875q0.8125 0 1.46875 0.375q0.671875 0.375 1.046875 1.03125q0.375 0.640625 0.375 1.21875q0 1.03125 -0.578125 2.109375q-0.796875 1.4375 -3.453125 4.03125l2.296875 0q0.84375 0 1.09375 -0.0625q0.25 -0.078125 0.40625 -0.25q0.171875 -0.171875 0.4375 -0.703125l0.28125 0l-0.59375 3.0625zm3.75 -5.3125l0 -0.28125q0.890625 -0.25 1.234375 -0.46875q0.34375 -0.234375 0.59375 -0.6875q0.25 -0.453125 0.25 -0.921875q0 -0.65625 -0.484375 -1.109375q-0.46875 -0.46875 -1.171875 -0.46875q-1.09375 0 -1.859375 1.15625l-0.28125 -0.109375q0.5625 -1.296875 1.4375 -1.953125q0.875 -0.65625 1.953125 -0.65625q1.109375 0 1.8125 0.671875q0.71875 0.671875 0.71875 1.5625q0 0.59375 -0.328125 1.140625q-0.328125 0.53125 -1.046875 0.953125q0.921875 0.4375 1.390625 1.09375q0.484375 0.65625 0.484375 1.640625q0 1.65625 -1.203125 2.828125q-1.1875 1.15625 -3.203125 1.15625q-1.34375 0 -1.96875 -0.453125q-0.4375 -0.3125 -0.4375 -0.8125q0 -0.359375 0.25 -0.609375q0.265625 -0.25 0.59375 -0.25q0.265625 0 0.484375 0.109375q0.125 0.0625 0.890625 0.6875q0.765625 0.609375 1.421875 0.609375q0.578125 0 0.984375 -0.453125q0.421875 -0.453125 0.421875 -1.15625q0 -1.078125 -0.75 -1.96875q-0.75 -0.90625 -2.1875 -1.25z" fill-rule="nonzero"/><path fill="#000000" fill-opacity="0.0" d="m393.29514 20.505249l175.96854 0l0 38.771652l-175.96854 0z" fill-rule="evenodd"/><path fill="#000000" d="m461.50595 41.318375l-4.109375 0l-0.71875 1.671875q-0.265625 0.609375 -0.265625 0.921875q0 0.234375 0.234375 0.421875q0.234375 0.1875 1.0 0.234375l0 0.296875l-3.34375 0l0 -0.296875q0.671875 -0.109375 0.859375 -0.296875q0.40625 -0.375 0.890625 -1.53125l3.71875 -8.71875l0.28125 0l3.6875 8.8125q0.4375 1.0625 0.796875 1.390625q0.375 0.3125 1.015625 0.34375l0 0.296875l-4.171875 0l0 -0.296875q0.625 -0.03125 0.84375 -0.203125q0.234375 -0.1875 0.234375 -0.4375q0 -0.34375 -0.3125 -1.09375l-0.640625 -1.515625zm-0.21875 -0.578125l-1.796875 -4.28125l-1.84375 4.28125l3.640625 0zm7.4140625 -6.984375l0 9.484375q0 0.671875 0.09375 0.890625q0.09375 0.21875 0.296875 0.34375q0.203125 0.109375 0.765625 0.109375l0 0.28125l-3.515625 0l0 -0.28125q0.5 0 0.671875 -0.09375q0.1875 -0.109375 0.28125 -0.34375q0.109375 -0.234375 0.109375 -0.90625l0 -6.5q0 -1.203125 -0.0625 -1.484375q-0.046875 -0.28125 -0.171875 -0.375q-0.125 -0.109375 -0.3125 -0.109375q-0.203125 0 -0.515625 0.125l-0.125 -0.265625l2.125 -0.875l0.359375 0zm3.1796875 6.640625q0 1.59375 0.78125 2.5q0.78125 0.90625 1.828125 0.90625q0.703125 0 1.21875 -0.375q0.53125 -0.390625 0.875 -1.328125l0.25 0.15625q-0.171875 1.0625 -0.96875 1.953125q-0.78125 0.875 -1.96875 0.875q-1.28125 0 -2.203125 -1.0q-0.921875 -1.015625 -0.921875 -2.703125q0 -1.84375 0.9375 -2.859375q0.953125 -1.03125 2.375 -1.03125q1.203125 0 1.96875 0.796875q0.78125 0.78125 0.78125 2.109375l-4.953125 0zm0 -0.453125l3.3125 0q-0.03125 -0.6875 -0.15625 -0.96875q-0.203125 -0.4375 -0.59375 -0.6875q-0.375 -0.25 -0.796875 -0.25q-0.65625 0 -1.171875 0.515625q-0.5 0.5 -0.59375 1.390625zm5.6171875 -2.234375l3.359375 0l0 0.28125q-0.3125 0 -0.453125 0.109375q-0.125 0.109375 -0.125 0.296875q0 0.1875 0.28125 0.578125q0.078125 0.125 0.25 0.390625l0.515625 0.8125l0.578125 -0.8125q0.5625 -0.78125 0.5625 -0.984375q0 -0.15625 -0.140625 -0.265625q-0.125 -0.125 -0.421875 -0.125l0 -0.28125l2.421875 0l0 0.28125q-0.375 0.03125 -0.65625 0.21875q-0.390625 0.265625 -1.046875 1.15625l-0.984375 1.296875l1.78125 2.5625q0.65625 0.953125 0.9375 1.140625q0.28125 0.1875 0.734375 0.21875l0 0.28125l-3.375 0l0 -0.28125q0.34375 0 0.546875 -0.15625q0.140625 -0.109375 0.140625 -0.296875q0 -0.171875 -0.5 -0.90625l-1.046875 -1.53125l-1.140625 1.53125q-0.53125 0.71875 -0.53125 0.84375q0 0.1875 0.171875 0.34375q0.171875 0.15625 0.53125 0.171875l0 0.28125l-2.34375 0l0 -0.28125q0.28125 -0.046875 0.5 -0.203125q0.296875 -0.21875 1.0 -1.15625l1.5 -1.984375l-1.359375 -1.96875q-0.578125 -0.84375 -0.90625 -1.0625q-0.3125 -0.21875 -0.78125 -0.21875l0 -0.28125zm7.5625 -3.4375l2.890625 0l6.46875 7.9375l0 -6.109375q0 -0.96875 -0.21875 -1.21875q-0.28125 -0.328125 -0.90625 -0.328125l-0.375 0l0 -0.28125l3.6875 0l0 0.28125l-0.375 0q-0.671875 0 -0.953125 0.40625q-0.171875 0.25 -0.171875 1.140625l0 8.9375l-0.28125 0l-6.984375 -8.53125l0 6.515625q0 0.984375 0.21875 1.21875q0.296875 0.328125 0.90625 0.328125l0.375 0l0 0.296875l-3.6875 0l0 -0.296875l0.375 0q0.671875 0 0.953125 -0.40625q0.171875 -0.25 0.171875 -1.140625l0 -7.359375q-0.453125 -0.546875 -0.703125 -0.71875q-0.234375 -0.171875 -0.6875 -0.3125q-0.234375 -0.078125 -0.703125 -0.078125l0 -0.28125zm13.4765625 6.125q0 1.59375 0.78125 2.5q0.78125 0.90625 1.828125 0.90625q0.703125 0 1.21875 -0.375q0.53125 -0.390625 0.875 -1.328125l0.25 0.15625q-0.171875 1.0625 -0.96875 1.953125q-0.78125 0.875 -1.96875 0.875q-1.28125 0 -2.203125 -1.0q-0.921875 -1.015625 -0.921875 -2.703125q0 -1.84375 0.9375 -2.859375q0.953125 -1.03125 2.375 -1.03125q1.203125 0 1.96875 0.796875q0.78125 0.78125 0.78125 2.109375l-4.953125 0zm0 -0.453125l3.3125 0q-0.03125 -0.6875 -0.15625 -0.96875q-0.203125 -0.4375 -0.59375 -0.6875q-0.375 -0.25 -0.796875 -0.25q-0.65625 0 -1.171875 0.515625q-0.5 0.5 -0.59375 1.390625zm7.9765625 -4.59375l0 2.359375l1.671875 0l0 0.546875l-1.671875 0l0 4.640625q0 0.6875 0.203125 0.9375q0.203125 0.234375 0.515625 0.234375q0.25 0 0.484375 -0.15625q0.25 -0.15625 0.390625 -0.46875l0.296875 0q-0.265625 0.765625 -0.765625 1.15625q-0.5 0.390625 -1.03125 0.390625q-0.359375 0 -0.703125 -0.203125q-0.34375 -0.203125 -0.515625 -0.578125q-0.15625 -0.375 -0.15625 -1.140625l0 -4.8125l-1.140625 0l0 -0.265625q0.4375 -0.171875 0.875 -0.578125q0.453125 -0.40625 0.8125 -0.96875q0.171875 -0.296875 0.5 -1.09375l0.234375 0z" fill-rule="nonzero"/><path fill="#000000" fill-opacity="0.0" d="m481.2794 59.2769l0 49.6063" fill-rule="evenodd"/><path stroke="#666666" stroke-width="1.0" stroke-linejoin="round" stroke-linecap="butt" stroke-dasharray="4.0,3.0" d="m481.2794 59.2769l0 49.6063" fill-rule="evenodd"/><path fill="#434343" d="m471.8463 118.3189l0 0c0 -5.2097473 4.223358 -9.433075 9.433075 -9.433075l0 0c2.501831 0 4.9011536 0.99383545 6.6701965 2.762886c1.769043 1.769043 2.7628784 4.1683807 2.7628784 6.670189l0 0c0 5.2097397 -4.2233276 9.433067 -9.433075 9.433067l0 0c-5.209717 0 -9.433075 -4.2233276 -9.433075 -9.433067z" fill-rule="evenodd"/><path fill="#000000" fill-opacity="0.0" d="m450.86996 127.755905l60.81888 0l0 38.771652l-60.81888 0z" fill-rule="evenodd"/><path fill="#000000" d="m471.9044 152.1159l-6.234375 0l0 -0.171875q2.875 -3.421875 3.484375 -4.59375q0.609375 -1.1875 0.609375 -2.3125q0 -0.8125 -0.515625 -1.359375q-0.5 -0.546875 -1.234375 -0.546875q-1.203125 0 -1.859375 1.203125l-0.296875 -0.09375q0.421875 -1.5 1.28125 -2.21875q0.859375 -0.71875 1.984375 -0.71875q0.8125 0 1.46875 0.375q0.671875 0.375 1.046875 1.03125q0.375 0.640625 0.375 1.21875q0 1.03125 -0.578125 2.109375q-0.796875 1.4375 -3.453125 4.03125l2.296875 0q0.84375 0 1.09375 -0.0625q0.25 -0.078125 0.40625 -0.25q0.171875 -0.171875 0.4375 -0.703125l0.28125 0l-0.59375 3.0625zm8.796875 -5.296875q0 1.578125 -0.453125 2.953125q-0.265625 0.84375 -0.71875 1.390625q-0.4375 0.53125 -1.015625 0.859375q-0.5625 0.3125 -1.234375 0.3125q-0.765625 0 -1.390625 -0.390625q-0.609375 -0.390625 -1.09375 -1.125q-0.34375 -0.53125 -0.59375 -1.40625q-0.34375 -1.203125 -0.34375 -2.46875q0 -1.734375 0.484375 -3.171875q0.40625 -1.203125 1.21875 -1.828125q0.8125 -0.640625 1.71875 -0.640625q0.921875 0 1.71875 0.625q0.796875 0.625 1.171875 1.6875q0.53125 1.46875 0.53125 3.203125zm-2.40625 -0.015625q0 -2.78125 -0.03125 -3.25q-0.078125 -1.078125 -0.375 -1.46875q-0.203125 -0.25 -0.640625 -0.25q-0.328125 0 -0.53125 0.1875q-0.28125 0.28125 -0.390625 0.96875q-0.09375 0.6875 -0.09375 4.828125q0 2.25 0.15625 3.015625q0.109375 0.546875 0.328125 0.734375q0.21875 0.1875 0.578125 0.1875q0.390625 0 0.59375 -0.25q0.328125 -0.4375 0.375 -1.34375l0.03125 -3.359375zm8.203125 -5.5l0 8.65625q0 0.984375 0.078125 1.25q0.09375 0.265625 0.359375 0.4375q0.28125 0.171875 0.875 0.171875l0.25 0l0 0.296875l-5.578125 0l0 -0.296875l0.28125 0q0.671875 0 0.953125 -0.15625q0.296875 -0.15625 0.390625 -0.421875q0.109375 -0.28125 0.109375 -1.28125l0 -5.484375q0 -0.734375 -0.078125 -0.921875q-0.0625 -0.1875 -0.25 -0.3125q-0.1875 -0.125 -0.4375 -0.125q-0.40625 0 -0.96875 0.25l-0.140625 -0.28125l3.890625 -1.78125l0.265625 0zm9.40625 10.8125l-6.234375 0l0 -0.171875q2.875 -3.421875 3.484375 -4.59375q0.609375 -1.1875 0.609375 -2.3125q0 -0.8125 -0.515625 -1.359375q-0.5 -0.546875 -1.234375 -0.546875q-1.203125 0 -1.859375 1.203125l-0.296875 -0.09375q0.421875 -1.5 1.28125 -2.21875q0.859375 -0.71875 1.984375 -0.71875q0.8125 0 1.46875 0.375q0.671875 0.375 1.046875 1.03125q0.375 0.640625 0.375 1.21875q0 1.03125 -0.578125 2.109375q-0.796875 1.4375 -3.453125 4.03125l2.296875 0q0.84375 0 1.09375 -0.0625q0.25 -0.078125 0.40625 -0.25q0.171875 -0.171875 0.4375 -0.703125l0.28125 0l-0.59375 3.0625z" fill-rule="nonzero"/><path fill="#000000" fill-opacity="0.0" d="m460.90704 174.11417l175.9685 0l0 38.771667l-175.9685 0z" fill-rule="evenodd"/><path fill="#000000" d="m541.3874 187.63042l0.265625 3.34375l-0.265625 0q-0.421875 -1.25 -1.078125 -1.875q-0.9375 -0.921875 -2.421875 -0.921875q-2.03125 0 -3.078125 1.609375q-0.890625 1.34375 -0.890625 3.21875q0 1.515625 0.578125 2.765625q0.59375 1.25 1.546875 1.828125q0.953125 0.578125 1.953125 0.578125q0.578125 0 1.125 -0.140625q0.546875 -0.15625 1.0625 -0.4375l0 -3.0625q0 -0.796875 -0.125 -1.046875q-0.125 -0.25 -0.375 -0.375q-0.25 -0.125 -0.890625 -0.125l0 -0.296875l4.09375 0l0 0.296875l-0.1875 0q-0.609375 0 -0.84375 0.40625q-0.15625 0.28125 -0.15625 1.140625l0 3.234375q-0.890625 0.484375 -1.765625 0.71875q-0.875 0.234375 -1.953125 0.234375q-3.0625 0 -4.65625 -1.984375q-1.203125 -1.46875 -1.203125 -3.40625q0 -1.390625 0.671875 -2.671875q0.796875 -1.53125 2.1875 -2.34375q1.171875 -0.6875 2.75 -0.6875q0.578125 0 1.046875 0.09375q0.484375 0.09375 1.34375 0.421875q0.4375 0.15625 0.59375 0.15625q0.140625 0 0.25 -0.125q0.109375 -0.140625 0.125 -0.546875l0.296875 0zm9.0546875 7.296875l-4.109375 0l-0.71875 1.671875q-0.265625 0.609375 -0.265625 0.921875q0 0.234375 0.234375 0.421875q0.234375 0.1875 1.0 0.234375l0 0.296875l-3.34375 0l0 -0.296875q0.671875 -0.109375 0.859375 -0.296875q0.40625 -0.375 0.890625 -1.53125l3.71875 -8.71875l0.28125 0l3.6875 8.8125q0.4375 1.0625 0.796875 1.390625q0.375 0.3125 1.015625 0.34375l0 0.296875l-4.171875 0l0 -0.296875q0.625 -0.03125 0.84375 -0.203125q0.234375 -0.1875 0.234375 -0.4375q0 -0.34375 -0.3125 -1.09375l-0.640625 -1.515625zm-0.21875 -0.578125l-1.796875 -4.28125l-1.84375 4.28125l3.640625 0zm4.2265625 -6.46875l2.890625 0l6.46875 7.9375l0 -6.109375q0 -0.96875 -0.21875 -1.21875q-0.28125 -0.328125 -0.90625 -0.328125l-0.375 0l0 -0.28125l3.6875 0l0 0.28125l-0.375 0q-0.671875 0 -0.953125 0.40625q-0.171875 0.25 -0.171875 1.140625l0 8.9375l-0.28125 0l-6.984375 -8.53125l0 6.515625q0 0.984375 0.21875 1.21875q0.296875 0.328125 0.90625 0.328125l0.375 0l0 0.296875l-3.6875 0l0 -0.296875l0.375 0q0.671875 0 0.953125 -0.40625q0.171875 -0.25 0.171875 -1.140625l0 -7.359375q-0.453125 -0.546875 -0.703125 -0.71875q-0.234375 -0.171875 -0.6875 -0.3125q-0.234375 -0.078125 -0.703125 -0.078125l0 -0.28125z" fill-rule="nonzero"/><path fill="#000000" fill-opacity="0.0" d="m548.8913 127.749344l0 46.362198" fill-rule="evenodd"/><path stroke="#666666" stroke-width="1.0" stroke-linejoin="round" stroke-linecap="butt" stroke-dasharray="4.0,3.0" d="m548.8913 127.749344l0 46.362198" fill-rule="evenodd"/><path fill="#434343" d="m539.4582 118.31628l0 0c0 -5.2097473 4.2233276 -9.433075 9.433105 -9.433075l0 0c2.50177 0 4.901123 0.99383545 6.670166 2.762886c1.769043 1.769043 2.7628784 4.1683807 2.7628784 6.670189l0 0c0 5.2097397 -4.2233276 9.433067 -9.433044 9.433067l0 0c-5.209778 0 -9.433105 -4.2233276 -9.433105 -9.433067z" fill-rule="evenodd"/><path fill="#000000" fill-opacity="0.0" d="m518.4818 67.31233l60.81891 0l0 38.77166l-60.81891 0z" fill-rule="evenodd"/><path fill="#000000" d="m539.5163 91.67233l-6.234375 0l0 -0.171875q2.875 -3.421875 3.484375 -4.59375q0.609375 -1.1875 0.609375 -2.3125q0 -0.8125 -0.515625 -1.359375q-0.5 -0.546875 -1.234375 -0.546875q-1.203125 0 -1.859375 1.203125l-0.296875 -0.09375q0.421875 -1.5 1.28125 -2.21875q0.859375 -0.71875 1.984375 -0.71875q0.8125 0 1.46875 0.375q0.671875 0.375 1.046875 1.03125q0.375 0.640625 0.375 1.21875q0 1.03125 -0.578125 2.109375q-0.796875 1.4375 -3.453125 4.03125l2.296875 0q0.84375 0 1.09375 -0.0625q0.25 -0.078125 0.40625 -0.25q0.171875 -0.171875 0.4375 -0.703125l0.28125 0l-0.59375 3.0625zm8.796875 -5.296875q0 1.578125 -0.453125 2.953125q-0.265625 0.84375 -0.71875 1.390625q-0.4375 0.53125 -1.015625 0.859375q-0.5625 0.3125 -1.234375 0.3125q-0.765625 0 -1.390625 -0.390625q-0.609375 -0.390625 -1.09375 -1.125q-0.34375 -0.53125 -0.59375 -1.40625q-0.34375 -1.203125 -0.34375 -2.46875q0 -1.734375 0.484375 -3.171875q0.40625 -1.203125 1.21875 -1.828125q0.8125 -0.640625 1.71875 -0.640625q0.921875 0 1.71875 0.625q0.796875 0.625 1.171875 1.6875q0.53125 1.46875 0.53125 3.203125zm-2.40625 -0.015625q0 -2.78125 -0.03125 -3.25q-0.078125 -1.078125 -0.375 -1.46875q-0.203125 -0.25 -0.640625 -0.25q-0.328125 0 -0.53125 0.1875q-0.28125 0.28125 -0.390625 0.96875q-0.09375 0.6875 -0.09375 4.828125q0 2.25 0.15625 3.015625q0.109375 0.546875 0.328125 0.734375q0.21875 0.1875 0.578125 0.1875q0.390625 0 0.59375 -0.25q0.328125 -0.4375 0.375 -1.34375l0.03125 -3.359375zm8.203125 -5.5l0 8.65625q0 0.984375 0.078125 1.25q0.09375 0.265625 0.359375 0.4375q0.28125 0.171875 0.875 0.171875l0.25 0l0 0.296875l-5.578125 0l0 -0.296875l0.28125 0q0.671875 0 0.953125 -0.15625q0.296875 -0.15625 0.390625 -0.421875q0.109375 -0.28125 0.109375 -1.28125l0 -5.484375q0 -0.734375 -0.078125 -0.921875q-0.0625 -0.1875 -0.25 -0.3125q-0.1875 -0.125 -0.4375 -0.125q-0.40625 0 -0.96875 0.25l-0.140625 -0.28125l3.890625 -1.78125l0.265625 0zm3.1875 6.8125l5.03125 -6.8125l0.953125 0l0 6.8125l0.96875 0l0 1.625l-0.96875 0l0 2.375l-2.15625 0l0 -2.375l-3.828125 0l0 -1.625zm0.75 0l3.078125 0l0 -4.171875l-3.078125 4.171875z" fill-rule="nonzero"/><path fill="#000000" fill-opacity="0.0" d="m548.20856 20.505249l175.9685 0l0 38.771652l-175.9685 0z" fill-rule="evenodd"/><path fill="#000000" d="m623.4545 44.86525l-2.828125 0l-3.578125 -4.953125q-0.40625 0.015625 -0.65625 0.015625q-0.09375 0 -0.21875 0q-0.109375 -0.015625 -0.234375 -0.015625l0 3.078125q0 1.0 0.21875 1.234375q0.296875 0.34375 0.890625 0.34375l0.40625 0l0 0.296875l-4.53125 0l0 -0.296875l0.390625 0q0.671875 0 0.96875 -0.4375q0.15625 -0.234375 0.15625 -1.140625l0 -6.84375q0 -1.0 -0.21875 -1.25q-0.296875 -0.34375 -0.90625 -0.34375l-0.390625 0l0 -0.28125l3.859375 0q1.6875 0 2.484375 0.25q0.796875 0.234375 1.359375 0.90625q0.5625 0.65625 0.5625 1.5625q0 0.984375 -0.640625 1.703125q-0.640625 0.71875 -1.96875 1.015625l2.1875 3.03125q0.75 1.046875 1.28125 1.390625q0.546875 0.34375 1.40625 0.4375l0 0.296875zm-7.515625 -5.453125q0.140625 0 0.25 0.015625q0.109375 0 0.1875 0q1.515625 0 2.28125 -0.65625q0.765625 -0.65625 0.765625 -1.671875q0 -1.0 -0.625 -1.609375q-0.609375 -0.625 -1.640625 -0.625q-0.453125 0 -1.21875 0.140625l0 4.40625zm9.078125 0.984375q0 1.59375 0.78125 2.5q0.78125 0.90625 1.828125 0.90625q0.703125 0 1.21875 -0.375q0.53125 -0.390625 0.875 -1.328125l0.25 0.15625q-0.171875 1.0625 -0.96875 1.953125q-0.78125 0.875 -1.96875 0.875q-1.28125 0 -2.203125 -1.0q-0.921875 -1.015625 -0.921875 -2.703125q0 -1.84375 0.9375 -2.859375q0.953125 -1.03125 2.375 -1.03125q1.203125 0 1.96875 0.796875q0.78125 0.78125 0.78125 2.109375l-4.953125 0zm0 -0.453125l3.3125 0q-0.03125 -0.6875 -0.15625 -0.96875q-0.203125 -0.4375 -0.59375 -0.6875q-0.375 -0.25 -0.796875 -0.25q-0.65625 0 -1.171875 0.515625q-0.5 0.5 -0.59375 1.390625zm10.5234375 -2.453125l0 2.4375l-0.25 0q-0.296875 -1.140625 -0.765625 -1.546875q-0.46875 -0.421875 -1.1875 -0.421875q-0.546875 0 -0.890625 0.296875q-0.328125 0.28125 -0.328125 0.625q0 0.4375 0.25 0.75q0.25 0.328125 0.984375 0.6875l1.140625 0.546875q1.59375 0.78125 1.59375 2.046875q0 0.96875 -0.75 1.578125q-0.734375 0.59375 -1.640625 0.59375q-0.65625 0 -1.5 -0.234375q-0.265625 -0.078125 -0.421875 -0.078125q-0.1875 0 -0.28125 0.203125l-0.265625 0l0 -2.5625l0.265625 0q0.21875 1.09375 0.828125 1.65625q0.625 0.546875 1.390625 0.546875q0.53125 0 0.875 -0.3125q0.34375 -0.3125 0.34375 -0.765625q0 -0.53125 -0.390625 -0.890625q-0.375 -0.375 -1.515625 -0.9375q-1.125 -0.5625 -1.46875 -1.015625q-0.359375 -0.453125 -0.359375 -1.125q0 -0.890625 0.609375 -1.484375q0.609375 -0.59375 1.5625 -0.59375q0.421875 0 1.03125 0.1875q0.390625 0.109375 0.53125 0.109375q0.125 0 0.1875 -0.046875q0.078125 -0.0625 0.171875 -0.25l0.25 0zm0.8828125 -3.21875l2.890625 0l6.46875 7.9375l0 -6.109375q0 -0.96875 -0.21875 -1.21875q-0.28125 -0.328125 -0.90625 -0.328125l-0.375 0l0 -0.28125l3.6875 0l0 0.28125l-0.375 0q-0.671875 0 -0.953125 0.40625q-0.171875 0.25 -0.171875 1.140625l0 8.9375l-0.28125 0l-6.984375 -8.53125l0 6.515625q0 0.984375 0.21875 1.21875q0.296875 0.328125 0.90625 0.328125l0.375 0l0 0.296875l-3.6875 0l0 -0.296875l0.375 0q0.671875 0 0.953125 -0.40625q0.171875 -0.25 0.171875 -1.140625l0 -7.359375q-0.453125 -0.546875 -0.703125 -0.71875q-0.234375 -0.171875 -0.6875 -0.3125q-0.234375 -0.078125 -0.703125 -0.078125l0 -0.28125zm13.4765625 6.125q0 1.59375 0.78125 2.5q0.78125 0.90625 1.828125 0.90625q0.703125 0 1.21875 -0.375q0.53125 -0.390625 0.875 -1.328125l0.25 0.15625q-0.171875 1.0625 -0.96875 1.953125q-0.78125 0.875 -1.96875 0.875q-1.28125 0 -2.203125 -1.0q-0.921875 -1.015625 -0.921875 -2.703125q0 -1.84375 0.9375 -2.859375q0.953125 -1.03125 2.375 -1.03125q1.203125 0 1.96875 0.796875q0.78125 0.78125 0.78125 2.109375l-4.953125 0zm0 -0.453125l3.3125 0q-0.03125 -0.6875 -0.15625 -0.96875q-0.203125 -0.4375 -0.59375 -0.6875q-0.375 -0.25 -0.796875 -0.25q-0.65625 0 -1.171875 0.515625q-0.5 0.5 -0.59375 1.390625zm7.9765625 -4.59375l0 2.359375l1.671875 0l0 0.546875l-1.671875 0l0 4.640625q0 0.6875 0.203125 0.9375q0.203125 0.234375 0.515625 0.234375q0.25 0 0.484375 -0.15625q0.25 -0.15625 0.390625 -0.46875l0.296875 0q-0.265625 0.765625 -0.765625 1.15625q-0.5 0.390625 -1.03125 0.390625q-0.359375 0 -0.703125 -0.203125q-0.34375 -0.203125 -0.515625 -0.578125q-0.15625 -0.375 -0.15625 -1.140625l0 -4.8125l-1.140625 0l0 -0.265625q0.4375 -0.171875 0.875 -0.578125q0.453125 -0.40625 0.8125 -0.96875q0.171875 -0.296875 0.5 -1.09375l0.234375 0z" fill-rule="nonzero"/><path fill="#000000" fill-opacity="0.0" d="m636.1928 59.2769l0 49.6063" fill-rule="evenodd"/><path stroke="#666666" stroke-width="1.0" stroke-linejoin="round" stroke-linecap="butt" stroke-dasharray="4.0,3.0" d="m636.1928 59.2769l0 49.6063" fill-rule="evenodd"/><path fill="#434343" d="m626.7597 118.3189l0 0c0 -5.2097473 4.2233276 -9.433075 9.433105 -9.433075l0 0c2.50177 0 4.901123 0.99383545 6.670166 2.762886c1.769043 1.769043 2.7628784 4.1683807 2.7628784 6.670189l0 0c0 5.2097397 -4.2233276 9.433067 -9.433044 9.433067l0 0c-5.209778 0 -9.433105 -4.2233276 -9.433105 -9.433067z" fill-rule="evenodd"/><path fill="#000000" fill-opacity="0.0" d="m605.7833 127.755905l60.81891 0l0 38.771652l-60.81891 0z" fill-rule="evenodd"/><path fill="#000000" d="m626.8178 152.1159l-6.234375 0l0 -0.171875q2.875 -3.421875 3.484375 -4.59375q0.609375 -1.1875 0.609375 -2.3125q0 -0.8125 -0.515625 -1.359375q-0.5 -0.546875 -1.234375 -0.546875q-1.203125 0 -1.859375 1.203125l-0.296875 -0.09375q0.421875 -1.5 1.28125 -2.21875q0.859375 -0.71875 1.984375 -0.71875q0.8125 0 1.46875 0.375q0.671875 0.375 1.046875 1.03125q0.375 0.640625 0.375 1.21875q0 1.03125 -0.578125 2.109375q-0.796875 1.4375 -3.453125 4.03125l2.296875 0q0.84375 0 1.09375 -0.0625q0.25 -0.078125 0.40625 -0.25q0.171875 -0.171875 0.4375 -0.703125l0.28125 0l-0.59375 3.0625zm8.796875 -5.296875q0 1.578125 -0.453125 2.953125q-0.265625 0.84375 -0.71875 1.390625q-0.4375 0.53125 -1.015625 0.859375q-0.5625 0.3125 -1.234375 0.3125q-0.765625 0 -1.390625 -0.390625q-0.609375 -0.390625 -1.09375 -1.125q-0.34375 -0.53125 -0.59375 -1.40625q-0.34375 -1.203125 -0.34375 -2.46875q0 -1.734375 0.484375 -3.171875q0.40625 -1.203125 1.21875 -1.828125q0.8125 -0.640625 1.71875 -0.640625q0.921875 0 1.71875 0.625q0.796875 0.625 1.171875 1.6875q0.53125 1.46875 0.53125 3.203125zm-2.40625 -0.015625q0 -2.78125 -0.03125 -3.25q-0.078125 -1.078125 -0.375 -1.46875q-0.203125 -0.25 -0.640625 -0.25q-0.328125 0 -0.53125 0.1875q-0.28125 0.28125 -0.390625 0.96875q-0.09375 0.6875 -0.09375 4.828125q0 2.25 0.15625 3.015625q0.109375 0.546875 0.328125 0.734375q0.21875 0.1875 0.578125 0.1875q0.390625 0 0.59375 -0.25q0.328125 -0.4375 0.375 -1.34375l0.03125 -3.359375zm8.203125 -5.5l0 8.65625q0 0.984375 0.078125 1.25q0.09375 0.265625 0.359375 0.4375q0.28125 0.171875 0.875 0.171875l0.25 0l0 0.296875l-5.578125 0l0 -0.296875l0.28125 0q0.671875 0 0.953125 -0.15625q0.296875 -0.15625 0.390625 -0.421875q0.109375 -0.28125 0.109375 -1.28125l0 -5.484375q0 -0.734375 -0.078125 -0.921875q-0.0625 -0.1875 -0.25 -0.3125q-0.1875 -0.125 -0.4375 -0.125q-0.40625 0 -0.96875 0.25l-0.140625 -0.28125l3.890625 -1.78125l0.265625 0zm10.296875 0l0 0.21875q-1.40625 0.359375 -2.265625 0.921875q-0.859375 0.5625 -1.359375 1.375q-0.484375 0.8125 -0.765625 2.0q0.34375 -0.234375 0.578125 -0.296875q0.5 -0.15625 1.015625 -0.15625q1.1875 0 1.984375 0.859375q0.796875 0.859375 0.796875 2.359375q0 1.046875 -0.4375 1.921875q-0.421875 0.875 -1.21875 1.359375q-0.78125 0.46875 -1.6875 0.46875q-0.96875 0 -1.796875 -0.53125q-0.828125 -0.546875 -1.296875 -1.578125q-0.46875 -1.03125 -0.46875 -2.234375q0 -1.78125 0.859375 -3.3125q0.859375 -1.546875 2.421875 -2.453125q1.578125 -0.90625 3.640625 -0.921875zm-4.484375 5.15625q-0.0625 1.078125 -0.0625 1.578125q0 1.078125 0.203125 2.09375q0.203125 1.0 0.5625 1.40625q0.265625 0.28125 0.609375 0.28125q0.359375 0 0.640625 -0.40625q0.28125 -0.421875 0.28125 -1.703125q0 -2.15625 -0.515625 -2.984375q-0.34375 -0.53125 -0.90625 -0.53125q-0.3125 0 -0.8125 0.265625z" fill-rule="nonzero"/><path fill="#000000" fill-opacity="0.0" d="m587.8992 174.11417l175.9685 0l0 38.771667l-175.9685 0z" fill-rule="evenodd"/><path fill="#000000" d="m645.4498 187.88042l0.109375 2.484375l-0.296875 0q-0.078125 -0.65625 -0.234375 -0.9375q-0.234375 -0.453125 -0.640625 -0.671875q-0.40625 -0.21875 -1.0625 -0.21875l-1.484375 0l0 8.09375q0 0.984375 0.203125 1.21875q0.296875 0.328125 0.921875 0.328125l0.359375 0l0 0.296875l-4.484375 0l0 -0.296875l0.375 0q0.671875 0 0.953125 -0.40625q0.171875 -0.25 0.171875 -1.140625l0 -8.09375l-1.28125 0q-0.734375 0 -1.046875 0.109375q-0.40625 0.15625 -0.703125 0.578125q-0.28125 0.421875 -0.34375 1.140625l-0.296875 0l0.125 -2.484375l8.65625 0zm2.5390625 3.21875l0 1.609375q0.90625 -1.609375 1.84375 -1.609375q0.4375 0 0.71875 0.265625q0.28125 0.265625 0.28125 0.609375q0 0.296875 -0.203125 0.515625q-0.203125 0.203125 -0.484375 0.203125q-0.28125 0 -0.625 -0.265625q-0.328125 -0.265625 -0.5 -0.265625q-0.140625 0 -0.296875 0.15625q-0.359375 0.3125 -0.734375 1.046875l0 3.4375q0 0.59375 0.15625 0.890625q0.09375 0.21875 0.34375 0.359375q0.265625 0.140625 0.75 0.140625l0 0.28125l-3.65625 0l0 -0.28125q0.546875 0 0.8125 -0.171875q0.1875 -0.125 0.265625 -0.40625q0.046875 -0.125 0.046875 -0.75l0 -2.78125q0 -1.25 -0.0625 -1.484375q-0.046875 -0.234375 -0.1875 -0.34375q-0.125 -0.109375 -0.328125 -0.109375q-0.25 0 -0.546875 0.109375l-0.078125 -0.28125l2.15625 -0.875l0.328125 0zm7.296875 6.34375q-1.109375 0.84375 -1.390625 0.984375q-0.421875 0.203125 -0.890625 0.203125q-0.75 0 -1.234375 -0.515625q-0.46875 -0.515625 -0.46875 -1.34375q0 -0.515625 0.234375 -0.90625q0.3125 -0.53125 1.109375 -1.0q0.796875 -0.46875 2.640625 -1.140625l0 -0.28125q0 -1.0625 -0.34375 -1.453125q-0.34375 -0.40625 -0.984375 -0.40625q-0.5 0 -0.78125 0.265625q-0.296875 0.265625 -0.296875 0.609375l0.015625 0.453125q0 0.359375 -0.1875 0.5625q-0.1875 0.1875 -0.484375 0.1875q-0.28125 0 -0.46875 -0.203125q-0.1875 -0.203125 -0.1875 -0.5625q0 -0.671875 0.6875 -1.234375q0.6875 -0.5625 1.9375 -0.5625q0.953125 0 1.5625 0.328125q0.453125 0.234375 0.671875 0.75q0.140625 0.34375 0.140625 1.375l0 2.4375q0 1.015625 0.03125 1.25q0.046875 0.234375 0.140625 0.3125q0.09375 0.078125 0.203125 0.078125q0.125 0 0.21875 -0.0625q0.171875 -0.09375 0.640625 -0.5625l0 0.4375q-0.875 1.171875 -1.671875 1.171875q-0.390625 0 -0.625 -0.265625q-0.21875 -0.265625 -0.21875 -0.90625zm0 -0.515625l0 -2.71875q-1.1875 0.46875 -1.53125 0.65625q-0.609375 0.34375 -0.875 0.71875q-0.265625 0.375 -0.265625 0.828125q0 0.5625 0.328125 0.9375q0.34375 0.359375 0.78125 0.359375q0.59375 0 1.5625 -0.78125zm5.1328125 -4.3125q1.25 -1.515625 2.390625 -1.515625q0.59375 0 1.015625 0.296875q0.421875 0.296875 0.671875 0.96875q0.171875 0.46875 0.171875 1.4375l0 3.046875q0 0.6875 0.109375 0.921875q0.078125 0.203125 0.265625 0.3125q0.203125 0.109375 0.71875 0.109375l0 0.28125l-3.546875 0l0 -0.28125l0.15625 0q0.5 0 0.6875 -0.15625q0.203125 -0.15625 0.28125 -0.453125q0.03125 -0.109375 0.03125 -0.734375l0 -2.921875q0 -0.984375 -0.25 -1.421875q-0.25 -0.4375 -0.859375 -0.4375q-0.921875 0 -1.84375 1.015625l0 3.765625q0 0.734375 0.078125 0.90625q0.109375 0.21875 0.296875 0.328125q0.203125 0.109375 0.78125 0.109375l0 0.28125l-3.53125 0l0 -0.28125l0.15625 0q0.546875 0 0.734375 -0.28125q0.1875 -0.28125 0.1875 -1.0625l0 -2.65625q0 -1.28125 -0.0625 -1.5625q-0.046875 -0.28125 -0.171875 -0.375q-0.125 -0.109375 -0.328125 -0.109375q-0.21875 0 -0.515625 0.109375l-0.125 -0.28125l2.15625 -0.875l0.34375 0l0 1.515625zm10.53125 -1.515625l0 2.4375l-0.25 0q-0.296875 -1.140625 -0.765625 -1.546875q-0.46875 -0.421875 -1.1875 -0.421875q-0.546875 0 -0.890625 0.296875q-0.328125 0.28125 -0.328125 0.625q0 0.4375 0.25 0.75q0.25 0.328125 0.984375 0.6875l1.140625 0.546875q1.59375 0.78125 1.59375 2.046875q0 0.96875 -0.75 1.578125q-0.734375 0.59375 -1.640625 0.59375q-0.65625 0 -1.5 -0.234375q-0.265625 -0.078125 -0.421875 -0.078125q-0.1875 0 -0.28125 0.203125l-0.265625 0l0 -2.5625l0.265625 0q0.21875 1.09375 0.828125 1.65625q0.625 0.546875 1.390625 0.546875q0.53125 0 0.875 -0.3125q0.34375 -0.3125 0.34375 -0.765625q0 -0.53125 -0.390625 -0.890625q-0.375 -0.375 -1.515625 -0.9375q-1.125 -0.5625 -1.46875 -1.015625q-0.359375 -0.453125 -0.359375 -1.125q0 -0.890625 0.609375 -1.484375q0.609375 -0.59375 1.5625 -0.59375q0.421875 0 1.03125 0.1875q0.390625 0.109375 0.53125 0.109375q0.125 0 0.1875 -0.046875q0.078125 -0.0625 0.171875 -0.25l0.25 0zm4.3984375 0.78125l0 4.703125q0 1.0 0.21875 1.265625q0.296875 0.34375 0.78125 0.34375l0.640625 0l0 0.28125l-4.265625 0l0 -0.28125l0.3125 0q0.3125 0 0.5625 -0.15625q0.265625 -0.15625 0.359375 -0.421875q0.109375 -0.265625 0.109375 -1.03125l0 -4.703125l-1.390625 0l0 -0.5625l1.390625 0l0 -0.46875q0 -1.078125 0.34375 -1.8125q0.34375 -0.75 1.046875 -1.203125q0.703125 -0.453125 1.59375 -0.453125q0.8125 0 1.5 0.53125q0.453125 0.34375 0.453125 0.78125q0 0.234375 -0.203125 0.453125q-0.203125 0.203125 -0.4375 0.203125q-0.171875 0 -0.375 -0.125q-0.203125 -0.140625 -0.5 -0.5625q-0.28125 -0.421875 -0.515625 -0.578125q-0.25 -0.140625 -0.546875 -0.140625q-0.359375 0 -0.609375 0.1875q-0.25 0.1875 -0.359375 0.59375q-0.109375 0.40625 -0.109375 2.078125l0 0.515625l1.84375 0l0 0.5625l-1.84375 0zm6.03125 -0.78125q1.625 0 2.609375 1.234375q0.84375 1.0625 0.84375 2.421875q0 0.96875 -0.46875 1.953125q-0.453125 0.984375 -1.265625 1.484375q-0.8125 0.5 -1.796875 0.5q-1.625 0 -2.578125 -1.296875q-0.796875 -1.078125 -0.796875 -2.4375q0 -0.984375 0.484375 -1.953125q0.484375 -0.96875 1.28125 -1.4375q0.796875 -0.46875 1.6875 -0.46875zm-0.234375 0.515625q-0.421875 0 -0.84375 0.25q-0.40625 0.234375 -0.671875 0.859375q-0.25 0.609375 -0.25 1.578125q0 1.5625 0.609375 2.703125q0.625 1.125 1.640625 1.125q0.765625 0 1.25 -0.625q0.5 -0.625 0.5 -2.140625q0 -1.90625 -0.828125 -3.0q-0.546875 -0.75 -1.40625 -0.75zm6.828125 -0.515625l0 1.609375q0.90625 -1.609375 1.84375 -1.609375q0.4375 0 0.71875 0.265625q0.28125 0.265625 0.28125 0.609375q0 0.296875 -0.203125 0.515625q-0.203125 0.203125 -0.484375 0.203125q-0.28125 0 -0.625 -0.265625q-0.328125 -0.265625 -0.5 -0.265625q-0.140625 0 -0.296875 0.15625q-0.359375 0.3125 -0.734375 1.046875l0 3.4375q0 0.59375 0.15625 0.890625q0.09375 0.21875 0.34375 0.359375q0.265625 0.140625 0.75 0.140625l0 0.28125l-3.65625 0l0 -0.28125q0.546875 0 0.8125 -0.171875q0.1875 -0.125 0.265625 -0.40625q0.046875 -0.125 0.046875 -0.75l0 -2.78125q0 -1.25 -0.0625 -1.484375q-0.046875 -0.234375 -0.1875 -0.34375q-0.125 -0.109375 -0.328125 -0.109375q-0.25 0 -0.546875 0.109375l-0.078125 -0.28125l2.15625 -0.875l0.328125 0zm5.359375 1.53125q0.78125 -0.78125 0.921875 -0.90625q0.359375 -0.296875 0.765625 -0.453125q0.40625 -0.171875 0.796875 -0.171875q0.671875 0 1.15625 0.390625q0.484375 0.390625 0.65625 1.140625q0.796875 -0.9375 1.34375 -1.234375q0.5625 -0.296875 1.15625 -0.296875q0.5625 0 1.0 0.296875q0.453125 0.296875 0.703125 0.953125q0.171875 0.453125 0.171875 1.421875l0 3.078125q0 0.671875 0.109375 0.921875q0.078125 0.171875 0.28125 0.296875q0.21875 0.125 0.6875 0.125l0 0.28125l-3.53125 0l0 -0.28125l0.15625 0q0.453125 0 0.71875 -0.1875q0.171875 -0.125 0.25 -0.390625q0.03125 -0.140625 0.03125 -0.765625l0 -3.078125q0 -0.875 -0.203125 -1.234375q-0.3125 -0.5 -0.984375 -0.5q-0.40625 0 -0.828125 0.21875q-0.421875 0.203125 -1.015625 0.765625l-0.015625 0.078125l0.015625 0.34375l0 3.40625q0 0.734375 0.078125 0.921875q0.09375 0.171875 0.3125 0.296875q0.234375 0.125 0.78125 0.125l0 0.28125l-3.625 0l0 -0.28125q0.59375 0 0.8125 -0.140625q0.234375 -0.140625 0.3125 -0.421875q0.046875 -0.140625 0.046875 -0.78125l0 -3.078125q0 -0.875 -0.265625 -1.25q-0.34375 -0.5 -0.953125 -0.5q-0.421875 0 -0.84375 0.21875q-0.640625 0.34375 -1.0 0.78125l0 3.828125q0 0.703125 0.09375 0.921875q0.109375 0.203125 0.296875 0.3125q0.1875 0.109375 0.78125 0.109375l0 0.28125l-3.546875 0l0 -0.28125q0.5 0 0.6875 -0.109375q0.203125 -0.109375 0.296875 -0.328125q0.109375 -0.234375 0.109375 -0.90625l0 -2.734375q0 -1.171875 -0.078125 -1.515625q-0.046875 -0.265625 -0.171875 -0.359375q-0.109375 -0.09375 -0.3125 -0.09375q-0.21875 0 -0.53125 0.109375l-0.109375 -0.28125l2.15625 -0.875l0.328125 0l0 1.53125zm11.5234375 1.375q0 1.59375 0.78125 2.5q0.78125 0.90625 1.828125 0.90625q0.703125 0 1.21875 -0.375q0.53125 -0.390625 0.875 -1.328125l0.25 0.15625q-0.171875 1.0625 -0.96875 1.953125q-0.78125 0.875 -1.96875 0.875q-1.28125 0 -2.203125 -1.0q-0.921875 -1.015625 -0.921875 -2.703125q0 -1.84375 0.9375 -2.859375q0.953125 -1.03125 2.375 -1.03125q1.203125 0 1.96875 0.796875q0.78125 0.78125 0.78125 2.109375l-4.953125 0zm0 -0.453125l3.3125 0q-0.03125 -0.6875 -0.15625 -0.96875q-0.203125 -0.4375 -0.59375 -0.6875q-0.375 -0.25 -0.796875 -0.25q-0.65625 0 -1.171875 0.515625q-0.5 0.5 -0.59375 1.390625zm7.9921875 -2.453125l0 1.609375q0.90625 -1.609375 1.84375 -1.609375q0.4375 0 0.71875 0.265625q0.28125 0.265625 0.28125 0.609375q0 0.296875 -0.203125 0.515625q-0.203125 0.203125 -0.484375 0.203125q-0.28125 0 -0.625 -0.265625q-0.328125 -0.265625 -0.5 -0.265625q-0.140625 0 -0.296875 0.15625q-0.359375 0.3125 -0.734375 1.046875l0 3.4375q0 0.59375 0.15625 0.890625q0.09375 0.21875 0.34375 0.359375q0.265625 0.140625 0.75 0.140625l0 0.28125l-3.65625 0l0 -0.28125q0.546875 0 0.8125 -0.171875q0.1875 -0.125 0.265625 -0.40625q0.046875 -0.125 0.046875 -0.75l0 -2.78125q0 -1.25 -0.0625 -1.484375q-0.046875 -0.234375 -0.1875 -0.34375q-0.125 -0.109375 -0.328125 -0.109375q-0.25 0 -0.546875 0.109375l-0.078125 -0.28125l2.15625 -0.875l0.328125 0z" fill-rule="nonzero"/><path fill="#000000" fill-opacity="0.0" d="m675.8834 127.749344l0 46.362198" fill-rule="evenodd"/><path stroke="#666666" stroke-width="1.0" stroke-linejoin="round" stroke-linecap="butt" stroke-dasharray="4.0,3.0" d="m675.8834 127.749344l0 46.362198" fill-rule="evenodd"/><path fill="#434343" d="m666.4503 118.31628l0 0c0 -5.2097473 4.2233276 -9.433075 9.433105 -9.433075l0 0c2.50177 0 4.901123 0.99383545 6.670166 2.762886c1.769043 1.769043 2.7628784 4.1683807 2.7628784 6.670189l0 0c0 5.2097397 -4.2233276 9.433067 -9.433044 9.433067l0 0c-5.209778 0 -9.433105 -4.2233276 -9.433105 -9.433067z" fill-rule="evenodd"/><path fill="#000000" fill-opacity="0.0" d="m645.47394 67.31233l60.81891 0l0 38.77166l-60.81891 0z" fill-rule="evenodd"/><path fill="#000000" d="m666.5084 91.67233l-6.234375 0l0 -0.171875q2.875 -3.421875 3.484375 -4.59375q0.609375 -1.1875 0.609375 -2.3125q0 -0.8125 -0.515625 -1.359375q-0.5 -0.546875 -1.234375 -0.546875q-1.203125 0 -1.859375 1.203125l-0.296875 -0.09375q0.421875 -1.5 1.28125 -2.21875q0.859375 -0.71875 1.984375 -0.71875q0.8125 0 1.46875 0.375q0.671875 0.375 1.046875 1.03125q0.375 0.640625 0.375 1.21875q0 1.03125 -0.578125 2.109375q-0.796875 1.4375 -3.453125 4.03125l2.296875 0q0.84375 0 1.09375 -0.0625q0.25 -0.078125 0.40625 -0.25q0.171875 -0.171875 0.4375 -0.703125l0.28125 0l-0.59375 3.0625zm8.796875 -5.296875q0 1.578125 -0.453125 2.953125q-0.265625 0.84375 -0.71875 1.390625q-0.4375 0.53125 -1.015625 0.859375q-0.5625 0.3125 -1.234375 0.3125q-0.765625 0 -1.390625 -0.390625q-0.609375 -0.390625 -1.09375 -1.125q-0.34375 -0.53125 -0.59375 -1.40625q-0.34375 -1.203125 -0.34375 -2.46875q0 -1.734375 0.484375 -3.171875q0.40625 -1.203125 1.21875 -1.828125q0.8125 -0.640625 1.71875 -0.640625q0.921875 0 1.71875 0.625q0.796875 0.625 1.171875 1.6875q0.53125 1.46875 0.53125 3.203125zm-2.40625 -0.015625q0 -2.78125 -0.03125 -3.25q-0.078125 -1.078125 -0.375 -1.46875q-0.203125 -0.25 -0.640625 -0.25q-0.328125 0 -0.53125 0.1875q-0.28125 0.28125 -0.390625 0.96875q-0.09375 0.6875 -0.09375 4.828125q0 2.25 0.15625 3.015625q0.109375 0.546875 0.328125 0.734375q0.21875 0.1875 0.578125 0.1875q0.390625 0 0.59375 -0.25q0.328125 -0.4375 0.375 -1.34375l0.03125 -3.359375zm8.203125 -5.5l0 8.65625q0 0.984375 0.078125 1.25q0.09375 0.265625 0.359375 0.4375q0.28125 0.171875 0.875 0.171875l0.25 0l0 0.296875l-5.578125 0l0 -0.296875l0.28125 0q0.671875 0 0.953125 -0.15625q0.296875 -0.15625 0.390625 -0.421875q0.109375 -0.28125 0.109375 -1.28125l0 -5.484375q0 -0.734375 -0.078125 -0.921875q-0.0625 -0.1875 -0.25 -0.3125q-0.1875 -0.125 -0.4375 -0.125q-0.40625 0 -0.96875 0.25l-0.140625 -0.28125l3.890625 -1.78125l0.265625 0zm5.625 11.03125l2.875 -8.75l-2.1875 0q-1.296875 0 -1.9375 0.34375q-0.453125 0.234375 -0.75 0.875l-0.296875 0l0.765625 -3.28125l6.3125 0l-3.5625 10.8125l-1.21875 0z" fill-rule="nonzero"/><path fill="#000000" fill-opacity="0.0" d="m677.3739 20.505249l175.9685 0l0 38.771652l-175.9685 0z" fill-rule="evenodd"/><path fill="#000000" d="m710.3777 44.86525l0 -0.296875l0.390625 0q0.671875 0 0.953125 -0.421875q0.171875 -0.265625 0.171875 -1.15625l0 -6.84375q0 -1.0 -0.21875 -1.25q-0.296875 -0.34375 -0.90625 -0.34375l-0.390625 0l0 -0.28125l4.3125 0q2.375 0 3.609375 0.546875q1.234375 0.53125 1.984375 1.796875q0.765625 1.25 0.765625 2.890625q0 2.21875 -1.34375 3.703125q-1.515625 1.65625 -4.59375 1.65625l-4.734375 0zm3.015625 -0.765625q1.0 0.21875 1.671875 0.21875q1.8125 0 3.0 -1.265625q1.203125 -1.28125 1.203125 -3.46875q0 -2.1875 -1.203125 -3.453125q-1.1875 -1.265625 -3.0625 -1.265625q-0.703125 0 -1.609375 0.21875l0 9.015625zm8.5390625 0.765625l0 -0.296875l0.390625 0q0.671875 0 0.953125 -0.421875q0.171875 -0.265625 0.171875 -1.15625l0 -6.84375q0 -1.0 -0.21875 -1.25q-0.296875 -0.34375 -0.90625 -0.34375l-0.390625 0l0 -0.28125l4.3125 0q2.375 0 3.609375 0.546875q1.234375 0.53125 1.984375 1.796875q0.765625 1.25 0.765625 2.890625q0 2.21875 -1.34375 3.703125q-1.515625 1.65625 -4.59375 1.65625l-4.734375 0zm3.015625 -0.765625q1.0 0.21875 1.671875 0.21875q1.8125 0 3.0 -1.265625q1.203125 -1.28125 1.203125 -3.46875q0 -2.1875 -1.203125 -3.453125q-1.1875 -1.265625 -3.0625 -1.265625q-0.703125 0 -1.609375 0.21875l0 9.015625zm14.8046875 0.765625l-4.09375 -8.921875l0 7.078125q0 0.984375 0.21875 1.21875q0.28125 0.328125 0.90625 0.328125l0.375 0l0 0.296875l-3.6875 0l0 -0.296875l0.375 0q0.671875 0 0.953125 -0.40625q0.171875 -0.25 0.171875 -1.140625l0 -6.921875q0 -0.703125 -0.15625 -1.015625q-0.109375 -0.21875 -0.40625 -0.375q-0.28125 -0.15625 -0.9375 -0.15625l0 -0.28125l3.0 0l3.84375 8.28125l3.78125 -8.28125l3.0 0l0 0.28125l-0.359375 0q-0.6875 0 -0.96875 0.40625q-0.171875 0.25 -0.171875 1.140625l0 6.921875q0 0.984375 0.21875 1.21875q0.296875 0.328125 0.921875 0.328125l0.359375 0l0 0.296875l-4.5 0l0 -0.296875l0.375 0q0.6875 0 0.953125 -0.40625q0.171875 -0.25 0.171875 -1.140625l0 -7.078125l-4.078125 8.921875l-0.265625 0zm16.242188 -1.03125q-1.109375 0.84375 -1.390625 0.984375q-0.421875 0.203125 -0.890625 0.203125q-0.75 0 -1.234375 -0.515625q-0.46875 -0.515625 -0.46875 -1.34375q0 -0.515625 0.234375 -0.90625q0.3125 -0.53125 1.109375 -1.0q0.796875 -0.46875 2.640625 -1.140625l0 -0.28125q0 -1.0625 -0.34375 -1.453125q-0.34375 -0.40625 -0.984375 -0.40625q-0.5 0 -0.78125 0.265625q-0.296875 0.265625 -0.296875 0.609375l0.015625 0.453125q0 0.359375 -0.1875 0.5625q-0.1875 0.1875 -0.484375 0.1875q-0.28125 0 -0.46875 -0.203125q-0.1875 -0.203125 -0.1875 -0.5625q0 -0.671875 0.6875 -1.234375q0.6875 -0.5625 1.9375 -0.5625q0.953125 0 1.5625 0.328125q0.453125 0.234375 0.671875 0.75q0.140625 0.34375 0.140625 1.375l0 2.4375q0 1.015625 0.03125 1.25q0.046875 0.234375 0.140625 0.3125q0.09375 0.078125 0.203125 0.078125q0.125 0 0.21875 -0.0625q0.171875 -0.09375 0.640625 -0.5625l0 0.4375q-0.875 1.171875 -1.671875 1.171875q-0.390625 0 -0.625 -0.265625q-0.21875 -0.265625 -0.21875 -0.90625zm0 -0.515625l0 -2.71875q-1.1875 0.46875 -1.53125 0.65625q-0.609375 0.34375 -0.875 0.71875q-0.265625 0.375 -0.265625 0.828125q0 0.5625 0.328125 0.9375q0.34375 0.359375 0.78125 0.359375q0.59375 0 1.5625 -0.78125zm5.1328125 -4.3125q1.25 -1.515625 2.390625 -1.515625q0.59375 0 1.015625 0.296875q0.421875 0.296875 0.671875 0.96875q0.171875 0.46875 0.171875 1.4375l0 3.046875q0 0.6875 0.109375 0.921875q0.078125 0.203125 0.265625 0.3125q0.203125 0.109375 0.71875 0.109375l0 0.28125l-3.546875 0l0 -0.28125l0.15625 0q0.5 0 0.6875 -0.15625q0.203125 -0.15625 0.28125 -0.453125q0.03125 -0.109375 0.03125 -0.734375l0 -2.921875q0 -0.984375 -0.25 -1.421875q-0.25 -0.4375 -0.859375 -0.4375q-0.921875 0 -1.84375 1.015625l0 3.765625q0 0.734375 0.078125 0.90625q0.109375 0.21875 0.296875 0.328125q0.203125 0.109375 0.78125 0.109375l0 0.28125l-3.53125 0l0 -0.28125l0.15625 0q0.546875 0 0.734375 -0.28125q0.1875 -0.28125 0.1875 -1.0625l0 -2.65625q0 -1.28125 -0.0625 -1.5625q-0.046875 -0.28125 -0.171875 -0.375q-0.125 -0.109375 -0.328125 -0.109375q-0.21875 0 -0.515625 0.109375l-0.125 -0.28125l2.15625 -0.875l0.34375 0l0 1.515625zm10.96875 5.046875q-0.53125 0.546875 -1.03125 0.796875q-0.5 0.234375 -1.078125 0.234375q-1.171875 0 -2.046875 -0.984375q-0.875 -0.984375 -0.875 -2.515625q0 -1.546875 0.96875 -2.8125q0.96875 -1.28125 2.5 -1.28125q0.9375 0 1.5625 0.59375l0 -1.3125q0 -1.234375 -0.0625 -1.515625q-0.0625 -0.28125 -0.1875 -0.375q-0.125 -0.109375 -0.3125 -0.109375q-0.203125 0 -0.53125 0.125l-0.109375 -0.265625l2.140625 -0.875l0.34375 0l0 8.265625q0 1.265625 0.0625 1.546875q0.0625 0.265625 0.1875 0.375q0.125 0.109375 0.296875 0.109375q0.21875 0 0.5625 -0.125l0.09375 0.265625l-2.125 0.890625l-0.359375 0l0 -1.03125zm0 -0.546875l0 -3.6875q-0.046875 -0.53125 -0.28125 -0.96875q-0.234375 -0.4375 -0.625 -0.65625q-0.390625 -0.21875 -0.75 -0.21875q-0.6875 0 -1.234375 0.609375q-0.703125 0.8125 -0.703125 2.375q0 1.578125 0.6875 2.421875q0.6875 0.84375 1.53125 0.84375q0.703125 0 1.375 -0.71875zm16.265625 -9.484375l0.265625 3.34375l-0.265625 0q-0.421875 -1.25 -1.078125 -1.875q-0.9375 -0.921875 -2.421875 -0.921875q-2.03125 0 -3.078125 1.609375q-0.890625 1.34375 -0.890625 3.21875q0 1.515625 0.578125 2.765625q0.59375 1.25 1.546875 1.828125q0.953125 0.578125 1.953125 0.578125q0.578125 0 1.125 -0.140625q0.546875 -0.15625 1.0625 -0.4375l0 -3.0625q0 -0.796875 -0.125 -1.046875q-0.125 -0.25 -0.375 -0.375q-0.25 -0.125 -0.890625 -0.125l0 -0.296875l4.09375 0l0 0.296875l-0.1875 0q-0.609375 0 -0.84375 0.40625q-0.15625 0.28125 -0.15625 1.140625l0 3.234375q-0.890625 0.484375 -1.765625 0.71875q-0.875 0.234375 -1.953125 0.234375q-3.0625 0 -4.65625 -1.984375q-1.203125 -1.46875 -1.203125 -3.40625q0 -1.390625 0.671875 -2.671875q0.796875 -1.53125 2.1875 -2.34375q1.171875 -0.6875 2.75 -0.6875q0.578125 0 1.046875 0.09375q0.484375 0.09375 1.34375 0.421875q0.4375 0.15625 0.59375 0.15625q0.140625 0 0.25 -0.125q0.109375 -0.140625 0.125 -0.546875l0.296875 0zm5.0078125 5.875l0 3.09375q0 1.0 0.21875 1.234375q0.296875 0.34375 0.90625 0.34375l0.40625 0l0 0.296875l-4.546875 0l0 -0.296875l0.40625 0q0.671875 0 0.953125 -0.4375q0.15625 -0.234375 0.15625 -1.140625l0 -6.84375q0 -1.0 -0.203125 -1.25q-0.3125 -0.34375 -0.90625 -0.34375l-0.40625 0l0 -0.28125l3.890625 0q1.421875 0 2.234375 0.296875q0.828125 0.28125 1.390625 0.984375q0.5625 0.6875 0.5625 1.640625q0 1.296875 -0.859375 2.109375q-0.859375 0.8125 -2.421875 0.8125q-0.375 0 -0.828125 -0.046875q-0.4375 -0.0625 -0.953125 -0.171875zm0 -0.4375q0.421875 0.078125 0.734375 0.125q0.328125 0.03125 0.546875 0.03125q0.8125 0 1.40625 -0.625q0.59375 -0.640625 0.59375 -1.640625q0 -0.6875 -0.28125 -1.265625q-0.28125 -0.59375 -0.796875 -0.890625q-0.515625 -0.296875 -1.171875 -0.296875q-0.40625 0 -1.03125 0.15625l0 4.40625zm14.8828125 -5.1875l0.109375 2.484375l-0.296875 0q-0.078125 -0.65625 -0.234375 -0.9375q-0.234375 -0.453125 -0.640625 -0.671875q-0.40625 -0.21875 -1.0625 -0.21875l-1.484375 0l0 8.09375q0 0.984375 0.203125 1.21875q0.296875 0.328125 0.921875 0.328125l0.359375 0l0 0.296875l-4.484375 0l0 -0.296875l0.375 0q0.671875 0 0.953125 -0.40625q0.171875 -0.25 0.171875 -1.140625l0 -8.09375l-1.28125 0q-0.734375 0 -1.046875 0.109375q-0.40625 0.15625 -0.703125 0.578125q-0.28125 0.421875 -0.34375 1.140625l-0.296875 0l0.125 -2.484375l8.65625 0zm-0.3046875 6.40625l4.03125 0l0 1.1875l-4.03125 0l0 -1.1875zm5.484375 -4.390625q0.453125 -1.078125 1.140625 -1.65625q0.703125 -0.578125 1.734375 -0.578125q1.265625 0 1.953125 0.828125q0.515625 0.609375 0.515625 1.3125q0 1.15625 -1.453125 2.390625q0.96875 0.390625 1.46875 1.109375q0.5 0.703125 0.5 1.65625q0 1.375 -0.875 2.390625q-1.140625 1.3125 -3.296875 1.3125q-1.078125 0 -1.46875 -0.265625q-0.375 -0.265625 -0.375 -0.578125q0 -0.21875 0.171875 -0.390625q0.1875 -0.171875 0.453125 -0.171875q0.1875 0 0.390625 0.0625q0.140625 0.03125 0.609375 0.28125q0.46875 0.25 0.640625 0.296875q0.296875 0.078125 0.625 0.078125q0.796875 0 1.375 -0.609375q0.59375 -0.625 0.59375 -1.46875q0 -0.609375 -0.265625 -1.203125q-0.203125 -0.4375 -0.453125 -0.65625q-0.328125 -0.3125 -0.921875 -0.5625q-0.578125 -0.265625 -1.1875 -0.265625l-0.25 0l0 -0.234375q0.609375 -0.078125 1.234375 -0.4375q0.625 -0.375 0.90625 -0.890625q0.28125 -0.515625 0.28125 -1.125q0 -0.8125 -0.515625 -1.296875q-0.5 -0.5 -1.25 -0.5q-1.203125 0 -2.015625 1.296875l-0.265625 -0.125z" fill-rule="nonzero"/><path fill="#000000" fill-opacity="0.0" d="m765.35815 59.2769l0 49.6063" fill-rule="evenodd"/><path stroke="#666666" stroke-width="1.0" stroke-linejoin="round" stroke-linecap="butt" stroke-dasharray="4.0,3.0" d="m765.35815 59.2769l0 49.6063" fill-rule="evenodd"/><path fill="#434343" d="m755.92505 118.3189l0 0c0 -5.2097473 4.2233276 -9.433075 9.433105 -9.433075l0 0c2.50177 0 4.901123 0.99383545 6.670166 2.762886c1.769043 1.769043 2.7628784 4.1683807 2.7628784 6.670189l0 0c0 5.2097397 -4.2233276 9.433067 -9.433044 9.433067l0 0c-5.209778 0 -9.433105 -4.2233276 -9.433105 -9.433067z" fill-rule="evenodd"/><path fill="#000000" fill-opacity="0.0" d="m734.94867 127.755905l60.81891 0l0 38.771652l-60.81891 0z" fill-rule="evenodd"/><path fill="#000000" d="m755.98315 152.1159l-6.234375 0l0 -0.171875q2.875 -3.421875 3.484375 -4.59375q0.609375 -1.1875 0.609375 -2.3125q0 -0.8125 -0.515625 -1.359375q-0.5 -0.546875 -1.234375 -0.546875q-1.203125 0 -1.859375 1.203125l-0.296875 -0.09375q0.421875 -1.5 1.28125 -2.21875q0.859375 -0.71875 1.984375 -0.71875q0.8125 0 1.46875 0.375q0.671875 0.375 1.046875 1.03125q0.375 0.640625 0.375 1.21875q0 1.03125 -0.578125 2.109375q-0.796875 1.4375 -3.453125 4.03125l2.296875 0q0.84375 0 1.09375 -0.0625q0.25 -0.078125 0.40625 -0.25q0.171875 -0.171875 0.4375 -0.703125l0.28125 0l-0.59375 3.0625zm8.796875 -5.296875q0 1.578125 -0.453125 2.953125q-0.265625 0.84375 -0.71875 1.390625q-0.4375 0.53125 -1.015625 0.859375q-0.5625 0.3125 -1.234375 0.3125q-0.765625 0 -1.390625 -0.390625q-0.609375 -0.390625 -1.09375 -1.125q-0.34375 -0.53125 -0.59375 -1.40625q-0.34375 -1.203125 -0.34375 -2.46875q0 -1.734375 0.484375 -3.171875q0.40625 -1.203125 1.21875 -1.828125q0.8125 -0.640625 1.71875 -0.640625q0.921875 0 1.71875 0.625q0.796875 0.625 1.171875 1.6875q0.53125 1.46875 0.53125 3.203125zm-2.40625 -0.015625q0 -2.78125 -0.03125 -3.25q-0.078125 -1.078125 -0.375 -1.46875q-0.203125 -0.25 -0.640625 -0.25q-0.328125 0 -0.53125 0.1875q-0.28125 0.28125 -0.390625 0.96875q-0.09375 0.6875 -0.09375 4.828125q0 2.25 0.15625 3.015625q0.109375 0.546875 0.328125 0.734375q0.21875 0.1875 0.578125 0.1875q0.390625 0 0.59375 -0.25q0.328125 -0.4375 0.375 -1.34375l0.03125 -3.359375zm9.609375 5.3125l-6.234375 0l0 -0.171875q2.875 -3.421875 3.484375 -4.59375q0.609375 -1.1875 0.609375 -2.3125q0 -0.8125 -0.515625 -1.359375q-0.5 -0.546875 -1.234375 -0.546875q-1.203125 0 -1.859375 1.203125l-0.296875 -0.09375q0.421875 -1.5 1.28125 -2.21875q0.859375 -0.71875 1.984375 -0.71875q0.8125 0 1.46875 0.375q0.671875 0.375 1.046875 1.03125q0.375 0.640625 0.375 1.21875q0 1.03125 -0.578125 2.109375q-0.796875 1.4375 -3.453125 4.03125l2.296875 0q0.84375 0 1.09375 -0.0625q0.25 -0.078125 0.40625 -0.25q0.171875 -0.171875 0.4375 -0.703125l0.28125 0l-0.59375 3.0625zm8.796875 -5.296875q0 1.578125 -0.453125 2.953125q-0.265625 0.84375 -0.71875 1.390625q-0.4375 0.53125 -1.015625 0.859375q-0.5625 0.3125 -1.234375 0.3125q-0.765625 0 -1.390625 -0.390625q-0.609375 -0.390625 -1.09375 -1.125q-0.34375 -0.53125 -0.59375 -1.40625q-0.34375 -1.203125 -0.34375 -2.46875q0 -1.734375 0.484375 -3.171875q0.40625 -1.203125 1.21875 -1.828125q0.8125 -0.640625 1.71875 -0.640625q0.921875 0 1.71875 0.625q0.796875 0.625 1.171875 1.6875q0.53125 1.46875 0.53125 3.203125zm-2.40625 -0.015625q0 -2.78125 -0.03125 -3.25q-0.078125 -1.078125 -0.375 -1.46875q-0.203125 -0.25 -0.640625 -0.25q-0.328125 0 -0.53125 0.1875q-0.28125 0.28125 -0.390625 0.96875q-0.09375 0.6875 -0.09375 4.828125q0 2.25 0.15625 3.015625q0.109375 0.546875 0.328125 0.734375q0.21875 0.1875 0.578125 0.1875q0.390625 0 0.59375 -0.25q0.328125 -0.4375 0.375 -1.34375l0.03125 -3.359375z" fill-rule="nonzero"/><path fill="#000000" fill-opacity="0.0" d="m95.70079 118.53937l78.3622 0" fill-rule="evenodd"/><path stroke="#4a86e8" stroke-width="12.0" stroke-linejoin="round" stroke-linecap="butt" d="m95.70079 118.53937l78.3622 0" fill-rule="evenodd"/><path fill="#434343" d="m86.2689 118.3189l0 0c0 -5.2097473 4.2233353 -9.433075 9.433075 -9.433075l0 0c2.5018082 0 4.901146 0.99383545 6.670189 2.762886c1.769043 1.769043 2.7628784 4.1683807 2.7628784 6.670189l0 0c0 5.2097397 -4.2233276 9.433067 -9.433067 9.433067l0 0c-5.2097397 0 -9.433075 -4.2233276 -9.433075 -9.433067z" fill-rule="evenodd"/></g></svg>