<?xml version="1.0" encoding="utf-8" standalone="no"?>
<!DOCTYPE svg PUBLIC "-//W3C//DTD SVG 1.1//EN"
  "http://www.w3.org/Graphics/SVG/1.1/DTD/svg11.dtd">
<svg xmlns:xlink="http://www.w3.org/1999/xlink" width="864pt" height="288pt" viewBox="0 0 864 288" xmlns="http://www.w3.org/2000/svg" version="1.1">
 <metadata>
  <rdf:RDF xmlns:dc="http://purl.org/dc/elements/1.1/" xmlns:cc="http://creativecommons.org/ns#" xmlns:rdf="http://www.w3.org/1999/02/22-rdf-syntax-ns#">
   <cc:Work>
    <dc:type rdf:resource="http://purl.org/dc/dcmitype/StillImage"/>
    <dc:date>2023-02-07T12:19:17.431417</dc:date>
    <dc:format>image/svg+xml</dc:format>
    <dc:creator>
     <cc:Agent>
      <dc:title>Matplotlib v3.5.0, https://matplotlib.org/</dc:title>
     </cc:Agent>
    </dc:creator>
   </cc:Work>
  </rdf:RDF>
 </metadata>
 <defs>
  <style type="text/css">*{stroke-linejoin: round; stroke-linecap: butt}</style>
 </defs>
 <g id="figure_1">
  <g id="patch_1">
   <path d="M 0 288 
L 864 288 
L 864 0 
L 0 0 
z
" style="fill: #ffffff"/>
  </g>
  <g id="axes_1">
   <g id="patch_2">
    <path d="M 45.708 246.612 
L 284.544 246.612 
L 284.544 13.968 
L 45.708 13.968 
z
" style="fill: #ffffff"/>
   </g>
   <g id="matplotlib.axis_1">
    <g id="xtick_1">
     <g id="text_1">
      <!-- −4 -->
      <g style="fill: #262626" transform="translate(50.077619 261.598625)scale(0.088 -0.088)">
       <defs>
        <path id="DejaVuSans-2212" d="M 678 2272 
L 4684 2272 
L 4684 1741 
L 678 1741 
L 678 2272 
z
" transform="scale(0.015625)"/>
        <path id="DejaVuSans-34" d="M 2419 4116 
L 825 1625 
L 2419 1625 
L 2419 4116 
z
M 2253 4666 
L 3047 4666 
L 3047 1625 
L 3713 1625 
L 3713 1100 
L 3047 1100 
L 3047 0 
L 2419 0 
L 2419 1100 
L 313 1100 
L 313 1709 
L 2253 4666 
z
" transform="scale(0.015625)"/>
       </defs>
       <use xlink:href="#DejaVuSans-2212"/>
       <use xlink:href="#DejaVuSans-34" x="83.789062"/>
      </g>
     </g>
    </g>
    <g id="xtick_2">
     <g id="text_2">
      <!-- −3 -->
      <g style="fill: #262626" transform="translate(77.218074 261.598625)scale(0.088 -0.088)">
       <defs>
        <path id="DejaVuSans-33" d="M 2597 2516 
Q 3050 2419 3304 2112 
Q 3559 1806 3559 1356 
Q 3559 666 3084 287 
Q 2609 -91 1734 -91 
Q 1441 -91 1130 -33 
Q 819 25 488 141 
L 488 750 
Q 750 597 1062 519 
Q 1375 441 1716 441 
Q 2309 441 2620 675 
Q 2931 909 2931 1356 
Q 2931 1769 2642 2001 
Q 2353 2234 1838 2234 
L 1294 2234 
L 1294 2753 
L 1863 2753 
Q 2328 2753 2575 2939 
Q 2822 3125 2822 3475 
Q 2822 3834 2567 4026 
Q 2313 4219 1838 4219 
Q 1578 4219 1281 4162 
Q 984 4106 628 3988 
L 628 4550 
Q 988 4650 1302 4700 
Q 1616 4750 1894 4750 
Q 2613 4750 3031 4423 
Q 3450 4097 3450 3541 
Q 3450 3153 3228 2886 
Q 3006 2619 2597 2516 
z
" transform="scale(0.015625)"/>
       </defs>
       <use xlink:href="#DejaVuSans-2212"/>
       <use xlink:href="#DejaVuSans-33" x="83.789062"/>
      </g>
     </g>
    </g>
    <g id="xtick_3">
     <g id="text_3">
      <!-- −2 -->
      <g style="fill: #262626" transform="translate(104.358528 261.598625)scale(0.088 -0.088)">
       <defs>
        <path id="DejaVuSans-32" d="M 1228 531 
L 3431 531 
L 3431 0 
L 469 0 
L 469 531 
Q 828 903 1448 1529 
Q 2069 2156 2228 2338 
Q 2531 2678 2651 2914 
Q 2772 3150 2772 3378 
Q 2772 3750 2511 3984 
Q 2250 4219 1831 4219 
Q 1534 4219 1204 4116 
Q 875 4013 500 3803 
L 500 4441 
Q 881 4594 1212 4672 
Q 1544 4750 1819 4750 
Q 2544 4750 2975 4387 
Q 3406 4025 3406 3419 
Q 3406 3131 3298 2873 
Q 3191 2616 2906 2266 
Q 2828 2175 2409 1742 
Q 1991 1309 1228 531 
z
" transform="scale(0.015625)"/>
       </defs>
       <use xlink:href="#DejaVuSans-2212"/>
       <use xlink:href="#DejaVuSans-32" x="83.789062"/>
      </g>
     </g>
    </g>
    <g id="xtick_4">
     <g id="text_4">
      <!-- −1 -->
      <g style="fill: #262626" transform="translate(131.498983 261.598625)scale(0.088 -0.088)">
       <defs>
        <path id="DejaVuSans-31" d="M 794 531 
L 1825 531 
L 1825 4091 
L 703 3866 
L 703 4441 
L 1819 4666 
L 2450 4666 
L 2450 531 
L 3481 531 
L 3481 0 
L 794 0 
L 794 531 
z
" transform="scale(0.015625)"/>
       </defs>
       <use xlink:href="#DejaVuSans-2212"/>
       <use xlink:href="#DejaVuSans-31" x="83.789062"/>
      </g>
     </g>
    </g>
    <g id="xtick_5">
     <g id="text_5">
      <!-- 0 -->
      <g style="fill: #262626" transform="translate(162.3265 261.598625)scale(0.088 -0.088)">
       <defs>
        <path id="DejaVuSans-30" d="M 2034 4250 
Q 1547 4250 1301 3770 
Q 1056 3291 1056 2328 
Q 1056 1369 1301 889 
Q 1547 409 2034 409 
Q 2525 409 2770 889 
Q 3016 1369 3016 2328 
Q 3016 3291 2770 3770 
Q 2525 4250 2034 4250 
z
M 2034 4750 
Q 2819 4750 3233 4129 
Q 3647 3509 3647 2328 
Q 3647 1150 3233 529 
Q 2819 -91 2034 -91 
Q 1250 -91 836 529 
Q 422 1150 422 2328 
Q 422 3509 836 4129 
Q 1250 4750 2034 4750 
z
" transform="scale(0.015625)"/>
       </defs>
       <use xlink:href="#DejaVuSans-30"/>
      </g>
     </g>
    </g>
    <g id="xtick_6">
     <g id="text_6">
      <!-- 1 -->
      <g style="fill: #262626" transform="translate(189.466955 261.598625)scale(0.088 -0.088)">
       <use xlink:href="#DejaVuSans-31"/>
      </g>
     </g>
    </g>
    <g id="xtick_7">
     <g id="text_7">
      <!-- 2 -->
      <g style="fill: #262626" transform="translate(216.607409 261.598625)scale(0.088 -0.088)">
       <use xlink:href="#DejaVuSans-32"/>
      </g>
     </g>
    </g>
    <g id="xtick_8">
     <g id="text_8">
      <!-- 3 -->
      <g style="fill: #262626" transform="translate(243.747864 261.598625)scale(0.088 -0.088)">
       <use xlink:href="#DejaVuSans-33"/>
      </g>
     </g>
    </g>
    <g id="xtick_9">
     <g id="text_9">
      <!-- 4 -->
      <g style="fill: #262626" transform="translate(270.888318 261.598625)scale(0.088 -0.088)">
       <use xlink:href="#DejaVuSans-34"/>
      </g>
     </g>
    </g>
    <g id="text_10">
     <!-- $x$ -->
     <g style="fill: #262626" transform="translate(162.246 274.72325)scale(0.096 -0.096)">
      <defs>
       <path id="DejaVuSans-Oblique-78" d="M 3841 3500 
L 2234 1784 
L 3219 0 
L 2559 0 
L 1819 1388 
L 531 0 
L -166 0 
L 1556 1844 
L 641 3500 
L 1300 3500 
L 1972 2234 
L 3144 3500 
L 3841 3500 
z
" transform="scale(0.015625)"/>
      </defs>
      <use xlink:href="#DejaVuSans-Oblique-78" transform="translate(0 0.3125)"/>
     </g>
    </g>
   </g>
   <g id="matplotlib.axis_2">
    <g id="ytick_1">
     <g id="text_11">
      <!-- −4 -->
      <g style="fill: #262626" transform="translate(24.434875 249.955312)scale(0.088 -0.088)">
       <use xlink:href="#DejaVuSans-2212"/>
       <use xlink:href="#DejaVuSans-34" x="83.789062"/>
      </g>
     </g>
    </g>
    <g id="ytick_2">
     <g id="text_12">
      <!-- −3 -->
      <g style="fill: #262626" transform="translate(24.434875 220.874813)scale(0.088 -0.088)">
       <use xlink:href="#DejaVuSans-2212"/>
       <use xlink:href="#DejaVuSans-33" x="83.789062"/>
      </g>
     </g>
    </g>
    <g id="ytick_3">
     <g id="text_13">
      <!-- −2 -->
      <g style="fill: #262626" transform="translate(24.434875 191.794313)scale(0.088 -0.088)">
       <use xlink:href="#DejaVuSans-2212"/>
       <use xlink:href="#DejaVuSans-32" x="83.789062"/>
      </g>
     </g>
    </g>
    <g id="ytick_4">
     <g id="text_14">
      <!-- −1 -->
      <g style="fill: #262626" transform="translate(24.434875 162.713813)scale(0.088 -0.088)">
       <use xlink:href="#DejaVuSans-2212"/>
       <use xlink:href="#DejaVuSans-31" x="83.789062"/>
      </g>
     </g>
    </g>
    <g id="ytick_5">
     <g id="text_15">
      <!-- 0 -->
      <g style="fill: #262626" transform="translate(31.809 133.633313)scale(0.088 -0.088)">
       <use xlink:href="#DejaVuSans-30"/>
      </g>
     </g>
    </g>
    <g id="ytick_6">
     <g id="text_16">
      <!-- 1 -->
      <g style="fill: #262626" transform="translate(31.809 104.552813)scale(0.088 -0.088)">
       <use xlink:href="#DejaVuSans-31"/>
      </g>
     </g>
    </g>
    <g id="ytick_7">
     <g id="text_17">
      <!-- 2 -->
      <g style="fill: #262626" transform="translate(31.809 75.472313)scale(0.088 -0.088)">
       <use xlink:href="#DejaVuSans-32"/>
      </g>
     </g>
    </g>
    <g id="ytick_8">
     <g id="text_18">
      <!-- 3 -->
      <g style="fill: #262626" transform="translate(31.809 46.391813)scale(0.088 -0.088)">
       <use xlink:href="#DejaVuSans-33"/>
      </g>
     </g>
    </g>
    <g id="ytick_9">
     <g id="text_19">
      <!-- 4 -->
      <g style="fill: #262626" transform="translate(31.809 17.311313)scale(0.088 -0.088)">
       <use xlink:href="#DejaVuSans-34"/>
      </g>
     </g>
    </g>
    <g id="text_20">
     <!-- $y$ -->
     <g style="fill: #262626" transform="translate(18.418875 133.17)rotate(-90)scale(0.096 -0.096)">
      <defs>
       <path id="DejaVuSans-Oblique-79" d="M 1588 -325 
Q 1188 -997 936 -1164 
Q 684 -1331 294 -1331 
L -159 -1331 
L -63 -850 
L 269 -850 
Q 509 -850 678 -719 
Q 847 -588 1056 -206 
L 1234 128 
L 459 3500 
L 1069 3500 
L 1650 819 
L 3256 3500 
L 3859 3500 
L 1588 -325 
z
" transform="scale(0.015625)"/>
      </defs>
      <use xlink:href="#DejaVuSans-Oblique-79" transform="translate(0 0.3125)"/>
     </g>
    </g>
   </g>
   <g id="line2d_1">
    <path d="M 56.564182 129.766952 
L 73.082096 129.342976 
L 85.905214 128.800316 
L 96.772263 128.121464 
L 106.117925 127.321063 
L 114.594223 126.379075 
L 122.635839 125.263451 
L 130.460114 123.950042 
L 138.284389 122.405933 
L 146.543346 120.541736 
L 156.106349 118.143853 
L 187.40345 110.096194 
L 195.445066 108.379193 
L 203.269342 106.937188 
L 211.093617 105.725431 
L 219.135233 104.70666 
L 227.828872 103.834674 
L 237.391875 103.105922 
L 248.258924 102.508143 
L 261.082041 102.032998 
L 273.687818 101.732548 
L 273.687818 101.732548 
" clip-path="url(#p9c0238cfde)" style="fill: none; stroke: #1e90ff; stroke-width: 1.2; stroke-linecap: round"/>
   </g>
   <g id="line2d_2">
    <path d="M 56.564182 130.29 
L 273.687818 130.29 
L 273.687818 130.29 
" clip-path="url(#p9c0238cfde)" style="fill: none; stroke-dasharray: 4.44,1.92; stroke-dashoffset: 0; stroke: #000000; stroke-opacity: 0.2; stroke-width: 1.2"/>
   </g>
   <g id="line2d_3">
    <path d="M 56.564182 101.2095 
L 273.687818 101.2095 
L 273.687818 101.2095 
" clip-path="url(#p9c0238cfde)" style="fill: none; stroke-dasharray: 4.44,1.92; stroke-dashoffset: 0; stroke: #000000; stroke-opacity: 0.2; stroke-width: 1.2"/>
   </g>
   <g id="line2d_4">
    <path d="M 165.126 240.7959 
L 165.126 19.7841 
L 165.126 19.7841 
" clip-path="url(#p9c0238cfde)" style="fill: none; stroke-dasharray: 4.44,1.92; stroke-dashoffset: 0; stroke: #000000; stroke-opacity: 0.2; stroke-width: 1.2"/>
   </g>
   <g id="patch_3">
    <path d="M 45.708 246.612 
L 45.708 13.968 
" style="fill: none; stroke: #262626; stroke-linejoin: miter; stroke-linecap: square"/>
   </g>
   <g id="patch_4">
    <path d="M 284.544 246.612 
L 284.544 13.968 
" style="fill: none; stroke: #262626; stroke-linejoin: miter; stroke-linecap: square"/>
   </g>
   <g id="patch_5">
    <path d="M 45.708 246.612 
L 284.544 246.612 
" style="fill: none; stroke: #262626; stroke-linejoin: miter; stroke-linecap: square"/>
   </g>
   <g id="patch_6">
    <path d="M 45.708 13.968 
L 284.544 13.968 
" style="fill: none; stroke: #262626; stroke-linejoin: miter; stroke-linecap: square"/>
   </g>
   <g id="legend_1">
    <g id="patch_7">
     <path d="M 216.52 242.212 
L 278.384 242.212 
Q 280.144 242.212 280.144 240.452 
L 280.144 228.396 
Q 280.144 226.636 278.384 226.636 
L 216.52 226.636 
Q 214.76 226.636 214.76 228.396 
L 214.76 240.452 
Q 214.76 242.212 216.52 242.212 
z
" style="fill: #ffffff; opacity: 0.8; stroke: #cccccc; stroke-width: 0.8; stroke-linejoin: miter"/>
    </g>
    <g id="line2d_5">
     <path d="M 218.28 233.764 
L 227.08 233.764 
L 235.88 233.764 
" style="fill: none; stroke: #1e90ff; stroke-width: 1.2; stroke-linecap: round"/>
    </g>
    <g id="text_21">
     <!-- $y = \sigma(x)$ -->
     <g style="fill: #262626" transform="translate(242.92 236.844)scale(0.088 -0.088)">
      <defs>
       <path id="DejaVuSans-3d" d="M 678 2906 
L 4684 2906 
L 4684 2381 
L 678 2381 
L 678 2906 
z
M 678 1631 
L 4684 1631 
L 4684 1100 
L 678 1100 
L 678 1631 
z
" transform="scale(0.015625)"/>
       <path id="DejaVuSans-Oblique-3c3" d="M 2219 3044 
Q 1744 3044 1422 2700 
Q 1081 2341 969 1747 
Q 844 1119 1044 756 
Q 1241 397 1706 397 
Q 2166 397 2503 759 
Q 2844 1122 2966 1747 
Q 3075 2319 2881 2700 
Q 2700 3044 2219 3044 
z
M 2309 3503 
L 4219 3500 
L 4106 2925 
L 3463 2925 
Q 3706 2438 3575 1747 
Q 3406 888 2884 400 
Q 2359 -91 1609 -91 
Q 856 -91 525 400 
Q 194 888 363 1747 
Q 528 2609 1050 3097 
Q 1484 3503 2309 3503 
z
" transform="scale(0.015625)"/>
       <path id="DejaVuSans-28" d="M 1984 4856 
Q 1566 4138 1362 3434 
Q 1159 2731 1159 2009 
Q 1159 1288 1364 580 
Q 1569 -128 1984 -844 
L 1484 -844 
Q 1016 -109 783 600 
Q 550 1309 550 2009 
Q 550 2706 781 3412 
Q 1013 4119 1484 4856 
L 1984 4856 
z
" transform="scale(0.015625)"/>
       <path id="DejaVuSans-29" d="M 513 4856 
L 1013 4856 
Q 1481 4119 1714 3412 
Q 1947 2706 1947 2009 
Q 1947 1309 1714 600 
Q 1481 -109 1013 -844 
L 513 -844 
Q 928 -128 1133 580 
Q 1338 1288 1338 2009 
Q 1338 2731 1133 3434 
Q 928 4138 513 4856 
z
" transform="scale(0.015625)"/>
      </defs>
      <use xlink:href="#DejaVuSans-Oblique-79" transform="translate(0 0.125)"/>
      <use xlink:href="#DejaVuSans-3d" transform="translate(78.662109 0.125)"/>
      <use xlink:href="#DejaVuSans-Oblique-3c3" transform="translate(181.933594 0.125)"/>
      <use xlink:href="#DejaVuSans-28" transform="translate(245.3125 0.125)"/>
      <use xlink:href="#DejaVuSans-Oblique-78" transform="translate(284.326172 0.125)"/>
      <use xlink:href="#DejaVuSans-29" transform="translate(343.505859 0.125)"/>
     </g>
    </g>
   </g>
  </g>
  <g id="axes_2">
   <g id="patch_8">
    <path d="M 330.252 246.612 
L 569.088 246.612 
L 569.088 13.968 
L 330.252 13.968 
z
" style="fill: #ffffff"/>
   </g>
   <g id="matplotlib.axis_3">
    <g id="xtick_10">
     <g id="text_22">
      <!-- −4 -->
      <g style="fill: #262626" transform="translate(334.621619 261.598625)scale(0.088 -0.088)">
       <use xlink:href="#DejaVuSans-2212"/>
       <use xlink:href="#DejaVuSans-34" x="83.789062"/>
      </g>
     </g>
    </g>
    <g id="xtick_11">
     <g id="text_23">
      <!-- −3 -->
      <g style="fill: #262626" transform="translate(361.762074 261.598625)scale(0.088 -0.088)">
       <use xlink:href="#DejaVuSans-2212"/>
       <use xlink:href="#DejaVuSans-33" x="83.789062"/>
      </g>
     </g>
    </g>
    <g id="xtick_12">
     <g id="text_24">
      <!-- −2 -->
      <g style="fill: #262626" transform="translate(388.902528 261.598625)scale(0.088 -0.088)">
       <use xlink:href="#DejaVuSans-2212"/>
       <use xlink:href="#DejaVuSans-32" x="83.789062"/>
      </g>
     </g>
    </g>
    <g id="xtick_13">
     <g id="text_25">
      <!-- −1 -->
      <g style="fill: #262626" transform="translate(416.042983 261.598625)scale(0.088 -0.088)">
       <use xlink:href="#DejaVuSans-2212"/>
       <use xlink:href="#DejaVuSans-31" x="83.789062"/>
      </g>
     </g>
    </g>
    <g id="xtick_14">
     <g id="text_26">
      <!-- 0 -->
      <g style="fill: #262626" transform="translate(446.8705 261.598625)scale(0.088 -0.088)">
       <use xlink:href="#DejaVuSans-30"/>
      </g>
     </g>
    </g>
    <g id="xtick_15">
     <g id="text_27">
      <!-- 1 -->
      <g style="fill: #262626" transform="translate(474.010955 261.598625)scale(0.088 -0.088)">
       <use xlink:href="#DejaVuSans-31"/>
      </g>
     </g>
    </g>
    <g id="xtick_16">
     <g id="text_28">
      <!-- 2 -->
      <g style="fill: #262626" transform="translate(501.151409 261.598625)scale(0.088 -0.088)">
       <use xlink:href="#DejaVuSans-32"/>
      </g>
     </g>
    </g>
    <g id="xtick_17">
     <g id="text_29">
      <!-- 3 -->
      <g style="fill: #262626" transform="translate(528.291864 261.598625)scale(0.088 -0.088)">
       <use xlink:href="#DejaVuSans-33"/>
      </g>
     </g>
    </g>
    <g id="xtick_18">
     <g id="text_30">
      <!-- 4 -->
      <g style="fill: #262626" transform="translate(555.432318 261.598625)scale(0.088 -0.088)">
       <use xlink:href="#DejaVuSans-34"/>
      </g>
     </g>
    </g>
    <g id="text_31">
     <!-- $x$ -->
     <g style="fill: #262626" transform="translate(446.79 274.72325)scale(0.096 -0.096)">
      <use xlink:href="#DejaVuSans-Oblique-78" transform="translate(0 0.3125)"/>
     </g>
    </g>
   </g>
   <g id="matplotlib.axis_4">
    <g id="ytick_10">
     <g id="text_32">
      <!-- −4 -->
      <g style="fill: #262626" transform="translate(308.978875 249.955312)scale(0.088 -0.088)">
       <use xlink:href="#DejaVuSans-2212"/>
       <use xlink:href="#DejaVuSans-34" x="83.789062"/>
      </g>
     </g>
    </g>
    <g id="ytick_11">
     <g id="text_33">
      <!-- −3 -->
      <g style="fill: #262626" transform="translate(308.978875 220.874813)scale(0.088 -0.088)">
       <use xlink:href="#DejaVuSans-2212"/>
       <use xlink:href="#DejaVuSans-33" x="83.789062"/>
      </g>
     </g>
    </g>
    <g id="ytick_12">
     <g id="text_34">
      <!-- −2 -->
      <g style="fill: #262626" transform="translate(308.978875 191.794313)scale(0.088 -0.088)">
       <use xlink:href="#DejaVuSans-2212"/>
       <use xlink:href="#DejaVuSans-32" x="83.789062"/>
      </g>
     </g>
    </g>
    <g id="ytick_13">
     <g id="text_35">
      <!-- −1 -->
      <g style="fill: #262626" transform="translate(308.978875 162.713813)scale(0.088 -0.088)">
       <use xlink:href="#DejaVuSans-2212"/>
       <use xlink:href="#DejaVuSans-31" x="83.789062"/>
      </g>
     </g>
    </g>
    <g id="ytick_14">
     <g id="text_36">
      <!-- 0 -->
      <g style="fill: #262626" transform="translate(316.353 133.633313)scale(0.088 -0.088)">
       <use xlink:href="#DejaVuSans-30"/>
      </g>
     </g>
    </g>
    <g id="ytick_15">
     <g id="text_37">
      <!-- 1 -->
      <g style="fill: #262626" transform="translate(316.353 104.552813)scale(0.088 -0.088)">
       <use xlink:href="#DejaVuSans-31"/>
      </g>
     </g>
    </g>
    <g id="ytick_16">
     <g id="text_38">
      <!-- 2 -->
      <g style="fill: #262626" transform="translate(316.353 75.472313)scale(0.088 -0.088)">
       <use xlink:href="#DejaVuSans-32"/>
      </g>
     </g>
    </g>
    <g id="ytick_17">
     <g id="text_39">
      <!-- 3 -->
      <g style="fill: #262626" transform="translate(316.353 46.391813)scale(0.088 -0.088)">
       <use xlink:href="#DejaVuSans-33"/>
      </g>
     </g>
    </g>
    <g id="ytick_18">
     <g id="text_40">
      <!-- 4 -->
      <g style="fill: #262626" transform="translate(316.353 17.311313)scale(0.088 -0.088)">
       <use xlink:href="#DejaVuSans-34"/>
      </g>
     </g>
    </g>
    <g id="text_41">
     <!-- $y$ -->
     <g style="fill: #262626" transform="translate(302.962875 133.17)rotate(-90)scale(0.096 -0.096)">
      <use xlink:href="#DejaVuSans-Oblique-79" transform="translate(0 0.3125)"/>
     </g>
    </g>
   </g>
   <g id="line2d_6">
    <path d="M 341.108182 159.350996 
L 370.666555 159.198724 
L 383.707013 158.923573 
L 392.400652 158.528179 
L 398.920882 158.020651 
L 404.354406 157.378718 
L 408.918567 156.620044 
L 412.830704 155.758083 
L 416.525501 154.718028 
L 419.785616 153.580403 
L 423.04573 152.201873 
L 426.088504 150.669585 
L 429.131278 148.877169 
L 432.174051 146.809287 
L 435.216825 144.461352 
L 438.47694 141.646491 
L 441.954395 138.341391 
L 446.301215 133.881168 
L 458.47231 121.17583 
L 461.949765 117.962403 
L 465.20988 115.248225 
L 468.252654 113 
L 471.295427 111.031666 
L 474.338201 109.334355 
L 477.380975 107.889812 
L 480.641089 106.595267 
L 484.118545 105.4669 
L 487.813342 104.509716 
L 491.94282 103.680648 
L 496.506981 102.996532 
L 501.940505 102.419167 
L 508.460734 101.963646 
L 516.719692 101.622277 
L 528.238763 101.38685 
L 546.930087 101.254337 
L 558.231818 101.229004 
L 558.231818 101.229004 
" clip-path="url(#p31ca7e4de0)" style="fill: none; stroke: #1e90ff; stroke-width: 1.2; stroke-linecap: round"/>
   </g>
   <g id="line2d_7">
    <path d="M 341.108182 159.3705 
L 558.231818 159.3705 
L 558.231818 159.3705 
" clip-path="url(#p31ca7e4de0)" style="fill: none; stroke-dasharray: 4.44,1.92; stroke-dashoffset: 0; stroke: #000000; stroke-opacity: 0.2; stroke-width: 1.2"/>
   </g>
   <g id="line2d_8">
    <path d="M 341.108182 101.2095 
L 558.231818 101.2095 
L 558.231818 101.2095 
" clip-path="url(#p31ca7e4de0)" style="fill: none; stroke-dasharray: 4.44,1.92; stroke-dashoffset: 0; stroke: #000000; stroke-opacity: 0.2; stroke-width: 1.2"/>
   </g>
   <g id="line2d_9">
    <path d="M 449.67 240.7959 
L 449.67 19.7841 
L 449.67 19.7841 
" clip-path="url(#p31ca7e4de0)" style="fill: none; stroke-dasharray: 4.44,1.92; stroke-dashoffset: 0; stroke: #000000; stroke-opacity: 0.2; stroke-width: 1.2"/>
   </g>
   <g id="patch_9">
    <path d="M 330.252 246.612 
L 330.252 13.968 
" style="fill: none; stroke: #262626; stroke-linejoin: miter; stroke-linecap: square"/>
   </g>
   <g id="patch_10">
    <path d="M 569.088 246.612 
L 569.088 13.968 
" style="fill: none; stroke: #262626; stroke-linejoin: miter; stroke-linecap: square"/>
   </g>
   <g id="patch_11">
    <path d="M 330.252 246.612 
L 569.088 246.612 
" style="fill: none; stroke: #262626; stroke-linejoin: miter; stroke-linecap: square"/>
   </g>
   <g id="patch_12">
    <path d="M 330.252 13.968 
L 569.088 13.968 
" style="fill: none; stroke: #262626; stroke-linejoin: miter; stroke-linecap: square"/>
   </g>
   <g id="legend_2">
    <g id="patch_13">
     <path d="M 486.632 242.212 
L 562.928 242.212 
Q 564.688 242.212 564.688 240.452 
L 564.688 228.396 
Q 564.688 226.636 562.928 226.636 
L 486.632 226.636 
Q 484.872 226.636 484.872 228.396 
L 484.872 240.452 
Q 484.872 242.212 486.632 242.212 
z
" style="fill: #ffffff; opacity: 0.8; stroke: #cccccc; stroke-width: 0.8; stroke-linejoin: miter"/>
    </g>
    <g id="line2d_10">
     <path d="M 488.392 233.764 
L 497.192 233.764 
L 505.992 233.764 
" style="fill: none; stroke: #1e90ff; stroke-width: 1.2; stroke-linecap: round"/>
    </g>
    <g id="text_42">
     <!-- $y = tanh(x)$ -->
     <g style="fill: #262626" transform="translate(513.032 236.844)scale(0.088 -0.088)">
      <defs>
       <path id="DejaVuSans-Oblique-74" d="M 2706 3500 
L 2619 3053 
L 1472 3053 
L 1100 1153 
Q 1081 1047 1072 975 
Q 1063 903 1063 863 
Q 1063 663 1183 572 
Q 1303 481 1569 481 
L 2150 481 
L 2053 0 
L 1503 0 
Q 991 0 739 200 
Q 488 400 488 806 
Q 488 878 497 964 
Q 506 1050 525 1153 
L 897 3053 
L 409 3053 
L 500 3500 
L 978 3500 
L 1172 4494 
L 1747 4494 
L 1556 3500 
L 2706 3500 
z
" transform="scale(0.015625)"/>
       <path id="DejaVuSans-Oblique-61" d="M 3438 1997 
L 3047 0 
L 2472 0 
L 2578 531 
Q 2325 219 2001 64 
Q 1678 -91 1281 -91 
Q 834 -91 548 182 
Q 263 456 263 884 
Q 263 1497 752 1853 
Q 1241 2209 2100 2209 
L 2900 2209 
L 2931 2363 
Q 2938 2388 2941 2417 
Q 2944 2447 2944 2509 
Q 2944 2788 2717 2942 
Q 2491 3097 2081 3097 
Q 1800 3097 1504 3025 
Q 1209 2953 897 2809 
L 997 3341 
Q 1322 3463 1633 3523 
Q 1944 3584 2234 3584 
Q 2853 3584 3176 3315 
Q 3500 3047 3500 2534 
Q 3500 2431 3484 2292 
Q 3469 2153 3438 1997 
z
M 2816 1759 
L 2241 1759 
Q 1534 1759 1195 1570 
Q 856 1381 856 984 
Q 856 709 1029 553 
Q 1203 397 1509 397 
Q 1978 397 2328 733 
Q 2678 1069 2791 1631 
L 2816 1759 
z
" transform="scale(0.015625)"/>
       <path id="DejaVuSans-Oblique-6e" d="M 3566 2113 
L 3156 0 
L 2578 0 
L 2988 2091 
Q 3016 2238 3031 2350 
Q 3047 2463 3047 2528 
Q 3047 2791 2881 2937 
Q 2716 3084 2419 3084 
Q 1956 3084 1622 2776 
Q 1288 2469 1184 1941 
L 800 0 
L 225 0 
L 903 3500 
L 1478 3500 
L 1363 2950 
Q 1603 3253 1940 3418 
Q 2278 3584 2650 3584 
Q 3113 3584 3367 3334 
Q 3622 3084 3622 2631 
Q 3622 2519 3608 2391 
Q 3594 2263 3566 2113 
z
" transform="scale(0.015625)"/>
       <path id="DejaVuSans-Oblique-68" d="M 3566 2113 
L 3156 0 
L 2578 0 
L 2988 2091 
Q 3016 2238 3031 2350 
Q 3047 2463 3047 2528 
Q 3047 2791 2881 2937 
Q 2716 3084 2419 3084 
Q 1956 3084 1617 2771 
Q 1278 2459 1178 1941 
L 800 0 
L 225 0 
L 1172 4863 
L 1747 4863 
L 1375 2950 
Q 1594 3244 1934 3414 
Q 2275 3584 2650 3584 
Q 3113 3584 3367 3334 
Q 3622 3084 3622 2631 
Q 3622 2519 3608 2391 
Q 3594 2263 3566 2113 
z
" transform="scale(0.015625)"/>
      </defs>
      <use xlink:href="#DejaVuSans-Oblique-79" transform="translate(0 0.015625)"/>
      <use xlink:href="#DejaVuSans-3d" transform="translate(78.662109 0.015625)"/>
      <use xlink:href="#DejaVuSans-Oblique-74" transform="translate(181.933594 0.015625)"/>
      <use xlink:href="#DejaVuSans-Oblique-61" transform="translate(221.142578 0.015625)"/>
      <use xlink:href="#DejaVuSans-Oblique-6e" transform="translate(282.421875 0.015625)"/>
      <use xlink:href="#DejaVuSans-Oblique-68" transform="translate(345.800781 0.015625)"/>
      <use xlink:href="#DejaVuSans-28" transform="translate(409.179688 0.015625)"/>
      <use xlink:href="#DejaVuSans-Oblique-78" transform="translate(448.193359 0.015625)"/>
      <use xlink:href="#DejaVuSans-29" transform="translate(507.373047 0.015625)"/>
     </g>
    </g>
   </g>
  </g>
  <g id="axes_3">
   <g id="patch_14">
    <path d="M 614.796 246.612 
L 853.632 246.612 
L 853.632 13.968 
L 614.796 13.968 
z
" style="fill: #ffffff"/>
   </g>
   <g id="matplotlib.axis_5">
    <g id="xtick_19">
     <g id="text_43">
      <!-- −4 -->
      <g style="fill: #262626" transform="translate(619.165619 261.598625)scale(0.088 -0.088)">
       <use xlink:href="#DejaVuSans-2212"/>
       <use xlink:href="#DejaVuSans-34" x="83.789062"/>
      </g>
     </g>
    </g>
    <g id="xtick_20">
     <g id="text_44">
      <!-- −3 -->
      <g style="fill: #262626" transform="translate(646.306074 261.598625)scale(0.088 -0.088)">
       <use xlink:href="#DejaVuSans-2212"/>
       <use xlink:href="#DejaVuSans-33" x="83.789062"/>
      </g>
     </g>
    </g>
    <g id="xtick_21">
     <g id="text_45">
      <!-- −2 -->
      <g style="fill: #262626" transform="translate(673.446528 261.598625)scale(0.088 -0.088)">
       <use xlink:href="#DejaVuSans-2212"/>
       <use xlink:href="#DejaVuSans-32" x="83.789062"/>
      </g>
     </g>
    </g>
    <g id="xtick_22">
     <g id="text_46">
      <!-- −1 -->
      <g style="fill: #262626" transform="translate(700.586983 261.598625)scale(0.088 -0.088)">
       <use xlink:href="#DejaVuSans-2212"/>
       <use xlink:href="#DejaVuSans-31" x="83.789062"/>
      </g>
     </g>
    </g>
    <g id="xtick_23">
     <g id="text_47">
      <!-- 0 -->
      <g style="fill: #262626" transform="translate(731.4145 261.598625)scale(0.088 -0.088)">
       <use xlink:href="#DejaVuSans-30"/>
      </g>
     </g>
    </g>
    <g id="xtick_24">
     <g id="text_48">
      <!-- 1 -->
      <g style="fill: #262626" transform="translate(758.554955 261.598625)scale(0.088 -0.088)">
       <use xlink:href="#DejaVuSans-31"/>
      </g>
     </g>
    </g>
    <g id="xtick_25">
     <g id="text_49">
      <!-- 2 -->
      <g style="fill: #262626" transform="translate(785.695409 261.598625)scale(0.088 -0.088)">
       <use xlink:href="#DejaVuSans-32"/>
      </g>
     </g>
    </g>
    <g id="xtick_26">
     <g id="text_50">
      <!-- 3 -->
      <g style="fill: #262626" transform="translate(812.835864 261.598625)scale(0.088 -0.088)">
       <use xlink:href="#DejaVuSans-33"/>
      </g>
     </g>
    </g>
    <g id="xtick_27">
     <g id="text_51">
      <!-- 4 -->
      <g style="fill: #262626" transform="translate(839.976318 261.598625)scale(0.088 -0.088)">
       <use xlink:href="#DejaVuSans-34"/>
      </g>
     </g>
    </g>
    <g id="text_52">
     <!-- $x$ -->
     <g style="fill: #262626" transform="translate(731.334 274.72325)scale(0.096 -0.096)">
      <use xlink:href="#DejaVuSans-Oblique-78" transform="translate(0 0.3125)"/>
     </g>
    </g>
   </g>
   <g id="matplotlib.axis_6">
    <g id="ytick_19">
     <g id="text_53">
      <!-- −4 -->
      <g style="fill: #262626" transform="translate(593.522875 249.955312)scale(0.088 -0.088)">
       <use xlink:href="#DejaVuSans-2212"/>
       <use xlink:href="#DejaVuSans-34" x="83.789062"/>
      </g>
     </g>
    </g>
    <g id="ytick_20">
     <g id="text_54">
      <!-- −3 -->
      <g style="fill: #262626" transform="translate(593.522875 220.874813)scale(0.088 -0.088)">
       <use xlink:href="#DejaVuSans-2212"/>
       <use xlink:href="#DejaVuSans-33" x="83.789062"/>
      </g>
     </g>
    </g>
    <g id="ytick_21">
     <g id="text_55">
      <!-- −2 -->
      <g style="fill: #262626" transform="translate(593.522875 191.794313)scale(0.088 -0.088)">
       <use xlink:href="#DejaVuSans-2212"/>
       <use xlink:href="#DejaVuSans-32" x="83.789062"/>
      </g>
     </g>
    </g>
    <g id="ytick_22">
     <g id="text_56">
      <!-- −1 -->
      <g style="fill: #262626" transform="translate(593.522875 162.713813)scale(0.088 -0.088)">
       <use xlink:href="#DejaVuSans-2212"/>
       <use xlink:href="#DejaVuSans-31" x="83.789062"/>
      </g>
     </g>
    </g>
    <g id="ytick_23">
     <g id="text_57">
      <!-- 0 -->
      <g style="fill: #262626" transform="translate(600.897 133.633313)scale(0.088 -0.088)">
       <use xlink:href="#DejaVuSans-30"/>
      </g>
     </g>
    </g>
    <g id="ytick_24">
     <g id="text_58">
      <!-- 1 -->
      <g style="fill: #262626" transform="translate(600.897 104.552813)scale(0.088 -0.088)">
       <use xlink:href="#DejaVuSans-31"/>
      </g>
     </g>
    </g>
    <g id="ytick_25">
     <g id="text_59">
      <!-- 2 -->
      <g style="fill: #262626" transform="translate(600.897 75.472313)scale(0.088 -0.088)">
       <use xlink:href="#DejaVuSans-32"/>
      </g>
     </g>
    </g>
    <g id="ytick_26">
     <g id="text_60">
      <!-- 3 -->
      <g style="fill: #262626" transform="translate(600.897 46.391813)scale(0.088 -0.088)">
       <use xlink:href="#DejaVuSans-33"/>
      </g>
     </g>
    </g>
    <g id="ytick_27">
     <g id="text_61">
      <!-- 4 -->
      <g style="fill: #262626" transform="translate(600.897 17.311313)scale(0.088 -0.088)">
       <use xlink:href="#DejaVuSans-34"/>
      </g>
     </g>
    </g>
    <g id="text_62">
     <!-- $y$ -->
     <g style="fill: #262626" transform="translate(587.506875 133.17)rotate(-90)scale(0.096 -0.096)">
      <use xlink:href="#DejaVuSans-Oblique-79" transform="translate(0 0.3125)"/>
     </g>
    </g>
   </g>
   <g id="line2d_11">
    <path d="M 625.652182 130.29 
L 734.10533 130.29 
L 734.540011 129.940685 
L 842.775818 13.968 
L 842.775818 13.968 
" clip-path="url(#p6c66827ae6)" style="fill: none; stroke: #1e90ff; stroke-width: 1.2; stroke-linecap: round"/>
   </g>
   <g id="line2d_12">
    <path d="M 625.652182 130.29 
L 842.775818 130.29 
L 842.775818 130.29 
" clip-path="url(#p6c66827ae6)" style="fill: none; stroke-dasharray: 4.44,1.92; stroke-dashoffset: 0; stroke: #000000; stroke-opacity: 0.2; stroke-width: 1.2"/>
   </g>
   <g id="line2d_13">
    <path d="M 734.214 240.7959 
L 734.214 19.7841 
L 734.214 19.7841 
" clip-path="url(#p6c66827ae6)" style="fill: none; stroke-dasharray: 4.44,1.92; stroke-dashoffset: 0; stroke: #000000; stroke-opacity: 0.2; stroke-width: 1.2"/>
   </g>
   <g id="patch_15">
    <path d="M 614.796 246.612 
L 614.796 13.968 
" style="fill: none; stroke: #262626; stroke-linejoin: miter; stroke-linecap: square"/>
   </g>
   <g id="patch_16">
    <path d="M 853.632 246.612 
L 853.632 13.968 
" style="fill: none; stroke: #262626; stroke-linejoin: miter; stroke-linecap: square"/>
   </g>
   <g id="patch_17">
    <path d="M 614.796 246.612 
L 853.632 246.612 
" style="fill: none; stroke: #262626; stroke-linejoin: miter; stroke-linecap: square"/>
   </g>
   <g id="patch_18">
    <path d="M 614.796 13.968 
L 853.632 13.968 
" style="fill: none; stroke: #262626; stroke-linejoin: miter; stroke-linecap: square"/>
   </g>
   <g id="legend_3">
    <g id="patch_19">
     <path d="M 768.272 242.212 
L 847.472 242.212 
Q 849.232 242.212 849.232 240.452 
L 849.232 228.396 
Q 849.232 226.636 847.472 226.636 
L 768.272 226.636 
Q 766.512 226.636 766.512 228.396 
L 766.512 240.452 
Q 766.512 242.212 768.272 242.212 
z
" style="fill: #ffffff; opacity: 0.8; stroke: #cccccc; stroke-width: 0.8; stroke-linejoin: miter"/>
    </g>
    <g id="line2d_14">
     <path d="M 770.032 233.764 
L 778.832 233.764 
L 787.632 233.764 
" style="fill: none; stroke: #1e90ff; stroke-width: 1.2; stroke-linecap: round"/>
    </g>
    <g id="text_63">
     <!-- $y = ReLU(x)$ -->
     <g style="fill: #262626" transform="translate(794.672 236.844)scale(0.088 -0.088)">
      <defs>
       <path id="DejaVuSans-Oblique-52" d="M 1613 4147 
L 1294 2491 
L 2106 2491 
Q 2584 2491 2879 2755 
Q 3175 3019 3175 3444 
Q 3175 3784 2976 3965 
Q 2778 4147 2406 4147 
L 1613 4147 
z
M 2772 2241 
Q 2972 2194 3105 2009 
Q 3238 1825 3413 1275 
L 3809 0 
L 3144 0 
L 2778 1197 
Q 2638 1659 2453 1815 
Q 2269 1972 1888 1972 
L 1191 1972 
L 806 0 
L 172 0 
L 1081 4666 
L 2503 4666 
Q 3150 4666 3495 4373 
Q 3841 4081 3841 3531 
Q 3841 3044 3547 2687 
Q 3253 2331 2772 2241 
z
" transform="scale(0.015625)"/>
       <path id="DejaVuSans-Oblique-65" d="M 3078 2063 
Q 3088 2113 3092 2166 
Q 3097 2219 3097 2272 
Q 3097 2653 2873 2875 
Q 2650 3097 2266 3097 
Q 1838 3097 1509 2826 
Q 1181 2556 1013 2059 
L 3078 2063 
z
M 3578 1613 
L 903 1613 
Q 884 1494 878 1425 
Q 872 1356 872 1306 
Q 872 872 1139 634 
Q 1406 397 1894 397 
Q 2269 397 2603 481 
Q 2938 566 3225 728 
L 3116 159 
Q 2806 34 2476 -28 
Q 2147 -91 1806 -91 
Q 1078 -91 686 257 
Q 294 606 294 1247 
Q 294 1794 489 2264 
Q 684 2734 1063 3103 
Q 1306 3334 1642 3459 
Q 1978 3584 2356 3584 
Q 2950 3584 3301 3228 
Q 3653 2872 3653 2272 
Q 3653 2128 3634 1964 
Q 3616 1800 3578 1613 
z
" transform="scale(0.015625)"/>
       <path id="DejaVuSans-Oblique-4c" d="M 1075 4666 
L 1709 4666 
L 909 525 
L 3181 525 
L 3078 0 
L 172 0 
L 1075 4666 
z
" transform="scale(0.015625)"/>
       <path id="DejaVuSans-Oblique-55" d="M 991 4666 
L 1625 4666 
L 1075 1831 
Q 1041 1641 1027 1517 
Q 1013 1394 1013 1300 
Q 1013 869 1253 645 
Q 1494 422 1959 422 
Q 2563 422 2898 753 
Q 3234 1084 3378 1831 
L 3928 4666 
L 4563 4666 
L 4000 1753 
Q 3816 809 3300 359 
Q 2784 -91 1888 -91 
Q 1188 -91 780 261 
Q 372 613 372 1216 
Q 372 1325 387 1461 
Q 403 1597 434 1753 
L 991 4666 
z
" transform="scale(0.015625)"/>
      </defs>
      <use xlink:href="#DejaVuSans-Oblique-79" transform="translate(0 0.125)"/>
      <use xlink:href="#DejaVuSans-3d" transform="translate(78.662109 0.125)"/>
      <use xlink:href="#DejaVuSans-Oblique-52" transform="translate(181.933594 0.125)"/>
      <use xlink:href="#DejaVuSans-Oblique-65" transform="translate(251.416016 0.125)"/>
      <use xlink:href="#DejaVuSans-Oblique-4c" transform="translate(312.939453 0.125)"/>
      <use xlink:href="#DejaVuSans-Oblique-55" transform="translate(368.652344 0.125)"/>
      <use xlink:href="#DejaVuSans-28" transform="translate(441.845703 0.125)"/>
      <use xlink:href="#DejaVuSans-Oblique-78" transform="translate(480.859375 0.125)"/>
      <use xlink:href="#DejaVuSans-29" transform="translate(540.039062 0.125)"/>
     </g>
    </g>
   </g>
  </g>
 </g>
 <defs>
  <clipPath id="p9c0238cfde">
   <rect x="45.708" y="13.968" width="238.836" height="232.644"/>
  </clipPath>
  <clipPath id="p31ca7e4de0">
   <rect x="330.252" y="13.968" width="238.836" height="232.644"/>
  </clipPath>
  <clipPath id="p6c66827ae6">
   <rect x="614.796" y="13.968" width="238.836" height="232.644"/>
  </clipPath>
 </defs>
</svg>
