<?xml version="1.0" encoding="utf-8" standalone="no"?>
<!DOCTYPE svg PUBLIC "-//W3C//DTD SVG 1.1//EN"
  "http://www.w3.org/Graphics/SVG/1.1/DTD/svg11.dtd">
<svg xmlns:xlink="http://www.w3.org/1999/xlink" width="864pt" height="288pt" viewBox="0 0 864 288" xmlns="http://www.w3.org/2000/svg" version="1.1">
 <metadata>
  <rdf:RDF xmlns:dc="http://purl.org/dc/elements/1.1/" xmlns:cc="http://creativecommons.org/ns#" xmlns:rdf="http://www.w3.org/1999/02/22-rdf-syntax-ns#">
   <cc:Work>
    <dc:type rdf:resource="http://purl.org/dc/dcmitype/StillImage"/>
    <dc:date>2023-02-22T11:02:51.920575</dc:date>
    <dc:format>image/svg+xml</dc:format>
    <dc:creator>
     <cc:Agent>
      <dc:title>Matplotlib v3.5.0, https://matplotlib.org/</dc:title>
     </cc:Agent>
    </dc:creator>
   </cc:Work>
  </rdf:RDF>
 </metadata>
 <defs>
  <style type="text/css">*{stroke-linejoin: round; stroke-linecap: butt}</style>
 </defs>
 <g id="figure_1">
  <g id="patch_1">
   <path d="M 0 288 
L 864 288 
L 864 0 
L 0 0 
z
" style="fill: #ffffff"/>
  </g>
  <g id="axes_1">
   <g id="patch_2">
    <path d="M 46.068 246.612 
L 423.981 246.612 
L 423.981 10.368 
L 46.068 10.368 
z
" style="fill: #ffffff"/>
   </g>
   <g id="matplotlib.axis_1">
    <g id="xtick_1">
     <g id="text_1">
      <!-- 0 -->
      <g style="fill: #262626" transform="translate(60.446364 261.598625)scale(0.088 -0.088)">
       <defs>
        <path id="DejaVuSans-30" d="M 2034 4250 
Q 1547 4250 1301 3770 
Q 1056 3291 1056 2328 
Q 1056 1369 1301 889 
Q 1547 409 2034 409 
Q 2525 409 2770 889 
Q 3016 1369 3016 2328 
Q 3016 3291 2770 3770 
Q 2525 4250 2034 4250 
z
M 2034 4750 
Q 2819 4750 3233 4129 
Q 3647 3509 3647 2328 
Q 3647 1150 3233 529 
Q 2819 -91 2034 -91 
Q 1250 -91 836 529 
Q 422 1150 422 2328 
Q 422 3509 836 4129 
Q 1250 4750 2034 4750 
z
" transform="scale(0.015625)"/>
       </defs>
       <use xlink:href="#DejaVuSans-30"/>
      </g>
     </g>
    </g>
    <g id="xtick_2">
     <g id="text_2">
      <!-- 2 -->
      <g style="fill: #262626" transform="translate(136.792424 261.598625)scale(0.088 -0.088)">
       <defs>
        <path id="DejaVuSans-32" d="M 1228 531 
L 3431 531 
L 3431 0 
L 469 0 
L 469 531 
Q 828 903 1448 1529 
Q 2069 2156 2228 2338 
Q 2531 2678 2651 2914 
Q 2772 3150 2772 3378 
Q 2772 3750 2511 3984 
Q 2250 4219 1831 4219 
Q 1534 4219 1204 4116 
Q 875 4013 500 3803 
L 500 4441 
Q 881 4594 1212 4672 
Q 1544 4750 1819 4750 
Q 2544 4750 2975 4387 
Q 3406 4025 3406 3419 
Q 3406 3131 3298 2873 
Q 3191 2616 2906 2266 
Q 2828 2175 2409 1742 
Q 1991 1309 1228 531 
z
" transform="scale(0.015625)"/>
       </defs>
       <use xlink:href="#DejaVuSans-32"/>
      </g>
     </g>
    </g>
    <g id="xtick_3">
     <g id="text_3">
      <!-- 4 -->
      <g style="fill: #262626" transform="translate(213.138485 261.598625)scale(0.088 -0.088)">
       <defs>
        <path id="DejaVuSans-34" d="M 2419 4116 
L 825 1625 
L 2419 1625 
L 2419 4116 
z
M 2253 4666 
L 3047 4666 
L 3047 1625 
L 3713 1625 
L 3713 1100 
L 3047 1100 
L 3047 0 
L 2419 0 
L 2419 1100 
L 313 1100 
L 313 1709 
L 2253 4666 
z
" transform="scale(0.015625)"/>
       </defs>
       <use xlink:href="#DejaVuSans-34"/>
      </g>
     </g>
    </g>
    <g id="xtick_4">
     <g id="text_4">
      <!-- 6 -->
      <g style="fill: #262626" transform="translate(289.484545 261.598625)scale(0.088 -0.088)">
       <defs>
        <path id="DejaVuSans-36" d="M 2113 2584 
Q 1688 2584 1439 2293 
Q 1191 2003 1191 1497 
Q 1191 994 1439 701 
Q 1688 409 2113 409 
Q 2538 409 2786 701 
Q 3034 994 3034 1497 
Q 3034 2003 2786 2293 
Q 2538 2584 2113 2584 
z
M 3366 4563 
L 3366 3988 
Q 3128 4100 2886 4159 
Q 2644 4219 2406 4219 
Q 1781 4219 1451 3797 
Q 1122 3375 1075 2522 
Q 1259 2794 1537 2939 
Q 1816 3084 2150 3084 
Q 2853 3084 3261 2657 
Q 3669 2231 3669 1497 
Q 3669 778 3244 343 
Q 2819 -91 2113 -91 
Q 1303 -91 875 529 
Q 447 1150 447 2328 
Q 447 3434 972 4092 
Q 1497 4750 2381 4750 
Q 2619 4750 2861 4703 
Q 3103 4656 3366 4563 
z
" transform="scale(0.015625)"/>
       </defs>
       <use xlink:href="#DejaVuSans-36"/>
      </g>
     </g>
    </g>
    <g id="xtick_5">
     <g id="text_5">
      <!-- 8 -->
      <g style="fill: #262626" transform="translate(365.830606 261.598625)scale(0.088 -0.088)">
       <defs>
        <path id="DejaVuSans-38" d="M 2034 2216 
Q 1584 2216 1326 1975 
Q 1069 1734 1069 1313 
Q 1069 891 1326 650 
Q 1584 409 2034 409 
Q 2484 409 2743 651 
Q 3003 894 3003 1313 
Q 3003 1734 2745 1975 
Q 2488 2216 2034 2216 
z
M 1403 2484 
Q 997 2584 770 2862 
Q 544 3141 544 3541 
Q 544 4100 942 4425 
Q 1341 4750 2034 4750 
Q 2731 4750 3128 4425 
Q 3525 4100 3525 3541 
Q 3525 3141 3298 2862 
Q 3072 2584 2669 2484 
Q 3125 2378 3379 2068 
Q 3634 1759 3634 1313 
Q 3634 634 3220 271 
Q 2806 -91 2034 -91 
Q 1263 -91 848 271 
Q 434 634 434 1313 
Q 434 1759 690 2068 
Q 947 2378 1403 2484 
z
M 1172 3481 
Q 1172 3119 1398 2916 
Q 1625 2713 2034 2713 
Q 2441 2713 2670 2916 
Q 2900 3119 2900 3481 
Q 2900 3844 2670 4047 
Q 2441 4250 2034 4250 
Q 1625 4250 1398 4047 
Q 1172 3844 1172 3481 
z
" transform="scale(0.015625)"/>
       </defs>
       <use xlink:href="#DejaVuSans-38"/>
      </g>
     </g>
    </g>
    <g id="text_6">
     <!-- epochs -->
     <g style="fill: #262626" transform="translate(217.905 274.72325)scale(0.096 -0.096)">
      <defs>
       <path id="DejaVuSans-65" d="M 3597 1894 
L 3597 1613 
L 953 1613 
Q 991 1019 1311 708 
Q 1631 397 2203 397 
Q 2534 397 2845 478 
Q 3156 559 3463 722 
L 3463 178 
Q 3153 47 2828 -22 
Q 2503 -91 2169 -91 
Q 1331 -91 842 396 
Q 353 884 353 1716 
Q 353 2575 817 3079 
Q 1281 3584 2069 3584 
Q 2775 3584 3186 3129 
Q 3597 2675 3597 1894 
z
M 3022 2063 
Q 3016 2534 2758 2815 
Q 2500 3097 2075 3097 
Q 1594 3097 1305 2825 
Q 1016 2553 972 2059 
L 3022 2063 
z
" transform="scale(0.015625)"/>
       <path id="DejaVuSans-70" d="M 1159 525 
L 1159 -1331 
L 581 -1331 
L 581 3500 
L 1159 3500 
L 1159 2969 
Q 1341 3281 1617 3432 
Q 1894 3584 2278 3584 
Q 2916 3584 3314 3078 
Q 3713 2572 3713 1747 
Q 3713 922 3314 415 
Q 2916 -91 2278 -91 
Q 1894 -91 1617 61 
Q 1341 213 1159 525 
z
M 3116 1747 
Q 3116 2381 2855 2742 
Q 2594 3103 2138 3103 
Q 1681 3103 1420 2742 
Q 1159 2381 1159 1747 
Q 1159 1113 1420 752 
Q 1681 391 2138 391 
Q 2594 391 2855 752 
Q 3116 1113 3116 1747 
z
" transform="scale(0.015625)"/>
       <path id="DejaVuSans-6f" d="M 1959 3097 
Q 1497 3097 1228 2736 
Q 959 2375 959 1747 
Q 959 1119 1226 758 
Q 1494 397 1959 397 
Q 2419 397 2687 759 
Q 2956 1122 2956 1747 
Q 2956 2369 2687 2733 
Q 2419 3097 1959 3097 
z
M 1959 3584 
Q 2709 3584 3137 3096 
Q 3566 2609 3566 1747 
Q 3566 888 3137 398 
Q 2709 -91 1959 -91 
Q 1206 -91 779 398 
Q 353 888 353 1747 
Q 353 2609 779 3096 
Q 1206 3584 1959 3584 
z
" transform="scale(0.015625)"/>
       <path id="DejaVuSans-63" d="M 3122 3366 
L 3122 2828 
Q 2878 2963 2633 3030 
Q 2388 3097 2138 3097 
Q 1578 3097 1268 2742 
Q 959 2388 959 1747 
Q 959 1106 1268 751 
Q 1578 397 2138 397 
Q 2388 397 2633 464 
Q 2878 531 3122 666 
L 3122 134 
Q 2881 22 2623 -34 
Q 2366 -91 2075 -91 
Q 1284 -91 818 406 
Q 353 903 353 1747 
Q 353 2603 823 3093 
Q 1294 3584 2113 3584 
Q 2378 3584 2631 3529 
Q 2884 3475 3122 3366 
z
" transform="scale(0.015625)"/>
       <path id="DejaVuSans-68" d="M 3513 2113 
L 3513 0 
L 2938 0 
L 2938 2094 
Q 2938 2591 2744 2837 
Q 2550 3084 2163 3084 
Q 1697 3084 1428 2787 
Q 1159 2491 1159 1978 
L 1159 0 
L 581 0 
L 581 4863 
L 1159 4863 
L 1159 2956 
Q 1366 3272 1645 3428 
Q 1925 3584 2291 3584 
Q 2894 3584 3203 3211 
Q 3513 2838 3513 2113 
z
" transform="scale(0.015625)"/>
       <path id="DejaVuSans-73" d="M 2834 3397 
L 2834 2853 
Q 2591 2978 2328 3040 
Q 2066 3103 1784 3103 
Q 1356 3103 1142 2972 
Q 928 2841 928 2578 
Q 928 2378 1081 2264 
Q 1234 2150 1697 2047 
L 1894 2003 
Q 2506 1872 2764 1633 
Q 3022 1394 3022 966 
Q 3022 478 2636 193 
Q 2250 -91 1575 -91 
Q 1294 -91 989 -36 
Q 684 19 347 128 
L 347 722 
Q 666 556 975 473 
Q 1284 391 1588 391 
Q 1994 391 2212 530 
Q 2431 669 2431 922 
Q 2431 1156 2273 1281 
Q 2116 1406 1581 1522 
L 1381 1569 
Q 847 1681 609 1914 
Q 372 2147 372 2553 
Q 372 3047 722 3315 
Q 1072 3584 1716 3584 
Q 2034 3584 2315 3537 
Q 2597 3491 2834 3397 
z
" transform="scale(0.015625)"/>
      </defs>
      <use xlink:href="#DejaVuSans-65"/>
      <use xlink:href="#DejaVuSans-70" x="61.523438"/>
      <use xlink:href="#DejaVuSans-6f" x="125"/>
      <use xlink:href="#DejaVuSans-63" x="186.181641"/>
      <use xlink:href="#DejaVuSans-68" x="241.162109"/>
      <use xlink:href="#DejaVuSans-73" x="304.541016"/>
     </g>
    </g>
   </g>
   <g id="matplotlib.axis_2">
    <g id="ytick_1">
     <g id="text_7">
      <!-- 0.1 -->
      <g style="fill: #262626" transform="translate(23.77325 234.807126)scale(0.088 -0.088)">
       <defs>
        <path id="DejaVuSans-2e" d="M 684 794 
L 1344 794 
L 1344 0 
L 684 0 
L 684 794 
z
" transform="scale(0.015625)"/>
        <path id="DejaVuSans-31" d="M 794 531 
L 1825 531 
L 1825 4091 
L 703 3866 
L 703 4441 
L 1819 4666 
L 2450 4666 
L 2450 531 
L 3481 531 
L 3481 0 
L 794 0 
L 794 531 
z
" transform="scale(0.015625)"/>
       </defs>
       <use xlink:href="#DejaVuSans-30"/>
       <use xlink:href="#DejaVuSans-2e" x="63.623047"/>
       <use xlink:href="#DejaVuSans-31" x="95.410156"/>
      </g>
     </g>
    </g>
    <g id="ytick_2">
     <g id="text_8">
      <!-- 0.2 -->
      <g style="fill: #262626" transform="translate(23.77325 192.408121)scale(0.088 -0.088)">
       <use xlink:href="#DejaVuSans-30"/>
       <use xlink:href="#DejaVuSans-2e" x="63.623047"/>
       <use xlink:href="#DejaVuSans-32" x="95.410156"/>
      </g>
     </g>
    </g>
    <g id="ytick_3">
     <g id="text_9">
      <!-- 0.3 -->
      <g style="fill: #262626" transform="translate(23.77325 150.009116)scale(0.088 -0.088)">
       <defs>
        <path id="DejaVuSans-33" d="M 2597 2516 
Q 3050 2419 3304 2112 
Q 3559 1806 3559 1356 
Q 3559 666 3084 287 
Q 2609 -91 1734 -91 
Q 1441 -91 1130 -33 
Q 819 25 488 141 
L 488 750 
Q 750 597 1062 519 
Q 1375 441 1716 441 
Q 2309 441 2620 675 
Q 2931 909 2931 1356 
Q 2931 1769 2642 2001 
Q 2353 2234 1838 2234 
L 1294 2234 
L 1294 2753 
L 1863 2753 
Q 2328 2753 2575 2939 
Q 2822 3125 2822 3475 
Q 2822 3834 2567 4026 
Q 2313 4219 1838 4219 
Q 1578 4219 1281 4162 
Q 984 4106 628 3988 
L 628 4550 
Q 988 4650 1302 4700 
Q 1616 4750 1894 4750 
Q 2613 4750 3031 4423 
Q 3450 4097 3450 3541 
Q 3450 3153 3228 2886 
Q 3006 2619 2597 2516 
z
" transform="scale(0.015625)"/>
       </defs>
       <use xlink:href="#DejaVuSans-30"/>
       <use xlink:href="#DejaVuSans-2e" x="63.623047"/>
       <use xlink:href="#DejaVuSans-33" x="95.410156"/>
      </g>
     </g>
    </g>
    <g id="ytick_4">
     <g id="text_10">
      <!-- 0.4 -->
      <g style="fill: #262626" transform="translate(23.77325 107.610111)scale(0.088 -0.088)">
       <use xlink:href="#DejaVuSans-30"/>
       <use xlink:href="#DejaVuSans-2e" x="63.623047"/>
       <use xlink:href="#DejaVuSans-34" x="95.410156"/>
      </g>
     </g>
    </g>
    <g id="ytick_5">
     <g id="text_11">
      <!-- 0.5 -->
      <g style="fill: #262626" transform="translate(23.77325 65.211106)scale(0.088 -0.088)">
       <defs>
        <path id="DejaVuSans-35" d="M 691 4666 
L 3169 4666 
L 3169 4134 
L 1269 4134 
L 1269 2991 
Q 1406 3038 1543 3061 
Q 1681 3084 1819 3084 
Q 2600 3084 3056 2656 
Q 3513 2228 3513 1497 
Q 3513 744 3044 326 
Q 2575 -91 1722 -91 
Q 1428 -91 1123 -41 
Q 819 9 494 109 
L 494 744 
Q 775 591 1075 516 
Q 1375 441 1709 441 
Q 2250 441 2565 725 
Q 2881 1009 2881 1497 
Q 2881 1984 2565 2268 
Q 2250 2553 1709 2553 
Q 1456 2553 1204 2497 
Q 953 2441 691 2322 
L 691 4666 
z
" transform="scale(0.015625)"/>
       </defs>
       <use xlink:href="#DejaVuSans-30"/>
       <use xlink:href="#DejaVuSans-2e" x="63.623047"/>
       <use xlink:href="#DejaVuSans-35" x="95.410156"/>
      </g>
     </g>
    </g>
    <g id="ytick_6">
     <g id="text_12">
      <!-- 0.6 -->
      <g style="fill: #262626" transform="translate(23.77325 22.812101)scale(0.088 -0.088)">
       <use xlink:href="#DejaVuSans-30"/>
       <use xlink:href="#DejaVuSans-2e" x="63.623047"/>
       <use xlink:href="#DejaVuSans-36" x="95.410156"/>
      </g>
     </g>
    </g>
    <g id="text_13">
     <!-- cross entropy -->
     <g style="fill: #262626" transform="translate(17.77675 161.02575)rotate(-90)scale(0.096 -0.096)">
      <defs>
       <path id="DejaVuSans-72" d="M 2631 2963 
Q 2534 3019 2420 3045 
Q 2306 3072 2169 3072 
Q 1681 3072 1420 2755 
Q 1159 2438 1159 1844 
L 1159 0 
L 581 0 
L 581 3500 
L 1159 3500 
L 1159 2956 
Q 1341 3275 1631 3429 
Q 1922 3584 2338 3584 
Q 2397 3584 2469 3576 
Q 2541 3569 2628 3553 
L 2631 2963 
z
" transform="scale(0.015625)"/>
       <path id="DejaVuSans-20" transform="scale(0.015625)"/>
       <path id="DejaVuSans-6e" d="M 3513 2113 
L 3513 0 
L 2938 0 
L 2938 2094 
Q 2938 2591 2744 2837 
Q 2550 3084 2163 3084 
Q 1697 3084 1428 2787 
Q 1159 2491 1159 1978 
L 1159 0 
L 581 0 
L 581 3500 
L 1159 3500 
L 1159 2956 
Q 1366 3272 1645 3428 
Q 1925 3584 2291 3584 
Q 2894 3584 3203 3211 
Q 3513 2838 3513 2113 
z
" transform="scale(0.015625)"/>
       <path id="DejaVuSans-74" d="M 1172 4494 
L 1172 3500 
L 2356 3500 
L 2356 3053 
L 1172 3053 
L 1172 1153 
Q 1172 725 1289 603 
Q 1406 481 1766 481 
L 2356 481 
L 2356 0 
L 1766 0 
Q 1100 0 847 248 
Q 594 497 594 1153 
L 594 3053 
L 172 3053 
L 172 3500 
L 594 3500 
L 594 4494 
L 1172 4494 
z
" transform="scale(0.015625)"/>
       <path id="DejaVuSans-79" d="M 2059 -325 
Q 1816 -950 1584 -1140 
Q 1353 -1331 966 -1331 
L 506 -1331 
L 506 -850 
L 844 -850 
Q 1081 -850 1212 -737 
Q 1344 -625 1503 -206 
L 1606 56 
L 191 3500 
L 800 3500 
L 1894 763 
L 2988 3500 
L 3597 3500 
L 2059 -325 
z
" transform="scale(0.015625)"/>
      </defs>
      <use xlink:href="#DejaVuSans-63"/>
      <use xlink:href="#DejaVuSans-72" x="54.980469"/>
      <use xlink:href="#DejaVuSans-6f" x="93.84375"/>
      <use xlink:href="#DejaVuSans-73" x="155.025391"/>
      <use xlink:href="#DejaVuSans-73" x="207.125"/>
      <use xlink:href="#DejaVuSans-20" x="259.224609"/>
      <use xlink:href="#DejaVuSans-65" x="291.011719"/>
      <use xlink:href="#DejaVuSans-6e" x="352.535156"/>
      <use xlink:href="#DejaVuSans-74" x="415.914062"/>
      <use xlink:href="#DejaVuSans-72" x="455.123047"/>
      <use xlink:href="#DejaVuSans-6f" x="493.986328"/>
      <use xlink:href="#DejaVuSans-70" x="555.167969"/>
      <use xlink:href="#DejaVuSans-79" x="618.644531"/>
     </g>
    </g>
   </g>
   <g id="line2d_1">
    <path d="M 63.245864 21.106364 
L 101.418894 182.230366 
L 139.591924 198.26275 
L 177.764955 213.560582 
L 215.937985 223.29869 
L 254.111015 229.689735 
L 292.284045 231.421787 
L 330.457076 234.919823 
L 368.630106 234.872999 
L 406.803136 235.873636 
" clip-path="url(#p25594bd523)" style="fill: none; stroke: #1e90ff; stroke-width: 1.2; stroke-linecap: round"/>
   </g>
   <g id="line2d_2">
    <path d="M 63.245864 158.318599 
L 101.418894 190.157739 
L 139.591924 202.021356 
L 177.764955 209.121513 
L 215.937985 224.867703 
L 254.111015 227.963949 
L 292.284045 217.068351 
L 330.457076 226.102849 
L 368.630106 233.401548 
L 406.803136 224.99323 
" clip-path="url(#p25594bd523)" style="fill: none; stroke: #ff8c00; stroke-width: 1.2; stroke-linecap: round"/>
   </g>
   <g id="line2d_3">
    <path d="M 63.245864 231.022575 
L 101.418894 231.022575 
L 139.591924 231.022575 
L 177.764955 231.022575 
L 215.937985 231.022575 
L 254.111015 231.022575 
L 292.284045 231.022575 
L 330.457076 231.022575 
L 368.630106 231.022575 
L 406.803136 231.022575 
" clip-path="url(#p25594bd523)" style="fill: none; stroke-dasharray: 4.44,1.92; stroke-dashoffset: 0; stroke: #32cd32; stroke-width: 1.2"/>
   </g>
   <g id="patch_3">
    <path d="M 46.068 246.612 
L 46.068 10.368 
" style="fill: none; stroke: #262626; stroke-linejoin: miter; stroke-linecap: square"/>
   </g>
   <g id="patch_4">
    <path d="M 423.981 246.612 
L 423.981 10.368 
" style="fill: none; stroke: #262626; stroke-linejoin: miter; stroke-linecap: square"/>
   </g>
   <g id="patch_5">
    <path d="M 46.068 246.612 
L 423.981 246.612 
" style="fill: none; stroke: #262626; stroke-linejoin: miter; stroke-linecap: square"/>
   </g>
   <g id="patch_6">
    <path d="M 46.068 10.368 
L 423.981 10.368 
" style="fill: none; stroke: #262626; stroke-linejoin: miter; stroke-linecap: square"/>
   </g>
   <g id="legend_1">
    <g id="patch_7">
     <path d="M 368.583625 56.15825 
L 417.821 56.15825 
Q 419.581 56.15825 419.581 54.39825 
L 419.581 16.528 
Q 419.581 14.768 417.821 14.768 
L 368.583625 14.768 
Q 366.823625 14.768 366.823625 16.528 
L 366.823625 54.39825 
Q 366.823625 56.15825 368.583625 56.15825 
z
" style="fill: #ffffff; opacity: 0.8; stroke: #cccccc; stroke-width: 0.8; stroke-linejoin: miter"/>
    </g>
    <g id="line2d_4">
     <path d="M 370.343625 21.894625 
L 379.143625 21.894625 
L 387.943625 21.894625 
" style="fill: none; stroke: #1e90ff; stroke-width: 1.2; stroke-linecap: round"/>
    </g>
    <g id="text_14">
     <!-- train -->
     <g style="fill: #262626" transform="translate(394.983625 24.974625)scale(0.088 -0.088)">
      <defs>
       <path id="DejaVuSans-61" d="M 2194 1759 
Q 1497 1759 1228 1600 
Q 959 1441 959 1056 
Q 959 750 1161 570 
Q 1363 391 1709 391 
Q 2188 391 2477 730 
Q 2766 1069 2766 1631 
L 2766 1759 
L 2194 1759 
z
M 3341 1997 
L 3341 0 
L 2766 0 
L 2766 531 
Q 2569 213 2275 61 
Q 1981 -91 1556 -91 
Q 1019 -91 701 211 
Q 384 513 384 1019 
Q 384 1609 779 1909 
Q 1175 2209 1959 2209 
L 2766 2209 
L 2766 2266 
Q 2766 2663 2505 2880 
Q 2244 3097 1772 3097 
Q 1472 3097 1187 3025 
Q 903 2953 641 2809 
L 641 3341 
Q 956 3463 1253 3523 
Q 1550 3584 1831 3584 
Q 2591 3584 2966 3190 
Q 3341 2797 3341 1997 
z
" transform="scale(0.015625)"/>
       <path id="DejaVuSans-69" d="M 603 3500 
L 1178 3500 
L 1178 0 
L 603 0 
L 603 3500 
z
M 603 4863 
L 1178 4863 
L 1178 4134 
L 603 4134 
L 603 4863 
z
" transform="scale(0.015625)"/>
      </defs>
      <use xlink:href="#DejaVuSans-74"/>
      <use xlink:href="#DejaVuSans-72" x="39.208984"/>
      <use xlink:href="#DejaVuSans-61" x="80.322266"/>
      <use xlink:href="#DejaVuSans-69" x="141.601562"/>
      <use xlink:href="#DejaVuSans-6e" x="169.384766"/>
     </g>
    </g>
    <g id="line2d_5">
     <path d="M 370.343625 34.811375 
L 379.143625 34.811375 
L 387.943625 34.811375 
" style="fill: none; stroke: #ff8c00; stroke-width: 1.2; stroke-linecap: round"/>
    </g>
    <g id="text_15">
     <!-- valid -->
     <g style="fill: #262626" transform="translate(394.983625 37.891375)scale(0.088 -0.088)">
      <defs>
       <path id="DejaVuSans-76" d="M 191 3500 
L 800 3500 
L 1894 563 
L 2988 3500 
L 3597 3500 
L 2284 0 
L 1503 0 
L 191 3500 
z
" transform="scale(0.015625)"/>
       <path id="DejaVuSans-6c" d="M 603 4863 
L 1178 4863 
L 1178 0 
L 603 0 
L 603 4863 
z
" transform="scale(0.015625)"/>
       <path id="DejaVuSans-64" d="M 2906 2969 
L 2906 4863 
L 3481 4863 
L 3481 0 
L 2906 0 
L 2906 525 
Q 2725 213 2448 61 
Q 2172 -91 1784 -91 
Q 1150 -91 751 415 
Q 353 922 353 1747 
Q 353 2572 751 3078 
Q 1150 3584 1784 3584 
Q 2172 3584 2448 3432 
Q 2725 3281 2906 2969 
z
M 947 1747 
Q 947 1113 1208 752 
Q 1469 391 1925 391 
Q 2381 391 2643 752 
Q 2906 1113 2906 1747 
Q 2906 2381 2643 2742 
Q 2381 3103 1925 3103 
Q 1469 3103 1208 2742 
Q 947 2381 947 1747 
z
" transform="scale(0.015625)"/>
      </defs>
      <use xlink:href="#DejaVuSans-76"/>
      <use xlink:href="#DejaVuSans-61" x="59.179688"/>
      <use xlink:href="#DejaVuSans-6c" x="120.458984"/>
      <use xlink:href="#DejaVuSans-69" x="148.242188"/>
      <use xlink:href="#DejaVuSans-64" x="176.025391"/>
     </g>
    </g>
    <g id="line2d_6">
     <path d="M 370.343625 47.728125 
L 379.143625 47.728125 
L 387.943625 47.728125 
" style="fill: none; stroke-dasharray: 4.44,1.92; stroke-dashoffset: 0; stroke: #32cd32; stroke-width: 1.2"/>
    </g>
    <g id="text_16">
     <!-- test -->
     <g style="fill: #262626" transform="translate(394.983625 50.808125)scale(0.088 -0.088)">
      <use xlink:href="#DejaVuSans-74"/>
      <use xlink:href="#DejaVuSans-65" x="39.208984"/>
      <use xlink:href="#DejaVuSans-73" x="100.732422"/>
      <use xlink:href="#DejaVuSans-74" x="152.832031"/>
     </g>
    </g>
   </g>
  </g>
  <g id="axes_2">
   <g id="patch_8">
    <path d="M 475.719 246.612 
L 853.632 246.612 
L 853.632 10.368 
L 475.719 10.368 
z
" style="fill: #ffffff"/>
   </g>
   <g id="matplotlib.axis_3">
    <g id="xtick_6">
     <g id="text_17">
      <!-- 0 -->
      <g style="fill: #262626" transform="translate(490.097364 261.598625)scale(0.088 -0.088)">
       <use xlink:href="#DejaVuSans-30"/>
      </g>
     </g>
    </g>
    <g id="xtick_7">
     <g id="text_18">
      <!-- 2 -->
      <g style="fill: #262626" transform="translate(566.443424 261.598625)scale(0.088 -0.088)">
       <use xlink:href="#DejaVuSans-32"/>
      </g>
     </g>
    </g>
    <g id="xtick_8">
     <g id="text_19">
      <!-- 4 -->
      <g style="fill: #262626" transform="translate(642.789485 261.598625)scale(0.088 -0.088)">
       <use xlink:href="#DejaVuSans-34"/>
      </g>
     </g>
    </g>
    <g id="xtick_9">
     <g id="text_20">
      <!-- 6 -->
      <g style="fill: #262626" transform="translate(719.135545 261.598625)scale(0.088 -0.088)">
       <use xlink:href="#DejaVuSans-36"/>
      </g>
     </g>
    </g>
    <g id="xtick_10">
     <g id="text_21">
      <!-- 8 -->
      <g style="fill: #262626" transform="translate(795.481606 261.598625)scale(0.088 -0.088)">
       <use xlink:href="#DejaVuSans-38"/>
      </g>
     </g>
    </g>
    <g id="text_22">
     <!-- epochs -->
     <g style="fill: #262626" transform="translate(647.556 274.72325)scale(0.096 -0.096)">
      <use xlink:href="#DejaVuSans-65"/>
      <use xlink:href="#DejaVuSans-70" x="61.523438"/>
      <use xlink:href="#DejaVuSans-6f" x="125"/>
      <use xlink:href="#DejaVuSans-63" x="186.181641"/>
      <use xlink:href="#DejaVuSans-68" x="241.162109"/>
      <use xlink:href="#DejaVuSans-73" x="304.541016"/>
     </g>
    </g>
   </g>
   <g id="matplotlib.axis_4">
    <g id="ytick_7">
     <g id="text_23">
      <!-- 80.0 -->
      <g style="fill: #262626" transform="translate(447.82525 237.841733)scale(0.088 -0.088)">
       <use xlink:href="#DejaVuSans-38"/>
       <use xlink:href="#DejaVuSans-30" x="63.623047"/>
       <use xlink:href="#DejaVuSans-2e" x="127.246094"/>
       <use xlink:href="#DejaVuSans-30" x="159.033203"/>
      </g>
     </g>
    </g>
    <g id="ytick_8">
     <g id="text_24">
      <!-- 82.5 -->
      <g style="fill: #262626" transform="translate(447.82525 206.704759)scale(0.088 -0.088)">
       <use xlink:href="#DejaVuSans-38"/>
       <use xlink:href="#DejaVuSans-32" x="63.623047"/>
       <use xlink:href="#DejaVuSans-2e" x="127.246094"/>
       <use xlink:href="#DejaVuSans-35" x="159.033203"/>
      </g>
     </g>
    </g>
    <g id="ytick_9">
     <g id="text_25">
      <!-- 85.0 -->
      <g style="fill: #262626" transform="translate(447.82525 175.567786)scale(0.088 -0.088)">
       <use xlink:href="#DejaVuSans-38"/>
       <use xlink:href="#DejaVuSans-35" x="63.623047"/>
       <use xlink:href="#DejaVuSans-2e" x="127.246094"/>
       <use xlink:href="#DejaVuSans-30" x="159.033203"/>
      </g>
     </g>
    </g>
    <g id="ytick_10">
     <g id="text_26">
      <!-- 87.5 -->
      <g style="fill: #262626" transform="translate(447.82525 144.430813)scale(0.088 -0.088)">
       <defs>
        <path id="DejaVuSans-37" d="M 525 4666 
L 3525 4666 
L 3525 4397 
L 1831 0 
L 1172 0 
L 2766 4134 
L 525 4134 
L 525 4666 
z
" transform="scale(0.015625)"/>
       </defs>
       <use xlink:href="#DejaVuSans-38"/>
       <use xlink:href="#DejaVuSans-37" x="63.623047"/>
       <use xlink:href="#DejaVuSans-2e" x="127.246094"/>
       <use xlink:href="#DejaVuSans-35" x="159.033203"/>
      </g>
     </g>
    </g>
    <g id="ytick_11">
     <g id="text_27">
      <!-- 90.0 -->
      <g style="fill: #262626" transform="translate(447.82525 113.29384)scale(0.088 -0.088)">
       <defs>
        <path id="DejaVuSans-39" d="M 703 97 
L 703 672 
Q 941 559 1184 500 
Q 1428 441 1663 441 
Q 2288 441 2617 861 
Q 2947 1281 2994 2138 
Q 2813 1869 2534 1725 
Q 2256 1581 1919 1581 
Q 1219 1581 811 2004 
Q 403 2428 403 3163 
Q 403 3881 828 4315 
Q 1253 4750 1959 4750 
Q 2769 4750 3195 4129 
Q 3622 3509 3622 2328 
Q 3622 1225 3098 567 
Q 2575 -91 1691 -91 
Q 1453 -91 1209 -44 
Q 966 3 703 97 
z
M 1959 2075 
Q 2384 2075 2632 2365 
Q 2881 2656 2881 3163 
Q 2881 3666 2632 3958 
Q 2384 4250 1959 4250 
Q 1534 4250 1286 3958 
Q 1038 3666 1038 3163 
Q 1038 2656 1286 2365 
Q 1534 2075 1959 2075 
z
" transform="scale(0.015625)"/>
       </defs>
       <use xlink:href="#DejaVuSans-39"/>
       <use xlink:href="#DejaVuSans-30" x="63.623047"/>
       <use xlink:href="#DejaVuSans-2e" x="127.246094"/>
       <use xlink:href="#DejaVuSans-30" x="159.033203"/>
      </g>
     </g>
    </g>
    <g id="ytick_12">
     <g id="text_28">
      <!-- 92.5 -->
      <g style="fill: #262626" transform="translate(447.82525 82.156866)scale(0.088 -0.088)">
       <use xlink:href="#DejaVuSans-39"/>
       <use xlink:href="#DejaVuSans-32" x="63.623047"/>
       <use xlink:href="#DejaVuSans-2e" x="127.246094"/>
       <use xlink:href="#DejaVuSans-35" x="159.033203"/>
      </g>
     </g>
    </g>
    <g id="ytick_13">
     <g id="text_29">
      <!-- 95.0 -->
      <g style="fill: #262626" transform="translate(447.82525 51.019893)scale(0.088 -0.088)">
       <use xlink:href="#DejaVuSans-39"/>
       <use xlink:href="#DejaVuSans-35" x="63.623047"/>
       <use xlink:href="#DejaVuSans-2e" x="127.246094"/>
       <use xlink:href="#DejaVuSans-30" x="159.033203"/>
      </g>
     </g>
    </g>
    <g id="ytick_14">
     <g id="text_30">
      <!-- 97.5 -->
      <g style="fill: #262626" transform="translate(447.82525 19.88292)scale(0.088 -0.088)">
       <use xlink:href="#DejaVuSans-39"/>
       <use xlink:href="#DejaVuSans-37" x="63.623047"/>
       <use xlink:href="#DejaVuSans-2e" x="127.246094"/>
       <use xlink:href="#DejaVuSans-35" x="159.033203"/>
      </g>
     </g>
    </g>
    <g id="text_31">
     <!-- accuracy (%) -->
     <g style="fill: #262626" transform="translate(441.82875 159.97875)rotate(-90)scale(0.096 -0.096)">
      <defs>
       <path id="DejaVuSans-75" d="M 544 1381 
L 544 3500 
L 1119 3500 
L 1119 1403 
Q 1119 906 1312 657 
Q 1506 409 1894 409 
Q 2359 409 2629 706 
Q 2900 1003 2900 1516 
L 2900 3500 
L 3475 3500 
L 3475 0 
L 2900 0 
L 2900 538 
Q 2691 219 2414 64 
Q 2138 -91 1772 -91 
Q 1169 -91 856 284 
Q 544 659 544 1381 
z
M 1991 3584 
L 1991 3584 
z
" transform="scale(0.015625)"/>
       <path id="DejaVuSans-28" d="M 1984 4856 
Q 1566 4138 1362 3434 
Q 1159 2731 1159 2009 
Q 1159 1288 1364 580 
Q 1569 -128 1984 -844 
L 1484 -844 
Q 1016 -109 783 600 
Q 550 1309 550 2009 
Q 550 2706 781 3412 
Q 1013 4119 1484 4856 
L 1984 4856 
z
" transform="scale(0.015625)"/>
       <path id="DejaVuSans-25" d="M 4653 2053 
Q 4381 2053 4226 1822 
Q 4072 1591 4072 1178 
Q 4072 772 4226 539 
Q 4381 306 4653 306 
Q 4919 306 5073 539 
Q 5228 772 5228 1178 
Q 5228 1588 5073 1820 
Q 4919 2053 4653 2053 
z
M 4653 2450 
Q 5147 2450 5437 2106 
Q 5728 1763 5728 1178 
Q 5728 594 5436 251 
Q 5144 -91 4653 -91 
Q 4153 -91 3862 251 
Q 3572 594 3572 1178 
Q 3572 1766 3864 2108 
Q 4156 2450 4653 2450 
z
M 1428 4353 
Q 1159 4353 1004 4120 
Q 850 3888 850 3481 
Q 850 3069 1003 2837 
Q 1156 2606 1428 2606 
Q 1700 2606 1854 2837 
Q 2009 3069 2009 3481 
Q 2009 3884 1853 4118 
Q 1697 4353 1428 4353 
z
M 4250 4750 
L 4750 4750 
L 1831 -91 
L 1331 -91 
L 4250 4750 
z
M 1428 4750 
Q 1922 4750 2215 4408 
Q 2509 4066 2509 3481 
Q 2509 2891 2217 2550 
Q 1925 2209 1428 2209 
Q 931 2209 642 2551 
Q 353 2894 353 3481 
Q 353 4063 643 4406 
Q 934 4750 1428 4750 
z
" transform="scale(0.015625)"/>
       <path id="DejaVuSans-29" d="M 513 4856 
L 1013 4856 
Q 1481 4119 1714 3412 
Q 1947 2706 1947 2009 
Q 1947 1309 1714 600 
Q 1481 -109 1013 -844 
L 513 -844 
Q 928 -128 1133 580 
Q 1338 1288 1338 2009 
Q 1338 2731 1133 3434 
Q 928 4138 513 4856 
z
" transform="scale(0.015625)"/>
      </defs>
      <use xlink:href="#DejaVuSans-61"/>
      <use xlink:href="#DejaVuSans-63" x="61.279297"/>
      <use xlink:href="#DejaVuSans-63" x="116.259766"/>
      <use xlink:href="#DejaVuSans-75" x="171.240234"/>
      <use xlink:href="#DejaVuSans-72" x="234.619141"/>
      <use xlink:href="#DejaVuSans-61" x="275.732422"/>
      <use xlink:href="#DejaVuSans-63" x="337.011719"/>
      <use xlink:href="#DejaVuSans-79" x="391.992188"/>
      <use xlink:href="#DejaVuSans-20" x="451.171875"/>
      <use xlink:href="#DejaVuSans-28" x="482.958984"/>
      <use xlink:href="#DejaVuSans-25" x="521.972656"/>
      <use xlink:href="#DejaVuSans-29" x="616.992188"/>
     </g>
    </g>
   </g>
   <g id="line2d_7">
    <path d="M 492.896864 235.873636 
L 531.069894 69.576252 
L 569.242924 55.019717 
L 607.415955 41.267554 
L 645.588985 31.64104 
L 683.762015 27.904603 
L 721.935045 24.687116 
L 760.108076 21.521523 
L 798.281106 22.118315 
L 836.454136 21.910735 
" clip-path="url(#p0354ecd136)" style="fill: none; stroke: #1e90ff; stroke-width: 1.2; stroke-linecap: round"/>
   </g>
   <g id="line2d_8">
    <path d="M 492.896864 91.579713 
L 531.069894 58.782101 
L 569.242924 53.385026 
L 607.415955 43.524984 
L 645.588985 32.834624 
L 683.762015 28.786817 
L 721.935045 33.457363 
L 760.108076 28.164078 
L 798.281106 21.106364 
L 836.454136 27.541338 
" clip-path="url(#p0354ecd136)" style="fill: none; stroke: #ff8c00; stroke-width: 1.2; stroke-linecap: round"/>
   </g>
   <g id="line2d_9">
    <path d="M 492.896864 22.268811 
L 531.069894 22.268811 
L 569.242924 22.268811 
L 607.415955 22.268811 
L 645.588985 22.268811 
L 683.762015 22.268811 
L 721.935045 22.268811 
L 760.108076 22.268811 
L 798.281106 22.268811 
L 836.454136 22.268811 
" clip-path="url(#p0354ecd136)" style="fill: none; stroke-dasharray: 4.44,1.92; stroke-dashoffset: 0; stroke: #32cd32; stroke-width: 1.2"/>
   </g>
   <g id="patch_9">
    <path d="M 475.719 246.612 
L 475.719 10.368 
" style="fill: none; stroke: #262626; stroke-linejoin: miter; stroke-linecap: square"/>
   </g>
   <g id="patch_10">
    <path d="M 853.632 246.612 
L 853.632 10.368 
" style="fill: none; stroke: #262626; stroke-linejoin: miter; stroke-linecap: square"/>
   </g>
   <g id="patch_11">
    <path d="M 475.719 246.612 
L 853.632 246.612 
" style="fill: none; stroke: #262626; stroke-linejoin: miter; stroke-linecap: square"/>
   </g>
   <g id="patch_12">
    <path d="M 475.719 10.368 
L 853.632 10.368 
" style="fill: none; stroke: #262626; stroke-linejoin: miter; stroke-linecap: square"/>
   </g>
   <g id="legend_2">
    <g id="patch_13">
     <path d="M 798.234625 242.212 
L 847.472 242.212 
Q 849.232 242.212 849.232 240.452 
L 849.232 202.58175 
Q 849.232 200.82175 847.472 200.82175 
L 798.234625 200.82175 
Q 796.474625 200.82175 796.474625 202.58175 
L 796.474625 240.452 
Q 796.474625 242.212 798.234625 242.212 
z
" style="fill: #ffffff; opacity: 0.8; stroke: #cccccc; stroke-width: 0.8; stroke-linejoin: miter"/>
    </g>
    <g id="line2d_10">
     <path d="M 799.994625 207.948375 
L 808.794625 207.948375 
L 817.594625 207.948375 
" style="fill: none; stroke: #1e90ff; stroke-width: 1.2; stroke-linecap: round"/>
    </g>
    <g id="text_32">
     <!-- train -->
     <g style="fill: #262626" transform="translate(824.634625 211.028375)scale(0.088 -0.088)">
      <use xlink:href="#DejaVuSans-74"/>
      <use xlink:href="#DejaVuSans-72" x="39.208984"/>
      <use xlink:href="#DejaVuSans-61" x="80.322266"/>
      <use xlink:href="#DejaVuSans-69" x="141.601562"/>
      <use xlink:href="#DejaVuSans-6e" x="169.384766"/>
     </g>
    </g>
    <g id="line2d_11">
     <path d="M 799.994625 220.865125 
L 808.794625 220.865125 
L 817.594625 220.865125 
" style="fill: none; stroke: #ff8c00; stroke-width: 1.2; stroke-linecap: round"/>
    </g>
    <g id="text_33">
     <!-- valid -->
     <g style="fill: #262626" transform="translate(824.634625 223.945125)scale(0.088 -0.088)">
      <use xlink:href="#DejaVuSans-76"/>
      <use xlink:href="#DejaVuSans-61" x="59.179688"/>
      <use xlink:href="#DejaVuSans-6c" x="120.458984"/>
      <use xlink:href="#DejaVuSans-69" x="148.242188"/>
      <use xlink:href="#DejaVuSans-64" x="176.025391"/>
     </g>
    </g>
    <g id="line2d_12">
     <path d="M 799.994625 233.781875 
L 808.794625 233.781875 
L 817.594625 233.781875 
" style="fill: none; stroke-dasharray: 4.44,1.92; stroke-dashoffset: 0; stroke: #32cd32; stroke-width: 1.2"/>
    </g>
    <g id="text_34">
     <!-- test -->
     <g style="fill: #262626" transform="translate(824.634625 236.861875)scale(0.088 -0.088)">
      <use xlink:href="#DejaVuSans-74"/>
      <use xlink:href="#DejaVuSans-65" x="39.208984"/>
      <use xlink:href="#DejaVuSans-73" x="100.732422"/>
      <use xlink:href="#DejaVuSans-74" x="152.832031"/>
     </g>
    </g>
   </g>
  </g>
 </g>
 <defs>
  <clipPath id="p25594bd523">
   <rect x="46.068" y="10.368" width="377.913" height="236.244"/>
  </clipPath>
  <clipPath id="p0354ecd136">
   <rect x="475.719" y="10.368" width="377.913" height="236.244"/>
  </clipPath>
 </defs>
</svg>
