<?xml version="1.0" encoding="utf-8" standalone="no"?>
<!DOCTYPE svg PUBLIC "-//W3C//DTD SVG 1.1//EN"
  "http://www.w3.org/Graphics/SVG/1.1/DTD/svg11.dtd">
<svg xmlns:xlink="http://www.w3.org/1999/xlink" width="864pt" height="288pt" viewBox="0 0 864 288" xmlns="http://www.w3.org/2000/svg" version="1.1">
 <metadata>
  <rdf:RDF xmlns:dc="http://purl.org/dc/elements/1.1/" xmlns:cc="http://creativecommons.org/ns#" xmlns:rdf="http://www.w3.org/1999/02/22-rdf-syntax-ns#">
   <cc:Work>
    <dc:type rdf:resource="http://purl.org/dc/dcmitype/StillImage"/>
    <dc:date>2023-02-06T13:36:11.115386</dc:date>
    <dc:format>image/svg+xml</dc:format>
    <dc:creator>
     <cc:Agent>
      <dc:title>Matplotlib v3.5.0, https://matplotlib.org/</dc:title>
     </cc:Agent>
    </dc:creator>
   </cc:Work>
  </rdf:RDF>
 </metadata>
 <defs>
  <style type="text/css">*{stroke-linejoin: round; stroke-linecap: butt}</style>
 </defs>
 <g id="figure_1">
  <g id="patch_1">
   <path d="M 0 288 
L 864 288 
L 864 0 
L 0 0 
z
" style="fill: #ffffff"/>
  </g>
  <g id="axes_1">
   <g id="patch_2">
    <path d="M 54.078 246.612 
L 299.599 246.612 
L 299.599 13.968 
L 54.078 13.968 
z
" style="fill: #ffffff"/>
   </g>
   <g id="matplotlib.axis_1">
    <g id="xtick_1">
     <g id="text_1">
      <!-- −0.2 -->
      <g style="fill: #262626" transform="translate(43.393563 261.598625)scale(0.088 -0.088)">
       <defs>
        <path id="DejaVuSans-2212" d="M 678 2272 
L 4684 2272 
L 4684 1741 
L 678 1741 
L 678 2272 
z
" transform="scale(0.015625)"/>
        <path id="DejaVuSans-30" d="M 2034 4250 
Q 1547 4250 1301 3770 
Q 1056 3291 1056 2328 
Q 1056 1369 1301 889 
Q 1547 409 2034 409 
Q 2525 409 2770 889 
Q 3016 1369 3016 2328 
Q 3016 3291 2770 3770 
Q 2525 4250 2034 4250 
z
M 2034 4750 
Q 2819 4750 3233 4129 
Q 3647 3509 3647 2328 
Q 3647 1150 3233 529 
Q 2819 -91 2034 -91 
Q 1250 -91 836 529 
Q 422 1150 422 2328 
Q 422 3509 836 4129 
Q 1250 4750 2034 4750 
z
" transform="scale(0.015625)"/>
        <path id="DejaVuSans-2e" d="M 684 794 
L 1344 794 
L 1344 0 
L 684 0 
L 684 794 
z
" transform="scale(0.015625)"/>
        <path id="DejaVuSans-32" d="M 1228 531 
L 3431 531 
L 3431 0 
L 469 0 
L 469 531 
Q 828 903 1448 1529 
Q 2069 2156 2228 2338 
Q 2531 2678 2651 2914 
Q 2772 3150 2772 3378 
Q 2772 3750 2511 3984 
Q 2250 4219 1831 4219 
Q 1534 4219 1204 4116 
Q 875 4013 500 3803 
L 500 4441 
Q 881 4594 1212 4672 
Q 1544 4750 1819 4750 
Q 2544 4750 2975 4387 
Q 3406 4025 3406 3419 
Q 3406 3131 3298 2873 
Q 3191 2616 2906 2266 
Q 2828 2175 2409 1742 
Q 1991 1309 1228 531 
z
" transform="scale(0.015625)"/>
       </defs>
       <use xlink:href="#DejaVuSans-2212"/>
       <use xlink:href="#DejaVuSans-30" x="83.789062"/>
       <use xlink:href="#DejaVuSans-2e" x="147.412109"/>
       <use xlink:href="#DejaVuSans-32" x="179.199219"/>
      </g>
     </g>
    </g>
    <g id="xtick_2">
     <g id="text_2">
      <!-- 0.0 -->
      <g style="fill: #262626" transform="translate(82.155054 261.598625)scale(0.088 -0.088)">
       <use xlink:href="#DejaVuSans-30"/>
       <use xlink:href="#DejaVuSans-2e" x="63.623047"/>
       <use xlink:href="#DejaVuSans-30" x="95.410156"/>
      </g>
     </g>
    </g>
    <g id="xtick_3">
     <g id="text_3">
      <!-- 0.2 -->
      <g style="fill: #262626" transform="translate(117.229482 261.598625)scale(0.088 -0.088)">
       <use xlink:href="#DejaVuSans-30"/>
       <use xlink:href="#DejaVuSans-2e" x="63.623047"/>
       <use xlink:href="#DejaVuSans-32" x="95.410156"/>
      </g>
     </g>
    </g>
    <g id="xtick_4">
     <g id="text_4">
      <!-- 0.4 -->
      <g style="fill: #262626" transform="translate(152.303911 261.598625)scale(0.088 -0.088)">
       <defs>
        <path id="DejaVuSans-34" d="M 2419 4116 
L 825 1625 
L 2419 1625 
L 2419 4116 
z
M 2253 4666 
L 3047 4666 
L 3047 1625 
L 3713 1625 
L 3713 1100 
L 3047 1100 
L 3047 0 
L 2419 0 
L 2419 1100 
L 313 1100 
L 313 1709 
L 2253 4666 
z
" transform="scale(0.015625)"/>
       </defs>
       <use xlink:href="#DejaVuSans-30"/>
       <use xlink:href="#DejaVuSans-2e" x="63.623047"/>
       <use xlink:href="#DejaVuSans-34" x="95.410156"/>
      </g>
     </g>
    </g>
    <g id="xtick_5">
     <g id="text_5">
      <!-- 0.6 -->
      <g style="fill: #262626" transform="translate(187.378339 261.598625)scale(0.088 -0.088)">
       <defs>
        <path id="DejaVuSans-36" d="M 2113 2584 
Q 1688 2584 1439 2293 
Q 1191 2003 1191 1497 
Q 1191 994 1439 701 
Q 1688 409 2113 409 
Q 2538 409 2786 701 
Q 3034 994 3034 1497 
Q 3034 2003 2786 2293 
Q 2538 2584 2113 2584 
z
M 3366 4563 
L 3366 3988 
Q 3128 4100 2886 4159 
Q 2644 4219 2406 4219 
Q 1781 4219 1451 3797 
Q 1122 3375 1075 2522 
Q 1259 2794 1537 2939 
Q 1816 3084 2150 3084 
Q 2853 3084 3261 2657 
Q 3669 2231 3669 1497 
Q 3669 778 3244 343 
Q 2819 -91 2113 -91 
Q 1303 -91 875 529 
Q 447 1150 447 2328 
Q 447 3434 972 4092 
Q 1497 4750 2381 4750 
Q 2619 4750 2861 4703 
Q 3103 4656 3366 4563 
z
" transform="scale(0.015625)"/>
       </defs>
       <use xlink:href="#DejaVuSans-30"/>
       <use xlink:href="#DejaVuSans-2e" x="63.623047"/>
       <use xlink:href="#DejaVuSans-36" x="95.410156"/>
      </g>
     </g>
    </g>
    <g id="xtick_6">
     <g id="text_6">
      <!-- 0.8 -->
      <g style="fill: #262626" transform="translate(222.452768 261.598625)scale(0.088 -0.088)">
       <defs>
        <path id="DejaVuSans-38" d="M 2034 2216 
Q 1584 2216 1326 1975 
Q 1069 1734 1069 1313 
Q 1069 891 1326 650 
Q 1584 409 2034 409 
Q 2484 409 2743 651 
Q 3003 894 3003 1313 
Q 3003 1734 2745 1975 
Q 2488 2216 2034 2216 
z
M 1403 2484 
Q 997 2584 770 2862 
Q 544 3141 544 3541 
Q 544 4100 942 4425 
Q 1341 4750 2034 4750 
Q 2731 4750 3128 4425 
Q 3525 4100 3525 3541 
Q 3525 3141 3298 2862 
Q 3072 2584 2669 2484 
Q 3125 2378 3379 2068 
Q 3634 1759 3634 1313 
Q 3634 634 3220 271 
Q 2806 -91 2034 -91 
Q 1263 -91 848 271 
Q 434 634 434 1313 
Q 434 1759 690 2068 
Q 947 2378 1403 2484 
z
M 1172 3481 
Q 1172 3119 1398 2916 
Q 1625 2713 2034 2713 
Q 2441 2713 2670 2916 
Q 2900 3119 2900 3481 
Q 2900 3844 2670 4047 
Q 2441 4250 2034 4250 
Q 1625 4250 1398 4047 
Q 1172 3844 1172 3481 
z
" transform="scale(0.015625)"/>
       </defs>
       <use xlink:href="#DejaVuSans-30"/>
       <use xlink:href="#DejaVuSans-2e" x="63.623047"/>
       <use xlink:href="#DejaVuSans-38" x="95.410156"/>
      </g>
     </g>
    </g>
    <g id="xtick_7">
     <g id="text_7">
      <!-- 1.0 -->
      <g style="fill: #262626" transform="translate(257.527196 261.598625)scale(0.088 -0.088)">
       <defs>
        <path id="DejaVuSans-31" d="M 794 531 
L 1825 531 
L 1825 4091 
L 703 3866 
L 703 4441 
L 1819 4666 
L 2450 4666 
L 2450 531 
L 3481 531 
L 3481 0 
L 794 0 
L 794 531 
z
" transform="scale(0.015625)"/>
       </defs>
       <use xlink:href="#DejaVuSans-31"/>
       <use xlink:href="#DejaVuSans-2e" x="63.623047"/>
       <use xlink:href="#DejaVuSans-30" x="95.410156"/>
      </g>
     </g>
    </g>
    <g id="xtick_8">
     <g id="text_8">
      <!-- 1.2 -->
      <g style="fill: #262626" transform="translate(292.601625 261.598625)scale(0.088 -0.088)">
       <use xlink:href="#DejaVuSans-31"/>
       <use xlink:href="#DejaVuSans-2e" x="63.623047"/>
       <use xlink:href="#DejaVuSans-32" x="95.410156"/>
      </g>
     </g>
    </g>
    <g id="text_9">
     <!-- $x$ -->
     <g style="fill: #262626" transform="translate(173.9585 274.72325)scale(0.096 -0.096)">
      <defs>
       <path id="DejaVuSans-Oblique-78" d="M 3841 3500 
L 2234 1784 
L 3219 0 
L 2559 0 
L 1819 1388 
L 531 0 
L -166 0 
L 1556 1844 
L 641 3500 
L 1300 3500 
L 1972 2234 
L 3144 3500 
L 3841 3500 
z
" transform="scale(0.015625)"/>
      </defs>
      <use xlink:href="#DejaVuSans-Oblique-78" transform="translate(0 0.3125)"/>
     </g>
    </g>
   </g>
   <g id="matplotlib.axis_2">
    <g id="ytick_1">
     <g id="text_10">
      <!-- −0.2 -->
      <g style="fill: #262626" transform="translate(24.409125 249.955312)scale(0.088 -0.088)">
       <use xlink:href="#DejaVuSans-2212"/>
       <use xlink:href="#DejaVuSans-30" x="83.789062"/>
       <use xlink:href="#DejaVuSans-2e" x="147.412109"/>
       <use xlink:href="#DejaVuSans-32" x="179.199219"/>
      </g>
     </g>
    </g>
    <g id="ytick_2">
     <g id="text_11">
      <!-- 0.0 -->
      <g style="fill: #262626" transform="translate(31.78325 216.720455)scale(0.088 -0.088)">
       <use xlink:href="#DejaVuSans-30"/>
       <use xlink:href="#DejaVuSans-2e" x="63.623047"/>
       <use xlink:href="#DejaVuSans-30" x="95.410156"/>
      </g>
     </g>
    </g>
    <g id="ytick_3">
     <g id="text_12">
      <!-- 0.2 -->
      <g style="fill: #262626" transform="translate(31.78325 183.485598)scale(0.088 -0.088)">
       <use xlink:href="#DejaVuSans-30"/>
       <use xlink:href="#DejaVuSans-2e" x="63.623047"/>
       <use xlink:href="#DejaVuSans-32" x="95.410156"/>
      </g>
     </g>
    </g>
    <g id="ytick_4">
     <g id="text_13">
      <!-- 0.4 -->
      <g style="fill: #262626" transform="translate(31.78325 150.250741)scale(0.088 -0.088)">
       <use xlink:href="#DejaVuSans-30"/>
       <use xlink:href="#DejaVuSans-2e" x="63.623047"/>
       <use xlink:href="#DejaVuSans-34" x="95.410156"/>
      </g>
     </g>
    </g>
    <g id="ytick_5">
     <g id="text_14">
      <!-- 0.6 -->
      <g style="fill: #262626" transform="translate(31.78325 117.015884)scale(0.088 -0.088)">
       <use xlink:href="#DejaVuSans-30"/>
       <use xlink:href="#DejaVuSans-2e" x="63.623047"/>
       <use xlink:href="#DejaVuSans-36" x="95.410156"/>
      </g>
     </g>
    </g>
    <g id="ytick_6">
     <g id="text_15">
      <!-- 0.8 -->
      <g style="fill: #262626" transform="translate(31.78325 83.781027)scale(0.088 -0.088)">
       <use xlink:href="#DejaVuSans-30"/>
       <use xlink:href="#DejaVuSans-2e" x="63.623047"/>
       <use xlink:href="#DejaVuSans-38" x="95.410156"/>
      </g>
     </g>
    </g>
    <g id="ytick_7">
     <g id="text_16">
      <!-- 1.0 -->
      <g style="fill: #262626" transform="translate(31.78325 50.54617)scale(0.088 -0.088)">
       <use xlink:href="#DejaVuSans-31"/>
       <use xlink:href="#DejaVuSans-2e" x="63.623047"/>
       <use xlink:href="#DejaVuSans-30" x="95.410156"/>
      </g>
     </g>
    </g>
    <g id="ytick_8">
     <g id="text_17">
      <!-- 1.2 -->
      <g style="fill: #262626" transform="translate(31.78325 17.311313)scale(0.088 -0.088)">
       <use xlink:href="#DejaVuSans-31"/>
       <use xlink:href="#DejaVuSans-2e" x="63.623047"/>
       <use xlink:href="#DejaVuSans-32" x="95.410156"/>
      </g>
     </g>
    </g>
    <g id="text_18">
     <!-- $y$ -->
     <g style="fill: #262626" transform="translate(18.393125 133.17)rotate(-90)scale(0.096 -0.096)">
      <defs>
       <path id="DejaVuSans-Oblique-79" d="M 1588 -325 
Q 1188 -997 936 -1164 
Q 684 -1331 294 -1331 
L -159 -1331 
L -63 -850 
L 269 -850 
Q 509 -850 678 -719 
Q 847 -588 1056 -206 
L 1234 128 
L 459 3500 
L 1069 3500 
L 1650 819 
L 3256 3500 
L 3859 3500 
L 1588 -325 
z
" transform="scale(0.015625)"/>
      </defs>
      <use xlink:href="#DejaVuSans-Oblique-79" transform="translate(0 0.3125)"/>
     </g>
    </g>
   </g>
   <g id="PathCollection_1">
    <defs>
     <path id="maf210c1f9c" d="M 3.872983 0 
L -3.872983 -0 
" style="stroke: #1e90ff; stroke-width: 1.2"/>
    </defs>
    <g clip-path="url(#pc2fdfb284c)">
     <use xlink:href="#maf210c1f9c" x="89.152429" y="213.377143" style="fill: #1e90ff; stroke: #1e90ff; stroke-width: 1.2"/>
     <use xlink:href="#maf210c1f9c" x="264.524571" y="213.377143" style="fill: #1e90ff; stroke: #1e90ff; stroke-width: 1.2"/>
     <use xlink:href="#maf210c1f9c" x="89.152429" y="47.202857" style="fill: #1e90ff; stroke: #1e90ff; stroke-width: 1.2"/>
    </g>
   </g>
   <g id="PathCollection_2">
    <defs>
     <path id="mfc49d3e3b6" d="M -3.872983 0 
L 3.872983 0 
M 0 3.872983 
L 0 -3.872983 
" style="stroke: #ff8c00; stroke-width: 1.2"/>
    </defs>
    <g clip-path="url(#pc2fdfb284c)">
     <use xlink:href="#mfc49d3e3b6" x="264.524571" y="47.202857" style="fill: #ff8c00; stroke: #ff8c00; stroke-width: 1.2"/>
    </g>
   </g>
   <g id="line2d_1">
    <path d="M 125.967583 -1 
L 299.599 163.524857 
L 299.599 163.524857 
" clip-path="url(#pc2fdfb284c)" style="fill: none; stroke: #000000; stroke-width: 1.2; stroke-linecap: round"/>
   </g>
   <g id="patch_3">
    <path d="M 54.078 246.612 
L 54.078 13.968 
" style="fill: none; stroke: #262626; stroke-linejoin: miter; stroke-linecap: square"/>
   </g>
   <g id="patch_4">
    <path d="M 299.599 246.612 
L 299.599 13.968 
" style="fill: none; stroke: #262626; stroke-linejoin: miter; stroke-linecap: square"/>
   </g>
   <g id="patch_5">
    <path d="M 54.078 246.612 
L 299.599 246.612 
" style="fill: none; stroke: #262626; stroke-linejoin: miter; stroke-linecap: square"/>
   </g>
   <g id="patch_6">
    <path d="M 54.078 13.968 
L 299.599 13.968 
" style="fill: none; stroke: #262626; stroke-linejoin: miter; stroke-linecap: square"/>
   </g>
   <g id="legend_1">
    <g id="patch_7">
     <path d="M 140.555688 150.985125 
L 213.121313 150.985125 
Q 214.881313 150.985125 214.881313 149.225125 
L 214.881313 111.354875 
Q 214.881313 109.594875 213.121313 109.594875 
L 140.555688 109.594875 
Q 138.795688 109.594875 138.795688 111.354875 
L 138.795688 149.225125 
Q 138.795688 150.985125 140.555688 150.985125 
z
" style="fill: #ffffff; opacity: 0.8; stroke: #cccccc; stroke-width: 0.8; stroke-linejoin: miter"/>
    </g>
    <g id="PathCollection_3">
     <g>
      <use xlink:href="#maf210c1f9c" x="151.115688" y="117.4915" style="fill: #1e90ff; stroke: #1e90ff; stroke-width: 1.2"/>
     </g>
    </g>
    <g id="text_19">
     <!-- 0 -->
     <g style="fill: #262626" transform="translate(166.955688 119.8015)scale(0.088 -0.088)">
      <use xlink:href="#DejaVuSans-30"/>
     </g>
    </g>
    <g id="PathCollection_4">
     <g>
      <use xlink:href="#mfc49d3e3b6" x="151.115688" y="130.40825" style="fill: #ff8c00; stroke: #ff8c00; stroke-width: 1.2"/>
     </g>
    </g>
    <g id="text_20">
     <!-- 1 -->
     <g style="fill: #262626" transform="translate(166.955688 132.71825)scale(0.088 -0.088)">
      <use xlink:href="#DejaVuSans-31"/>
     </g>
    </g>
    <g id="line2d_2">
     <path d="M 142.315688 142.555 
L 151.115688 142.555 
L 159.915688 142.555 
" style="fill: none; stroke: #000000; stroke-width: 1.2; stroke-linecap: round"/>
    </g>
    <g id="text_21">
     <!-- hyperplan -->
     <g style="fill: #262626" transform="translate(166.955688 145.635)scale(0.088 -0.088)">
      <defs>
       <path id="DejaVuSans-68" d="M 3513 2113 
L 3513 0 
L 2938 0 
L 2938 2094 
Q 2938 2591 2744 2837 
Q 2550 3084 2163 3084 
Q 1697 3084 1428 2787 
Q 1159 2491 1159 1978 
L 1159 0 
L 581 0 
L 581 4863 
L 1159 4863 
L 1159 2956 
Q 1366 3272 1645 3428 
Q 1925 3584 2291 3584 
Q 2894 3584 3203 3211 
Q 3513 2838 3513 2113 
z
" transform="scale(0.015625)"/>
       <path id="DejaVuSans-79" d="M 2059 -325 
Q 1816 -950 1584 -1140 
Q 1353 -1331 966 -1331 
L 506 -1331 
L 506 -850 
L 844 -850 
Q 1081 -850 1212 -737 
Q 1344 -625 1503 -206 
L 1606 56 
L 191 3500 
L 800 3500 
L 1894 763 
L 2988 3500 
L 3597 3500 
L 2059 -325 
z
" transform="scale(0.015625)"/>
       <path id="DejaVuSans-70" d="M 1159 525 
L 1159 -1331 
L 581 -1331 
L 581 3500 
L 1159 3500 
L 1159 2969 
Q 1341 3281 1617 3432 
Q 1894 3584 2278 3584 
Q 2916 3584 3314 3078 
Q 3713 2572 3713 1747 
Q 3713 922 3314 415 
Q 2916 -91 2278 -91 
Q 1894 -91 1617 61 
Q 1341 213 1159 525 
z
M 3116 1747 
Q 3116 2381 2855 2742 
Q 2594 3103 2138 3103 
Q 1681 3103 1420 2742 
Q 1159 2381 1159 1747 
Q 1159 1113 1420 752 
Q 1681 391 2138 391 
Q 2594 391 2855 752 
Q 3116 1113 3116 1747 
z
" transform="scale(0.015625)"/>
       <path id="DejaVuSans-65" d="M 3597 1894 
L 3597 1613 
L 953 1613 
Q 991 1019 1311 708 
Q 1631 397 2203 397 
Q 2534 397 2845 478 
Q 3156 559 3463 722 
L 3463 178 
Q 3153 47 2828 -22 
Q 2503 -91 2169 -91 
Q 1331 -91 842 396 
Q 353 884 353 1716 
Q 353 2575 817 3079 
Q 1281 3584 2069 3584 
Q 2775 3584 3186 3129 
Q 3597 2675 3597 1894 
z
M 3022 2063 
Q 3016 2534 2758 2815 
Q 2500 3097 2075 3097 
Q 1594 3097 1305 2825 
Q 1016 2553 972 2059 
L 3022 2063 
z
" transform="scale(0.015625)"/>
       <path id="DejaVuSans-72" d="M 2631 2963 
Q 2534 3019 2420 3045 
Q 2306 3072 2169 3072 
Q 1681 3072 1420 2755 
Q 1159 2438 1159 1844 
L 1159 0 
L 581 0 
L 581 3500 
L 1159 3500 
L 1159 2956 
Q 1341 3275 1631 3429 
Q 1922 3584 2338 3584 
Q 2397 3584 2469 3576 
Q 2541 3569 2628 3553 
L 2631 2963 
z
" transform="scale(0.015625)"/>
       <path id="DejaVuSans-6c" d="M 603 4863 
L 1178 4863 
L 1178 0 
L 603 0 
L 603 4863 
z
" transform="scale(0.015625)"/>
       <path id="DejaVuSans-61" d="M 2194 1759 
Q 1497 1759 1228 1600 
Q 959 1441 959 1056 
Q 959 750 1161 570 
Q 1363 391 1709 391 
Q 2188 391 2477 730 
Q 2766 1069 2766 1631 
L 2766 1759 
L 2194 1759 
z
M 3341 1997 
L 3341 0 
L 2766 0 
L 2766 531 
Q 2569 213 2275 61 
Q 1981 -91 1556 -91 
Q 1019 -91 701 211 
Q 384 513 384 1019 
Q 384 1609 779 1909 
Q 1175 2209 1959 2209 
L 2766 2209 
L 2766 2266 
Q 2766 2663 2505 2880 
Q 2244 3097 1772 3097 
Q 1472 3097 1187 3025 
Q 903 2953 641 2809 
L 641 3341 
Q 956 3463 1253 3523 
Q 1550 3584 1831 3584 
Q 2591 3584 2966 3190 
Q 3341 2797 3341 1997 
z
" transform="scale(0.015625)"/>
       <path id="DejaVuSans-6e" d="M 3513 2113 
L 3513 0 
L 2938 0 
L 2938 2094 
Q 2938 2591 2744 2837 
Q 2550 3084 2163 3084 
Q 1697 3084 1428 2787 
Q 1159 2491 1159 1978 
L 1159 0 
L 581 0 
L 581 3500 
L 1159 3500 
L 1159 2956 
Q 1366 3272 1645 3428 
Q 1925 3584 2291 3584 
Q 2894 3584 3203 3211 
Q 3513 2838 3513 2113 
z
" transform="scale(0.015625)"/>
      </defs>
      <use xlink:href="#DejaVuSans-68"/>
      <use xlink:href="#DejaVuSans-79" x="63.378906"/>
      <use xlink:href="#DejaVuSans-70" x="122.558594"/>
      <use xlink:href="#DejaVuSans-65" x="186.035156"/>
      <use xlink:href="#DejaVuSans-72" x="247.558594"/>
      <use xlink:href="#DejaVuSans-70" x="288.671875"/>
      <use xlink:href="#DejaVuSans-6c" x="352.148438"/>
      <use xlink:href="#DejaVuSans-61" x="379.931641"/>
      <use xlink:href="#DejaVuSans-6e" x="441.210938"/>
     </g>
    </g>
   </g>
  </g>
  <g id="axes_2">
   <g id="patch_8">
    <path d="M 327.607 246.612 
L 573.128 246.612 
L 573.128 13.968 
L 327.607 13.968 
z
" style="fill: #ffffff"/>
   </g>
   <g id="matplotlib.axis_3">
    <g id="xtick_9">
     <g id="text_22">
      <!-- −0.2 -->
      <g style="fill: #262626" transform="translate(316.922562 261.598625)scale(0.088 -0.088)">
       <use xlink:href="#DejaVuSans-2212"/>
       <use xlink:href="#DejaVuSans-30" x="83.789062"/>
       <use xlink:href="#DejaVuSans-2e" x="147.412109"/>
       <use xlink:href="#DejaVuSans-32" x="179.199219"/>
      </g>
     </g>
    </g>
    <g id="xtick_10">
     <g id="text_23">
      <!-- 0.0 -->
      <g style="fill: #262626" transform="translate(355.684054 261.598625)scale(0.088 -0.088)">
       <use xlink:href="#DejaVuSans-30"/>
       <use xlink:href="#DejaVuSans-2e" x="63.623047"/>
       <use xlink:href="#DejaVuSans-30" x="95.410156"/>
      </g>
     </g>
    </g>
    <g id="xtick_11">
     <g id="text_24">
      <!-- 0.2 -->
      <g style="fill: #262626" transform="translate(390.758482 261.598625)scale(0.088 -0.088)">
       <use xlink:href="#DejaVuSans-30"/>
       <use xlink:href="#DejaVuSans-2e" x="63.623047"/>
       <use xlink:href="#DejaVuSans-32" x="95.410156"/>
      </g>
     </g>
    </g>
    <g id="xtick_12">
     <g id="text_25">
      <!-- 0.4 -->
      <g style="fill: #262626" transform="translate(425.832911 261.598625)scale(0.088 -0.088)">
       <use xlink:href="#DejaVuSans-30"/>
       <use xlink:href="#DejaVuSans-2e" x="63.623047"/>
       <use xlink:href="#DejaVuSans-34" x="95.410156"/>
      </g>
     </g>
    </g>
    <g id="xtick_13">
     <g id="text_26">
      <!-- 0.6 -->
      <g style="fill: #262626" transform="translate(460.907339 261.598625)scale(0.088 -0.088)">
       <use xlink:href="#DejaVuSans-30"/>
       <use xlink:href="#DejaVuSans-2e" x="63.623047"/>
       <use xlink:href="#DejaVuSans-36" x="95.410156"/>
      </g>
     </g>
    </g>
    <g id="xtick_14">
     <g id="text_27">
      <!-- 0.8 -->
      <g style="fill: #262626" transform="translate(495.981768 261.598625)scale(0.088 -0.088)">
       <use xlink:href="#DejaVuSans-30"/>
       <use xlink:href="#DejaVuSans-2e" x="63.623047"/>
       <use xlink:href="#DejaVuSans-38" x="95.410156"/>
      </g>
     </g>
    </g>
    <g id="xtick_15">
     <g id="text_28">
      <!-- 1.0 -->
      <g style="fill: #262626" transform="translate(531.056196 261.598625)scale(0.088 -0.088)">
       <use xlink:href="#DejaVuSans-31"/>
       <use xlink:href="#DejaVuSans-2e" x="63.623047"/>
       <use xlink:href="#DejaVuSans-30" x="95.410156"/>
      </g>
     </g>
    </g>
    <g id="xtick_16">
     <g id="text_29">
      <!-- 1.2 -->
      <g style="fill: #262626" transform="translate(566.130625 261.598625)scale(0.088 -0.088)">
       <use xlink:href="#DejaVuSans-31"/>
       <use xlink:href="#DejaVuSans-2e" x="63.623047"/>
       <use xlink:href="#DejaVuSans-32" x="95.410156"/>
      </g>
     </g>
    </g>
    <g id="text_30">
     <!-- $x$ -->
     <g style="fill: #262626" transform="translate(447.4875 274.72325)scale(0.096 -0.096)">
      <use xlink:href="#DejaVuSans-Oblique-78" transform="translate(0 0.3125)"/>
     </g>
    </g>
   </g>
   <g id="matplotlib.axis_4"/>
   <g id="PathCollection_5">
    <g clip-path="url(#p8a2bdfd43c)">
     <use xlink:href="#maf210c1f9c" x="362.681429" y="213.377143" style="fill: #1e90ff; stroke: #1e90ff; stroke-width: 1.2"/>
    </g>
   </g>
   <g id="PathCollection_6">
    <g clip-path="url(#p8a2bdfd43c)">
     <use xlink:href="#mfc49d3e3b6" x="538.053571" y="47.202857" style="fill: #ff8c00; stroke: #ff8c00; stroke-width: 1.2"/>
     <use xlink:href="#mfc49d3e3b6" x="538.053571" y="213.377143" style="fill: #ff8c00; stroke: #ff8c00; stroke-width: 1.2"/>
     <use xlink:href="#mfc49d3e3b6" x="362.681429" y="47.202857" style="fill: #ff8c00; stroke: #ff8c00; stroke-width: 1.2"/>
    </g>
   </g>
   <g id="line2d_3">
    <path d="M 327.607 97.055143 
L 530.176133 289 
L 530.176133 289 
" clip-path="url(#p8a2bdfd43c)" style="fill: none; stroke: #000000; stroke-width: 1.2; stroke-linecap: round"/>
   </g>
   <g id="patch_9">
    <path d="M 327.607 246.612 
L 327.607 13.968 
" style="fill: none; stroke: #262626; stroke-linejoin: miter; stroke-linecap: square"/>
   </g>
   <g id="patch_10">
    <path d="M 573.128 246.612 
L 573.128 13.968 
" style="fill: none; stroke: #262626; stroke-linejoin: miter; stroke-linecap: square"/>
   </g>
   <g id="patch_11">
    <path d="M 327.607 246.612 
L 573.128 246.612 
" style="fill: none; stroke: #262626; stroke-linejoin: miter; stroke-linecap: square"/>
   </g>
   <g id="patch_12">
    <path d="M 327.607 13.968 
L 573.128 13.968 
" style="fill: none; stroke: #262626; stroke-linejoin: miter; stroke-linecap: square"/>
   </g>
   <g id="legend_2">
    <g id="patch_13">
     <path d="M 414.084687 150.985125 
L 486.650312 150.985125 
Q 488.410312 150.985125 488.410312 149.225125 
L 488.410312 111.354875 
Q 488.410312 109.594875 486.650312 109.594875 
L 414.084687 109.594875 
Q 412.324687 109.594875 412.324687 111.354875 
L 412.324687 149.225125 
Q 412.324687 150.985125 414.084687 150.985125 
z
" style="fill: #ffffff; opacity: 0.8; stroke: #cccccc; stroke-width: 0.8; stroke-linejoin: miter"/>
    </g>
    <g id="PathCollection_7">
     <g>
      <use xlink:href="#maf210c1f9c" x="424.644687" y="117.4915" style="fill: #1e90ff; stroke: #1e90ff; stroke-width: 1.2"/>
     </g>
    </g>
    <g id="text_31">
     <!-- 0 -->
     <g style="fill: #262626" transform="translate(440.484687 119.8015)scale(0.088 -0.088)">
      <use xlink:href="#DejaVuSans-30"/>
     </g>
    </g>
    <g id="PathCollection_8">
     <g>
      <use xlink:href="#mfc49d3e3b6" x="424.644687" y="130.40825" style="fill: #ff8c00; stroke: #ff8c00; stroke-width: 1.2"/>
     </g>
    </g>
    <g id="text_32">
     <!-- 1 -->
     <g style="fill: #262626" transform="translate(440.484687 132.71825)scale(0.088 -0.088)">
      <use xlink:href="#DejaVuSans-31"/>
     </g>
    </g>
    <g id="line2d_4">
     <path d="M 415.844687 142.555 
L 424.644687 142.555 
L 433.444687 142.555 
" style="fill: none; stroke: #000000; stroke-width: 1.2; stroke-linecap: round"/>
    </g>
    <g id="text_33">
     <!-- hyperplan -->
     <g style="fill: #262626" transform="translate(440.484687 145.635)scale(0.088 -0.088)">
      <use xlink:href="#DejaVuSans-68"/>
      <use xlink:href="#DejaVuSans-79" x="63.378906"/>
      <use xlink:href="#DejaVuSans-70" x="122.558594"/>
      <use xlink:href="#DejaVuSans-65" x="186.035156"/>
      <use xlink:href="#DejaVuSans-72" x="247.558594"/>
      <use xlink:href="#DejaVuSans-70" x="288.671875"/>
      <use xlink:href="#DejaVuSans-6c" x="352.148438"/>
      <use xlink:href="#DejaVuSans-61" x="379.931641"/>
      <use xlink:href="#DejaVuSans-6e" x="441.210938"/>
     </g>
    </g>
   </g>
  </g>
  <g id="axes_3">
   <g id="patch_14">
    <path d="M 601.136 246.612 
L 846.657 246.612 
L 846.657 13.968 
L 601.136 13.968 
z
" style="fill: #ffffff"/>
   </g>
   <g id="matplotlib.axis_5">
    <g id="xtick_17">
     <g id="text_34">
      <!-- −0.2 -->
      <g style="fill: #262626" transform="translate(590.451563 261.598625)scale(0.088 -0.088)">
       <use xlink:href="#DejaVuSans-2212"/>
       <use xlink:href="#DejaVuSans-30" x="83.789062"/>
       <use xlink:href="#DejaVuSans-2e" x="147.412109"/>
       <use xlink:href="#DejaVuSans-32" x="179.199219"/>
      </g>
     </g>
    </g>
    <g id="xtick_18">
     <g id="text_35">
      <!-- 0.0 -->
      <g style="fill: #262626" transform="translate(629.213054 261.598625)scale(0.088 -0.088)">
       <use xlink:href="#DejaVuSans-30"/>
       <use xlink:href="#DejaVuSans-2e" x="63.623047"/>
       <use xlink:href="#DejaVuSans-30" x="95.410156"/>
      </g>
     </g>
    </g>
    <g id="xtick_19">
     <g id="text_36">
      <!-- 0.2 -->
      <g style="fill: #262626" transform="translate(664.287482 261.598625)scale(0.088 -0.088)">
       <use xlink:href="#DejaVuSans-30"/>
       <use xlink:href="#DejaVuSans-2e" x="63.623047"/>
       <use xlink:href="#DejaVuSans-32" x="95.410156"/>
      </g>
     </g>
    </g>
    <g id="xtick_20">
     <g id="text_37">
      <!-- 0.4 -->
      <g style="fill: #262626" transform="translate(699.361911 261.598625)scale(0.088 -0.088)">
       <use xlink:href="#DejaVuSans-30"/>
       <use xlink:href="#DejaVuSans-2e" x="63.623047"/>
       <use xlink:href="#DejaVuSans-34" x="95.410156"/>
      </g>
     </g>
    </g>
    <g id="xtick_21">
     <g id="text_38">
      <!-- 0.6 -->
      <g style="fill: #262626" transform="translate(734.436339 261.598625)scale(0.088 -0.088)">
       <use xlink:href="#DejaVuSans-30"/>
       <use xlink:href="#DejaVuSans-2e" x="63.623047"/>
       <use xlink:href="#DejaVuSans-36" x="95.410156"/>
      </g>
     </g>
    </g>
    <g id="xtick_22">
     <g id="text_39">
      <!-- 0.8 -->
      <g style="fill: #262626" transform="translate(769.510768 261.598625)scale(0.088 -0.088)">
       <use xlink:href="#DejaVuSans-30"/>
       <use xlink:href="#DejaVuSans-2e" x="63.623047"/>
       <use xlink:href="#DejaVuSans-38" x="95.410156"/>
      </g>
     </g>
    </g>
    <g id="xtick_23">
     <g id="text_40">
      <!-- 1.0 -->
      <g style="fill: #262626" transform="translate(804.585196 261.598625)scale(0.088 -0.088)">
       <use xlink:href="#DejaVuSans-31"/>
       <use xlink:href="#DejaVuSans-2e" x="63.623047"/>
       <use xlink:href="#DejaVuSans-30" x="95.410156"/>
      </g>
     </g>
    </g>
    <g id="xtick_24">
     <g id="text_41">
      <!-- 1.2 -->
      <g style="fill: #262626" transform="translate(839.659625 261.598625)scale(0.088 -0.088)">
       <use xlink:href="#DejaVuSans-31"/>
       <use xlink:href="#DejaVuSans-2e" x="63.623047"/>
       <use xlink:href="#DejaVuSans-32" x="95.410156"/>
      </g>
     </g>
    </g>
    <g id="text_42">
     <!-- $x$ -->
     <g style="fill: #262626" transform="translate(721.0165 274.72325)scale(0.096 -0.096)">
      <use xlink:href="#DejaVuSans-Oblique-78" transform="translate(0 0.3125)"/>
     </g>
    </g>
   </g>
   <g id="matplotlib.axis_6"/>
   <g id="PathCollection_9">
    <g clip-path="url(#p9b6163896f)">
     <use xlink:href="#maf210c1f9c" x="636.210429" y="213.377143" style="fill: #1e90ff; stroke: #1e90ff; stroke-width: 1.2"/>
     <use xlink:href="#maf210c1f9c" x="811.582571" y="47.202857" style="fill: #1e90ff; stroke: #1e90ff; stroke-width: 1.2"/>
    </g>
   </g>
   <g id="PathCollection_10">
    <g clip-path="url(#p9b6163896f)">
     <use xlink:href="#mfc49d3e3b6" x="811.582571" y="213.377143" style="fill: #ff8c00; stroke: #ff8c00; stroke-width: 1.2"/>
     <use xlink:href="#mfc49d3e3b6" x="636.210429" y="47.202857" style="fill: #ff8c00; stroke: #ff8c00; stroke-width: 1.2"/>
    </g>
   </g>
   <g id="line2d_5">
    <path d="M 673.025583 -1 
L 846.657 163.524857 
L 846.657 163.524857 
" clip-path="url(#p9b6163896f)" style="fill: none; stroke-dasharray: 4.44,1.92; stroke-dashoffset: 0; stroke: #000000; stroke-width: 1.2"/>
   </g>
   <g id="line2d_6">
    <path d="M 601.136 97.055143 
L 803.705133 289 
L 803.705133 289 
" clip-path="url(#p9b6163896f)" style="fill: none; stroke-dasharray: 4.44,1.92; stroke-dashoffset: 0; stroke: #000000; stroke-width: 1.2"/>
   </g>
   <g id="patch_15">
    <path d="M 601.136 246.612 
L 601.136 13.968 
" style="fill: none; stroke: #262626; stroke-linejoin: miter; stroke-linecap: square"/>
   </g>
   <g id="patch_16">
    <path d="M 846.657 246.612 
L 846.657 13.968 
" style="fill: none; stroke: #262626; stroke-linejoin: miter; stroke-linecap: square"/>
   </g>
   <g id="patch_17">
    <path d="M 601.136 246.612 
L 846.657 246.612 
" style="fill: none; stroke: #262626; stroke-linejoin: miter; stroke-linecap: square"/>
   </g>
   <g id="patch_18">
    <path d="M 601.136 13.968 
L 846.657 13.968 
" style="fill: none; stroke: #262626; stroke-linejoin: miter; stroke-linecap: square"/>
   </g>
   <g id="legend_3">
    <g id="patch_19">
     <path d="M 685.27825 150.985125 
L 762.51475 150.985125 
Q 764.27475 150.985125 764.27475 149.225125 
L 764.27475 111.354875 
Q 764.27475 109.594875 762.51475 109.594875 
L 685.27825 109.594875 
Q 683.51825 109.594875 683.51825 111.354875 
L 683.51825 149.225125 
Q 683.51825 150.985125 685.27825 150.985125 
z
" style="fill: #ffffff; opacity: 0.8; stroke: #cccccc; stroke-width: 0.8; stroke-linejoin: miter"/>
    </g>
    <g id="PathCollection_11">
     <g>
      <use xlink:href="#maf210c1f9c" x="695.83825" y="117.4915" style="fill: #1e90ff; stroke: #1e90ff; stroke-width: 1.2"/>
     </g>
    </g>
    <g id="text_43">
     <!-- 0 -->
     <g style="fill: #262626" transform="translate(711.67825 119.8015)scale(0.088 -0.088)">
      <use xlink:href="#DejaVuSans-30"/>
     </g>
    </g>
    <g id="PathCollection_12">
     <g>
      <use xlink:href="#mfc49d3e3b6" x="695.83825" y="130.40825" style="fill: #ff8c00; stroke: #ff8c00; stroke-width: 1.2"/>
     </g>
    </g>
    <g id="text_44">
     <!-- 1 -->
     <g style="fill: #262626" transform="translate(711.67825 132.71825)scale(0.088 -0.088)">
      <use xlink:href="#DejaVuSans-31"/>
     </g>
    </g>
    <g id="line2d_7">
     <path d="M 687.03825 142.555 
L 695.83825 142.555 
L 704.63825 142.555 
" style="fill: none; stroke-dasharray: 4.44,1.92; stroke-dashoffset: 0; stroke: #000000; stroke-width: 1.2"/>
    </g>
    <g id="text_45">
     <!-- hyperplan? -->
     <g style="fill: #262626" transform="translate(711.67825 145.635)scale(0.088 -0.088)">
      <defs>
       <path id="DejaVuSans-3f" d="M 1222 794 
L 1856 794 
L 1856 0 
L 1222 0 
L 1222 794 
z
M 1838 1253 
L 1241 1253 
L 1241 1734 
Q 1241 2050 1328 2253 
Q 1416 2456 1697 2725 
L 1978 3003 
Q 2156 3169 2236 3316 
Q 2316 3463 2316 3616 
Q 2316 3894 2111 4066 
Q 1906 4238 1569 4238 
Q 1322 4238 1042 4128 
Q 763 4019 459 3809 
L 459 4397 
Q 753 4575 1054 4662 
Q 1356 4750 1678 4750 
Q 2253 4750 2601 4447 
Q 2950 4144 2950 3647 
Q 2950 3409 2837 3195 
Q 2725 2981 2444 2713 
L 2169 2444 
Q 2022 2297 1961 2214 
Q 1900 2131 1875 2053 
Q 1856 1988 1847 1894 
Q 1838 1800 1838 1638 
L 1838 1253 
z
" transform="scale(0.015625)"/>
      </defs>
      <use xlink:href="#DejaVuSans-68"/>
      <use xlink:href="#DejaVuSans-79" x="63.378906"/>
      <use xlink:href="#DejaVuSans-70" x="122.558594"/>
      <use xlink:href="#DejaVuSans-65" x="186.035156"/>
      <use xlink:href="#DejaVuSans-72" x="247.558594"/>
      <use xlink:href="#DejaVuSans-70" x="288.671875"/>
      <use xlink:href="#DejaVuSans-6c" x="352.148438"/>
      <use xlink:href="#DejaVuSans-61" x="379.931641"/>
      <use xlink:href="#DejaVuSans-6e" x="441.210938"/>
      <use xlink:href="#DejaVuSans-3f" x="504.589844"/>
     </g>
    </g>
   </g>
  </g>
 </g>
 <defs>
  <clipPath id="pc2fdfb284c">
   <rect x="54.078" y="13.968" width="245.521" height="232.644"/>
  </clipPath>
  <clipPath id="p8a2bdfd43c">
   <rect x="327.607" y="13.968" width="245.521" height="232.644"/>
  </clipPath>
  <clipPath id="p9b6163896f">
   <rect x="601.136" y="13.968" width="245.521" height="232.644"/>
  </clipPath>
 </defs>
</svg>
