<?xml version="1.0" encoding="utf-8" standalone="no"?>
<!DOCTYPE svg PUBLIC "-//W3C//DTD SVG 1.1//EN"
  "http://www.w3.org/Graphics/SVG/1.1/DTD/svg11.dtd">
<svg xmlns:xlink="http://www.w3.org/1999/xlink" width="576pt" height="288pt" viewBox="0 0 576 288" xmlns="http://www.w3.org/2000/svg" version="1.1">
 <metadata>
  <rdf:RDF xmlns:dc="http://purl.org/dc/elements/1.1/" xmlns:cc="http://creativecommons.org/ns#" xmlns:rdf="http://www.w3.org/1999/02/22-rdf-syntax-ns#">
   <cc:Work>
    <dc:type rdf:resource="http://purl.org/dc/dcmitype/StillImage"/>
    <dc:date>2023-02-04T10:38:52.702975</dc:date>
    <dc:format>image/svg+xml</dc:format>
    <dc:creator>
     <cc:Agent>
      <dc:title>Matplotlib v3.5.0, https://matplotlib.org/</dc:title>
     </cc:Agent>
    </dc:creator>
   </cc:Work>
  </rdf:RDF>
 </metadata>
 <defs>
  <style type="text/css">*{stroke-linejoin: round; stroke-linecap: butt}</style>
 </defs>
 <g id="figure_1">
  <g id="patch_1">
   <path d="M 0 288 
L 576 288 
L 576 0 
L 0 0 
z
" style="fill: #ffffff"/>
  </g>
  <g id="axes_1">
   <g id="patch_2">
    <path d="M 54.168 246.612 
L 563.773768 246.612 
L 563.773768 10.368 
L 54.168 10.368 
z
" style="fill: #ffffff"/>
   </g>
   <g id="matplotlib.axis_1">
    <g id="xtick_1">
     <g id="text_1">
      <!-- −10.0 -->
      <g style="fill: #262626" transform="translate(49.71035 261.598625)scale(0.088 -0.088)">
       <defs>
        <path id="DejaVuSans-2212" d="M 678 2272 
L 4684 2272 
L 4684 1741 
L 678 1741 
L 678 2272 
z
" transform="scale(0.015625)"/>
        <path id="DejaVuSans-31" d="M 794 531 
L 1825 531 
L 1825 4091 
L 703 3866 
L 703 4441 
L 1819 4666 
L 2450 4666 
L 2450 531 
L 3481 531 
L 3481 0 
L 794 0 
L 794 531 
z
" transform="scale(0.015625)"/>
        <path id="DejaVuSans-30" d="M 2034 4250 
Q 1547 4250 1301 3770 
Q 1056 3291 1056 2328 
Q 1056 1369 1301 889 
Q 1547 409 2034 409 
Q 2525 409 2770 889 
Q 3016 1369 3016 2328 
Q 3016 3291 2770 3770 
Q 2525 4250 2034 4250 
z
M 2034 4750 
Q 2819 4750 3233 4129 
Q 3647 3509 3647 2328 
Q 3647 1150 3233 529 
Q 2819 -91 2034 -91 
Q 1250 -91 836 529 
Q 422 1150 422 2328 
Q 422 3509 836 4129 
Q 1250 4750 2034 4750 
z
" transform="scale(0.015625)"/>
        <path id="DejaVuSans-2e" d="M 684 794 
L 1344 794 
L 1344 0 
L 684 0 
L 684 794 
z
" transform="scale(0.015625)"/>
       </defs>
       <use xlink:href="#DejaVuSans-2212"/>
       <use xlink:href="#DejaVuSans-31" x="83.789062"/>
       <use xlink:href="#DejaVuSans-30" x="147.412109"/>
       <use xlink:href="#DejaVuSans-2e" x="211.035156"/>
       <use xlink:href="#DejaVuSans-30" x="242.822266"/>
      </g>
     </g>
    </g>
    <g id="xtick_2">
     <g id="text_2">
      <!-- −7.5 -->
      <g style="fill: #262626" transform="translate(113.953999 261.598625)scale(0.088 -0.088)">
       <defs>
        <path id="DejaVuSans-37" d="M 525 4666 
L 3525 4666 
L 3525 4397 
L 1831 0 
L 1172 0 
L 2766 4134 
L 525 4134 
L 525 4666 
z
" transform="scale(0.015625)"/>
        <path id="DejaVuSans-35" d="M 691 4666 
L 3169 4666 
L 3169 4134 
L 1269 4134 
L 1269 2991 
Q 1406 3038 1543 3061 
Q 1681 3084 1819 3084 
Q 2600 3084 3056 2656 
Q 3513 2228 3513 1497 
Q 3513 744 3044 326 
Q 2575 -91 1722 -91 
Q 1428 -91 1123 -41 
Q 819 9 494 109 
L 494 744 
Q 775 591 1075 516 
Q 1375 441 1709 441 
Q 2250 441 2565 725 
Q 2881 1009 2881 1497 
Q 2881 1984 2565 2268 
Q 2250 2553 1709 2553 
Q 1456 2553 1204 2497 
Q 953 2441 691 2322 
L 691 4666 
z
" transform="scale(0.015625)"/>
       </defs>
       <use xlink:href="#DejaVuSans-2212"/>
       <use xlink:href="#DejaVuSans-37" x="83.789062"/>
       <use xlink:href="#DejaVuSans-2e" x="147.412109"/>
       <use xlink:href="#DejaVuSans-35" x="179.199219"/>
      </g>
     </g>
    </g>
    <g id="xtick_3">
     <g id="text_3">
      <!-- −5.0 -->
      <g style="fill: #262626" transform="translate(175.398148 261.598625)scale(0.088 -0.088)">
       <use xlink:href="#DejaVuSans-2212"/>
       <use xlink:href="#DejaVuSans-35" x="83.789062"/>
       <use xlink:href="#DejaVuSans-2e" x="147.412109"/>
       <use xlink:href="#DejaVuSans-30" x="179.199219"/>
      </g>
     </g>
    </g>
    <g id="xtick_4">
     <g id="text_4">
      <!-- −2.5 -->
      <g style="fill: #262626" transform="translate(236.842298 261.598625)scale(0.088 -0.088)">
       <defs>
        <path id="DejaVuSans-32" d="M 1228 531 
L 3431 531 
L 3431 0 
L 469 0 
L 469 531 
Q 828 903 1448 1529 
Q 2069 2156 2228 2338 
Q 2531 2678 2651 2914 
Q 2772 3150 2772 3378 
Q 2772 3750 2511 3984 
Q 2250 4219 1831 4219 
Q 1534 4219 1204 4116 
Q 875 4013 500 3803 
L 500 4441 
Q 881 4594 1212 4672 
Q 1544 4750 1819 4750 
Q 2544 4750 2975 4387 
Q 3406 4025 3406 3419 
Q 3406 3131 3298 2873 
Q 3191 2616 2906 2266 
Q 2828 2175 2409 1742 
Q 1991 1309 1228 531 
z
" transform="scale(0.015625)"/>
       </defs>
       <use xlink:href="#DejaVuSans-2212"/>
       <use xlink:href="#DejaVuSans-32" x="83.789062"/>
       <use xlink:href="#DejaVuSans-2e" x="147.412109"/>
       <use xlink:href="#DejaVuSans-35" x="179.199219"/>
      </g>
     </g>
    </g>
    <g id="xtick_5">
     <g id="text_5">
      <!-- 0.0 -->
      <g style="fill: #262626" transform="translate(301.973509 261.598625)scale(0.088 -0.088)">
       <use xlink:href="#DejaVuSans-30"/>
       <use xlink:href="#DejaVuSans-2e" x="63.623047"/>
       <use xlink:href="#DejaVuSans-30" x="95.410156"/>
      </g>
     </g>
    </g>
    <g id="xtick_6">
     <g id="text_6">
      <!-- 2.5 -->
      <g style="fill: #262626" transform="translate(363.417658 261.598625)scale(0.088 -0.088)">
       <use xlink:href="#DejaVuSans-32"/>
       <use xlink:href="#DejaVuSans-2e" x="63.623047"/>
       <use xlink:href="#DejaVuSans-35" x="95.410156"/>
      </g>
     </g>
    </g>
    <g id="xtick_7">
     <g id="text_7">
      <!-- 5.0 -->
      <g style="fill: #262626" transform="translate(424.861808 261.598625)scale(0.088 -0.088)">
       <use xlink:href="#DejaVuSans-35"/>
       <use xlink:href="#DejaVuSans-2e" x="63.623047"/>
       <use xlink:href="#DejaVuSans-30" x="95.410156"/>
      </g>
     </g>
    </g>
    <g id="xtick_8">
     <g id="text_8">
      <!-- 7.5 -->
      <g style="fill: #262626" transform="translate(486.305957 261.598625)scale(0.088 -0.088)">
       <use xlink:href="#DejaVuSans-37"/>
       <use xlink:href="#DejaVuSans-2e" x="63.623047"/>
       <use xlink:href="#DejaVuSans-35" x="95.410156"/>
      </g>
     </g>
    </g>
    <g id="xtick_9">
     <g id="text_9">
      <!-- 10.0 -->
      <g style="fill: #262626" transform="translate(544.950606 261.598625)scale(0.088 -0.088)">
       <use xlink:href="#DejaVuSans-31"/>
       <use xlink:href="#DejaVuSans-30" x="63.623047"/>
       <use xlink:href="#DejaVuSans-2e" x="127.246094"/>
       <use xlink:href="#DejaVuSans-30" x="159.033203"/>
      </g>
     </g>
    </g>
    <g id="text_10">
     <!-- $x$ -->
     <g style="fill: #262626" transform="translate(306.090884 274.72325)scale(0.096 -0.096)">
      <defs>
       <path id="DejaVuSans-Oblique-78" d="M 3841 3500 
L 2234 1784 
L 3219 0 
L 2559 0 
L 1819 1388 
L 531 0 
L -166 0 
L 1556 1844 
L 641 3500 
L 1300 3500 
L 1972 2234 
L 3144 3500 
L 3841 3500 
z
" transform="scale(0.015625)"/>
      </defs>
      <use xlink:href="#DejaVuSans-Oblique-78" transform="translate(0 0.3125)"/>
     </g>
    </g>
   </g>
   <g id="matplotlib.axis_2">
    <g id="ytick_1">
     <g id="text_11">
      <!-- −1.0 -->
      <g style="fill: #262626" transform="translate(24.499125 233.695486)scale(0.088 -0.088)">
       <use xlink:href="#DejaVuSans-2212"/>
       <use xlink:href="#DejaVuSans-31" x="83.789062"/>
       <use xlink:href="#DejaVuSans-2e" x="147.412109"/>
       <use xlink:href="#DejaVuSans-30" x="179.199219"/>
      </g>
     </g>
    </g>
    <g id="ytick_2">
     <g id="text_12">
      <!-- −0.5 -->
      <g style="fill: #262626" transform="translate(24.499125 182.058564)scale(0.088 -0.088)">
       <use xlink:href="#DejaVuSans-2212"/>
       <use xlink:href="#DejaVuSans-30" x="83.789062"/>
       <use xlink:href="#DejaVuSans-2e" x="147.412109"/>
       <use xlink:href="#DejaVuSans-35" x="179.199219"/>
      </g>
     </g>
    </g>
    <g id="ytick_3">
     <g id="text_13">
      <!-- 0.0 -->
      <g style="fill: #262626" transform="translate(31.87325 130.421642)scale(0.088 -0.088)">
       <use xlink:href="#DejaVuSans-30"/>
       <use xlink:href="#DejaVuSans-2e" x="63.623047"/>
       <use xlink:href="#DejaVuSans-30" x="95.410156"/>
      </g>
     </g>
    </g>
    <g id="ytick_4">
     <g id="text_14">
      <!-- 0.5 -->
      <g style="fill: #262626" transform="translate(31.87325 78.784721)scale(0.088 -0.088)">
       <use xlink:href="#DejaVuSans-30"/>
       <use xlink:href="#DejaVuSans-2e" x="63.623047"/>
       <use xlink:href="#DejaVuSans-35" x="95.410156"/>
      </g>
     </g>
    </g>
    <g id="ytick_5">
     <g id="text_15">
      <!-- 1.0 -->
      <g style="fill: #262626" transform="translate(31.87325 27.147799)scale(0.088 -0.088)">
       <use xlink:href="#DejaVuSans-31"/>
       <use xlink:href="#DejaVuSans-2e" x="63.623047"/>
       <use xlink:href="#DejaVuSans-30" x="95.410156"/>
      </g>
     </g>
    </g>
    <g id="text_16">
     <!-- $y$ -->
     <g style="fill: #262626" transform="translate(18.483125 131.37)rotate(-90)scale(0.096 -0.096)">
      <defs>
       <path id="DejaVuSans-Oblique-79" d="M 1588 -325 
Q 1188 -997 936 -1164 
Q 684 -1331 294 -1331 
L -159 -1331 
L -63 -850 
L 269 -850 
Q 509 -850 678 -719 
Q 847 -588 1056 -206 
L 1234 128 
L 459 3500 
L 1069 3500 
L 1650 819 
L 3256 3500 
L 3859 3500 
L 1588 -325 
z
" transform="scale(0.015625)"/>
      </defs>
      <use xlink:href="#DejaVuSans-Oblique-79" transform="translate(0 0.3125)"/>
     </g>
    </g>
   </g>
   <g id="PathCollection_1">
    <defs>
     <path id="m1db697873c" d="M -2.4 0 
L 2.4 0 
M 0 2.4 
L 0 -2.4 
" style="stroke: #1f77b4; stroke-width: 1.2"/>
    </defs>
    <g clip-path="url(#p124d202c2c)">
     <use xlink:href="#m1db697873c" x="401.487358" y="187.30727" style="fill: #1f77b4; stroke: #1f77b4; stroke-width: 1.2"/>
     <use xlink:href="#m1db697873c" x="281.378258" y="220.155008" style="fill: #1f77b4; stroke: #1f77b4; stroke-width: 1.2"/>
     <use xlink:href="#m1db697873c" x="509.539186" y="28.621023" style="fill: #1f77b4; stroke: #1f77b4; stroke-width: 1.2"/>
     <use xlink:href="#m1db697873c" x="274.42213" y="228.947865" style="fill: #1f77b4; stroke: #1f77b4; stroke-width: 1.2"/>
     <use xlink:href="#m1db697873c" x="203.005908" y="31.99524" style="fill: #1f77b4; stroke: #1f77b4; stroke-width: 1.2"/>
     <use xlink:href="#m1db697873c" x="287.4069" y="206.502926" style="fill: #1f77b4; stroke: #1f77b4; stroke-width: 1.2"/>
     <use xlink:href="#m1db697873c" x="98.200276" y="204.603148" style="fill: #1f77b4; stroke: #1f77b4; stroke-width: 1.2"/>
     <use xlink:href="#m1db697873c" x="399.632389" y="180.810132" style="fill: #1f77b4; stroke: #1f77b4; stroke-width: 1.2"/>
     <use xlink:href="#m1db697873c" x="485.888343" y="45.219889" style="fill: #1f77b4; stroke: #1f77b4; stroke-width: 1.2"/>
     <use xlink:href="#m1db697873c" x="233.612856" y="134.865391" style="fill: #1f77b4; stroke: #1f77b4; stroke-width: 1.2"/>
     <use xlink:href="#m1db697873c" x="84.288032" y="155.918911" style="fill: #1f77b4; stroke: #1f77b4; stroke-width: 1.2"/>
     <use xlink:href="#m1db697873c" x="121.851096" y="227.378076" style="fill: #1f77b4; stroke: #1f77b4; stroke-width: 1.2"/>
     <use xlink:href="#m1db697873c" x="443.687856" y="201.299591" style="fill: #1f77b4; stroke: #1f77b4; stroke-width: 1.2"/>
     <use xlink:href="#m1db697873c" x="348.6208" y="23.897541" style="fill: #1f77b4; stroke: #1f77b4; stroke-width: 1.2"/>
     <use xlink:href="#m1db697873c" x="114.431232" y="230.158056" style="fill: #1f77b4; stroke: #1f77b4; stroke-width: 1.2"/>
     <use xlink:href="#m1db697873c" x="389.893814" y="142.608118" style="fill: #1f77b4; stroke: #1f77b4; stroke-width: 1.2"/>
     <use xlink:href="#m1db697873c" x="528.088852" y="76.712232" style="fill: #1f77b4; stroke: #1f77b4; stroke-width: 1.2"/>
     <use xlink:href="#m1db697873c" x="261.437362" y="223.614456" style="fill: #1f77b4; stroke: #1f77b4; stroke-width: 1.2"/>
     <use xlink:href="#m1db697873c" x="519.741492" y="49.553512" style="fill: #1f77b4; stroke: #1f77b4; stroke-width: 1.2"/>
     <use xlink:href="#m1db697873c" x="358.823118" y="34.427915" style="fill: #1f77b4; stroke: #1f77b4; stroke-width: 1.2"/>
     <use xlink:href="#m1db697873c" x="343.983377" y="24.90669" style="fill: #1f77b4; stroke: #1f77b4; stroke-width: 1.2"/>
     <use xlink:href="#m1db697873c" x="119.532385" y="229.249976" style="fill: #1f77b4; stroke: #1f77b4; stroke-width: 1.2"/>
     <use xlink:href="#m1db697873c" x="401.9511" y="188.87938" style="fill: #1f77b4; stroke: #1f77b4; stroke-width: 1.2"/>
     <use xlink:href="#m1db697873c" x="339.345961" y="29.542553" style="fill: #1f77b4; stroke: #1f77b4; stroke-width: 1.2"/>
     <use xlink:href="#m1db697873c" x="239.177757" y="157.784729" style="fill: #1f77b4; stroke: #1f77b4; stroke-width: 1.2"/>
     <use xlink:href="#m1db697873c" x="313.840166" y="106.751488" style="fill: #1f77b4; stroke: #1f77b4; stroke-width: 1.2"/>
     <use xlink:href="#m1db697873c" x="121.387354" y="227.824468" style="fill: #1f77b4; stroke: #1f77b4; stroke-width: 1.2"/>
     <use xlink:href="#m1db697873c" x="453.426432" y="167.833836" style="fill: #1f77b4; stroke: #1f77b4; stroke-width: 1.2"/>
     <use xlink:href="#m1db697873c" x="294.363027" y="184.909054" style="fill: #1f77b4; stroke: #1f77b4; stroke-width: 1.2"/>
     <use xlink:href="#m1db697873c" x="120.923612" y="228.234998" style="fill: #1f77b4; stroke: #1f77b4; stroke-width: 1.2"/>
     <use xlink:href="#m1db697873c" x="525.770141" y="68.442964" style="fill: #1f77b4; stroke: #1f77b4; stroke-width: 1.2"/>
     <use xlink:href="#m1db697873c" x="360.678081" y="38.131678" style="fill: #1f77b4; stroke: #1f77b4; stroke-width: 1.2"/>
     <use xlink:href="#m1db697873c" x="458.063843" y="149.31197" style="fill: #1f77b4; stroke: #1f77b4; stroke-width: 1.2"/>
     <use xlink:href="#m1db697873c" x="139.937032" y="184.909072" style="fill: #1f77b4; stroke: #1f77b4; stroke-width: 1.2"/>
     <use xlink:href="#m1db697873c" x="217.845637" y="71.692087" style="fill: #1f77b4; stroke: #1f77b4; stroke-width: 1.2"/>
     <use xlink:href="#m1db697873c" x="235.004083" y="140.679016" style="fill: #1f77b4; stroke: #1f77b4; stroke-width: 1.2"/>
     <use xlink:href="#m1db697873c" x="488.670796" y="38.630731" style="fill: #1f77b4; stroke: #1f77b4; stroke-width: 1.2"/>
     <use xlink:href="#m1db697873c" x="193.267321" y="23.805638" style="fill: #1f77b4; stroke: #1f77b4; stroke-width: 1.2"/>
     <use xlink:href="#m1db697873c" x="211.353257" y="50.854646" style="fill: #1f77b4; stroke: #1f77b4; stroke-width: 1.2"/>
     <use xlink:href="#m1db697873c" x="279.987034" y="222.537447" style="fill: #1f77b4; stroke: #1f77b4; stroke-width: 1.2"/>
     <use xlink:href="#m1db697873c" x="539.218643" y="121.235603" style="fill: #1f77b4; stroke: #1f77b4; stroke-width: 1.2"/>
     <use xlink:href="#m1db697873c" x="538.291159" y="117.349694" style="fill: #1f77b4; stroke: #1f77b4; stroke-width: 1.2"/>
     <use xlink:href="#m1db697873c" x="439.977918" y="211.254065" style="fill: #1f77b4; stroke: #1f77b4; stroke-width: 1.2"/>
     <use xlink:href="#m1db697873c" x="416.327087" y="224.289528" style="fill: #1f77b4; stroke: #1f77b4; stroke-width: 1.2"/>
     <use xlink:href="#m1db697873c" x="104.228902" y="218.851449" style="fill: #1f77b4; stroke: #1f77b4; stroke-width: 1.2"/>
     <use xlink:href="#m1db697873c" x="290.653092" y="197.118054" style="fill: #1f77b4; stroke: #1f77b4; stroke-width: 1.2"/>
     <use xlink:href="#m1db697873c" x="520.668976" y="52.182902" style="fill: #1f77b4; stroke: #1f77b4; stroke-width: 1.2"/>
     <use xlink:href="#m1db697873c" x="537.363674" y="113.477639" style="fill: #1f77b4; stroke: #1f77b4; stroke-width: 1.2"/>
     <use xlink:href="#m1db697873c" x="341.20093" y="27.260696" style="fill: #1f77b4; stroke: #1f77b4; stroke-width: 1.2"/>
     <use xlink:href="#m1db697873c" x="289.72561" y="199.931508" style="fill: #1f77b4; stroke: #1f77b4; stroke-width: 1.2"/>
    </g>
   </g>
   <g id="PathCollection_2">
    <defs>
     <path id="mcbc71681a2" d="M -2.4 0 
L 2.4 0 
M 0 2.4 
L 0 -2.4 
" style="stroke: #ff7f0e; stroke-width: 1.2"/>
    </defs>
    <g clip-path="url(#p124d202c2c)">
     <use xlink:href="#mcbc71681a2" x="401.487358" y="190.439566" style="fill: #ff7f0e; stroke: #ff7f0e; stroke-width: 1.2"/>
     <use xlink:href="#mcbc71681a2" x="281.378258" y="218.617782" style="fill: #ff7f0e; stroke: #ff7f0e; stroke-width: 1.2"/>
     <use xlink:href="#mcbc71681a2" x="509.539186" y="84.648839" style="fill: #ff7f0e; stroke: #ff7f0e; stroke-width: 1.2"/>
     <use xlink:href="#mcbc71681a2" x="274.42213" y="230.899579" style="fill: #ff7f0e; stroke: #ff7f0e; stroke-width: 1.2"/>
     <use xlink:href="#mcbc71681a2" x="203.005908" y="43.569222" style="fill: #ff7f0e; stroke: #ff7f0e; stroke-width: 1.2"/>
     <use xlink:href="#mcbc71681a2" x="287.4069" y="203.97037" style="fill: #ff7f0e; stroke: #ff7f0e; stroke-width: 1.2"/>
     <use xlink:href="#mcbc71681a2" x="98.200276" y="223.006744" style="fill: #ff7f0e; stroke: #ff7f0e; stroke-width: 1.2"/>
     <use xlink:href="#mcbc71681a2" x="399.632389" y="186.98367" style="fill: #ff7f0e; stroke: #ff7f0e; stroke-width: 1.2"/>
     <use xlink:href="#mcbc71681a2" x="485.888343" y="107.757975" style="fill: #ff7f0e; stroke: #ff7f0e; stroke-width: 1.2"/>
     <use xlink:href="#mcbc71681a2" x="233.612856" y="129.331275" style="fill: #ff7f0e; stroke: #ff7f0e; stroke-width: 1.2"/>
     <use xlink:href="#mcbc71681a2" x="84.288032" y="229.543524" style="fill: #ff7f0e; stroke: #ff7f0e; stroke-width: 1.2"/>
     <use xlink:href="#mcbc71681a2" x="121.851096" y="204.259862" style="fill: #ff7f0e; stroke: #ff7f0e; stroke-width: 1.2"/>
     <use xlink:href="#mcbc71681a2" x="443.687856" y="169.058025" style="fill: #ff7f0e; stroke: #ff7f0e; stroke-width: 1.2"/>
     <use xlink:href="#mcbc71681a2" x="348.6208" y="21.139924" style="fill: #ff7f0e; stroke: #ff7f0e; stroke-width: 1.2"/>
     <use xlink:href="#mcbc71681a2" x="114.431232" y="211.454036" style="fill: #ff7f0e; stroke: #ff7f0e; stroke-width: 1.2"/>
     <use xlink:href="#mcbc71681a2" x="389.893814" y="159.439253" style="fill: #ff7f0e; stroke: #ff7f0e; stroke-width: 1.2"/>
     <use xlink:href="#mcbc71681a2" x="528.088852" y="71.946757" style="fill: #ff7f0e; stroke: #ff7f0e; stroke-width: 1.2"/>
     <use xlink:href="#mcbc71681a2" x="261.437362" y="232.555017" style="fill: #ff7f0e; stroke: #ff7f0e; stroke-width: 1.2"/>
     <use xlink:href="#mcbc71681a2" x="519.741492" y="77.151065" style="fill: #ff7f0e; stroke: #ff7f0e; stroke-width: 1.2"/>
     <use xlink:href="#mcbc71681a2" x="358.823118" y="34.049733" style="fill: #ff7f0e; stroke: #ff7f0e; stroke-width: 1.2"/>
     <use xlink:href="#mcbc71681a2" x="343.983377" y="22.907406" style="fill: #ff7f0e; stroke: #ff7f0e; stroke-width: 1.2"/>
     <use xlink:href="#mcbc71681a2" x="119.532385" y="206.659229" style="fill: #ff7f0e; stroke: #ff7f0e; stroke-width: 1.2"/>
     <use xlink:href="#mcbc71681a2" x="401.9511" y="191.215498" style="fill: #ff7f0e; stroke: #ff7f0e; stroke-width: 1.2"/>
     <use xlink:href="#mcbc71681a2" x="339.345961" y="29.095496" style="fill: #ff7f0e; stroke: #ff7f0e; stroke-width: 1.2"/>
     <use xlink:href="#mcbc71681a2" x="239.177757" y="157.944371" style="fill: #ff7f0e; stroke: #ff7f0e; stroke-width: 1.2"/>
     <use xlink:href="#mcbc71681a2" x="313.840166" y="114.275264" style="fill: #ff7f0e; stroke: #ff7f0e; stroke-width: 1.2"/>
     <use xlink:href="#mcbc71681a2" x="121.387354" y="204.751301" style="fill: #ff7f0e; stroke: #ff7f0e; stroke-width: 1.2"/>
     <use xlink:href="#mcbc71681a2" x="453.426432" y="153.521547" style="fill: #ff7f0e; stroke: #ff7f0e; stroke-width: 1.2"/>
     <use xlink:href="#mcbc71681a2" x="294.363027" y="184.082258" style="fill: #ff7f0e; stroke: #ff7f0e; stroke-width: 1.2"/>
     <use xlink:href="#mcbc71681a2" x="120.923612" y="205.236916" style="fill: #ff7f0e; stroke: #ff7f0e; stroke-width: 1.2"/>
     <use xlink:href="#mcbc71681a2" x="525.770141" y="73.314808" style="fill: #ff7f0e; stroke: #ff7f0e; stroke-width: 1.2"/>
     <use xlink:href="#mcbc71681a2" x="360.678081" y="38.834974" style="fill: #ff7f0e; stroke: #ff7f0e; stroke-width: 1.2"/>
     <use xlink:href="#mcbc71681a2" x="458.063843" y="146.191543" style="fill: #ff7f0e; stroke: #ff7f0e; stroke-width: 1.2"/>
     <use xlink:href="#mcbc71681a2" x="139.937032" y="179.941884" style="fill: #ff7f0e; stroke: #ff7f0e; stroke-width: 1.2"/>
     <use xlink:href="#mcbc71681a2" x="217.845637" y="60.483742" style="fill: #ff7f0e; stroke: #ff7f0e; stroke-width: 1.2"/>
     <use xlink:href="#mcbc71681a2" x="235.004083" y="136.568347" style="fill: #ff7f0e; stroke: #ff7f0e; stroke-width: 1.2"/>
     <use xlink:href="#mcbc71681a2" x="488.670796" y="104.582353" style="fill: #ff7f0e; stroke: #ff7f0e; stroke-width: 1.2"/>
     <use xlink:href="#mcbc71681a2" x="193.267321" y="55.532343" style="fill: #ff7f0e; stroke: #ff7f0e; stroke-width: 1.2"/>
     <use xlink:href="#mcbc71681a2" x="211.353257" y="46.80295" style="fill: #ff7f0e; stroke: #ff7f0e; stroke-width: 1.2"/>
     <use xlink:href="#mcbc71681a2" x="279.987034" y="221.537181" style="fill: #ff7f0e; stroke: #ff7f0e; stroke-width: 1.2"/>
     <use xlink:href="#mcbc71681a2" x="539.218643" y="66.130939" style="fill: #ff7f0e; stroke: #ff7f0e; stroke-width: 1.2"/>
     <use xlink:href="#mcbc71681a2" x="538.291159" y="66.571261" style="fill: #ff7f0e; stroke: #ff7f0e; stroke-width: 1.2"/>
     <use xlink:href="#mcbc71681a2" x="439.977918" y="174.816719" style="fill: #ff7f0e; stroke: #ff7f0e; stroke-width: 1.2"/>
     <use xlink:href="#mcbc71681a2" x="416.327087" y="199.929871" style="fill: #ff7f0e; stroke: #ff7f0e; stroke-width: 1.2"/>
     <use xlink:href="#mcbc71681a2" x="104.228902" y="219.295803" style="fill: #ff7f0e; stroke: #ff7f0e; stroke-width: 1.2"/>
     <use xlink:href="#mcbc71681a2" x="290.653092" y="195.026098" style="fill: #ff7f0e; stroke: #ff7f0e; stroke-width: 1.2"/>
     <use xlink:href="#mcbc71681a2" x="520.668976" y="76.533596" style="fill: #ff7f0e; stroke: #ff7f0e; stroke-width: 1.2"/>
     <use xlink:href="#mcbc71681a2" x="537.363674" y="67.019161" style="fill: #ff7f0e; stroke: #ff7f0e; stroke-width: 1.2"/>
     <use xlink:href="#mcbc71681a2" x="341.20093" y="26.120482" style="fill: #ff7f0e; stroke: #ff7f0e; stroke-width: 1.2"/>
     <use xlink:href="#mcbc71681a2" x="289.72561" y="197.64514" style="fill: #ff7f0e; stroke: #ff7f0e; stroke-width: 1.2"/>
    </g>
   </g>
   <g id="line2d_1">
    <path d="M 77.331899 127.078327 
L 84.751775 157.784756 
L 88.461689 172.262969 
L 91.707885 184.099272 
L 94.490338 193.461467 
L 96.80905 200.618837 
L 99.127761 207.122143 
L 101.446449 212.913504 
L 103.301418 216.999235 
L 105.156387 220.572992 
L 107.011356 223.614431 
L 108.402583 225.535637 
L 109.793809 227.141461 
L 111.185036 228.426751 
L 112.576263 229.387388 
L 113.96749 230.020294 
L 115.358716 230.323451 
L 116.749943 230.29588 
L 118.141158 229.937674 
L 119.532385 229.249976 
L 120.923612 228.234998 
L 122.314838 226.895976 
L 123.706065 225.237208 
L 125.097292 223.264011 
L 126.952261 220.155027 
L 128.80723 216.5161 
L 130.662199 212.367958 
L 132.517168 207.734206 
L 134.835868 201.299615 
L 137.154579 194.204879 
L 139.937032 184.909072 
L 143.183228 173.137071 
L 146.893166 158.713547 
L 151.530565 139.712628 
L 163.12411 91.756619 
L 166.834048 77.565017 
L 170.080232 66.060661 
L 172.862685 57.038612 
L 175.181397 50.200663 
L 177.500108 44.046459 
L 179.355077 39.652382 
L 181.210046 35.756072 
L 183.065015 32.379719 
L 184.919972 29.542553 
L 186.311199 27.778333 
L 187.702426 26.332198 
L 189.093653 25.208788 
L 190.484879 24.4117 
L 191.876106 23.94348 
L 193.267321 23.805638 
L 194.658548 23.998603 
L 196.049775 24.521762 
L 197.441001 25.373445 
L 198.832228 26.550925 
L 200.223455 28.050417 
L 201.614682 29.867132 
L 203.005908 31.99524 
L 204.860877 35.305192 
L 206.715846 39.137663 
L 208.570804 43.470806 
L 210.889515 49.553525 
L 213.208226 56.325738 
L 215.990668 65.27728 
L 218.773122 75.0201 
L 222.019317 87.219852 
L 226.192986 103.894228 
L 232.685372 130.97463 
L 239.177757 157.784729 
L 242.887695 172.263031 
L 246.133885 184.099309 
L 248.916339 193.461498 
L 251.235044 200.618849 
L 253.553749 207.122143 
L 255.872461 212.913553 
L 257.727424 216.999266 
L 259.582393 220.573023 
L 261.437362 223.614456 
L 262.828589 225.535662 
L 264.219815 227.14148 
L 265.611036 228.426757 
L 267.002263 229.387394 
L 268.39349 230.0203 
L 269.784711 230.323451 
L 271.175938 230.29588 
L 272.567164 229.937667 
L 273.958391 229.24997 
L 275.349615 228.234985 
L 276.740839 226.895964 
L 278.132065 225.237195 
L 279.523292 223.263993 
L 281.378258 220.155008 
L 283.233224 216.516094 
L 285.08819 212.367952 
L 286.943158 207.734206 
L 289.261868 201.299584 
L 291.580575 194.204861 
L 294.363027 184.909054 
L 297.609218 173.137071 
L 301.319152 158.713566 
L 305.956569 139.71257 
L 317.5501 91.756619 
L 321.260033 77.565035 
L 324.506226 66.060648 
L 327.288677 57.038606 
L 329.607385 50.200669 
L 331.926093 44.046466 
L 333.781063 39.652388 
L 335.636029 35.75609 
L 337.490995 32.379737 
L 339.345961 29.542553 
L 340.737188 27.778333 
L 342.128411 26.332204 
L 343.519638 25.208795 
L 344.910862 24.4117 
L 346.302089 23.94348 
L 347.693315 23.805638 
L 349.084536 23.998603 
L 350.475763 24.521762 
L 351.86699 25.373445 
L 353.258211 26.550912 
L 354.649438 28.050411 
L 356.040664 29.867119 
L 357.431888 31.995221 
L 359.28686 35.305174 
L 361.141823 39.137633 
L 362.996792 43.4708 
L 365.315498 49.5535 
L 367.634209 56.325713 
L 370.416657 65.277274 
L 373.199104 75.02007 
L 376.4453 87.219824 
L 380.618974 103.894222 
L 387.11136 130.974623 
L 393.603752 157.784744 
L 397.313678 172.263003 
L 400.559874 184.099297 
L 403.342315 193.461455 
L 405.661027 200.618824 
L 407.979738 207.122136 
L 410.298438 212.913523 
L 412.153407 216.999253 
L 414.008376 220.573004 
L 415.863345 223.614444 
L 417.254571 225.53565 
L 418.645798 227.141467 
L 420.037025 228.426757 
L 421.428252 229.387388 
L 422.819478 230.0203 
L 424.210705 230.323451 
L 425.601932 230.29588 
L 426.993147 229.937674 
L 428.384374 229.24997 
L 429.7756 228.234985 
L 431.166827 226.895964 
L 432.558054 225.237195 
L 433.949269 223.264017 
L 435.804238 220.155033 
L 437.659207 216.516106 
L 439.514176 212.367964 
L 441.369145 207.734219 
L 443.687856 201.299591 
L 446.006568 194.204854 
L 448.789021 184.909042 
L 452.035205 173.137083 
L 455.745143 158.71356 
L 460.382554 139.712594 
L 471.976087 91.756631 
L 475.686025 77.565029 
L 478.932221 66.06063 
L 481.714674 57.038587 
L 484.033385 50.200638 
L 486.352085 44.046466 
L 488.207054 39.652388 
L 490.062023 35.756078 
L 491.916992 32.379725 
L 493.771961 29.542541 
L 495.163188 27.778321 
L 496.554414 26.332192 
L 497.945641 25.208782 
L 499.336868 24.411693 
L 500.728095 23.94348 
L 502.11931 23.805638 
L 503.510537 23.998603 
L 504.901763 24.521768 
L 506.29299 25.373451 
L 507.684217 26.550931 
L 509.075444 28.050429 
L 510.46667 29.867144 
L 511.857897 31.995252 
L 513.712866 35.305211 
L 515.567835 39.137682 
L 517.422781 43.470794 
L 519.741492 49.553512 
L 522.060203 56.325726 
L 524.842657 65.277305 
L 527.62511 75.020125 
L 530.871306 87.219886 
L 535.044963 103.894215 
L 540.60987 127.078332 
L 540.60987 127.078332 
" clip-path="url(#p124d202c2c)" style="fill: none; stroke: #1f77b4; stroke-width: 1.2; stroke-linecap: round"/>
   </g>
   <g id="line2d_2">
    <path d="M 77.331899 231.976107 
L 82.433063 230.239156 
L 87.070462 228.430112 
L 91.707885 226.371593 
L 95.881565 224.278294 
L 100.055246 221.929465 
L 103.76516 219.60346 
L 107.475098 217.030154 
L 111.185036 214.185571 
L 114.894974 211.044282 
L 118.6049 207.579307 
L 121.851096 204.259862 
L 125.097292 200.651787 
L 128.343488 196.735305 
L 131.589684 192.491018 
L 134.835868 187.899833 
L 138.082063 182.943885 
L 141.328259 177.607151 
L 144.574455 171.876207 
L 148.284393 164.83186 
L 151.994307 157.254341 
L 155.704246 149.149244 
L 159.414184 140.537199 
L 163.587852 130.292903 
L 168.225275 118.330792 
L 175.181397 99.678668 
L 182.601273 79.906435 
L 186.311199 70.610173 
L 189.557395 63.099927 
L 191.876106 58.222088 
L 194.194806 53.850386 
L 196.049775 50.780859 
L 197.904744 48.146286 
L 199.29597 46.486903 
L 200.687197 45.123505 
L 202.078424 44.078339 
L 203.469651 43.373461 
L 204.397135 43.103341 
L 205.32462 43.000457 
L 206.252104 43.070834 
L 207.179589 43.320468 
L 208.107061 43.754869 
L 209.034546 44.37941 
L 209.96203 45.198806 
L 211.353257 46.802956 
L 212.744484 48.867895 
L 214.135711 51.402741 
L 215.526938 54.412571 
L 216.918153 57.897989 
L 218.773122 63.276205 
L 220.628091 69.464086 
L 222.48306 76.41536 
L 224.801759 86.075713 
L 227.584213 98.8639 
L 230.830408 114.970434 
L 242.423953 173.695673 
L 245.206407 186.236183 
L 247.525112 195.84587 
L 249.843817 204.580569 
L 252.162529 212.351621 
L 254.017492 217.82411 
L 255.872461 222.600912 
L 257.727424 226.657773 
L 259.118651 229.217887 
L 260.50988 231.359894 
L 261.901104 233.08281 
L 263.292331 234.388401 
L 264.683558 235.281308 
L 265.611036 235.650816 
L 266.538521 235.842994 
L 267.466005 235.861177 
L 268.39349 235.709183 
L 269.320968 235.39121 
L 270.712195 234.613376 
L 272.103422 233.48972 
L 273.494649 232.038845 
L 274.885873 230.280559 
L 276.740839 227.493352 
L 278.595808 224.245608 
L 280.450774 220.586534 
L 282.769482 215.506625 
L 285.551933 208.779563 
L 288.334383 201.47982 
L 291.580575 192.359178 
L 295.29051 181.232898 
L 299.000443 169.376861 
L 302.710377 156.748719 
L 306.420311 143.307194 
L 310.593974 127.265289 
L 316.158874 104.85648 
L 322.651259 78.881435 
L 325.897452 66.715056 
L 328.679901 57.028 
L 331.462353 48.196011 
L 333.781063 41.596407 
L 335.636029 36.874317 
L 337.490995 32.693506 
L 339.345961 29.095496 
L 340.737188 26.803729 
L 342.128411 24.878503 
L 343.519638 23.33479 
L 344.910862 22.186191 
L 345.838346 21.645976 
L 346.765831 21.289764 
L 347.693315 21.120312 
L 348.6208 21.139912 
L 349.548279 21.350458 
L 350.475763 21.753416 
L 351.403248 22.349758 
L 352.330732 23.140026 
L 353.721953 24.689206 
L 355.11318 26.673181 
L 356.504407 29.087789 
L 357.89563 31.926346 
L 359.750602 36.353934 
L 361.605565 41.488235 
L 363.460534 47.290135 
L 365.77924 55.406264 
L 368.097951 64.372555 
L 370.880399 76.056907 
L 374.590331 92.739447 
L 384.328912 137.275617 
L 387.11136 148.844754 
L 389.893814 159.439246 
L 392.212525 167.402741 
L 394.531224 174.509702 
L 396.386193 179.552973 
L 398.241162 184.016301 
L 400.096131 187.900916 
L 401.9511 191.215479 
L 403.806058 193.974955 
L 405.197284 195.69214 
L 406.588511 197.118036 
L 407.979738 198.26363 
L 409.370965 199.140452 
L 410.76218 199.760758 
L 412.153407 200.137044 
L 413.544633 200.282076 
L 414.93586 200.208732 
L 416.327087 199.929865 
L 417.718314 199.458223 
L 419.573283 198.550979 
L 421.428252 197.352182 
L 423.283221 195.889661 
L 425.601932 193.731249 
L 427.920631 191.251705 
L 430.703085 187.916699 
L 433.949269 183.621327 
L 437.659207 178.304027 
L 442.29663 171.238216 
L 449.716494 159.455226 
L 459.918812 143.306065 
L 465.947461 134.184003 
L 471.048602 126.835485 
L 476.149767 119.876709 
L 480.78719 113.911486 
L 485.4246 108.2996 
L 490.062023 103.042129 
L 494.699445 98.134098 
L 499.336868 93.566095 
L 503.974279 89.325698 
L 508.611701 85.398228 
L 513.249124 81.76747 
L 517.886523 78.416761 
L 522.523945 75.32897 
L 527.161368 72.487077 
L 532.262533 69.625141 
L 537.363674 67.019168 
L 540.60987 65.484644 
L 540.60987 65.484644 
" clip-path="url(#p124d202c2c)" style="fill: none; stroke-dasharray: 4.44,1.92; stroke-dashoffset: 0; stroke: #ff7f0e; stroke-width: 1.2"/>
   </g>
   <g id="patch_3">
    <path d="M 54.168 246.612 
L 54.168 10.368 
" style="fill: none; stroke: #262626; stroke-linejoin: miter; stroke-linecap: square"/>
   </g>
   <g id="patch_4">
    <path d="M 563.773768 246.612 
L 563.773768 10.368 
" style="fill: none; stroke: #262626; stroke-linejoin: miter; stroke-linecap: square"/>
   </g>
   <g id="patch_5">
    <path d="M 54.168 246.612 
L 563.773768 246.612 
" style="fill: none; stroke: #262626; stroke-linejoin: miter; stroke-linecap: square"/>
   </g>
   <g id="patch_6">
    <path d="M 54.168 10.368 
L 563.773768 10.368 
" style="fill: none; stroke: #262626; stroke-linejoin: miter; stroke-linecap: square"/>
   </g>
   <g id="legend_1">
    <g id="patch_7">
     <path d="M 60.328 70.5215 
L 143.312 70.5215 
Q 145.072 70.5215 145.072 68.7615 
L 145.072 16.528 
Q 145.072 14.768 143.312 14.768 
L 60.328 14.768 
Q 58.568 14.768 58.568 16.528 
L 58.568 68.7615 
Q 58.568 70.5215 60.328 70.5215 
z
" style="fill: #ffffff; opacity: 0.8; stroke: #cccccc; stroke-width: 0.8; stroke-linejoin: miter"/>
    </g>
    <g id="line2d_3">
     <path d="M 62.088 21.894625 
L 70.888 21.894625 
L 79.688 21.894625 
" style="fill: none; stroke: #1f77b4; stroke-width: 1.2; stroke-linecap: round"/>
    </g>
    <g id="text_17">
     <!-- $D$ -->
     <g style="fill: #262626" transform="translate(86.728 24.974625)scale(0.088 -0.088)">
      <defs>
       <path id="DejaVuSans-Oblique-44" d="M 1081 4666 
L 2438 4666 
Q 3519 4666 4070 4208 
Q 4622 3750 4622 2847 
Q 4622 2250 4412 1698 
Q 4203 1147 3834 769 
Q 3463 381 2891 190 
Q 2319 0 1538 0 
L 172 0 
L 1081 4666 
z
M 1613 4147 
L 909 519 
L 1734 519 
Q 2794 519 3375 1128 
Q 3956 1738 3956 2847 
Q 3956 3519 3581 3833 
Q 3206 4147 2406 4147 
L 1613 4147 
z
" transform="scale(0.015625)"/>
      </defs>
      <use xlink:href="#DejaVuSans-Oblique-44" transform="translate(0 0.09375)"/>
     </g>
    </g>
    <g id="line2d_4">
     <path d="M 62.088 34.811375 
L 70.888 34.811375 
L 79.688 34.811375 
" style="fill: none; stroke-dasharray: 4.44,1.92; stroke-dashoffset: 0; stroke: #ff7f0e; stroke-width: 1.2"/>
    </g>
    <g id="text_18">
     <!-- $f_\theta$ -->
     <g style="fill: #262626" transform="translate(86.728 37.891375)scale(0.088 -0.088)">
      <defs>
       <path id="DejaVuSans-Oblique-66" d="M 3059 4863 
L 2969 4384 
L 2419 4384 
Q 2106 4384 1964 4261 
Q 1822 4138 1753 3809 
L 1691 3500 
L 2638 3500 
L 2553 3053 
L 1606 3053 
L 1013 0 
L 434 0 
L 1031 3053 
L 481 3053 
L 563 3500 
L 1113 3500 
L 1159 3744 
Q 1278 4363 1576 4613 
Q 1875 4863 2516 4863 
L 3059 4863 
z
" transform="scale(0.015625)"/>
       <path id="DejaVuSans-Oblique-3b8" d="M 2913 2219 
L 925 2219 
Q 791 1284 928 888 
Q 1100 400 1566 400 
Q 2034 400 2391 891 
Q 2703 1322 2913 2219 
z
M 3009 2750 
Q 3094 3638 2984 3950 
Q 2813 4444 2353 4444 
Q 1875 4444 1525 3956 
Q 1250 3563 1034 2750 
L 3009 2750 
z
M 2444 4913 
Q 3194 4913 3494 4250 
Q 3794 3591 3566 2422 
Q 3341 1256 2781 594 
Q 2225 -72 1475 -72 
Q 722 -72 425 594 
Q 128 1256 353 2422 
Q 581 3591 1134 4250 
Q 1691 4913 2444 4913 
z
" transform="scale(0.015625)"/>
      </defs>
      <use xlink:href="#DejaVuSans-Oblique-66" transform="translate(0 0.015625)"/>
      <use xlink:href="#DejaVuSans-Oblique-3b8" transform="translate(35.205078 -16.390625)scale(0.7)"/>
     </g>
    </g>
    <g id="PathCollection_3">
     <g>
      <use xlink:href="#m1db697873c" x="70.888" y="48.4995" style="fill: #1f77b4; stroke: #1f77b4; stroke-width: 1.2"/>
     </g>
    </g>
    <g id="text_19">
     <!-- $\{(x_i, y_i)\} \in D$ -->
     <g style="fill: #262626" transform="translate(86.728 50.8095)scale(0.088 -0.088)">
      <defs>
       <path id="DejaVuSans-7b" d="M 3272 -594 
L 3272 -1044 
L 3078 -1044 
Q 2300 -1044 2036 -812 
Q 1772 -581 1772 109 
L 1772 856 
Q 1772 1328 1603 1509 
Q 1434 1691 991 1691 
L 800 1691 
L 800 2138 
L 991 2138 
Q 1438 2138 1605 2317 
Q 1772 2497 1772 2963 
L 1772 3713 
Q 1772 4403 2036 4633 
Q 2300 4863 3078 4863 
L 3272 4863 
L 3272 4416 
L 3059 4416 
Q 2619 4416 2484 4278 
Q 2350 4141 2350 3700 
L 2350 2925 
Q 2350 2434 2208 2212 
Q 2066 1991 1722 1913 
Q 2069 1828 2209 1606 
Q 2350 1384 2350 897 
L 2350 122 
Q 2350 -319 2484 -456 
Q 2619 -594 3059 -594 
L 3272 -594 
z
" transform="scale(0.015625)"/>
       <path id="DejaVuSans-28" d="M 1984 4856 
Q 1566 4138 1362 3434 
Q 1159 2731 1159 2009 
Q 1159 1288 1364 580 
Q 1569 -128 1984 -844 
L 1484 -844 
Q 1016 -109 783 600 
Q 550 1309 550 2009 
Q 550 2706 781 3412 
Q 1013 4119 1484 4856 
L 1984 4856 
z
" transform="scale(0.015625)"/>
       <path id="DejaVuSans-Oblique-69" d="M 1172 4863 
L 1747 4863 
L 1606 4134 
L 1031 4134 
L 1172 4863 
z
M 909 3500 
L 1484 3500 
L 800 0 
L 225 0 
L 909 3500 
z
" transform="scale(0.015625)"/>
       <path id="DejaVuSans-2c" d="M 750 794 
L 1409 794 
L 1409 256 
L 897 -744 
L 494 -744 
L 750 256 
L 750 794 
z
" transform="scale(0.015625)"/>
       <path id="DejaVuSans-29" d="M 513 4856 
L 1013 4856 
Q 1481 4119 1714 3412 
Q 1947 2706 1947 2009 
Q 1947 1309 1714 600 
Q 1481 -109 1013 -844 
L 513 -844 
Q 928 -128 1133 580 
Q 1338 1288 1338 2009 
Q 1338 2731 1133 3434 
Q 928 4138 513 4856 
z
" transform="scale(0.015625)"/>
       <path id="DejaVuSans-7d" d="M 800 -594 
L 1019 -594 
Q 1456 -594 1589 -459 
Q 1722 -325 1722 122 
L 1722 897 
Q 1722 1384 1862 1606 
Q 2003 1828 2350 1913 
Q 2003 1991 1862 2212 
Q 1722 2434 1722 2925 
L 1722 3700 
Q 1722 4144 1589 4280 
Q 1456 4416 1019 4416 
L 800 4416 
L 800 4863 
L 997 4863 
Q 1775 4863 2036 4633 
Q 2297 4403 2297 3713 
L 2297 2963 
Q 2297 2497 2465 2317 
Q 2634 2138 3078 2138 
L 3272 2138 
L 3272 1691 
L 3078 1691 
Q 2634 1691 2465 1509 
Q 2297 1328 2297 856 
L 2297 109 
Q 2297 -581 2036 -812 
Q 1775 -1044 997 -1044 
L 800 -1044 
L 800 -594 
z
" transform="scale(0.015625)"/>
       <path id="DejaVuSans-2208" d="M 1072 1959 
Q 1094 1728 1291 1353 
Q 1522 919 1959 675 
Q 2388 438 2850 434 
L 5028 434 
L 5028 -63 
L 2850 -63 
Q 2250 -63 1695 246 
Q 1141 556 844 1106 
Q 547 1656 547 2241 
Q 547 2819 844 3369 
Q 1141 3919 1695 4231 
Q 2250 4544 2850 4544 
L 5028 4544 
L 5028 4047 
L 2850 4047 
Q 2388 4044 1959 3803 
Q 1525 3556 1291 3125 
Q 1091 2750 1063 2459 
L 5028 2459 
L 5028 1959 
L 1072 1959 
z
" transform="scale(0.015625)"/>
      </defs>
      <use xlink:href="#DejaVuSans-7b" transform="translate(0 0.015625)"/>
      <use xlink:href="#DejaVuSans-28" transform="translate(63.623047 0.015625)"/>
      <use xlink:href="#DejaVuSans-Oblique-78" transform="translate(102.636719 0.015625)"/>
      <use xlink:href="#DejaVuSans-Oblique-69" transform="translate(161.816406 -16.390625)scale(0.7)"/>
      <use xlink:href="#DejaVuSans-2c" transform="translate(183.999023 0.015625)"/>
      <use xlink:href="#DejaVuSans-Oblique-79" transform="translate(235.268555 0.015625)"/>
      <use xlink:href="#DejaVuSans-Oblique-69" transform="translate(294.448242 -16.390625)scale(0.7)"/>
      <use xlink:href="#DejaVuSans-29" transform="translate(316.630859 0.015625)"/>
      <use xlink:href="#DejaVuSans-7d" transform="translate(355.644531 0.015625)"/>
      <use xlink:href="#DejaVuSans-2208" transform="translate(438.75 0.015625)"/>
      <use xlink:href="#DejaVuSans-Oblique-44" transform="translate(545.341797 0.015625)"/>
     </g>
    </g>
    <g id="PathCollection_4">
     <g>
      <use xlink:href="#mcbc71681a2" x="70.888" y="62.8435" style="fill: #ff7f0e; stroke: #ff7f0e; stroke-width: 1.2"/>
     </g>
    </g>
    <g id="text_20">
     <!-- $\hat{y}_i = f_\theta(x_i)$ -->
     <g style="fill: #262626" transform="translate(86.728 65.1535)scale(0.088 -0.088)">
      <defs>
       <path id="DejaVuSans-302" d="M -1831 5119 
L -1369 5119 
L -603 3944 
L -1038 3944 
L -1600 4709 
L -2163 3944 
L -2597 3944 
L -1831 5119 
z
M -1600 3584 
L -1600 3584 
z
" transform="scale(0.015625)"/>
       <path id="DejaVuSans-3d" d="M 678 2906 
L 4684 2906 
L 4684 2381 
L 678 2381 
L 678 2906 
z
M 678 1631 
L 4684 1631 
L 4684 1100 
L 678 1100 
L 678 1631 
z
" transform="scale(0.015625)"/>
      </defs>
      <use xlink:href="#DejaVuSans-302" transform="translate(62.373047 12.015625)"/>
      <use xlink:href="#DejaVuSans-Oblique-79" transform="translate(0 0.828125)"/>
      <use xlink:href="#DejaVuSans-Oblique-69" transform="translate(60.136719 -15.578125)scale(0.7)"/>
      <use xlink:href="#DejaVuSans-3d" transform="translate(101.801758 0.828125)"/>
      <use xlink:href="#DejaVuSans-Oblique-66" transform="translate(205.073242 0.828125)"/>
      <use xlink:href="#DejaVuSans-Oblique-3b8" transform="translate(240.27832 -15.578125)scale(0.7)"/>
      <use xlink:href="#DejaVuSans-28" transform="translate(285.839844 0.828125)"/>
      <use xlink:href="#DejaVuSans-Oblique-78" transform="translate(324.853516 0.828125)"/>
      <use xlink:href="#DejaVuSans-Oblique-69" transform="translate(384.033203 -15.578125)scale(0.7)"/>
      <use xlink:href="#DejaVuSans-29" transform="translate(406.21582 0.828125)"/>
     </g>
    </g>
   </g>
  </g>
 </g>
 <defs>
  <clipPath id="p124d202c2c">
   <rect x="54.168" y="10.368" width="509.605768" height="236.244"/>
  </clipPath>
 </defs>
</svg>
