<?xml version="1.0" encoding="utf-8" standalone="no"?>
<!DOCTYPE svg PUBLIC "-//W3C//DTD SVG 1.1//EN"
  "http://www.w3.org/Graphics/SVG/1.1/DTD/svg11.dtd">
<svg xmlns:xlink="http://www.w3.org/1999/xlink" width="576pt" height="288pt" viewBox="0 0 576 288" xmlns="http://www.w3.org/2000/svg" version="1.1">
 <metadata>
  <rdf:RDF xmlns:dc="http://purl.org/dc/elements/1.1/" xmlns:cc="http://creativecommons.org/ns#" xmlns:rdf="http://www.w3.org/1999/02/22-rdf-syntax-ns#">
   <cc:Work>
    <dc:type rdf:resource="http://purl.org/dc/dcmitype/StillImage"/>
    <dc:date>2023-02-16T11:43:52.985198</dc:date>
    <dc:format>image/svg+xml</dc:format>
    <dc:creator>
     <cc:Agent>
      <dc:title>Matplotlib v3.5.0, https://matplotlib.org/</dc:title>
     </cc:Agent>
    </dc:creator>
   </cc:Work>
  </rdf:RDF>
 </metadata>
 <defs>
  <style type="text/css">*{stroke-linejoin: round; stroke-linecap: butt}</style>
 </defs>
 <g id="figure_1">
  <g id="patch_1">
   <path d="M 0 288 
L 576 288 
L 576 0 
L 0 0 
z
" style="fill: #ffffff"/>
  </g>
  <g id="axes_1">
   <g id="patch_2">
    <path d="M 72 256.32 
L 518.4 256.32 
L 518.4 34.56 
L 72 34.56 
z
" style="fill: #ffffff"/>
   </g>
   <g id="matplotlib.axis_1">
    <g id="xtick_1">
     <g id="text_1">
      <!-- 0 -->
      <g style="fill: #262626" transform="translate(89.491409 271.306625)scale(0.088 -0.088)">
       <defs>
        <path id="DejaVuSans-30" d="M 2034 4250 
Q 1547 4250 1301 3770 
Q 1056 3291 1056 2328 
Q 1056 1369 1301 889 
Q 1547 409 2034 409 
Q 2525 409 2770 889 
Q 3016 1369 3016 2328 
Q 3016 3291 2770 3770 
Q 2525 4250 2034 4250 
z
M 2034 4750 
Q 2819 4750 3233 4129 
Q 3647 3509 3647 2328 
Q 3647 1150 3233 529 
Q 2819 -91 2034 -91 
Q 1250 -91 836 529 
Q 422 1150 422 2328 
Q 422 3509 836 4129 
Q 1250 4750 2034 4750 
z
" transform="scale(0.015625)"/>
       </defs>
       <use xlink:href="#DejaVuSans-30"/>
      </g>
     </g>
    </g>
    <g id="xtick_2">
     <g id="text_2">
      <!-- 20 -->
      <g style="fill: #262626" transform="translate(168.67538 271.306625)scale(0.088 -0.088)">
       <defs>
        <path id="DejaVuSans-32" d="M 1228 531 
L 3431 531 
L 3431 0 
L 469 0 
L 469 531 
Q 828 903 1448 1529 
Q 2069 2156 2228 2338 
Q 2531 2678 2651 2914 
Q 2772 3150 2772 3378 
Q 2772 3750 2511 3984 
Q 2250 4219 1831 4219 
Q 1534 4219 1204 4116 
Q 875 4013 500 3803 
L 500 4441 
Q 881 4594 1212 4672 
Q 1544 4750 1819 4750 
Q 2544 4750 2975 4387 
Q 3406 4025 3406 3419 
Q 3406 3131 3298 2873 
Q 3191 2616 2906 2266 
Q 2828 2175 2409 1742 
Q 1991 1309 1228 531 
z
" transform="scale(0.015625)"/>
       </defs>
       <use xlink:href="#DejaVuSans-32"/>
       <use xlink:href="#DejaVuSans-30" x="63.623047"/>
      </g>
     </g>
    </g>
    <g id="xtick_3">
     <g id="text_3">
      <!-- 40 -->
      <g style="fill: #262626" transform="translate(250.658851 271.306625)scale(0.088 -0.088)">
       <defs>
        <path id="DejaVuSans-34" d="M 2419 4116 
L 825 1625 
L 2419 1625 
L 2419 4116 
z
M 2253 4666 
L 3047 4666 
L 3047 1625 
L 3713 1625 
L 3713 1100 
L 3047 1100 
L 3047 0 
L 2419 0 
L 2419 1100 
L 313 1100 
L 313 1709 
L 2253 4666 
z
" transform="scale(0.015625)"/>
       </defs>
       <use xlink:href="#DejaVuSans-34"/>
       <use xlink:href="#DejaVuSans-30" x="63.623047"/>
      </g>
     </g>
    </g>
    <g id="xtick_4">
     <g id="text_4">
      <!-- 60 -->
      <g style="fill: #262626" transform="translate(332.642322 271.306625)scale(0.088 -0.088)">
       <defs>
        <path id="DejaVuSans-36" d="M 2113 2584 
Q 1688 2584 1439 2293 
Q 1191 2003 1191 1497 
Q 1191 994 1439 701 
Q 1688 409 2113 409 
Q 2538 409 2786 701 
Q 3034 994 3034 1497 
Q 3034 2003 2786 2293 
Q 2538 2584 2113 2584 
z
M 3366 4563 
L 3366 3988 
Q 3128 4100 2886 4159 
Q 2644 4219 2406 4219 
Q 1781 4219 1451 3797 
Q 1122 3375 1075 2522 
Q 1259 2794 1537 2939 
Q 1816 3084 2150 3084 
Q 2853 3084 3261 2657 
Q 3669 2231 3669 1497 
Q 3669 778 3244 343 
Q 2819 -91 2113 -91 
Q 1303 -91 875 529 
Q 447 1150 447 2328 
Q 447 3434 972 4092 
Q 1497 4750 2381 4750 
Q 2619 4750 2861 4703 
Q 3103 4656 3366 4563 
z
" transform="scale(0.015625)"/>
       </defs>
       <use xlink:href="#DejaVuSans-36"/>
       <use xlink:href="#DejaVuSans-30" x="63.623047"/>
      </g>
     </g>
    </g>
    <g id="xtick_5">
     <g id="text_5">
      <!-- 80 -->
      <g style="fill: #262626" transform="translate(414.625793 271.306625)scale(0.088 -0.088)">
       <defs>
        <path id="DejaVuSans-38" d="M 2034 2216 
Q 1584 2216 1326 1975 
Q 1069 1734 1069 1313 
Q 1069 891 1326 650 
Q 1584 409 2034 409 
Q 2484 409 2743 651 
Q 3003 894 3003 1313 
Q 3003 1734 2745 1975 
Q 2488 2216 2034 2216 
z
M 1403 2484 
Q 997 2584 770 2862 
Q 544 3141 544 3541 
Q 544 4100 942 4425 
Q 1341 4750 2034 4750 
Q 2731 4750 3128 4425 
Q 3525 4100 3525 3541 
Q 3525 3141 3298 2862 
Q 3072 2584 2669 2484 
Q 3125 2378 3379 2068 
Q 3634 1759 3634 1313 
Q 3634 634 3220 271 
Q 2806 -91 2034 -91 
Q 1263 -91 848 271 
Q 434 634 434 1313 
Q 434 1759 690 2068 
Q 947 2378 1403 2484 
z
M 1172 3481 
Q 1172 3119 1398 2916 
Q 1625 2713 2034 2713 
Q 2441 2713 2670 2916 
Q 2900 3119 2900 3481 
Q 2900 3844 2670 4047 
Q 2441 4250 2034 4250 
Q 1625 4250 1398 4047 
Q 1172 3844 1172 3481 
z
" transform="scale(0.015625)"/>
       </defs>
       <use xlink:href="#DejaVuSans-38"/>
       <use xlink:href="#DejaVuSans-30" x="63.623047"/>
      </g>
     </g>
    </g>
    <g id="xtick_6">
     <g id="text_6">
      <!-- 100 -->
      <g style="fill: #262626" transform="translate(493.809764 271.306625)scale(0.088 -0.088)">
       <defs>
        <path id="DejaVuSans-31" d="M 794 531 
L 1825 531 
L 1825 4091 
L 703 3866 
L 703 4441 
L 1819 4666 
L 2450 4666 
L 2450 531 
L 3481 531 
L 3481 0 
L 794 0 
L 794 531 
z
" transform="scale(0.015625)"/>
       </defs>
       <use xlink:href="#DejaVuSans-31"/>
       <use xlink:href="#DejaVuSans-30" x="63.623047"/>
       <use xlink:href="#DejaVuSans-30" x="127.246094"/>
      </g>
     </g>
    </g>
    <g id="text_7">
     <!-- epochs -->
     <g style="fill: #262626" transform="translate(278.0805 284.43125)scale(0.096 -0.096)">
      <defs>
       <path id="DejaVuSans-65" d="M 3597 1894 
L 3597 1613 
L 953 1613 
Q 991 1019 1311 708 
Q 1631 397 2203 397 
Q 2534 397 2845 478 
Q 3156 559 3463 722 
L 3463 178 
Q 3153 47 2828 -22 
Q 2503 -91 2169 -91 
Q 1331 -91 842 396 
Q 353 884 353 1716 
Q 353 2575 817 3079 
Q 1281 3584 2069 3584 
Q 2775 3584 3186 3129 
Q 3597 2675 3597 1894 
z
M 3022 2063 
Q 3016 2534 2758 2815 
Q 2500 3097 2075 3097 
Q 1594 3097 1305 2825 
Q 1016 2553 972 2059 
L 3022 2063 
z
" transform="scale(0.015625)"/>
       <path id="DejaVuSans-70" d="M 1159 525 
L 1159 -1331 
L 581 -1331 
L 581 3500 
L 1159 3500 
L 1159 2969 
Q 1341 3281 1617 3432 
Q 1894 3584 2278 3584 
Q 2916 3584 3314 3078 
Q 3713 2572 3713 1747 
Q 3713 922 3314 415 
Q 2916 -91 2278 -91 
Q 1894 -91 1617 61 
Q 1341 213 1159 525 
z
M 3116 1747 
Q 3116 2381 2855 2742 
Q 2594 3103 2138 3103 
Q 1681 3103 1420 2742 
Q 1159 2381 1159 1747 
Q 1159 1113 1420 752 
Q 1681 391 2138 391 
Q 2594 391 2855 752 
Q 3116 1113 3116 1747 
z
" transform="scale(0.015625)"/>
       <path id="DejaVuSans-6f" d="M 1959 3097 
Q 1497 3097 1228 2736 
Q 959 2375 959 1747 
Q 959 1119 1226 758 
Q 1494 397 1959 397 
Q 2419 397 2687 759 
Q 2956 1122 2956 1747 
Q 2956 2369 2687 2733 
Q 2419 3097 1959 3097 
z
M 1959 3584 
Q 2709 3584 3137 3096 
Q 3566 2609 3566 1747 
Q 3566 888 3137 398 
Q 2709 -91 1959 -91 
Q 1206 -91 779 398 
Q 353 888 353 1747 
Q 353 2609 779 3096 
Q 1206 3584 1959 3584 
z
" transform="scale(0.015625)"/>
       <path id="DejaVuSans-63" d="M 3122 3366 
L 3122 2828 
Q 2878 2963 2633 3030 
Q 2388 3097 2138 3097 
Q 1578 3097 1268 2742 
Q 959 2388 959 1747 
Q 959 1106 1268 751 
Q 1578 397 2138 397 
Q 2388 397 2633 464 
Q 2878 531 3122 666 
L 3122 134 
Q 2881 22 2623 -34 
Q 2366 -91 2075 -91 
Q 1284 -91 818 406 
Q 353 903 353 1747 
Q 353 2603 823 3093 
Q 1294 3584 2113 3584 
Q 2378 3584 2631 3529 
Q 2884 3475 3122 3366 
z
" transform="scale(0.015625)"/>
       <path id="DejaVuSans-68" d="M 3513 2113 
L 3513 0 
L 2938 0 
L 2938 2094 
Q 2938 2591 2744 2837 
Q 2550 3084 2163 3084 
Q 1697 3084 1428 2787 
Q 1159 2491 1159 1978 
L 1159 0 
L 581 0 
L 581 4863 
L 1159 4863 
L 1159 2956 
Q 1366 3272 1645 3428 
Q 1925 3584 2291 3584 
Q 2894 3584 3203 3211 
Q 3513 2838 3513 2113 
z
" transform="scale(0.015625)"/>
       <path id="DejaVuSans-73" d="M 2834 3397 
L 2834 2853 
Q 2591 2978 2328 3040 
Q 2066 3103 1784 3103 
Q 1356 3103 1142 2972 
Q 928 2841 928 2578 
Q 928 2378 1081 2264 
Q 1234 2150 1697 2047 
L 1894 2003 
Q 2506 1872 2764 1633 
Q 3022 1394 3022 966 
Q 3022 478 2636 193 
Q 2250 -91 1575 -91 
Q 1294 -91 989 -36 
Q 684 19 347 128 
L 347 722 
Q 666 556 975 473 
Q 1284 391 1588 391 
Q 1994 391 2212 530 
Q 2431 669 2431 922 
Q 2431 1156 2273 1281 
Q 2116 1406 1581 1522 
L 1381 1569 
Q 847 1681 609 1914 
Q 372 2147 372 2553 
Q 372 3047 722 3315 
Q 1072 3584 1716 3584 
Q 2034 3584 2315 3537 
Q 2597 3491 2834 3397 
z
" transform="scale(0.015625)"/>
      </defs>
      <use xlink:href="#DejaVuSans-65"/>
      <use xlink:href="#DejaVuSans-70" x="61.523438"/>
      <use xlink:href="#DejaVuSans-6f" x="125"/>
      <use xlink:href="#DejaVuSans-63" x="186.181641"/>
      <use xlink:href="#DejaVuSans-68" x="241.162109"/>
      <use xlink:href="#DejaVuSans-73" x="304.541016"/>
     </g>
    </g>
   </g>
   <g id="matplotlib.axis_2">
    <g id="ytick_1">
     <g id="text_8">
      <!-- 0.0 -->
      <g style="fill: #262626" transform="translate(49.70525 249.664857)scale(0.088 -0.088)">
       <defs>
        <path id="DejaVuSans-2e" d="M 684 794 
L 1344 794 
L 1344 0 
L 684 0 
L 684 794 
z
" transform="scale(0.015625)"/>
       </defs>
       <use xlink:href="#DejaVuSans-30"/>
       <use xlink:href="#DejaVuSans-2e" x="63.623047"/>
       <use xlink:href="#DejaVuSans-30" x="95.410156"/>
      </g>
     </g>
    </g>
    <g id="ytick_2">
     <g id="text_9">
      <!-- 0.5 -->
      <g style="fill: #262626" transform="translate(49.70525 200.451421)scale(0.088 -0.088)">
       <defs>
        <path id="DejaVuSans-35" d="M 691 4666 
L 3169 4666 
L 3169 4134 
L 1269 4134 
L 1269 2991 
Q 1406 3038 1543 3061 
Q 1681 3084 1819 3084 
Q 2600 3084 3056 2656 
Q 3513 2228 3513 1497 
Q 3513 744 3044 326 
Q 2575 -91 1722 -91 
Q 1428 -91 1123 -41 
Q 819 9 494 109 
L 494 744 
Q 775 591 1075 516 
Q 1375 441 1709 441 
Q 2250 441 2565 725 
Q 2881 1009 2881 1497 
Q 2881 1984 2565 2268 
Q 2250 2553 1709 2553 
Q 1456 2553 1204 2497 
Q 953 2441 691 2322 
L 691 4666 
z
" transform="scale(0.015625)"/>
       </defs>
       <use xlink:href="#DejaVuSans-30"/>
       <use xlink:href="#DejaVuSans-2e" x="63.623047"/>
       <use xlink:href="#DejaVuSans-35" x="95.410156"/>
      </g>
     </g>
    </g>
    <g id="ytick_3">
     <g id="text_10">
      <!-- 1.0 -->
      <g style="fill: #262626" transform="translate(49.70525 151.237986)scale(0.088 -0.088)">
       <use xlink:href="#DejaVuSans-31"/>
       <use xlink:href="#DejaVuSans-2e" x="63.623047"/>
       <use xlink:href="#DejaVuSans-30" x="95.410156"/>
      </g>
     </g>
    </g>
    <g id="ytick_4">
     <g id="text_11">
      <!-- 1.5 -->
      <g style="fill: #262626" transform="translate(49.70525 102.024551)scale(0.088 -0.088)">
       <use xlink:href="#DejaVuSans-31"/>
       <use xlink:href="#DejaVuSans-2e" x="63.623047"/>
       <use xlink:href="#DejaVuSans-35" x="95.410156"/>
      </g>
     </g>
    </g>
    <g id="ytick_5">
     <g id="text_12">
      <!-- 2.0 -->
      <g style="fill: #262626" transform="translate(49.70525 52.811115)scale(0.088 -0.088)">
       <use xlink:href="#DejaVuSans-32"/>
       <use xlink:href="#DejaVuSans-2e" x="63.623047"/>
       <use xlink:href="#DejaVuSans-30" x="95.410156"/>
      </g>
     </g>
    </g>
    <g id="text_13">
     <!-- loss -->
     <g style="fill: #262626" transform="translate(43.70875 154.7115)rotate(-90)scale(0.096 -0.096)">
      <defs>
       <path id="DejaVuSans-6c" d="M 603 4863 
L 1178 4863 
L 1178 0 
L 603 0 
L 603 4863 
z
" transform="scale(0.015625)"/>
      </defs>
      <use xlink:href="#DejaVuSans-6c"/>
      <use xlink:href="#DejaVuSans-6f" x="27.783203"/>
      <use xlink:href="#DejaVuSans-73" x="88.964844"/>
      <use xlink:href="#DejaVuSans-73" x="141.064453"/>
     </g>
    </g>
   </g>
   <g id="line2d_1">
    <path d="M 92.290909 246.203624 
L 96.390083 246.101906 
L 100.489256 246.164764 
L 104.58843 246.013265 
L 108.687603 244.991998 
L 112.786777 244.349011 
L 116.88595 243.454825 
L 120.985124 243.272147 
L 125.084298 243.480086 
L 129.183471 243.494995 
L 133.282645 243.572749 
L 137.381818 243.401848 
L 141.480992 243.083713 
L 145.580165 242.703519 
L 149.679339 242.16593 
L 153.778512 241.982731 
L 157.877686 241.020261 
L 161.97686 239.924082 
L 166.076033 239.213316 
L 170.175207 238.878126 
L 174.27438 237.939465 
L 178.373554 237.78839 
L 182.472727 237.360239 
L 186.571901 236.985866 
L 190.671074 236.99728 
L 194.770248 236.438319 
L 198.869421 235.908172 
L 202.968595 235.501753 
L 207.067769 235.004996 
L 211.166942 234.746222 
L 215.266116 234.304732 
L 219.365289 233.86578 
L 223.464463 234.385503 
L 227.563636 232.970993 
L 231.66281 233.161386 
L 235.761983 233.354765 
L 239.861157 233.643233 
L 243.960331 233.381386 
L 248.059504 232.747055 
L 252.158678 233.071701 
L 256.257851 232.736902 
L 260.357025 232.094846 
L 264.456198 232.245581 
L 268.555372 231.870928 
L 272.654545 231.61778 
L 276.753719 231.621016 
L 280.852893 230.97383 
L 284.952066 230.750566 
L 289.05124 230.890449 
L 293.150413 230.802263 
L 297.249587 230.248456 
L 301.34876 229.755812 
L 305.447934 230.075838 
L 309.547107 229.438514 
L 313.646281 229.310261 
L 317.745455 229.224056 
L 321.844628 229.09676 
L 325.943802 229.173914 
L 330.042975 228.731666 
L 334.142149 228.381647 
L 338.241322 228.234074 
L 342.340496 228.245887 
L 346.439669 228.430285 
L 350.538843 227.921861 
L 354.638017 228.051069 
L 358.73719 227.603519 
L 362.836364 227.79655 
L 366.935537 227.444573 
L 371.034711 227.286057 
L 375.133884 227.220279 
L 379.233058 226.664995 
L 383.332231 226.259164 
L 387.431405 226.947447 
L 391.530579 227.20309 
L 395.629752 226.168793 
L 399.728926 226.245237 
L 403.828099 226.086679 
L 407.927273 226.027005 
L 412.026446 225.776806 
L 416.12562 226.273969 
L 420.224793 225.45413 
L 424.323967 225.504866 
L 428.42314 225.064083 
L 432.522314 224.661046 
L 436.621488 225.11618 
L 440.720661 225.548101 
L 444.819835 224.759701 
L 448.919008 224.441069 
L 453.018182 224.704736 
L 457.117355 224.185365 
L 461.216529 223.853694 
L 465.315702 224.089974 
L 469.414876 224.030823 
L 473.51405 223.844537 
L 477.613223 223.961111 
L 481.712397 223.081325 
L 485.81157 222.703129 
L 489.910744 222.570007 
L 494.009917 222.589627 
L 498.109091 222.248246 
" clip-path="url(#p61739a58ad)" style="fill: none; stroke: #1e90ff; stroke-width: 1.2; stroke-linecap: round"/>
   </g>
   <g id="line2d_2">
    <path d="M 92.290909 246.216574 
L 96.390083 246.22655 
L 100.489256 246.24 
L 104.58843 246.118154 
L 108.687603 244.78693 
L 112.786777 242.916974 
L 116.88595 239.906664 
L 120.985124 237.215256 
L 125.084298 237.343697 
L 129.183471 237.711726 
L 133.282645 237.310488 
L 137.381818 236.68678 
L 141.480992 236.220482 
L 145.580165 235.341796 
L 149.679339 234.22912 
L 153.778512 233.340925 
L 157.877686 232.506435 
L 161.97686 230.836601 
L 166.076033 229.729534 
L 170.175207 228.372483 
L 174.27438 227.575047 
L 178.373554 227.190904 
L 182.472727 227.66246 
L 186.571901 226.787262 
L 190.671074 226.261325 
L 194.770248 226.166816 
L 198.869421 225.78557 
L 202.968595 224.934913 
L 207.067769 224.943304 
L 211.166942 224.452162 
L 215.266116 223.903334 
L 219.365289 223.914975 
L 223.464463 224.424953 
L 227.563636 223.665781 
L 231.66281 223.495216 
L 235.761983 224.187259 
L 239.861157 224.305403 
L 243.960331 223.520057 
L 248.059504 223.44832 
L 252.158678 222.951536 
L 256.257851 222.238776 
L 260.357025 222.72349 
L 264.456198 223.057599 
L 268.555372 222.740879 
L 272.654545 222.331753 
L 276.753719 221.78344 
L 280.852893 222.145063 
L 284.952066 221.852806 
L 289.05124 221.627709 
L 293.150413 221.672259 
L 297.249587 221.85959 
L 301.34876 221.322207 
L 305.447934 220.78974 
L 309.547107 220.869633 
L 313.646281 221.106721 
L 317.745455 220.760941 
L 321.844628 220.300138 
L 325.943802 220.401468 
L 330.042975 220.116304 
L 334.142149 221.024289 
L 338.241322 220.311768 
L 342.340496 219.916651 
L 346.439669 219.583857 
L 350.538843 219.633151 
L 354.638017 219.586627 
L 358.73719 219.672417 
L 362.836364 219.419186 
L 366.935537 219.783289 
L 371.034711 219.529013 
L 375.133884 219.235467 
L 379.233058 218.646286 
L 383.332231 219.420907 
L 387.431405 218.348505 
L 391.530579 219.1815 
L 395.629752 218.984945 
L 399.728926 218.823089 
L 403.828099 218.941335 
L 407.927273 218.345079 
L 412.026446 218.346389 
L 416.12562 218.749343 
L 420.224793 218.582833 
L 424.323967 217.891099 
L 428.42314 217.990656 
L 432.522314 218.057367 
L 436.621488 217.765972 
L 440.720661 217.772097 
L 444.819835 218.130777 
L 448.919008 217.660249 
L 453.018182 217.877598 
L 457.117355 217.224906 
L 461.216529 217.022187 
L 465.315702 217.36055 
L 469.414876 218.04517 
L 473.51405 217.746756 
L 477.613223 216.939462 
L 481.712397 217.528187 
L 485.81157 216.666956 
L 489.910744 217.013377 
L 494.009917 217.219544 
L 498.109091 217.558366 
" clip-path="url(#p61739a58ad)" style="fill: none; stroke-dasharray: 4.44,1.92; stroke-dashoffset: 0; stroke: #1e90ff; stroke-width: 1.2"/>
   </g>
   <g id="line2d_3">
    <path d="M 92.290909 46.197011 
L 96.390083 47.180916 
L 100.489256 47.392667 
L 104.58843 47.865115 
L 108.687603 47.91038 
L 112.786777 47.705945 
L 116.88595 47.321306 
L 120.985124 47.004112 
L 125.084298 47.188429 
L 129.183471 46.952918 
L 133.282645 46.197839 
L 137.381818 46.45028 
L 141.480992 47.509033 
L 145.580165 46.993322 
L 149.679339 47.251285 
L 153.778512 47.001748 
L 157.877686 46.766267 
L 161.97686 46.552612 
L 166.076033 46.54701 
L 170.175207 45.803222 
L 174.27438 45.910116 
L 178.373554 46.13643 
L 182.472727 45.328265 
L 186.571901 44.64 
L 190.671074 44.888999 
L 194.770248 45.280791 
L 198.869421 45.350134 
L 202.968595 45.88586 
L 207.067769 46.257472 
L 211.166942 46.693088 
L 215.266116 47.199542 
L 219.365289 47.407959 
L 223.464463 47.120389 
L 227.563636 48.156454 
L 231.66281 47.876785 
L 235.761983 47.397116 
L 239.861157 47.608502 
L 243.960331 47.910055 
L 248.059504 48.46595 
L 252.158678 48.51227 
L 256.257851 48.706865 
L 260.357025 49.202329 
L 264.456198 48.996684 
L 268.555372 49.661261 
L 272.654545 49.752194 
L 276.753719 50.322949 
L 280.852893 50.499278 
L 284.952066 51.233753 
L 289.05124 50.890417 
L 293.150413 50.845984 
L 297.249587 51.671152 
L 301.34876 52.565719 
L 305.447934 51.874436 
L 309.547107 52.516076 
L 313.646281 52.854494 
L 317.745455 53.023375 
L 321.844628 53.4469 
L 325.943802 53.095226 
L 330.042975 53.483593 
L 334.142149 53.735629 
L 338.241322 53.637362 
L 342.340496 53.78391 
L 346.439669 54.130636 
L 350.538843 54.828177 
L 354.638017 54.052617 
L 358.73719 54.938109 
L 362.836364 54.988608 
L 366.935537 54.904586 
L 371.034711 55.288545 
L 375.133884 55.20202 
L 379.233058 55.676369 
L 383.332231 56.445047 
L 387.431405 55.815425 
L 391.530579 55.420002 
L 395.629752 56.126562 
L 399.728926 56.249725 
L 403.828099 56.437405 
L 407.927273 57.270776 
L 412.026446 56.913667 
L 416.12562 56.23419 
L 420.224793 57.028656 
L 424.323967 56.965038 
L 428.42314 57.686665 
L 432.522314 58.039232 
L 436.621488 57.883984 
L 440.720661 57.285258 
L 444.819835 57.992193 
L 448.919008 58.274012 
L 453.018182 58.098252 
L 457.117355 58.62794 
L 461.216529 59.237759 
L 465.315702 58.945009 
L 469.414876 58.857293 
L 473.51405 58.923375 
L 477.613223 59.138998 
L 481.712397 60.128719 
L 485.81157 60.535029 
L 489.910744 60.350282 
L 494.009917 60.714121 
L 498.109091 60.862607 
" clip-path="url(#p61739a58ad)" style="fill: none; stroke: #ff8c00; stroke-width: 1.2; stroke-linecap: round"/>
   </g>
   <g id="patch_3">
    <path d="M 72 256.32 
L 72 34.56 
" style="fill: none; stroke: #262626; stroke-linejoin: miter; stroke-linecap: square"/>
   </g>
   <g id="patch_4">
    <path d="M 518.4 256.32 
L 518.4 34.56 
" style="fill: none; stroke: #262626; stroke-linejoin: miter; stroke-linecap: square"/>
   </g>
   <g id="patch_5">
    <path d="M 72 256.32 
L 518.4 256.32 
" style="fill: none; stroke: #262626; stroke-linejoin: miter; stroke-linecap: square"/>
   </g>
   <g id="patch_6">
    <path d="M 72 34.56 
L 518.4 34.56 
" style="fill: none; stroke: #262626; stroke-linejoin: miter; stroke-linecap: square"/>
   </g>
   <g id="legend_1">
    <g id="patch_7">
     <path d="M 434.0135 81.0845 
L 512.24 81.0845 
Q 514 81.0845 514 79.3245 
L 514 40.72 
Q 514 38.96 512.24 38.96 
L 434.0135 38.96 
Q 432.2535 38.96 432.2535 40.72 
L 432.2535 79.3245 
Q 432.2535 81.0845 434.0135 81.0845 
z
" style="fill: #ffffff; opacity: 0.8; stroke: #cccccc; stroke-width: 0.8; stroke-linejoin: miter"/>
    </g>
    <g id="line2d_4">
     <path d="M 435.7735 46.086625 
L 444.5735 46.086625 
L 453.3735 46.086625 
" style="fill: none; stroke: #1e90ff; stroke-width: 1.2; stroke-linecap: round"/>
    </g>
    <g id="text_14">
     <!-- c_loss_fake -->
     <g style="fill: #262626" transform="translate(460.4135 49.166625)scale(0.088 -0.088)">
      <defs>
       <path id="DejaVuSans-5f" d="M 3263 -1063 
L 3263 -1509 
L -63 -1509 
L -63 -1063 
L 3263 -1063 
z
" transform="scale(0.015625)"/>
       <path id="DejaVuSans-66" d="M 2375 4863 
L 2375 4384 
L 1825 4384 
Q 1516 4384 1395 4259 
Q 1275 4134 1275 3809 
L 1275 3500 
L 2222 3500 
L 2222 3053 
L 1275 3053 
L 1275 0 
L 697 0 
L 697 3053 
L 147 3053 
L 147 3500 
L 697 3500 
L 697 3744 
Q 697 4328 969 4595 
Q 1241 4863 1831 4863 
L 2375 4863 
z
" transform="scale(0.015625)"/>
       <path id="DejaVuSans-61" d="M 2194 1759 
Q 1497 1759 1228 1600 
Q 959 1441 959 1056 
Q 959 750 1161 570 
Q 1363 391 1709 391 
Q 2188 391 2477 730 
Q 2766 1069 2766 1631 
L 2766 1759 
L 2194 1759 
z
M 3341 1997 
L 3341 0 
L 2766 0 
L 2766 531 
Q 2569 213 2275 61 
Q 1981 -91 1556 -91 
Q 1019 -91 701 211 
Q 384 513 384 1019 
Q 384 1609 779 1909 
Q 1175 2209 1959 2209 
L 2766 2209 
L 2766 2266 
Q 2766 2663 2505 2880 
Q 2244 3097 1772 3097 
Q 1472 3097 1187 3025 
Q 903 2953 641 2809 
L 641 3341 
Q 956 3463 1253 3523 
Q 1550 3584 1831 3584 
Q 2591 3584 2966 3190 
Q 3341 2797 3341 1997 
z
" transform="scale(0.015625)"/>
       <path id="DejaVuSans-6b" d="M 581 4863 
L 1159 4863 
L 1159 1991 
L 2875 3500 
L 3609 3500 
L 1753 1863 
L 3688 0 
L 2938 0 
L 1159 1709 
L 1159 0 
L 581 0 
L 581 4863 
z
" transform="scale(0.015625)"/>
      </defs>
      <use xlink:href="#DejaVuSans-63"/>
      <use xlink:href="#DejaVuSans-5f" x="54.980469"/>
      <use xlink:href="#DejaVuSans-6c" x="104.980469"/>
      <use xlink:href="#DejaVuSans-6f" x="132.763672"/>
      <use xlink:href="#DejaVuSans-73" x="193.945312"/>
      <use xlink:href="#DejaVuSans-73" x="246.044922"/>
      <use xlink:href="#DejaVuSans-5f" x="298.144531"/>
      <use xlink:href="#DejaVuSans-66" x="348.144531"/>
      <use xlink:href="#DejaVuSans-61" x="383.349609"/>
      <use xlink:href="#DejaVuSans-6b" x="444.628906"/>
      <use xlink:href="#DejaVuSans-65" x="498.914062"/>
     </g>
    </g>
    <g id="line2d_5">
     <path d="M 435.7735 59.248125 
L 444.5735 59.248125 
L 453.3735 59.248125 
" style="fill: none; stroke-dasharray: 4.44,1.92; stroke-dashoffset: 0; stroke: #1e90ff; stroke-width: 1.2"/>
    </g>
    <g id="text_15">
     <!-- c_loss_real -->
     <g style="fill: #262626" transform="translate(460.4135 62.328125)scale(0.088 -0.088)">
      <defs>
       <path id="DejaVuSans-72" d="M 2631 2963 
Q 2534 3019 2420 3045 
Q 2306 3072 2169 3072 
Q 1681 3072 1420 2755 
Q 1159 2438 1159 1844 
L 1159 0 
L 581 0 
L 581 3500 
L 1159 3500 
L 1159 2956 
Q 1341 3275 1631 3429 
Q 1922 3584 2338 3584 
Q 2397 3584 2469 3576 
Q 2541 3569 2628 3553 
L 2631 2963 
z
" transform="scale(0.015625)"/>
      </defs>
      <use xlink:href="#DejaVuSans-63"/>
      <use xlink:href="#DejaVuSans-5f" x="54.980469"/>
      <use xlink:href="#DejaVuSans-6c" x="104.980469"/>
      <use xlink:href="#DejaVuSans-6f" x="132.763672"/>
      <use xlink:href="#DejaVuSans-73" x="193.945312"/>
      <use xlink:href="#DejaVuSans-73" x="246.044922"/>
      <use xlink:href="#DejaVuSans-5f" x="298.144531"/>
      <use xlink:href="#DejaVuSans-72" x="348.144531"/>
      <use xlink:href="#DejaVuSans-65" x="387.007812"/>
      <use xlink:href="#DejaVuSans-61" x="448.53125"/>
      <use xlink:href="#DejaVuSans-6c" x="509.810547"/>
     </g>
    </g>
    <g id="line2d_6">
     <path d="M 435.7735 72.409625 
L 444.5735 72.409625 
L 453.3735 72.409625 
" style="fill: none; stroke: #ff8c00; stroke-width: 1.2; stroke-linecap: round"/>
    </g>
    <g id="text_16">
     <!-- g_loss_fake -->
     <g style="fill: #262626" transform="translate(460.4135 75.489625)scale(0.088 -0.088)">
      <defs>
       <path id="DejaVuSans-67" d="M 2906 1791 
Q 2906 2416 2648 2759 
Q 2391 3103 1925 3103 
Q 1463 3103 1205 2759 
Q 947 2416 947 1791 
Q 947 1169 1205 825 
Q 1463 481 1925 481 
Q 2391 481 2648 825 
Q 2906 1169 2906 1791 
z
M 3481 434 
Q 3481 -459 3084 -895 
Q 2688 -1331 1869 -1331 
Q 1566 -1331 1297 -1286 
Q 1028 -1241 775 -1147 
L 775 -588 
Q 1028 -725 1275 -790 
Q 1522 -856 1778 -856 
Q 2344 -856 2625 -561 
Q 2906 -266 2906 331 
L 2906 616 
Q 2728 306 2450 153 
Q 2172 0 1784 0 
Q 1141 0 747 490 
Q 353 981 353 1791 
Q 353 2603 747 3093 
Q 1141 3584 1784 3584 
Q 2172 3584 2450 3431 
Q 2728 3278 2906 2969 
L 2906 3500 
L 3481 3500 
L 3481 434 
z
" transform="scale(0.015625)"/>
      </defs>
      <use xlink:href="#DejaVuSans-67"/>
      <use xlink:href="#DejaVuSans-5f" x="63.476562"/>
      <use xlink:href="#DejaVuSans-6c" x="113.476562"/>
      <use xlink:href="#DejaVuSans-6f" x="141.259766"/>
      <use xlink:href="#DejaVuSans-73" x="202.441406"/>
      <use xlink:href="#DejaVuSans-73" x="254.541016"/>
      <use xlink:href="#DejaVuSans-5f" x="306.640625"/>
      <use xlink:href="#DejaVuSans-66" x="356.640625"/>
      <use xlink:href="#DejaVuSans-61" x="391.845703"/>
      <use xlink:href="#DejaVuSans-6b" x="453.125"/>
      <use xlink:href="#DejaVuSans-65" x="507.410156"/>
     </g>
    </g>
   </g>
  </g>
 </g>
 <defs>
  <clipPath id="p61739a58ad">
   <rect x="72" y="34.56" width="446.4" height="221.76"/>
  </clipPath>
 </defs>
</svg>
